<svg xmlns="http://www.w3.org/2000/svg" xmlns:xlink="http://www.w3.org/1999/xlink" version="1.1" x="0" y="0" height="50" width="800" viewBox="0 0 800 50" preserveAspectRatio="none"  >
<g label="Query sequence" class="clusterblast-cluster"  >
<text x="5" y="20" class="clusterblast-acc"  >
Query sequence</text>
<line x1="10" y1="35" x2="778.0" y2="35" style="stroke-width:1; stroke:grey; "  />
<polygon points="0,35 5,30 10,30 10,40 5,40 0,35 " style="fill:white; stroke-width:1; stroke:black; " description="&lt;b&gt;ctg29_52&lt;/b&gt;&lt;br&gt;ctg29 52&lt;br&gt;Location: 54022 - 54283" locus_tag="ctg29_52" class="clusterblast-orf" id="knownclusterblast-1_q0_0_all"  />
<polygon points="18,40 77,40 82,35 77,30 18,30 18,40 " style="fill:white; stroke-width:1; stroke:black; " description="&lt;b&gt;ctg29_53&lt;/b&gt;&lt;br&gt;ctg29 53&lt;br&gt;Location: 54495 - 56214" locus_tag="ctg29_53" class="clusterblast-orf" id="knownclusterblast-1_q1_0_all"  />
<polygon points="82,35 87,30 97,30 97,40 87,40 82,35 " style="fill:white; stroke-width:1; stroke:black; " description="&lt;b&gt;ctg29_54&lt;/b&gt;&lt;br&gt;ctg29 54&lt;br&gt;Location: 56220 - 56616" locus_tag="ctg29_54" class="clusterblast-orf" id="knownclusterblast-1_q2_0_all"  />
<polygon points="99,35 104,30 135,30 135,40 104,40 99,35 " style="fill:white; stroke-width:1; stroke:black; " description="&lt;b&gt;ctg29_55&lt;/b&gt;&lt;br&gt;ctg29 55&lt;br&gt;Location: 56678 - 57650" locus_tag="ctg29_55" class="clusterblast-orf" id="knownclusterblast-1_q3_0_all"  />
<polygon points="144,40 193,40 198,35 193,30 144,30 144,40 " style="fill:white; stroke-width:1; stroke:black; " description="&lt;b&gt;ctg29_56&lt;/b&gt;&lt;br&gt;ctg29 56&lt;br&gt;Location: 57884 - 59336" locus_tag="ctg29_56" class="clusterblast-orf" id="knownclusterblast-1_q4_0_all"  />
<polygon points="204,40 207,40 212,35 207,30 204,30 204,40 " style="fill:white; stroke-width:1; stroke:black; " description="&lt;b&gt;ctg29_57&lt;/b&gt;&lt;br&gt;ctg29 57&lt;br&gt;Location: 59475 - 59694" locus_tag="ctg29_57" class="clusterblast-orf" id="knownclusterblast-1_q5_0_all"  />
<polygon points="229,40 241,40 246,35 241,30 229,30 229,40 " style="fill:white; stroke-width:1; stroke:black; " description="&lt;b&gt;ctg29_58&lt;/b&gt;&lt;br&gt;ctg29 58&lt;br&gt;Location: 60163 - 60601" locus_tag="ctg29_58" class="clusterblast-orf" id="knownclusterblast-1_q6_0_all"  />
<polygon points="259,35 264,30 313,30 313,40 264,40 259,35 " style="fill:white; stroke-width:1; stroke:black; " description="&lt;b&gt;ctg29_59&lt;/b&gt;&lt;br&gt;ctg29 59&lt;br&gt;Location: 60961 - 62416" locus_tag="ctg29_59" class="clusterblast-orf" id="knownclusterblast-1_q7_0_all"  />
<polygon points="329,40 396,40 401,35 396,30 329,30 329,40 " style="fill:white; stroke-width:1; stroke:black; " description="&lt;b&gt;ctg29_60&lt;/b&gt;&lt;br&gt;ctg29 60&lt;br&gt;Location: 62845 - 64756" locus_tag="ctg29_60" class="clusterblast-orf" id="knownclusterblast-1_q8_0_all"  />
<polygon points="410,40 437,40 442,35 437,30 410,30 410,40 " style="fill:white; stroke-width:1; stroke:black; " description="&lt;b&gt;ctg29_61&lt;/b&gt;&lt;br&gt;ctg29 61&lt;br&gt;Location: 65008 - 65860" locus_tag="ctg29_61" class="clusterblast-orf" id="knownclusterblast-1_q9_0_all"  />
<polygon points="447,35 452,30 475,30 475,40 452,40 447,35 " style="fill:white; stroke-width:1; stroke:black; " description="&lt;b&gt;ctg29_62&lt;/b&gt;&lt;br&gt;ctg29 62&lt;br&gt;Location: 65999 - 66755" locus_tag="ctg29_62" class="clusterblast-orf" id="knownclusterblast-1_q10_0_all"  />
<polygon points="497,35 502,30 533,30 533,40 502,40 497,35 " style="fill:white; stroke-width:1; stroke:black; " description="&lt;b&gt;ctg29_63&lt;/b&gt;&lt;br&gt;ctg29 63&lt;br&gt;Location: 67320 - 68304" locus_tag="ctg29_63" class="clusterblast-orf" id="knownclusterblast-1_q11_0_all"  />
<polygon points="572,35 577,30 607,30 607,40 577,40 572,35 " style="fill:white; stroke-width:1; stroke:black; " description="&lt;b&gt;ctg29_64&lt;/b&gt;&lt;br&gt;ctg29 64&lt;br&gt;Location: 69327 - 70281" locus_tag="ctg29_64" class="clusterblast-orf" id="knownclusterblast-1_q12_0_all"  />
<polygon points="608,35 613,30 625,30 625,40 613,40 608,35 " style="fill:white; stroke-width:1; stroke:black; " description="&lt;b&gt;ctg29_65&lt;/b&gt;&lt;br&gt;ctg29 65&lt;br&gt;Location: 70306 - 70747" locus_tag="ctg29_65" class="clusterblast-orf" id="knownclusterblast-1_q13_0_all"  />
<polygon points="632,35 637,30 711,30 711,40 637,40 632,35 " style="fill:white; stroke-width:1; stroke:black; " description="&lt;b&gt;ctg29_66&lt;/b&gt;&lt;br&gt;ctg29 66&lt;br&gt;Location: 70954 - 73072" locus_tag="ctg29_66" class="clusterblast-orf" id="knownclusterblast-1_q14_0_all"  />
<polygon points="716,35 721,30 780,30 780,40 721,40 716,35 " style="fill:white; stroke-width:1; stroke:black; " description="&lt;b&gt;ctg29_67&lt;/b&gt;&lt;br&gt;ctg29 67&lt;br&gt;Location: 73195 - 74905" locus_tag="ctg29_67" class="clusterblast-orf" id="knownclusterblast-1_q15_0_all"  />
</g>
</svg>
