<svg xmlns="http://www.w3.org/2000/svg" xmlns:xlink="http://www.w3.org/1999/xlink" version="1.1" x="0" y="0" height="230" width="800" viewBox="0 0 800 230" preserveAspectRatio="none"  >
<g label="Query sequence" class="clusterblast-cluster"  >
<text x="5" y="20" class="clusterblast-acc"  >
Query sequence</text>
<line x1="10" y1="35" x2="778.0" y2="35" style="stroke-width:1; stroke:grey; "  />
<polygon points="0,35 5,30 11,30 11,40 5,40 0,35 " style="fill:white; stroke-width:1; stroke:black; " description="&lt;b&gt;ctg38_20&lt;/b&gt;&lt;br&gt;ctg38 20&lt;br&gt;Location: 16305 - 16866" locus_tag="ctg38_20" class="clusterblast-orf" id="dummy-1_q0_0_all"  />
<polygon points="14,35 19,30 83,30 83,40 19,40 14,35 " style="fill:white; stroke-width:1; stroke:black; " description="&lt;b&gt;ctg38_21&lt;/b&gt;&lt;br&gt;ctg38 21&lt;br&gt;Location: 17036 - 20606" locus_tag="ctg38_21" class="clusterblast-orf" id="dummy-1_q1_0_all"  />
<polygon points="93,35 96,30 96,40 93,35 " style="fill:white; stroke-width:1; stroke:black; " description="&lt;b&gt;ctg38_22&lt;/b&gt;&lt;br&gt;ctg38 22&lt;br&gt;Location: 21088 - 21238" locus_tag="ctg38_22" class="clusterblast-orf" id="dummy-1_q2_0_all"  />
<polygon points="100,35 105,30 107,30 107,40 105,40 100,35 " style="fill:white; stroke-width:1; stroke:black; " description="&lt;b&gt;ctg38_23&lt;/b&gt;&lt;br&gt;ctg38 23&lt;br&gt;Location: 21435 - 21834" locus_tag="ctg38_23" class="clusterblast-orf" id="dummy-1_q3_0_all"  />
<polygon points="107,35 112,30 120,30 120,40 112,40 107,35 " style="fill:white; stroke-width:1; stroke:black; " description="&lt;b&gt;ctg38_24&lt;/b&gt;&lt;br&gt;ctg38 24&lt;br&gt;Location: 21830 - 22484" locus_tag="ctg38_24" class="clusterblast-orf" id="dummy-1_q4_0_all"  />
<polygon points="122,40 129,40 134,35 129,30 122,30 122,40 " style="fill:white; stroke-width:1; stroke:black; " description="&lt;b&gt;ctg38_25&lt;/b&gt;&lt;br&gt;ctg38 25&lt;br&gt;Location: 22599 - 23205" locus_tag="ctg38_25" class="clusterblast-orf" id="dummy-1_q5_0_all"  />
<polygon points="135,40 143,40 148,35 143,30 135,30 135,40 " style="fill:white; stroke-width:1; stroke:black; " description="&lt;b&gt;ctg38_26&lt;/b&gt;&lt;br&gt;ctg38 26&lt;br&gt;Location: 23253 - 23916" locus_tag="ctg38_26" class="clusterblast-orf" id="dummy-1_q6_0_all"  />
<polygon points="147,35 152,30 162,30 162,40 152,40 147,35 " style="fill:white; stroke-width:1; stroke:black; " description="&lt;b&gt;ctg38_27&lt;/b&gt;&lt;br&gt;ctg38 27&lt;br&gt;Location: 23887 - 24655" locus_tag="ctg38_27" class="clusterblast-orf" id="dummy-1_q7_0_all"  />
<polygon points="167,40 182,40 187,35 182,30 167,30 167,40 " style="fill:white; stroke-width:1; stroke:black; " description="&lt;b&gt;ctg38_28&lt;/b&gt;&lt;br&gt;ctg38 28&lt;br&gt;Location: 24911 - 25925" locus_tag="ctg38_28" class="clusterblast-orf" id="dummy-1_q8_0_all"  />
<polygon points="192,40 223,40 228,35 223,30 192,30 192,40 " style="fill:white; stroke-width:1; stroke:black; " description="&lt;b&gt;ctg38_29&lt;/b&gt;&lt;br&gt;ctg38 29&lt;br&gt;Location: 26176 - 28036" locus_tag="ctg38_29" class="clusterblast-orf" id="dummy-1_q9_0_all"  />
<polygon points="234,40 251,40 256,35 251,30 234,30 234,40 " style="fill:#d81515; stroke-width:1; stroke:black; " description="&lt;b&gt;ctg38_30&lt;/b&gt;&lt;br&gt;ctg38 30&lt;br&gt;Location: 28318 - 29458" locus_tag="ctg38_30" class="clusterblast-orf" id="dummy-1_q10_0_all"  />
<polygon points="258,40 276,40 281,35 276,30 258,30 258,40 " style="fill:white; stroke-width:1; stroke:black; " description="&lt;b&gt;ctg38_31&lt;/b&gt;&lt;br&gt;ctg38 31&lt;br&gt;Location: 29591 - 30746" locus_tag="ctg38_31" class="clusterblast-orf" id="dummy-1_q11_0_all"  />
<polygon points="281,40 291,40 296,35 291,30 281,30 281,40 " style="fill:#15d8d8; stroke-width:1; stroke:black; " description="&lt;b&gt;ctg38_32&lt;/b&gt;&lt;br&gt;ctg38 32&lt;br&gt;Location: 30773 - 31505" locus_tag="ctg38_32" class="clusterblast-orf" id="dummy-1_q12_0_all"  />
<polygon points="300,40 308,40 313,35 308,30 300,30 300,40 " style="fill:white; stroke-width:1; stroke:black; " description="&lt;b&gt;ctg38_33&lt;/b&gt;&lt;br&gt;ctg38 33&lt;br&gt;Location: 31726 - 32425" locus_tag="ctg38_33" class="clusterblast-orf" id="dummy-1_q13_0_all"  />
<polygon points="315,40 326,40 331,35 326,30 315,30 315,40 " style="fill:white; stroke-width:1; stroke:black; " description="&lt;b&gt;ctg38_34&lt;/b&gt;&lt;br&gt;ctg38 34&lt;br&gt;Location: 32494 - 33322" locus_tag="ctg38_34" class="clusterblast-orf" id="dummy-1_q14_0_all"  />
<polygon points="336,40 354,40 359,35 354,30 336,30 336,40 " style="fill:white; stroke-width:1; stroke:black; " description="&lt;b&gt;ctg38_35&lt;/b&gt;&lt;br&gt;ctg38 35&lt;br&gt;Location: 33561 - 34758" locus_tag="ctg38_35" class="clusterblast-orf" id="dummy-1_q15_0_all"  />
<polygon points="371,40 376,40 381,35 376,30 371,30 371,40 " style="fill:white; stroke-width:1; stroke:black; " description="&lt;b&gt;ctg38_36&lt;/b&gt;&lt;br&gt;ctg38 36&lt;br&gt;Location: 35360 - 35873" locus_tag="ctg38_36" class="clusterblast-orf" id="dummy-1_q16_0_all"  />
<polygon points="383,40 439,40 444,35 439,30 383,30 383,40 " style="fill:white; stroke-width:1; stroke:black; " description="&lt;b&gt;ctg38_37&lt;/b&gt;&lt;br&gt;ctg38 37&lt;br&gt;Location: 35985 - 39120" locus_tag="ctg38_37" class="clusterblast-orf" id="dummy-1_q17_0_all"  />
<polygon points="444,40 537,40 542,35 537,30 444,30 444,40 " style="fill:white; stroke-width:1; stroke:black; " description="&lt;b&gt;ctg38_38&lt;/b&gt;&lt;br&gt;ctg38 38&lt;br&gt;Location: 39125 - 44189" locus_tag="ctg38_38" class="clusterblast-orf" id="dummy-1_q18_0_all"  />
<polygon points="546,40 577,40 582,35 577,30 546,30 546,40 " style="fill:white; stroke-width:1; stroke:black; " description="&lt;b&gt;ctg38_39&lt;/b&gt;&lt;br&gt;ctg38 39&lt;br&gt;Location: 44350 - 46195" locus_tag="ctg38_39" class="clusterblast-orf" id="dummy-1_q19_0_all"  />
<polygon points="582,40 615,40 620,35 615,30 582,30 582,40 " style="fill:white; stroke-width:1; stroke:black; " description="&lt;b&gt;ctg38_40&lt;/b&gt;&lt;br&gt;ctg38 40&lt;br&gt;Location: 46231 - 48160" locus_tag="ctg38_40" class="clusterblast-orf" id="dummy-1_q20_0_all"  />
<polygon points="622,40 625,40 630,35 625,30 622,30 622,40 " style="fill:white; stroke-width:1; stroke:black; " description="&lt;b&gt;ctg38_41&lt;/b&gt;&lt;br&gt;ctg38 41&lt;br&gt;Location: 48253 - 48661" locus_tag="ctg38_41" class="clusterblast-orf" id="dummy-1_q21_0_all"  />
<polygon points="630,40 632,40 637,35 632,30 630,30 630,40 " style="fill:white; stroke-width:1; stroke:black; " description="&lt;b&gt;ctg38_42&lt;/b&gt;&lt;br&gt;ctg38 42&lt;br&gt;Location: 48710 - 49055" locus_tag="ctg38_42" class="clusterblast-orf" id="dummy-1_q22_0_all"  />
<polygon points="640,40 652,40 657,35 652,30 640,30 640,40 " style="fill:white; stroke-width:1; stroke:black; " description="&lt;b&gt;ctg38_43&lt;/b&gt;&lt;br&gt;ctg38 43&lt;br&gt;Location: 49179 - 50097" locus_tag="ctg38_43" class="clusterblast-orf" id="dummy-1_q23_0_all"  />
<polygon points="660,40 661,40 666,35 661,30 660,30 660,40 " style="fill:white; stroke-width:1; stroke:black; " description="&lt;b&gt;ctg38_44&lt;/b&gt;&lt;br&gt;ctg38 44&lt;br&gt;Location: 50237 - 50558" locus_tag="ctg38_44" class="clusterblast-orf" id="dummy-1_q24_0_all"  />
<polygon points="668,40 673,40 678,35 673,30 668,30 668,40 " style="fill:white; stroke-width:1; stroke:black; " description="&lt;b&gt;ctg38_45&lt;/b&gt;&lt;br&gt;ctg38 45&lt;br&gt;Location: 50646 - 51138" locus_tag="ctg38_45" class="clusterblast-orf" id="dummy-1_q25_0_all"  />
<polygon points="678,35 683,30 693,30 693,40 683,40 678,35 " style="fill:white; stroke-width:1; stroke:black; " description="&lt;b&gt;ctg38_46&lt;/b&gt;&lt;br&gt;ctg38 46&lt;br&gt;Location: 51174 - 51924" locus_tag="ctg38_46" class="clusterblast-orf" id="dummy-1_q26_0_all"  />
<polygon points="696,35 701,30 704,30 704,40 701,40 696,35 " style="fill:white; stroke-width:1; stroke:black; " description="&lt;b&gt;ctg38_47&lt;/b&gt;&lt;br&gt;ctg38 47&lt;br&gt;Location: 52095 - 52506" locus_tag="ctg38_47" class="clusterblast-orf" id="dummy-1_q27_0_all"  />
<polygon points="719,40 761,40 766,35 761,30 719,30 719,40 " style="fill:white; stroke-width:1; stroke:black; " description="&lt;b&gt;ctg38_48&lt;/b&gt;&lt;br&gt;ctg38 48&lt;br&gt;Location: 53266 - 55657" locus_tag="ctg38_48" class="clusterblast-orf" id="dummy-1_q28_0_all"  />
<polygon points="772,40 775,40 780,35 775,30 772,30 772,40 " style="fill:white; stroke-width:1; stroke:black; " description="&lt;b&gt;ctg38_49&lt;/b&gt;&lt;br&gt;ctg38 49&lt;br&gt;Location: 55960 - 56377" locus_tag="ctg38_49" class="clusterblast-orf" id="dummy-1_q29_0_all"  />
</g>
<g label="BGC0001526" description="BGC0001526_c1: bartolosides E / bartolosides F / bartolosides G / bartoloside... (20% of genes show similarity), Other" class="clusterblast-cluster"  >
<text x="5" y="70" class="clusterblast-acc"  >
<a xlink:href="https://mibig.secondarymetabolites.org/go/BGC0001526/1" target="_blank">BGC0001526</a>: bartolosides E / bartolosides F / bartolosides G / bartolosides H / bartolosides I / bartolosides J / bartolosides K (20% of genes show similarity), Other</text>
<line x1="10" y1="85" x2="778.0" y2="85" style="stroke-width:1; stroke:grey; "  />
</g>
<g id="a1_000"  >
<polygon points="249,85 254,80 282,80 282,90 254,90 249,85 " style="fill:white; stroke-width:1; stroke:black; " description="&lt;b&gt;AOH72619.1&lt;/b&gt;&lt;br&gt;glycosyltransferase&lt;br&gt;Location: 1 - 1674" locus_tag="AOH72619.1" class="clusterblast-orf" id="dummy-1_h1_1_0"  />
</g>
<g id="a1_001"  >
<polygon points="295,90 339,90 344,85 339,80 295,80 295,90 " style="fill:white; stroke-width:1; stroke:black; " description="&lt;b&gt;AOH72618.1&lt;/b&gt;&lt;br&gt;haemolysin-type calcium-binding repeat&lt;br&gt;Location: 2378 - 4873" locus_tag="AOH72618.1" class="clusterblast-orf" id="dummy-1_h1_1_1"  />
</g>
<g id="a1_002"  >
<polygon points="349,90 362,90 367,85 362,80 349,80 349,90 " style="fill:white; stroke-width:1; stroke:black; " description="&lt;b&gt;AOH72617.1&lt;/b&gt;&lt;br&gt;dialkylresorcinol-condensing enzyme&lt;br&gt;Location: 5103 - 6032" locus_tag="AOH72617.1" class="clusterblast-orf" id="dummy-1_h1_1_2"  />
</g>
<g id="a1_003"  >
<polygon points="369,90 386,90 391,85 386,80 369,80 369,90 " style="fill:white; stroke-width:1; stroke:black; " description="&lt;b&gt;AOH72616.1&lt;/b&gt;&lt;br&gt;dialkylresorcinol-condensing enzyme&lt;br&gt;Location: 6135 - 7286" locus_tag="AOH72616.1" class="clusterblast-orf" id="dummy-1_h1_1_3"  />
</g>
<g id="a1_004"  >
<polygon points="394,90 412,90 417,85 412,80 394,80 394,90 " style="fill:white; stroke-width:1; stroke:black; " description="&lt;b&gt;AOH72615.1&lt;/b&gt;&lt;br&gt;glycosyltransferase&lt;br&gt;Location: 7433 - 8629" locus_tag="AOH72615.1" class="clusterblast-orf" id="dummy-1_h1_1_4"  />
</g>
<g id="a1_005"  >
<polygon points="422,90 442,90 447,85 442,80 422,80 422,90 " style="fill:#d81515; stroke-width:1; stroke:black; " description="&lt;b&gt;AOH72614.1&lt;/b&gt;&lt;br&gt;DevB family protein&lt;br&gt;Location: 8890 - 10170&lt;br&gt;&lt;br&gt;&lt;b&gt;BlastP hit with ctg38_30&lt;/b&gt;&lt;br&gt;Percentage identity: 49&lt;br&gt;Percentage coverage: 44&lt;br&gt;BLAST bit score: 132&lt;br&gt;E-value: 1.3e-30" locus_tag="AOH72614.1" class="clusterblast-orf" id="dummy-1_h1_1_5"  />
</g>
<g id="a1_006"  >
<polygon points="452,90 468,90 473,85 468,80 452,80 452,90 " style="fill:white; stroke-width:1; stroke:black; " description="&lt;b&gt;AOH72613.1&lt;/b&gt;&lt;br&gt;DevC family protein&lt;br&gt;Location: 10428 - 11501" locus_tag="AOH72613.1" class="clusterblast-orf" id="dummy-1_h1_1_6"  />
</g>
<g id="a1_007"  >
<polygon points="474,90 482,90 487,85 482,80 474,80 474,90 " style="fill:#15d8d8; stroke-width:1; stroke:black; " description="&lt;b&gt;AOH72612.1&lt;/b&gt;&lt;br&gt;DevA family protein&lt;br&gt;Location: 11555 - 12232&lt;br&gt;&lt;br&gt;&lt;b&gt;BlastP hit with ctg38_32&lt;/b&gt;&lt;br&gt;Percentage identity: 61&lt;br&gt;Percentage coverage: 89&lt;br&gt;BLAST bit score: 263&lt;br&gt;E-value: 4.1e-70" locus_tag="AOH72612.1" class="clusterblast-orf" id="dummy-1_h1_1_7"  />
</g>
<g id="a1_008"  >
<polygon points="489,90 507,90 512,85 507,80 489,80 489,90 " style="fill:white; stroke-width:1; stroke:black; " description="&lt;b&gt;AOH72611.1&lt;/b&gt;&lt;br&gt;putative halogenase&lt;br&gt;Location: 12314 - 13522" locus_tag="AOH72611.1" class="clusterblast-orf" id="dummy-1_h1_1_8"  />
</g>
<g id="a1_009"  >
<polygon points="522,85 527,80 530,80 530,90 527,90 522,85 " style="fill:white; stroke-width:1; stroke:black; " description="&lt;b&gt;AOH72610.1&lt;/b&gt;&lt;br&gt;endonuclease&lt;br&gt;Location: 14028 - 14417" locus_tag="AOH72610.1" class="clusterblast-orf" id="dummy-1_h1_1_9"  />
</g>
</svg>
