<svg xmlns="http://www.w3.org/2000/svg" xmlns:xlink="http://www.w3.org/1999/xlink" version="1.1" x="0" y="0" height="230" width="800" viewBox="0 0 800 230" preserveAspectRatio="none"  >
<g label="Query sequence" class="clusterblast-cluster"  >
<text x="5" y="20" class="clusterblast-acc"  >
Query sequence</text>
<line x1="10" y1="35" x2="778.0" y2="35" style="stroke-width:1; stroke:grey; "  />
<polygon points="20,35 25,30 39,30 39,40 25,40 20,35 " style="fill:white; stroke-width:1; stroke:black; " description="&lt;b&gt;ctg25_18&lt;/b&gt;&lt;br&gt;ctg25 18&lt;br&gt;Location: 29371 - 30826" locus_tag="ctg25_18" class="clusterblast-orf" id="dummy-1_q0_0_all"  />
<polygon points="40,35 45,30 62,30 62,40 45,40 40,35 " style="fill:white; stroke-width:1; stroke:black; " description="&lt;b&gt;ctg25_19&lt;/b&gt;&lt;br&gt;ctg25 19&lt;br&gt;Location: 30934 - 32581" locus_tag="ctg25_19" class="clusterblast-orf" id="dummy-1_q1_0_all"  />
<polygon points="65,40 71,40 76,35 71,30 65,30 65,40 " style="fill:white; stroke-width:1; stroke:black; " description="&lt;b&gt;ctg25_20&lt;/b&gt;&lt;br&gt;ctg25 20&lt;br&gt;Location: 32828 - 33635" locus_tag="ctg25_20" class="clusterblast-orf" id="dummy-1_q2_0_all"  />
<polygon points="78,40 98,40 103,35 98,30 78,30 78,40 " style="fill:white; stroke-width:1; stroke:black; " description="&lt;b&gt;ctg25_21&lt;/b&gt;&lt;br&gt;ctg25 21&lt;br&gt;Location: 33775 - 35701" locus_tag="ctg25_21" class="clusterblast-orf" id="dummy-1_q3_0_all"  />
<polygon points="104,40 108,40 113,35 108,30 104,30 104,40 " style="fill:white; stroke-width:1; stroke:black; " description="&lt;b&gt;ctg25_22&lt;/b&gt;&lt;br&gt;ctg25 22&lt;br&gt;Location: 35757 - 36450" locus_tag="ctg25_22" class="clusterblast-orf" id="dummy-1_q4_0_all"  />
<polygon points="123,40 125,40 130,35 125,30 123,30 123,40 " style="fill:white; stroke-width:1; stroke:black; " description="&lt;b&gt;ctg25_23&lt;/b&gt;&lt;br&gt;ctg25 23&lt;br&gt;Location: 37196 - 37673" locus_tag="ctg25_23" class="clusterblast-orf" id="dummy-1_q5_0_all"  />
<polygon points="131,40 143,40 148,35 143,30 131,30 131,40 " style="fill:white; stroke-width:1; stroke:black; " description="&lt;b&gt;ctg25_24&lt;/b&gt;&lt;br&gt;ctg25 24&lt;br&gt;Location: 37781 - 39050" locus_tag="ctg25_24" class="clusterblast-orf" id="dummy-1_q6_0_all"  />
<polygon points="149,40 153,40 158,35 153,30 149,30 149,40 " style="fill:white; stroke-width:1; stroke:black; " description="&lt;b&gt;ctg25_25&lt;/b&gt;&lt;br&gt;ctg25 25&lt;br&gt;Location: 39123 - 39852" locus_tag="ctg25_25" class="clusterblast-orf" id="dummy-1_q7_0_all"  />
<polygon points="159,40 175,40 180,35 175,30 159,30 159,40 " style="fill:white; stroke-width:1; stroke:black; " description="&lt;b&gt;ctg25_26&lt;/b&gt;&lt;br&gt;ctg25 26&lt;br&gt;Location: 39907 - 41467" locus_tag="ctg25_26" class="clusterblast-orf" id="dummy-1_q8_0_all"  />
<polygon points="181,40 197,40 202,35 197,30 181,30 181,40 " style="fill:white; stroke-width:1; stroke:black; " description="&lt;b&gt;ctg25_27&lt;/b&gt;&lt;br&gt;ctg25 27&lt;br&gt;Location: 41572 - 43117" locus_tag="ctg25_27" class="clusterblast-orf" id="dummy-1_q9_0_all"  />
<polygon points="204,35 209,30 220,30 220,40 209,40 204,35 " style="fill:white; stroke-width:1; stroke:black; " description="&lt;b&gt;ctg25_28&lt;/b&gt;&lt;br&gt;ctg25 28&lt;br&gt;Location: 43308 - 44514" locus_tag="ctg25_28" class="clusterblast-orf" id="dummy-1_q10_0_all"  />
<polygon points="221,35 226,30 237,30 237,40 226,40 221,35 " style="fill:white; stroke-width:1; stroke:black; " description="&lt;b&gt;ctg25_29&lt;/b&gt;&lt;br&gt;ctg25 29&lt;br&gt;Location: 44601 - 45822" locus_tag="ctg25_29" class="clusterblast-orf" id="dummy-1_q11_0_all"  />
<polygon points="250,35 252,30 252,40 250,35 " style="fill:white; stroke-width:1; stroke:black; " description="&lt;b&gt;ctg25_30&lt;/b&gt;&lt;br&gt;ctg25 30&lt;br&gt;Location: 46765 - 46948" locus_tag="ctg25_30" class="clusterblast-orf" id="dummy-1_q12_0_all"  />
<polygon points="253,35 258,30 270,30 270,40 258,40 253,35 " style="fill:white; stroke-width:1; stroke:black; " description="&lt;b&gt;ctg25_31&lt;/b&gt;&lt;br&gt;ctg25 31&lt;br&gt;Location: 46975 - 48283" locus_tag="ctg25_31" class="clusterblast-orf" id="dummy-1_q13_0_all"  />
<polygon points="270,35 275,30 369,30 369,40 275,40 270,35 " style="fill:#d81515; stroke-width:1; stroke:black; " description="&lt;b&gt;ctg25_32&lt;/b&gt;&lt;br&gt;ctg25 32&lt;br&gt;Location: 48275 - 55724" locus_tag="ctg25_32" class="clusterblast-orf" id="dummy-1_q14_0_all"  />
<polygon points="369,35 374,30 414,30 414,40 374,40 369,35 " style="fill:#d81515; stroke-width:1; stroke:black; " description="&lt;b&gt;ctg25_33&lt;/b&gt;&lt;br&gt;ctg25 33&lt;br&gt;Location: 55720 - 59134" locus_tag="ctg25_33" class="clusterblast-orf" id="dummy-1_q15_0_all"  />
<polygon points="415,35 420,30 499,30 499,40 420,40 415,35 " style="fill:#d81515; stroke-width:1; stroke:black; " description="&lt;b&gt;ctg25_34&lt;/b&gt;&lt;br&gt;ctg25 34&lt;br&gt;Location: 59218 - 65602" locus_tag="ctg25_34" class="clusterblast-orf" id="dummy-1_q16_0_all"  />
<polygon points="502,35 507,30 515,30 515,40 507,40 502,35 " style="fill:white; stroke-width:1; stroke:black; " description="&lt;b&gt;ctg25_35&lt;/b&gt;&lt;br&gt;ctg25 35&lt;br&gt;Location: 65761 - 66799" locus_tag="ctg25_35" class="clusterblast-orf" id="dummy-1_q17_0_all"  />
<polygon points="516,35 521,30 530,30 530,40 521,40 516,35 " style="fill:white; stroke-width:1; stroke:black; " description="&lt;b&gt;ctg25_36&lt;/b&gt;&lt;br&gt;ctg25 36&lt;br&gt;Location: 66850 - 67876" locus_tag="ctg25_36" class="clusterblast-orf" id="dummy-1_q18_0_all"  />
<polygon points="550,35 555,30 589,30 589,40 555,40 550,35 " style="fill:white; stroke-width:1; stroke:black; " description="&lt;b&gt;ctg25_37&lt;/b&gt;&lt;br&gt;ctg25 37&lt;br&gt;Location: 69409 - 72334" locus_tag="ctg25_37" class="clusterblast-orf" id="dummy-1_q19_0_all"  />
<polygon points="590,35 595,30 621,30 621,40 595,40 590,35 " style="fill:white; stroke-width:1; stroke:black; " description="&lt;b&gt;ctg25_38&lt;/b&gt;&lt;br&gt;ctg25 38&lt;br&gt;Location: 72403 - 74773" locus_tag="ctg25_38" class="clusterblast-orf" id="dummy-1_q20_0_all"  />
<polygon points="623,35 628,30 642,30 642,40 628,40 623,35 " style="fill:white; stroke-width:1; stroke:black; " description="&lt;b&gt;ctg25_39&lt;/b&gt;&lt;br&gt;ctg25 39&lt;br&gt;Location: 74899 - 76339" locus_tag="ctg25_39" class="clusterblast-orf" id="dummy-1_q21_0_all"  />
<polygon points="644,35 649,30 659,30 659,40 649,40 644,35 " style="fill:white; stroke-width:1; stroke:black; " description="&lt;b&gt;ctg25_40&lt;/b&gt;&lt;br&gt;ctg25 40&lt;br&gt;Location: 76528 - 77626" locus_tag="ctg25_40" class="clusterblast-orf" id="dummy-1_q22_0_all"  />
<polygon points="662,35 665,30 665,40 662,35 " style="fill:white; stroke-width:1; stroke:black; " description="&lt;b&gt;ctg25_41&lt;/b&gt;&lt;br&gt;ctg25 41&lt;br&gt;Location: 77900 - 78098" locus_tag="ctg25_41" class="clusterblast-orf" id="dummy-1_q23_0_all"  />
<polygon points="666,35 670,30 670,40 666,35 " style="fill:white; stroke-width:1; stroke:black; " description="&lt;b&gt;ctg25_42&lt;/b&gt;&lt;br&gt;ctg25 42&lt;br&gt;Location: 78196 - 78460" locus_tag="ctg25_42" class="clusterblast-orf" id="dummy-1_q24_0_all"  />
<polygon points="671,35 674,30 674,40 671,35 " style="fill:white; stroke-width:1; stroke:black; " description="&lt;b&gt;ctg25_43&lt;/b&gt;&lt;br&gt;ctg25 43&lt;br&gt;Location: 78545 - 78767" locus_tag="ctg25_43" class="clusterblast-orf" id="dummy-1_q25_0_all"  />
<polygon points="675,35 678,30 678,40 675,35 " style="fill:white; stroke-width:1; stroke:black; " description="&lt;b&gt;ctg25_44&lt;/b&gt;&lt;br&gt;ctg25 44&lt;br&gt;Location: 78878 - 79097" locus_tag="ctg25_44" class="clusterblast-orf" id="dummy-1_q26_0_all"  />
<polygon points="680,35 683,30 683,40 680,35 " style="fill:white; stroke-width:1; stroke:black; " description="&lt;b&gt;ctg25_45&lt;/b&gt;&lt;br&gt;ctg25 45&lt;br&gt;Location: 79217 - 79436" locus_tag="ctg25_45" class="clusterblast-orf" id="dummy-1_q27_0_all"  />
<polygon points="688,40 692,40 697,35 692,30 688,30 688,40 " style="fill:white; stroke-width:1; stroke:black; " description="&lt;b&gt;ctg25_46&lt;/b&gt;&lt;br&gt;ctg25 46&lt;br&gt;Location: 79845 - 80493" locus_tag="ctg25_46" class="clusterblast-orf" id="dummy-1_q28_0_all"  />
<polygon points="696,40 698,35 696,30 696,40 " style="fill:white; stroke-width:1; stroke:black; " description="&lt;b&gt;ctg25_47&lt;/b&gt;&lt;br&gt;ctg25 47&lt;br&gt;Location: 80467 - 80587" locus_tag="ctg25_47" class="clusterblast-orf" id="dummy-1_q29_0_all"  />
<polygon points="703,40 710,40 715,35 710,30 703,30 703,40 " style="fill:white; stroke-width:1; stroke:black; " description="&lt;b&gt;ctg25_48&lt;/b&gt;&lt;br&gt;ctg25 48&lt;br&gt;Location: 80938 - 81904" locus_tag="ctg25_48" class="clusterblast-orf" id="dummy-1_q30_0_all"  />
<polygon points="715,35 720,30 727,30 727,40 720,40 715,35 " style="fill:white; stroke-width:1; stroke:black; " description="&lt;b&gt;ctg25_49&lt;/b&gt;&lt;br&gt;ctg25 49&lt;br&gt;Location: 81900 - 82803" locus_tag="ctg25_49" class="clusterblast-orf" id="dummy-1_q31_0_all"  />
<polygon points="729,40 735,40 740,35 735,30 729,30 729,40 " style="fill:white; stroke-width:1; stroke:black; " description="&lt;b&gt;ctg25_50&lt;/b&gt;&lt;br&gt;ctg25 50&lt;br&gt;Location: 82905 - 83760" locus_tag="ctg25_50" class="clusterblast-orf" id="dummy-1_q32_0_all"  />
<polygon points="743,40 755,40 760,35 755,30 743,30 743,40 " style="fill:white; stroke-width:1; stroke:black; " description="&lt;b&gt;ctg25_51&lt;/b&gt;&lt;br&gt;ctg25 51&lt;br&gt;Location: 83973 - 85248" locus_tag="ctg25_51" class="clusterblast-orf" id="dummy-1_q33_0_all"  />
</g>
<g label="BGC0001951" description="BGC0001951_c1: puwainaphycin F / minutissamide A (33% of genes show similarity), NRP" class="clusterblast-cluster"  >
<text x="5" y="70" class="clusterblast-acc"  >
<a xlink:href="https://mibig.secondarymetabolites.org/go/BGC0001951/1" target="_blank">BGC0001951</a>:                                                puwainaphycin F / minutissamide A (33% of genes show similarity), NRP</text>
<line x1="10" y1="85" x2="778.0" y2="85" style="stroke-width:1; stroke:grey; "  />
</g>
<g id="a1_000"  >
<polygon points="0,85 5,80 43,80 43,90 5,90 0,85 " style="fill:white; stroke-width:1; stroke:black; " description="&lt;b&gt;AXN93591.1&lt;/b&gt;&lt;br&gt;PuwH&lt;br&gt;Location: 58884 - 55576" locus_tag="AXN93591.1" class="clusterblast-orf" id="dummy-1_h1_8_0"  />
</g>
<g id="a1_001"  >
<polygon points="45,85 50,80 277,80 277,90 50,90 45,85 " style="fill:#d81515; stroke-width:1; stroke:black; " description="&lt;b&gt;AXN93590.1&lt;/b&gt;&lt;br&gt;PuwF-G&lt;br&gt;Location: 55468 - 37913&lt;br&gt;&lt;br&gt;&lt;b&gt;BlastP hit with ctg25_33&lt;/b&gt;&lt;br&gt;Percentage identity: 48&lt;br&gt;Percentage coverage: 96&lt;br&gt;BLAST bit score: 945&lt;br&gt;E-value: 1.1e-274&lt;br&gt;&lt;br&gt;&lt;b&gt;BlastP hit with ctg25_34&lt;/b&gt;&lt;br&gt;Percentage identity: 48&lt;br&gt;Percentage coverage: 98&lt;br&gt;BLAST bit score: 1757&lt;br&gt;E-value: 0.0" locus_tag="AXN93590.1" class="clusterblast-orf" id="dummy-1_h1_8_1"  />
</g>
<g id="a1_002"  >
<polygon points="277,85 282,80 401,80 401,90 282,90 277,85 " style="fill:#d81515; stroke-width:1; stroke:black; " description="&lt;b&gt;AXN93589.1&lt;/b&gt;&lt;br&gt;PuwE&lt;br&gt;Location: 37916 - 28551&lt;br&gt;&lt;br&gt;&lt;b&gt;BlastP hit with ctg25_34&lt;/b&gt;&lt;br&gt;Percentage identity: 46&lt;br&gt;Percentage coverage: 51&lt;br&gt;BLAST bit score: 831&lt;br&gt;E-value: 3.3e-240" locus_tag="AXN93589.1" class="clusterblast-orf" id="dummy-1_h1_8_2"  />
</g>
<g id="a1_003"  >
<polygon points="405,85 409,80 409,90 405,85 " style="fill:white; stroke-width:1; stroke:black; " description="&lt;b&gt;AXN93588.1&lt;/b&gt;&lt;br&gt;PuwD&lt;br&gt;Location: 28239 - 27949" locus_tag="AXN93588.1" class="clusterblast-orf" id="dummy-1_h1_8_3"  />
</g>
<g id="a1_004"  >
<polygon points="412,85 417,80 435,80 435,90 417,90 412,85 " style="fill:white; stroke-width:1; stroke:black; " description="&lt;b&gt;AXN93587.1&lt;/b&gt;&lt;br&gt;PuwC&lt;br&gt;Location: 27756 - 25984" locus_tag="AXN93587.1" class="clusterblast-orf" id="dummy-1_h1_8_4"  />
</g>
<g id="a1_005"  >
<polygon points="435,85 440,80 538,80 538,90 440,90 435,85 " style="fill:white; stroke-width:1; stroke:black; " description="&lt;b&gt;AXN93586.1&lt;/b&gt;&lt;br&gt;PuwB&lt;br&gt;Location: 25980 - 18202" locus_tag="AXN93586.1" class="clusterblast-orf" id="dummy-1_h1_8_5"  />
</g>
<g id="a1_006"  >
<polygon points="561,90 631,90 636,85 631,80 561,80 561,90 " style="fill:white; stroke-width:1; stroke:black; " description="&lt;b&gt;AXN93585.1&lt;/b&gt;&lt;br&gt;ORF2&lt;br&gt;Location: 16491 - 10864" locus_tag="AXN93585.1" class="clusterblast-orf" id="dummy-1_h1_8_6"  />
</g>
<g id="a1_007"  >
<polygon points="638,90 747,90 752,85 747,80 638,80 638,90 " style="fill:#d81515; stroke-width:1; stroke:black; " description="&lt;b&gt;AXN93584.1&lt;/b&gt;&lt;br&gt;PuwA&lt;br&gt;Location: 10687 - 2075&lt;br&gt;&lt;br&gt;&lt;b&gt;BlastP hit with ctg25_33&lt;/b&gt;&lt;br&gt;Percentage identity: 48&lt;br&gt;Percentage coverage: 94&lt;br&gt;BLAST bit score: 933&lt;br&gt;E-value: 2.5e-271" locus_tag="AXN93584.1" class="clusterblast-orf" id="dummy-1_h1_8_7"  />
</g>
<g id="a1_008"  >
<polygon points="753,90 775,90 780,85 775,80 753,80 753,90 " style="fill:white; stroke-width:1; stroke:black; " description="&lt;b&gt;AXN93583.1&lt;/b&gt;&lt;br&gt;ORF1&lt;br&gt;Location: 1995 - 1" locus_tag="AXN93583.1" class="clusterblast-orf" id="dummy-1_h1_8_8"  />
</g>
</svg>
