<svg xmlns="http://www.w3.org/2000/svg" xmlns:xlink="http://www.w3.org/1999/xlink" version="1.1" x="0" y="0" height="230" width="800" viewBox="0 0 800 230" preserveAspectRatio="none"  >
<g label="Query sequence" class="clusterblast-cluster"  >
<text x="5" y="20" class="clusterblast-acc"  >
Query sequence</text>
<line x1="10" y1="35" x2="778.0" y2="35" style="stroke-width:1; stroke:grey; "  />
<polygon points="0,40 6,40 11,35 6,30 0,30 0,40 " style="fill:white; stroke-width:1; stroke:black; " description="&lt;b&gt;ctg47_1&lt;/b&gt;&lt;br&gt;ctg47 1&lt;br&gt;Location: 251 - 845" locus_tag="ctg47_1" class="clusterblast-orf" id="dummy-1_q0_0_all"  />
<polygon points="23,35 28,30 49,30 49,40 28,40 23,35 " style="fill:#d81515; stroke-width:1; stroke:black; " description="&lt;b&gt;ctg47_2&lt;/b&gt;&lt;br&gt;ctg47 2&lt;br&gt;Location: 1511 - 2918" locus_tag="ctg47_2" class="clusterblast-orf" id="dummy-1_q1_0_all"  />
<polygon points="49,35 54,30 55,30 55,40 54,40 49,35 " style="fill:#15d863; stroke-width:1; stroke:black; " description="&lt;b&gt;ctg47_3&lt;/b&gt;&lt;br&gt;ctg47 3&lt;br&gt;Location: 2955 - 3267" locus_tag="ctg47_3" class="clusterblast-orf" id="dummy-1_q2_0_all"  />
<polygon points="59,35 64,30 85,30 85,40 64,40 59,35 " style="fill:#1563d8; stroke-width:1; stroke:black; " description="&lt;b&gt;ctg47_4&lt;/b&gt;&lt;br&gt;ctg47 4&lt;br&gt;Location: 3481 - 4879" locus_tag="ctg47_4" class="clusterblast-orf" id="dummy-1_q3_0_all"  />
<polygon points="86,35 91,30 110,30 110,40 91,40 86,35 " style="fill:#b115d8; stroke-width:1; stroke:black; " description="&lt;b&gt;ctg47_5&lt;/b&gt;&lt;br&gt;ctg47 5&lt;br&gt;Location: 4959 - 6282" locus_tag="ctg47_5" class="clusterblast-orf" id="dummy-1_q4_0_all"  />
<polygon points="114,35 119,30 234,30 234,40 119,40 114,35 " style="fill:white; stroke-width:1; stroke:black; " description="&lt;b&gt;ctg47_6&lt;/b&gt;&lt;br&gt;ctg47 6&lt;br&gt;Location: 6455 - 13022" locus_tag="ctg47_6" class="clusterblast-orf" id="dummy-1_q5_0_all"  />
<polygon points="234,35 239,30 312,30 312,40 239,40 234,35 " style="fill:#15d863; stroke-width:1; stroke:black; " description="&lt;b&gt;ctg47_7&lt;/b&gt;&lt;br&gt;ctg47 7&lt;br&gt;Location: 13018 - 17269" locus_tag="ctg47_7" class="clusterblast-orf" id="dummy-1_q6_0_all"  />
<polygon points="312,35 317,30 372,30 372,40 317,40 312,35 " style="fill:#15d863; stroke-width:1; stroke:black; " description="&lt;b&gt;ctg47_8&lt;/b&gt;&lt;br&gt;ctg47 8&lt;br&gt;Location: 17265 - 20511" locus_tag="ctg47_8" class="clusterblast-orf" id="dummy-1_q7_0_all"  />
<polygon points="372,35 377,30 422,30 422,40 377,40 372,35 " style="fill:#15d863; stroke-width:1; stroke:black; " description="&lt;b&gt;ctg47_9&lt;/b&gt;&lt;br&gt;ctg47 9&lt;br&gt;Location: 20552 - 23258" locus_tag="ctg47_9" class="clusterblast-orf" id="dummy-1_q8_0_all"  />
<polygon points="423,35 428,30 439,30 439,40 428,40 423,35 " style="fill:white; stroke-width:1; stroke:black; " description="&lt;b&gt;ctg47_10&lt;/b&gt;&lt;br&gt;ctg47 10&lt;br&gt;Location: 23304 - 24192" locus_tag="ctg47_10" class="clusterblast-orf" id="dummy-1_q9_0_all"  />
<polygon points="457,35 462,30 463,30 463,40 462,40 457,35 " style="fill:#15d863; stroke-width:1; stroke:black; " description="&lt;b&gt;ctg47_11&lt;/b&gt;&lt;br&gt;ctg47 11&lt;br&gt;Location: 25168 - 25498" locus_tag="ctg47_11" class="clusterblast-orf" id="dummy-1_q10_0_all"  />
<polygon points="464,35 469,30 481,30 481,40 469,40 464,35 " style="fill:white; stroke-width:1; stroke:black; " description="&lt;b&gt;ctg47_12&lt;/b&gt;&lt;br&gt;ctg47 12&lt;br&gt;Location: 25557 - 26484" locus_tag="ctg47_12" class="clusterblast-orf" id="dummy-1_q11_0_all"  />
<polygon points="493,35 498,30 518,30 518,40 498,40 493,35 " style="fill:#b1d815; stroke-width:1; stroke:black; " description="&lt;b&gt;ctg47_13&lt;/b&gt;&lt;br&gt;ctg47 13&lt;br&gt;Location: 27104 - 28478" locus_tag="ctg47_13" class="clusterblast-orf" id="dummy-1_q12_0_all"  />
<polygon points="525,35 530,30 535,30 535,40 530,40 525,35 " style="fill:white; stroke-width:1; stroke:black; " description="&lt;b&gt;ctg47_14&lt;/b&gt;&lt;br&gt;ctg47 14&lt;br&gt;Location: 28888 - 29401" locus_tag="ctg47_14" class="clusterblast-orf" id="dummy-1_q13_0_all"  />
<polygon points="537,35 542,30 571,30 571,40 542,40 537,35 " style="fill:#15d863; stroke-width:1; stroke:black; " description="&lt;b&gt;ctg47_15&lt;/b&gt;&lt;br&gt;ctg47 15&lt;br&gt;Location: 29518 - 31351" locus_tag="ctg47_15" class="clusterblast-orf" id="dummy-1_q14_0_all"  />
<polygon points="577,35 580,30 580,40 577,35 " style="fill:white; stroke-width:1; stroke:black; " description="&lt;b&gt;ctg47_16&lt;/b&gt;&lt;br&gt;ctg47 16&lt;br&gt;Location: 31704 - 31836" locus_tag="ctg47_16" class="clusterblast-orf" id="dummy-1_q15_0_all"  />
<polygon points="606,35 611,30 659,30 659,40 611,40 606,35 " style="fill:white; stroke-width:1; stroke:black; " description="&lt;b&gt;ctg47_17&lt;/b&gt;&lt;br&gt;ctg47 17&lt;br&gt;Location: 33271 - 36166" locus_tag="ctg47_17" class="clusterblast-orf" id="dummy-1_q16_0_all"  />
<polygon points="676,40 693,40 698,35 693,30 676,30 676,40 " style="fill:white; stroke-width:1; stroke:black; " description="&lt;b&gt;ctg47_18&lt;/b&gt;&lt;br&gt;ctg47 18&lt;br&gt;Location: 37107 - 38292" locus_tag="ctg47_18" class="clusterblast-orf" id="dummy-1_q17_0_all"  />
<polygon points="719,40 732,40 737,35 732,30 719,30 719,40 " style="fill:white; stroke-width:1; stroke:black; " description="&lt;b&gt;ctg47_19&lt;/b&gt;&lt;br&gt;ctg47 19&lt;br&gt;Location: 39408 - 40404" locus_tag="ctg47_19" class="clusterblast-orf" id="dummy-1_q18_0_all"  />
<polygon points="737,40 753,40 758,35 753,30 737,30 737,40 " style="fill:white; stroke-width:1; stroke:black; " description="&lt;b&gt;ctg47_20&lt;/b&gt;&lt;br&gt;ctg47 20&lt;br&gt;Location: 40400 - 41561" locus_tag="ctg47_20" class="clusterblast-orf" id="dummy-1_q19_0_all"  />
<polygon points="758,40 775,40 780,35 775,30 758,30 758,40 " style="fill:white; stroke-width:1; stroke:black; " description="&lt;b&gt;ctg47_21&lt;/b&gt;&lt;br&gt;ctg47 21&lt;br&gt;Location: 41560 - 42733" locus_tag="ctg47_21" class="clusterblast-orf" id="dummy-1_q20_0_all"  />
</g>
<g label="BGC0001663" description="BGC0001663_c1: merocyclophane C / merocyclophane D (55% of genes show similarity), Polyketide" class="clusterblast-cluster"  >
<text x="5" y="70" class="clusterblast-acc"  >
<a xlink:href="https://mibig.secondarymetabolites.org/go/BGC0001663/1" target="_blank">BGC0001663</a>:                                              merocyclophane C / merocyclophane D (55% of genes show similarity), Polyketide</text>
<line x1="10" y1="85" x2="778.0" y2="85" style="stroke-width:1; stroke:grey; "  />
</g>
<g id="a1_000"  >
<polygon points="178,85 183,80 212,80 212,90 183,90 178,85 " style="fill:#15d863; stroke-width:1; stroke:black; " description="&lt;b&gt;AQA28568.1&lt;/b&gt;&lt;br&gt;acyl-CoA synthase&lt;br&gt;Location: 22989 - 21151&lt;br&gt;&lt;br&gt;&lt;b&gt;BlastP hit with ctg47_15&lt;/b&gt;&lt;br&gt;Percentage identity: 59&lt;br&gt;Percentage coverage: 99&lt;br&gt;BLAST bit score: 715&lt;br&gt;E-value: 9.8e-206" locus_tag="AQA28568.1" class="clusterblast-orf" id="dummy-1_h1_5_0"  />
</g>
<g id="a1_001"  >
<polygon points="221,85 226,80 272,80 272,90 226,90 221,85 " style="fill:white; stroke-width:1; stroke:black; " description="&lt;b&gt;AQA28567.1&lt;/b&gt;&lt;br&gt;hemolysin/beta propeller containing protein&lt;br&gt;Location: 20653 - 17888" locus_tag="AQA28567.1" class="clusterblast-orf" id="dummy-1_h1_5_1"  />
</g>
<g id="a1_002"  >
<polygon points="274,85 279,80 300,80 300,90 279,90 274,85 " style="fill:white; stroke-width:1; stroke:black; " description="&lt;b&gt;AQA28566.1&lt;/b&gt;&lt;br&gt;cytochrome P450&lt;br&gt;Location: 17771 - 16389" locus_tag="AQA28566.1" class="clusterblast-orf" id="dummy-1_h1_5_2"  />
</g>
<g id="a1_003"  >
<polygon points="302,85 307,80 313,80 313,90 307,90 302,85 " style="fill:white; stroke-width:1; stroke:black; " description="&lt;b&gt;AQA28565.1&lt;/b&gt;&lt;br&gt;isoprenylcysteine carboxyl methyltransferase&lt;br&gt;Location: 16238 - 15639" locus_tag="AQA28565.1" class="clusterblast-orf" id="dummy-1_h1_5_3"  />
</g>
<g id="a1_004"  >
<polygon points="314,85 319,80 334,80 334,90 319,90 314,85 " style="fill:white; stroke-width:1; stroke:black; " description="&lt;b&gt;AQA28564.1&lt;/b&gt;&lt;br&gt;type III polyketide synthase&lt;br&gt;Location: 15630 - 14506" locus_tag="AQA28564.1" class="clusterblast-orf" id="dummy-1_h1_5_4"  />
</g>
<g id="a1_005"  >
<polygon points="336,85 341,80 413,80 413,90 341,90 336,85 " style="fill:#15d863; stroke-width:1; stroke:black; " description="&lt;b&gt;AQA28563.1&lt;/b&gt;&lt;br&gt;type I polyketide synthase&lt;br&gt;Location: 14396 - 10206&lt;br&gt;&lt;br&gt;&lt;b&gt;BlastP hit with ctg47_8&lt;/b&gt;&lt;br&gt;Percentage identity: 49&lt;br&gt;Percentage coverage: 100&lt;br&gt;BLAST bit score: 979&lt;br&gt;E-value: 5e-285&lt;br&gt;&lt;br&gt;&lt;b&gt;BlastP hit with ctg47_9&lt;/b&gt;&lt;br&gt;Percentage identity: 55&lt;br&gt;Percentage coverage: 101&lt;br&gt;BLAST bit score: 992&lt;br&gt;E-value: 3.6e-289" locus_tag="AQA28563.1" class="clusterblast-orf" id="dummy-1_h1_5_5"  />
</g>
<g id="a1_006"  >
<polygon points="413,85 418,80 555,80 555,90 418,90 413,85 " style="fill:#15d863; stroke-width:1; stroke:black; " description="&lt;b&gt;AQA28562.1&lt;/b&gt;&lt;br&gt;type I polyketide synthase&lt;br&gt;Location: 10193 - 2484&lt;br&gt;&lt;br&gt;&lt;b&gt;BlastP hit with ctg47_8&lt;/b&gt;&lt;br&gt;Percentage identity: 57&lt;br&gt;Percentage coverage: 84&lt;br&gt;BLAST bit score: 1011&lt;br&gt;E-value: 9e-295&lt;br&gt;&lt;br&gt;&lt;b&gt;BlastP hit with ctg47_9&lt;/b&gt;&lt;br&gt;Percentage identity: 62&lt;br&gt;Percentage coverage: 98&lt;br&gt;BLAST bit score: 1106&lt;br&gt;E-value: 0.0" locus_tag="AQA28562.1" class="clusterblast-orf" id="dummy-1_h1_5_6"  />
</g>
<g id="a1_007"  >
<polygon points="560,85 565,80 586,80 586,90 565,90 560,85 " style="fill:#d81515; stroke-width:1; stroke:black; " description="&lt;b&gt;AQA28561.1&lt;/b&gt;&lt;br&gt;hypothetical protein&lt;br&gt;Location: 2223 - 817&lt;br&gt;&lt;br&gt;&lt;b&gt;BlastP hit with ctg47_2&lt;/b&gt;&lt;br&gt;Percentage identity: 47&lt;br&gt;Percentage coverage: 103&lt;br&gt;BLAST bit score: 404&lt;br&gt;E-value: 1.7e-112" locus_tag="AQA28561.1" class="clusterblast-orf" id="dummy-1_h1_5_7"  />
</g>
<g id="a1_008"  >
<polygon points="595,85 600,80 601,80 601,90 600,90 595,85 " style="fill:#15d863; stroke-width:1; stroke:black; " description="&lt;b&gt;AQA28560.1&lt;/b&gt;&lt;br&gt;acyl carrier protein&lt;br&gt;Location: 315 - 1&lt;br&gt;&lt;br&gt;&lt;b&gt;BlastP hit with ctg47_3&lt;/b&gt;&lt;br&gt;Percentage identity: 51&lt;br&gt;Percentage coverage: 98&lt;br&gt;BLAST bit score: 106&lt;br&gt;E-value: 2.7e-23&lt;br&gt;&lt;br&gt;&lt;b&gt;BlastP hit with ctg47_11&lt;/b&gt;&lt;br&gt;Percentage identity: 50&lt;br&gt;Percentage coverage: 95&lt;br&gt;BLAST bit score: 103&lt;br&gt;E-value: 1.9e-22" locus_tag="AQA28560.1" class="clusterblast-orf" id="dummy-1_h1_5_8"  />
</g>
</svg>
