<svg xmlns="http://www.w3.org/2000/svg" xmlns:xlink="http://www.w3.org/1999/xlink" version="1.1" x="0" y="0" height="230" width="800" viewBox="0 0 800 230" preserveAspectRatio="none"  >
<g label="Query sequence" class="clusterblast-cluster"  >
<text x="5" y="20" class="clusterblast-acc"  >
Query sequence</text>
<line x1="10" y1="35" x2="778.0" y2="35" style="stroke-width:1; stroke:grey; "  />
<polygon points="0,35 2,30 2,40 0,35 " style="fill:white; stroke-width:1; stroke:black; " description="&lt;b&gt;ctg3_148&lt;/b&gt;&lt;br&gt;ctg3 148&lt;br&gt;Location: 178154 - 178331" locus_tag="ctg3_148" class="clusterblast-orf" id="dummy-1_q0_0_all"  />
<polygon points="10,40 14,35 10,30 10,40 " style="fill:white; stroke-width:1; stroke:black; " description="&lt;b&gt;ctg3_149&lt;/b&gt;&lt;br&gt;ctg3 149&lt;br&gt;Location: 178820 - 179084" locus_tag="ctg3_149" class="clusterblast-orf" id="dummy-1_q1_0_all"  />
<polygon points="24,35 26,30 26,40 24,35 " style="fill:white; stroke-width:1; stroke:black; " description="&lt;b&gt;ctg3_150&lt;/b&gt;&lt;br&gt;ctg3 150&lt;br&gt;Location: 179799 - 179904" locus_tag="ctg3_150" class="clusterblast-orf" id="dummy-1_q2_0_all"  />
<polygon points="27,35 32,30 36,30 36,40 32,40 27,35 " style="fill:white; stroke-width:1; stroke:black; " description="&lt;b&gt;ctg3_151&lt;/b&gt;&lt;br&gt;ctg3 151&lt;br&gt;Location: 179991 - 180570" locus_tag="ctg3_151" class="clusterblast-orf" id="dummy-1_q3_0_all"  />
<polygon points="39,40 45,40 50,35 45,30 39,30 39,40 " style="fill:white; stroke-width:1; stroke:black; " description="&lt;b&gt;ctg3_152&lt;/b&gt;&lt;br&gt;ctg3 152&lt;br&gt;Location: 180764 - 181487" locus_tag="ctg3_152" class="clusterblast-orf" id="dummy-1_q4_0_all"  />
<polygon points="50,35 55,30 61,30 61,40 55,40 50,35 " style="fill:white; stroke-width:1; stroke:black; " description="&lt;b&gt;ctg3_153&lt;/b&gt;&lt;br&gt;ctg3 153&lt;br&gt;Location: 181531 - 182281" locus_tag="ctg3_153" class="clusterblast-orf" id="dummy-1_q5_0_all"  />
<polygon points="65,40 78,40 83,35 78,30 65,30 65,40 " style="fill:white; stroke-width:1; stroke:black; " description="&lt;b&gt;ctg3_154&lt;/b&gt;&lt;br&gt;ctg3 154&lt;br&gt;Location: 182492 - 183755" locus_tag="ctg3_154" class="clusterblast-orf" id="dummy-1_q6_0_all"  />
<polygon points="92,40 99,40 104,35 99,30 92,30 92,40 " style="fill:white; stroke-width:1; stroke:black; " description="&lt;b&gt;ctg3_155&lt;/b&gt;&lt;br&gt;ctg3 155&lt;br&gt;Location: 184312 - 185146" locus_tag="ctg3_155" class="clusterblast-orf" id="dummy-1_q7_0_all"  />
<polygon points="110,40 128,40 133,35 128,30 110,30 110,40 " style="fill:white; stroke-width:1; stroke:black; " description="&lt;b&gt;ctg3_156&lt;/b&gt;&lt;br&gt;ctg3 156&lt;br&gt;Location: 185539 - 187084" locus_tag="ctg3_156" class="clusterblast-orf" id="dummy-1_q8_0_all"  />
<polygon points="139,35 144,30 158,30 158,40 144,40 139,35 " style="fill:white; stroke-width:1; stroke:black; " description="&lt;b&gt;ctg3_157&lt;/b&gt;&lt;br&gt;ctg3 157&lt;br&gt;Location: 187465 - 188734" locus_tag="ctg3_157" class="clusterblast-orf" id="dummy-1_q9_0_all"  />
<polygon points="160,35 165,30 179,30 179,40 165,40 160,35 " style="fill:white; stroke-width:1; stroke:black; " description="&lt;b&gt;ctg3_158&lt;/b&gt;&lt;br&gt;ctg3 158&lt;br&gt;Location: 188869 - 190129" locus_tag="ctg3_158" class="clusterblast-orf" id="dummy-1_q10_0_all"  />
<polygon points="180,35 185,30 187,30 187,40 185,40 180,35 " style="fill:white; stroke-width:1; stroke:black; " description="&lt;b&gt;ctg3_159&lt;/b&gt;&lt;br&gt;ctg3 159&lt;br&gt;Location: 190226 - 190697" locus_tag="ctg3_159" class="clusterblast-orf" id="dummy-1_q11_0_all"  />
<polygon points="188,35 193,30 203,30 203,40 193,40 188,35 " style="fill:white; stroke-width:1; stroke:black; " description="&lt;b&gt;ctg3_160&lt;/b&gt;&lt;br&gt;ctg3 160&lt;br&gt;Location: 190706 - 191714" locus_tag="ctg3_160" class="clusterblast-orf" id="dummy-1_q12_0_all"  />
<polygon points="204,35 209,30 221,30 221,40 209,40 204,35 " style="fill:#d81515; stroke-width:1; stroke:black; " description="&lt;b&gt;ctg3_161&lt;/b&gt;&lt;br&gt;ctg3 161&lt;br&gt;Location: 191783 - 192962" locus_tag="ctg3_161" class="clusterblast-orf" id="dummy-1_q13_0_all"  />
<polygon points="223,35 228,30 241,30 241,40 228,40 223,35 " style="fill:#4dd815; stroke-width:1; stroke:black; " description="&lt;b&gt;ctg3_162&lt;/b&gt;&lt;br&gt;ctg3 162&lt;br&gt;Location: 193063 - 194263" locus_tag="ctg3_162" class="clusterblast-orf" id="dummy-1_q14_0_all"  />
<polygon points="254,40 269,40 274,35 269,30 254,30 254,40 " style="fill:white; stroke-width:1; stroke:black; " description="&lt;b&gt;ctg3_163&lt;/b&gt;&lt;br&gt;ctg3 163&lt;br&gt;Location: 195115 - 196465" locus_tag="ctg3_163" class="clusterblast-orf" id="dummy-1_q15_0_all"  />
<polygon points="284,40 284,40 289,35 284,30 284,30 284,40 " style="fill:white; stroke-width:1; stroke:black; " description="&lt;b&gt;ctg3_164&lt;/b&gt;&lt;br&gt;ctg3 164&lt;br&gt;Location: 197128 - 197452" locus_tag="ctg3_164" class="clusterblast-orf" id="dummy-1_q16_0_all"  />
<polygon points="292,40 369,40 374,35 369,30 292,30 292,40 " style="fill:#1585d8; stroke-width:1; stroke:black; " description="&lt;b&gt;ctg3_165&lt;/b&gt;&lt;br&gt;ctg3 165&lt;br&gt;Location: 197714 - 203171" locus_tag="ctg3_165" class="clusterblast-orf" id="dummy-1_q17_0_all"  />
<polygon points="376,40 380,40 385,35 380,30 376,30 376,40 " style="fill:white; stroke-width:1; stroke:black; " description="&lt;b&gt;ctg3_166&lt;/b&gt;&lt;br&gt;ctg3 166&lt;br&gt;Location: 203299 - 203863" locus_tag="ctg3_166" class="clusterblast-orf" id="dummy-1_q18_0_all"  />
<polygon points="386,40 407,40 412,35 407,30 386,30 386,40 " style="fill:#d815bc; stroke-width:1; stroke:black; " description="&lt;b&gt;ctg3_167&lt;/b&gt;&lt;br&gt;ctg3 167&lt;br&gt;Location: 203934 - 205674" locus_tag="ctg3_167" class="clusterblast-orf" id="dummy-1_q19_0_all"  />
<polygon points="413,40 478,40 483,35 478,30 413,30 413,40 " style="fill:#d8bc15; stroke-width:1; stroke:black; " description="&lt;b&gt;ctg3_168&lt;/b&gt;&lt;br&gt;ctg3 168&lt;br&gt;Location: 205772 - 210452" locus_tag="ctg3_168" class="clusterblast-orf" id="dummy-1_q20_0_all"  />
<polygon points="487,40 506,40 511,35 506,30 487,30 487,40 " style="fill:#15d885; stroke-width:1; stroke:black; " description="&lt;b&gt;ctg3_169&lt;/b&gt;&lt;br&gt;ctg3 169&lt;br&gt;Location: 210683 - 212345" locus_tag="ctg3_169" class="clusterblast-orf" id="dummy-1_q21_0_all"  />
<polygon points="512,40 529,40 534,35 529,30 512,30 512,40 " style="fill:#4d15d8; stroke-width:1; stroke:black; " description="&lt;b&gt;ctg3_170&lt;/b&gt;&lt;br&gt;ctg3 170&lt;br&gt;Location: 212347 - 213856" locus_tag="ctg3_170" class="clusterblast-orf" id="dummy-1_q22_0_all"  />
<polygon points="542,40 552,40 557,35 552,30 542,30 542,40 " style="fill:white; stroke-width:1; stroke:black; " description="&lt;b&gt;ctg3_171&lt;/b&gt;&lt;br&gt;ctg3 171&lt;br&gt;Location: 214396 - 215410" locus_tag="ctg3_171" class="clusterblast-orf" id="dummy-1_q23_0_all"  />
<polygon points="567,40 571,35 567,30 567,40 " style="fill:white; stroke-width:1; stroke:black; " description="&lt;b&gt;ctg3_172&lt;/b&gt;&lt;br&gt;ctg3 172&lt;br&gt;Location: 216025 - 216352" locus_tag="ctg3_172" class="clusterblast-orf" id="dummy-1_q24_0_all"  />
<polygon points="573,35 576,30 576,40 573,35 " style="fill:white; stroke-width:1; stroke:black; " description="&lt;b&gt;ctg3_173&lt;/b&gt;&lt;br&gt;ctg3 173&lt;br&gt;Location: 216455 - 216689" locus_tag="ctg3_173" class="clusterblast-orf" id="dummy-1_q25_0_all"  />
<polygon points="584,40 587,35 584,30 584,40 " style="fill:white; stroke-width:1; stroke:black; " description="&lt;b&gt;ctg3_174&lt;/b&gt;&lt;br&gt;ctg3 174&lt;br&gt;Location: 217187 - 217406" locus_tag="ctg3_174" class="clusterblast-orf" id="dummy-1_q26_0_all"  />
<polygon points="588,35 593,30 598,30 598,40 593,40 588,35 " style="fill:white; stroke-width:1; stroke:black; " description="&lt;b&gt;ctg3_175&lt;/b&gt;&lt;br&gt;ctg3 175&lt;br&gt;Location: 217486 - 218143" locus_tag="ctg3_175" class="clusterblast-orf" id="dummy-1_q27_0_all"  />
<polygon points="599,35 604,30 611,30 611,40 604,40 599,35 " style="fill:white; stroke-width:1; stroke:black; " description="&lt;b&gt;ctg3_176&lt;/b&gt;&lt;br&gt;ctg3 176&lt;br&gt;Location: 218180 - 218963" locus_tag="ctg3_176" class="clusterblast-orf" id="dummy-1_q28_0_all"  />
<polygon points="612,35 617,30 624,30 624,40 617,40 612,35 " style="fill:white; stroke-width:1; stroke:black; " description="&lt;b&gt;ctg3_177&lt;/b&gt;&lt;br&gt;ctg3 177&lt;br&gt;Location: 219085 - 219832" locus_tag="ctg3_177" class="clusterblast-orf" id="dummy-1_q29_0_all"  />
<polygon points="627,40 638,40 643,35 638,30 627,30 627,40 " style="fill:white; stroke-width:1; stroke:black; " description="&lt;b&gt;ctg3_178&lt;/b&gt;&lt;br&gt;ctg3 178&lt;br&gt;Location: 220056 - 221130" locus_tag="ctg3_178" class="clusterblast-orf" id="dummy-1_q30_0_all"  />
<polygon points="644,40 646,40 651,35 646,30 644,30 644,40 " style="fill:white; stroke-width:1; stroke:black; " description="&lt;b&gt;ctg3_179&lt;/b&gt;&lt;br&gt;ctg3 179&lt;br&gt;Location: 221190 - 221649" locus_tag="ctg3_179" class="clusterblast-orf" id="dummy-1_q31_0_all"  />
<polygon points="651,40 655,35 651,30 651,40 " style="fill:white; stroke-width:1; stroke:black; " description="&lt;b&gt;ctg3_180&lt;/b&gt;&lt;br&gt;ctg3 180&lt;br&gt;Location: 221690 - 221951" locus_tag="ctg3_180" class="clusterblast-orf" id="dummy-1_q32_0_all"  />
<polygon points="656,35 661,30 670,30 670,40 661,40 656,35 " style="fill:white; stroke-width:1; stroke:black; " description="&lt;b&gt;ctg3_181&lt;/b&gt;&lt;br&gt;ctg3 181&lt;br&gt;Location: 222026 - 222938" locus_tag="ctg3_181" class="clusterblast-orf" id="dummy-1_q33_0_all"  />
<polygon points="671,35 676,30 685,30 685,40 676,40 671,35 " style="fill:white; stroke-width:1; stroke:black; " description="&lt;b&gt;ctg3_182&lt;/b&gt;&lt;br&gt;ctg3 182&lt;br&gt;Location: 223025 - 223919" locus_tag="ctg3_182" class="clusterblast-orf" id="dummy-1_q34_0_all"  />
<polygon points="685,35 689,30 689,40 685,35 " style="fill:white; stroke-width:1; stroke:black; " description="&lt;b&gt;ctg3_183&lt;/b&gt;&lt;br&gt;ctg3 183&lt;br&gt;Location: 223968 - 224202" locus_tag="ctg3_183" class="clusterblast-orf" id="dummy-1_q35_0_all"  />
<polygon points="692,35 697,30 716,30 716,40 697,40 692,35 " style="fill:white; stroke-width:1; stroke:black; " description="&lt;b&gt;ctg3_184&lt;/b&gt;&lt;br&gt;ctg3 184&lt;br&gt;Location: 224405 - 226004" locus_tag="ctg3_184" class="clusterblast-orf" id="dummy-1_q36_0_all"  />
<polygon points="721,35 725,30 725,40 721,35 " style="fill:white; stroke-width:1; stroke:black; " description="&lt;b&gt;ctg3_185&lt;/b&gt;&lt;br&gt;ctg3 185&lt;br&gt;Location: 226348 - 226585" locus_tag="ctg3_185" class="clusterblast-orf" id="dummy-1_q37_0_all"  />
<polygon points="726,35 731,30 734,30 734,40 731,40 726,35 " style="fill:white; stroke-width:1; stroke:black; " description="&lt;b&gt;ctg3_186&lt;/b&gt;&lt;br&gt;ctg3 186&lt;br&gt;Location: 226696 - 227239" locus_tag="ctg3_186" class="clusterblast-orf" id="dummy-1_q38_0_all"  />
<polygon points="742,35 747,30 767,30 767,40 747,40 742,35 " style="fill:white; stroke-width:1; stroke:black; " description="&lt;b&gt;ctg3_187&lt;/b&gt;&lt;br&gt;ctg3 187&lt;br&gt;Location: 227731 - 229426" locus_tag="ctg3_187" class="clusterblast-orf" id="dummy-1_q39_0_all"  />
<polygon points="777,35 780,30 780,40 777,35 " style="fill:white; stroke-width:1; stroke:black; " description="&lt;b&gt;ctg3_188&lt;/b&gt;&lt;br&gt;ctg3 188&lt;br&gt;Location: 230083 - 230260" locus_tag="ctg3_188" class="clusterblast-orf" id="dummy-1_q40_0_all"  />
</g>
<g label="BGC0001501" description="BGC0001501_c1: ambiguine P (6% of genes show similarity), Alkaloid" class="clusterblast-cluster"  >
<text x="5" y="70" class="clusterblast-acc"  >
<a xlink:href="https://mibig.secondarymetabolites.org/go/BGC0001501/1" target="_blank">BGC0001501</a>:                                                                      ambiguine P (6% of genes show similarity), Alkaloid</text>
<line x1="10" y1="85" x2="778.0" y2="85" style="stroke-width:1; stroke:grey; "  />
</g>
<g id="a1_000"  >
<polygon points="68,85 73,80 77,80 77,90 73,90 68,85 " style="fill:white; stroke-width:1; stroke:black; " description="&lt;b&gt;APZ79606.1&lt;/b&gt;&lt;br&gt;FilG2&lt;br&gt;Location: 42974 - 42330" locus_tag="APZ79606.1" class="clusterblast-orf" id="dummy-1_h1_5_0"  />
</g>
<g id="a1_001"  >
<polygon points="78,85 83,80 94,80 94,90 83,90 78,85 " style="fill:white; stroke-width:1; stroke:black; " description="&lt;b&gt;APZ79605.1&lt;/b&gt;&lt;br&gt;FilI6&lt;br&gt;Location: 42305 - 41208" locus_tag="APZ79605.1" class="clusterblast-orf" id="dummy-1_h1_5_1"  />
</g>
<g id="a1_002"  >
<polygon points="95,85 100,80 114,80 114,90 100,90 95,85 " style="fill:white; stroke-width:1; stroke:black; " description="&lt;b&gt;APZ79604.1&lt;/b&gt;&lt;br&gt;FilI5&lt;br&gt;Location: 41168 - 39921" locus_tag="APZ79604.1" class="clusterblast-orf" id="dummy-1_h1_5_2"  />
</g>
<g id="a1_003"  >
<polygon points="117,85 122,80 129,80 129,90 122,90 117,85 " style="fill:white; stroke-width:1; stroke:black; " description="&lt;b&gt;APZ79603.1&lt;/b&gt;&lt;br&gt;FilI4&lt;br&gt;Location: 39696 - 38884" locus_tag="APZ79603.1" class="clusterblast-orf" id="dummy-1_h1_5_3"  />
</g>
<g id="a1_004"  >
<polygon points="130,85 135,80 143,80 143,90 135,90 130,85 " style="fill:white; stroke-width:1; stroke:black; " description="&lt;b&gt;APZ79602.1&lt;/b&gt;&lt;br&gt;FilI3&lt;br&gt;Location: 38800 - 37949" locus_tag="APZ79602.1" class="clusterblast-orf" id="dummy-1_h1_5_4"  />
</g>
<g id="a1_005"  >
<polygon points="148,85 153,80 181,80 181,90 153,90 148,85 " style="fill:white; stroke-width:1; stroke:black; " description="&lt;b&gt;APZ79601.1&lt;/b&gt;&lt;br&gt;FilI2&lt;br&gt;Location: 37643 - 35439" locus_tag="APZ79601.1" class="clusterblast-orf" id="dummy-1_h1_5_5"  />
</g>
<g id="a1_006"  >
<polygon points="181,85 186,80 195,80 195,90 186,90 181,85 " style="fill:white; stroke-width:1; stroke:black; " description="&lt;b&gt;APZ79600.1&lt;/b&gt;&lt;br&gt;FilI1&lt;br&gt;Location: 35385 - 34480" locus_tag="APZ79600.1" class="clusterblast-orf" id="dummy-1_h1_5_6"  />
</g>
<g id="a1_007"  >
<polygon points="198,85 203,80 217,80 217,90 203,90 198,85 " style="fill:white; stroke-width:1; stroke:black; " description="&lt;b&gt;APZ79599.1&lt;/b&gt;&lt;br&gt;FilE5&lt;br&gt;Location: 34265 - 33039" locus_tag="APZ79599.1" class="clusterblast-orf" id="dummy-1_h1_5_7"  />
</g>
<g id="a1_008"  >
<polygon points="218,85 223,80 247,80 247,90 223,90 218,85 " style="fill:white; stroke-width:1; stroke:black; " description="&lt;b&gt;APZ79598.1&lt;/b&gt;&lt;br&gt;FilE4&lt;br&gt;Location: 32966 - 31023" locus_tag="APZ79598.1" class="clusterblast-orf" id="dummy-1_h1_5_8"  />
</g>
<g id="a1_009"  >
<polygon points="251,85 256,80 265,80 265,90 256,90 251,85 " style="fill:white; stroke-width:1; stroke:black; " description="&lt;b&gt;APZ79597.1&lt;/b&gt;&lt;br&gt;FilD2&lt;br&gt;Location: 30766 - 29837" locus_tag="APZ79597.1" class="clusterblast-orf" id="dummy-1_h1_5_9"  />
</g>
<g id="a1_0010"  >
<polygon points="272,85 277,80 284,80 284,90 277,90 272,85 " style="fill:white; stroke-width:1; stroke:black; " description="&lt;b&gt;APZ79596.1&lt;/b&gt;&lt;br&gt;FilH3&lt;br&gt;Location: 29360 - 28539" locus_tag="APZ79596.1" class="clusterblast-orf" id="dummy-1_h1_5_10"  />
</g>
<g id="a1_0011"  >
<polygon points="284,85 289,80 299,80 299,90 289,90 284,85 " style="fill:white; stroke-width:1; stroke:black; " description="&lt;b&gt;APZ79595.1&lt;/b&gt;&lt;br&gt;FilH2&lt;br&gt;Location: 28539 - 27544" locus_tag="APZ79595.1" class="clusterblast-orf" id="dummy-1_h1_5_11"  />
</g>
<g id="a1_0012"  >
<polygon points="302,85 307,80 316,80 316,90 307,90 302,85 " style="fill:white; stroke-width:1; stroke:black; " description="&lt;b&gt;APZ79594.1&lt;/b&gt;&lt;br&gt;FilH1&lt;br&gt;Location: 27352 - 26393" locus_tag="APZ79594.1" class="clusterblast-orf" id="dummy-1_h1_5_12"  />
</g>
<g id="a1_0013"  >
<polygon points="321,85 326,80 339,80 339,90 326,90 321,85 " style="fill:white; stroke-width:1; stroke:black; " description="&lt;b&gt;APZ79593.1&lt;/b&gt;&lt;br&gt;FilE3&lt;br&gt;Location: 26087 - 24867" locus_tag="APZ79593.1" class="clusterblast-orf" id="dummy-1_h1_5_13"  />
</g>
<g id="a1_0014"  >
<polygon points="340,85 345,80 349,80 349,90 345,90 340,85 " style="fill:white; stroke-width:1; stroke:black; " description="&lt;b&gt;APZ79592.1&lt;/b&gt;&lt;br&gt;FilG1&lt;br&gt;Location: 24802 - 24224" locus_tag="APZ79592.1" class="clusterblast-orf" id="dummy-1_h1_5_14"  />
</g>
<g id="a1_0015"  >
<polygon points="369,90 375,90 380,85 375,80 369,80 369,90 " style="fill:white; stroke-width:1; stroke:black; " description="&lt;b&gt;APZ79591.1&lt;/b&gt;&lt;br&gt;FilF2&lt;br&gt;Location: 22848 - 22114" locus_tag="APZ79591.1" class="clusterblast-orf" id="dummy-1_h1_5_15"  />
</g>
<g id="a1_0016"  >
<polygon points="384,85 389,80 394,80 394,90 389,90 384,85 " style="fill:white; stroke-width:1; stroke:black; " description="&lt;b&gt;APZ79590.1&lt;/b&gt;&lt;br&gt;FilF1&lt;br&gt;Location: 21882 - 21166" locus_tag="APZ79590.1" class="clusterblast-orf" id="dummy-1_h1_5_16"  />
</g>
<g id="a1_0017"  >
<polygon points="432,90 443,90 448,85 443,80 432,80 432,90 " style="fill:white; stroke-width:1; stroke:black; " description="&lt;b&gt;APZ79589.1&lt;/b&gt;&lt;br&gt;FilE2&lt;br&gt;Location: 18618 - 17578" locus_tag="APZ79589.1" class="clusterblast-orf" id="dummy-1_h1_5_17"  />
</g>
<g id="a1_0018"  >
<polygon points="449,90 462,90 467,85 462,80 449,80 449,90 " style="fill:white; stroke-width:1; stroke:black; " description="&lt;b&gt;APZ79588.1&lt;/b&gt;&lt;br&gt;FilE1&lt;br&gt;Location: 17541 - 16303" locus_tag="APZ79588.1" class="clusterblast-orf" id="dummy-1_h1_5_18"  />
</g>
<g id="a1_0019"  >
<polygon points="470,90 480,90 485,85 480,80 470,80 470,90 " style="fill:white; stroke-width:1; stroke:black; " description="&lt;b&gt;APZ79587.1&lt;/b&gt;&lt;br&gt;FilD1&lt;br&gt;Location: 16138 - 15107" locus_tag="APZ79587.1" class="clusterblast-orf" id="dummy-1_h1_5_19"  />
</g>
<g id="a1_0020"  >
<polygon points="496,90 507,90 512,85 507,80 496,80 496,90 " style="fill:white; stroke-width:1; stroke:black; " description="&lt;b&gt;APZ79586.1&lt;/b&gt;&lt;br&gt;FilB6&lt;br&gt;Location: 14359 - 13280" locus_tag="APZ79586.1" class="clusterblast-orf" id="dummy-1_h1_5_20"  />
</g>
<g id="a1_0021"  >
<polygon points="514,90 525,90 530,85 525,80 514,80 514,90 " style="fill:white; stroke-width:1; stroke:black; " description="&lt;b&gt;APZ79585.1&lt;/b&gt;&lt;br&gt;FilB5&lt;br&gt;Location: 13192 - 12110" locus_tag="APZ79585.1" class="clusterblast-orf" id="dummy-1_h1_5_21"  />
</g>
<g id="a1_0022"  >
<polygon points="534,90 546,90 551,85 546,80 534,80 534,90 " style="fill:white; stroke-width:1; stroke:black; " description="&lt;b&gt;APZ79584.1&lt;/b&gt;&lt;br&gt;FilB4&lt;br&gt;Location: 11802 - 10711" locus_tag="APZ79584.1" class="clusterblast-orf" id="dummy-1_h1_5_22"  />
</g>
<g id="a1_0023"  >
<polygon points="552,90 557,90 562,85 557,80 552,80 552,90 " style="fill:white; stroke-width:1; stroke:black; " description="&lt;b&gt;APZ79583.1&lt;/b&gt;&lt;br&gt;FilC4&lt;br&gt;Location: 10623 - 9937" locus_tag="APZ79583.1" class="clusterblast-orf" id="dummy-1_h1_5_23"  />
</g>
<g id="a1_0024"  >
<polygon points="567,90 573,90 578,85 573,80 567,80 567,90 " style="fill:white; stroke-width:1; stroke:black; " description="&lt;b&gt;APZ79582.1&lt;/b&gt;&lt;br&gt;FilC3&lt;br&gt;Location: 9603 - 8902" locus_tag="APZ79582.1" class="clusterblast-orf" id="dummy-1_h1_5_24"  />
</g>
<g id="a1_0025"  >
<polygon points="583,90 588,90 593,85 588,80 583,80 583,90 " style="fill:white; stroke-width:1; stroke:black; " description="&lt;b&gt;APZ79581.1&lt;/b&gt;&lt;br&gt;FilC2&lt;br&gt;Location: 8572 - 7880" locus_tag="APZ79581.1" class="clusterblast-orf" id="dummy-1_h1_5_25"  />
</g>
<g id="a1_0026"  >
<polygon points="599,90 610,90 615,85 610,80 599,80 599,90 " style="fill:white; stroke-width:1; stroke:black; " description="&lt;b&gt;APZ79580.1&lt;/b&gt;&lt;br&gt;FilB3&lt;br&gt;Location: 7485 - 6397" locus_tag="APZ79580.1" class="clusterblast-orf" id="dummy-1_h1_5_26"  />
</g>
<g id="a1_0027"  >
<polygon points="617,90 622,90 627,85 622,80 617,80 617,90 " style="fill:white; stroke-width:1; stroke:black; " description="&lt;b&gt;APZ79579.1&lt;/b&gt;&lt;br&gt;FilC1&lt;br&gt;Location: 6309 - 5626" locus_tag="APZ79579.1" class="clusterblast-orf" id="dummy-1_h1_5_27"  />
</g>
<g id="a1_0028"  >
<polygon points="633,90 641,90 646,85 641,80 633,80 633,90 " style="fill:white; stroke-width:1; stroke:black; " description="&lt;b&gt;APZ79578.1&lt;/b&gt;&lt;br&gt;FilB2&lt;br&gt;Location: 5190 - 4333" locus_tag="APZ79578.1" class="clusterblast-orf" id="dummy-1_h1_5_28"  />
</g>
<g id="a1_0029"  >
<polygon points="648,90 657,90 662,85 657,80 648,80 648,90 " style="fill:white; stroke-width:1; stroke:black; " description="&lt;b&gt;APZ79577.1&lt;/b&gt;&lt;br&gt;FilB1&lt;br&gt;Location: 4208 - 3258" locus_tag="APZ79577.1" class="clusterblast-orf" id="dummy-1_h1_5_29"  />
</g>
<g id="a1_0030"  >
<polygon points="669,85 674,80 686,80 686,90 674,90 669,85 " style="fill:#d81515; stroke-width:1; stroke:black; " description="&lt;b&gt;APZ79576.1&lt;/b&gt;&lt;br&gt;FilA3&lt;br&gt;Location: 2847 - 1681&lt;br&gt;&lt;br&gt;&lt;b&gt;BlastP hit with ctg3_161&lt;/b&gt;&lt;br&gt;Percentage identity: 46&lt;br&gt;Percentage coverage: 99&lt;br&gt;BLAST bit score: 346&lt;br&gt;E-value: 5.9e-95" locus_tag="APZ79576.1" class="clusterblast-orf" id="dummy-1_h1_5_30"  />
</g>
<g id="a1_0031"  >
<polygon points="686,85 691,80 704,80 704,90 691,90 686,85 " style="fill:#4dd815; stroke-width:1; stroke:black; " description="&lt;b&gt;APZ79575.1&lt;/b&gt;&lt;br&gt;FilA2&lt;br&gt;Location: 1657 - 464&lt;br&gt;&lt;br&gt;&lt;b&gt;BlastP hit with ctg3_162&lt;/b&gt;&lt;br&gt;Percentage identity: 59&lt;br&gt;Percentage coverage: 100&lt;br&gt;BLAST bit score: 184&lt;br&gt;E-value: 3.9e-46" locus_tag="APZ79575.1" class="clusterblast-orf" id="dummy-1_h1_5_31"  />
</g>
<g id="a1_0032"  >
<polygon points="704,85 709,80 711,80 711,90 709,90 704,85 " style="fill:white; stroke-width:1; stroke:black; " description="&lt;b&gt;APZ79574.1&lt;/b&gt;&lt;br&gt;FilA1&lt;br&gt;Location: 456 - 1" locus_tag="APZ79574.1" class="clusterblast-orf" id="dummy-1_h1_5_32"  />
</g>
</svg>
