<svg xmlns="http://www.w3.org/2000/svg" xmlns:xlink="http://www.w3.org/1999/xlink" version="1.1" x="0" y="0" height="230" width="800" viewBox="0 0 800 230" preserveAspectRatio="none"  >
<g label="Query sequence" class="clusterblast-cluster"  >
<text x="5" y="20" class="clusterblast-acc"  >
Query sequence</text>
<line x1="10" y1="35" x2="778.0" y2="35" style="stroke-width:1; stroke:grey; "  />
<polygon points="0,40 66,40 71,35 66,30 0,30 0,40 " style="fill:white; stroke-width:1; stroke:black; " description="&lt;b&gt;ctg35_27&lt;/b&gt;&lt;br&gt;ctg35 27&lt;br&gt;Location: 31729 - 34594" locus_tag="ctg35_27" class="clusterblast-orf" id="dummy-1_q0_0_all"  />
<polygon points="72,35 77,30 101,30 101,40 77,40 72,35 " style="fill:#d81515; stroke-width:1; stroke:black; " description="&lt;b&gt;ctg35_28&lt;/b&gt;&lt;br&gt;ctg35 28&lt;br&gt;Location: 34635 - 35802" locus_tag="ctg35_28" class="clusterblast-orf" id="dummy-1_q1_0_all"  />
<polygon points="102,35 107,30 132,30 132,40 107,40 102,35 " style="fill:#77d815; stroke-width:1; stroke:black; " description="&lt;b&gt;ctg35_29&lt;/b&gt;&lt;br&gt;ctg35 29&lt;br&gt;Location: 35849 - 37028" locus_tag="ctg35_29" class="clusterblast-orf" id="dummy-1_q2_0_all"  />
<polygon points="134,35 139,30 145,30 145,40 139,40 134,35 " style="fill:#15d8d8; stroke-width:1; stroke:black; " description="&lt;b&gt;ctg35_30&lt;/b&gt;&lt;br&gt;ctg35 30&lt;br&gt;Location: 37121 - 37571" locus_tag="ctg35_30" class="clusterblast-orf" id="dummy-1_q3_0_all"  />
<polygon points="151,40 155,35 151,30 151,40 " style="fill:white; stroke-width:1; stroke:black; " description="&lt;b&gt;ctg35_31&lt;/b&gt;&lt;br&gt;ctg35 31&lt;br&gt;Location: 37803 - 37968" locus_tag="ctg35_31" class="clusterblast-orf" id="dummy-1_q4_0_all"  />
<polygon points="157,40 192,40 197,35 192,30 157,30 157,40 " style="fill:#7715d8; stroke-width:1; stroke:black; " description="&lt;b&gt;ctg35_32&lt;/b&gt;&lt;br&gt;ctg35 32&lt;br&gt;Location: 38038 - 39661" locus_tag="ctg35_32" class="clusterblast-orf" id="dummy-1_q5_0_all"  />
<polygon points="199,40 230,40 235,35 230,30 199,30 199,40 " style="fill:#d85015; stroke-width:1; stroke:black; " description="&lt;b&gt;ctg35_33&lt;/b&gt;&lt;br&gt;ctg35 33&lt;br&gt;Location: 39741 - 41196" locus_tag="ctg35_33" class="clusterblast-orf" id="dummy-1_q6_0_all"  />
<polygon points="248,40 270,40 275,35 270,30 248,30 248,40 " style="fill:white; stroke-width:1; stroke:black; " description="&lt;b&gt;ctg35_34&lt;/b&gt;&lt;br&gt;ctg35 34&lt;br&gt;Location: 41716 - 42796" locus_tag="ctg35_34" class="clusterblast-orf" id="dummy-1_q7_0_all"  />
<polygon points="288,40 302,40 307,35 302,30 288,30 288,40 " style="fill:#3cd815; stroke-width:1; stroke:black; " description="&lt;b&gt;ctg35_35&lt;/b&gt;&lt;br&gt;ctg35 35&lt;br&gt;Location: 43309 - 44074" locus_tag="ctg35_35" class="clusterblast-orf" id="dummy-1_q8_0_all"  />
<polygon points="316,40 326,40 331,35 326,30 316,30 316,40 " style="fill:#159ed8; stroke-width:1; stroke:black; " description="&lt;b&gt;ctg35_36&lt;/b&gt;&lt;br&gt;ctg35 36&lt;br&gt;Location: 44456 - 45035" locus_tag="ctg35_36" class="clusterblast-orf" id="dummy-1_q9_0_all"  />
<polygon points="332,40 358,40 363,35 358,30 332,30 332,40 " style="fill:#b115d8; stroke-width:1; stroke:black; " description="&lt;b&gt;ctg35_37&lt;/b&gt;&lt;br&gt;ctg35 37&lt;br&gt;Location: 45103 - 46324" locus_tag="ctg35_37" class="clusterblast-orf" id="dummy-1_q10_0_all"  />
<polygon points="372,40 391,40 396,35 391,30 372,30 372,40 " style="fill:#d88a15; stroke-width:1; stroke:black; " description="&lt;b&gt;ctg35_38&lt;/b&gt;&lt;br&gt;ctg35 38&lt;br&gt;Location: 46718 - 47678" locus_tag="ctg35_38" class="clusterblast-orf" id="dummy-1_q11_0_all"  />
<polygon points="398,35 402,30 402,40 398,35 " style="fill:white; stroke-width:1; stroke:black; " description="&lt;b&gt;ctg35_39&lt;/b&gt;&lt;br&gt;ctg35 39&lt;br&gt;Location: 47752 - 47902" locus_tag="ctg35_39" class="clusterblast-orf" id="dummy-1_q12_0_all"  />
<polygon points="407,40 427,40 432,35 427,30 407,30 407,40 " style="fill:#d88a15; stroke-width:1; stroke:black; " description="&lt;b&gt;ctg35_40&lt;/b&gt;&lt;br&gt;ctg35 40&lt;br&gt;Location: 48100 - 49096" locus_tag="ctg35_40" class="clusterblast-orf" id="dummy-1_q13_0_all"  />
<polygon points="432,40 447,40 452,35 447,30 432,30 432,40 " style="fill:#15d829; stroke-width:1; stroke:black; " description="&lt;b&gt;ctg35_41&lt;/b&gt;&lt;br&gt;ctg35 41&lt;br&gt;Location: 49095 - 49914" locus_tag="ctg35_41" class="clusterblast-orf" id="dummy-1_q14_0_all"  />
<polygon points="460,40 478,40 483,35 478,30 460,30 460,40 " style="fill:#1563d8; stroke-width:1; stroke:black; " description="&lt;b&gt;ctg35_42&lt;/b&gt;&lt;br&gt;ctg35 42&lt;br&gt;Location: 50231 - 51158" locus_tag="ctg35_42" class="clusterblast-orf" id="dummy-1_q15_0_all"  />
<polygon points="489,40 533,40 538,35 533,30 489,30 489,40 " style="fill:#d815c5; stroke-width:1; stroke:black; " description="&lt;b&gt;ctg35_43&lt;/b&gt;&lt;br&gt;ctg35 43&lt;br&gt;Location: 51402 - 53355" locus_tag="ctg35_43" class="clusterblast-orf" id="dummy-1_q16_0_all"  />
<polygon points="543,40 566,40 571,35 566,30 543,30 543,40 " style="fill:#d8c515; stroke-width:1; stroke:black; " description="&lt;b&gt;ctg35_44&lt;/b&gt;&lt;br&gt;ctg35 44&lt;br&gt;Location: 53573 - 54710" locus_tag="ctg35_44" class="clusterblast-orf" id="dummy-1_q17_0_all"  />
<polygon points="576,40 593,40 598,35 593,30 576,30 576,40 " style="fill:#15d863; stroke-width:1; stroke:black; " description="&lt;b&gt;ctg35_45&lt;/b&gt;&lt;br&gt;ctg35 45&lt;br&gt;Location: 54887 - 55793" locus_tag="ctg35_45" class="clusterblast-orf" id="dummy-1_q18_0_all"  />
<polygon points="600,40 650,40 655,35 650,30 600,30 600,40 " style="fill:#1529d8; stroke-width:1; stroke:black; " description="&lt;b&gt;ctg35_46&lt;/b&gt;&lt;br&gt;ctg35 46&lt;br&gt;Location: 55875 - 58080" locus_tag="ctg35_46" class="clusterblast-orf" id="dummy-1_q19_0_all"  />
<polygon points="660,40 676,40 681,35 676,30 660,30 660,40 " style="fill:#d8158a; stroke-width:1; stroke:black; " description="&lt;b&gt;ctg35_47&lt;/b&gt;&lt;br&gt;ctg35 47&lt;br&gt;Location: 58261 - 59113" locus_tag="ctg35_47" class="clusterblast-orf" id="dummy-1_q20_0_all"  />
<polygon points="682,40 697,40 702,35 697,30 682,30 682,40 " style="fill:#b1d815; stroke-width:1; stroke:black; " description="&lt;b&gt;ctg35_48&lt;/b&gt;&lt;br&gt;ctg35 48&lt;br&gt;Location: 59160 - 59985" locus_tag="ctg35_48" class="clusterblast-orf" id="dummy-1_q21_0_all"  />
<polygon points="704,40 730,40 735,35 730,30 704,30 704,40 " style="fill:#15d89e; stroke-width:1; stroke:black; " description="&lt;b&gt;ctg35_49&lt;/b&gt;&lt;br&gt;ctg35 49&lt;br&gt;Location: 60041 - 61289" locus_tag="ctg35_49" class="clusterblast-orf" id="dummy-1_q22_0_all"  />
<polygon points="736,40 758,40 763,35 758,30 736,30 736,40 " style="fill:#3c15d8; stroke-width:1; stroke:black; " description="&lt;b&gt;ctg35_50&lt;/b&gt;&lt;br&gt;ctg35 50&lt;br&gt;Location: 61328 - 62426" locus_tag="ctg35_50" class="clusterblast-orf" id="dummy-1_q23_0_all"  />
<polygon points="764,40 775,40 780,35 775,30 764,30 764,40 " style="fill:#d81550; stroke-width:1; stroke:black; " description="&lt;b&gt;ctg35_51&lt;/b&gt;&lt;br&gt;ctg35 51&lt;br&gt;Location: 62450 - 63095" locus_tag="ctg35_51" class="clusterblast-orf" id="dummy-1_q24_0_all"  />
</g>
<g label="BGC0001595" description="BGC0001595_c1: fischerindole (69% of genes show similarity), Alkaloid" class="clusterblast-cluster"  >
<text x="5" y="70" class="clusterblast-acc"  >
<a xlink:href="https://mibig.secondarymetabolites.org/go/BGC0001595/1" target="_blank">BGC0001595</a>:                                                                    fischerindole (69% of genes show similarity), Alkaloid</text>
<line x1="10" y1="85" x2="778.0" y2="85" style="stroke-width:1; stroke:grey; "  />
</g>
<g id="a1_000"  >
<polygon points="41,85 46,80 63,80 63,90 46,90 41,85 " style="fill:white; stroke-width:1; stroke:black; " description="&lt;b&gt;APZ79607.1&lt;/b&gt;&lt;br&gt;FisB1&lt;br&gt;Location: 68 - 940" locus_tag="APZ79607.1" class="clusterblast-orf" id="dummy-1_h1_5_0"  />
</g>
<g id="a1_001"  >
<polygon points="68,85 73,80 95,80 95,90 73,90 68,85 " style="fill:white; stroke-width:1; stroke:black; " description="&lt;b&gt;APZ79608.1&lt;/b&gt;&lt;br&gt;FisB2&lt;br&gt;Location: 1152 - 2222" locus_tag="APZ79608.1" class="clusterblast-orf" id="dummy-1_h1_5_1"  />
</g>
<g id="a1_002"  >
<polygon points="96,85 101,80 114,80 114,90 101,90 96,85 " style="fill:white; stroke-width:1; stroke:black; " description="&lt;b&gt;APZ79609.1&lt;/b&gt;&lt;br&gt;FisC&lt;br&gt;Location: 2293 - 2979" locus_tag="APZ79609.1" class="clusterblast-orf" id="dummy-1_h1_5_2"  />
</g>
<g id="a1_003"  >
<polygon points="115,85 120,80 145,80 145,90 120,90 115,85 " style="fill:white; stroke-width:1; stroke:black; " description="&lt;b&gt;APZ79610.1&lt;/b&gt;&lt;br&gt;FisE1&lt;br&gt;Location: 3051 - 4253" locus_tag="APZ79610.1" class="clusterblast-orf" id="dummy-1_h1_5_3"  />
</g>
<g id="a1_004"  >
<polygon points="147,85 152,80 173,80 173,90 152,90 147,85 " style="fill:white; stroke-width:1; stroke:black; " description="&lt;b&gt;APZ79611.1&lt;/b&gt;&lt;br&gt;FisE2&lt;br&gt;Location: 4318 - 5379" locus_tag="APZ79611.1" class="clusterblast-orf" id="dummy-1_h1_5_4"  />
</g>
<g id="a1_005"  >
<polygon points="179,90 193,90 198,85 193,80 179,80 179,90 " style="fill:#3cd815; stroke-width:1; stroke:black; " description="&lt;b&gt;APZ79612.1&lt;/b&gt;&lt;br&gt;FisM&lt;br&gt;Location: 5609 - 6373&lt;br&gt;&lt;br&gt;&lt;b&gt;BlastP hit with ctg35_35&lt;/b&gt;&lt;br&gt;Percentage identity: 84&lt;br&gt;Percentage coverage: 100&lt;br&gt;BLAST bit score: 446&lt;br&gt;E-value: 2.1e-125" locus_tag="APZ79612.1" class="clusterblast-orf" id="dummy-1_h1_5_5"  />
</g>
<g id="a1_006"  >
<polygon points="207,90 216,90 221,85 216,80 207,80 207,90 " style="fill:#159ed8; stroke-width:1; stroke:black; " description="&lt;b&gt;APZ79613.1&lt;/b&gt;&lt;br&gt;FisG1&lt;br&gt;Location: 6741 - 7319&lt;br&gt;&lt;br&gt;&lt;b&gt;BlastP hit with ctg35_36&lt;/b&gt;&lt;br&gt;Percentage identity: 89&lt;br&gt;Percentage coverage: 100&lt;br&gt;BLAST bit score: 336&lt;br&gt;E-value: 3e-92" locus_tag="APZ79613.1" class="clusterblast-orf" id="dummy-1_h1_5_6"  />
</g>
<g id="a1_007"  >
<polygon points="223,90 248,90 253,85 248,80 223,80 223,90 " style="fill:#b115d8; stroke-width:1; stroke:black; " description="&lt;b&gt;APZ79614.1&lt;/b&gt;&lt;br&gt;FisE3&lt;br&gt;Location: 7384 - 8604&lt;br&gt;&lt;br&gt;&lt;b&gt;BlastP hit with ctg35_37&lt;/b&gt;&lt;br&gt;Percentage identity: 96&lt;br&gt;Percentage coverage: 100&lt;br&gt;BLAST bit score: 774&lt;br&gt;E-value: 9.1e-224" locus_tag="APZ79614.1" class="clusterblast-orf" id="dummy-1_h1_5_7"  />
</g>
<g id="a1_008"  >
<polygon points="268,90 287,90 292,85 287,80 268,80 268,90 " style="fill:#d88a15; stroke-width:1; stroke:black; " description="&lt;b&gt;APZ79615.1&lt;/b&gt;&lt;br&gt;FisH1&lt;br&gt;Location: 9194 - 10153&lt;br&gt;&lt;br&gt;&lt;b&gt;BlastP hit with ctg35_38&lt;/b&gt;&lt;br&gt;Percentage identity: 90&lt;br&gt;Percentage coverage: 100&lt;br&gt;BLAST bit score: 613&lt;br&gt;E-value: 2.1e-175&lt;br&gt;&lt;br&gt;&lt;b&gt;BlastP hit with ctg35_40&lt;/b&gt;&lt;br&gt;Percentage identity: 64&lt;br&gt;Percentage coverage: 95&lt;br&gt;BLAST bit score: 445&lt;br&gt;E-value: 7.9e-125" locus_tag="APZ79615.1" class="clusterblast-orf" id="dummy-1_h1_5_8"  />
</g>
<g id="a1_009"  >
<polygon points="301,90 322,90 327,85 322,80 301,80 301,90 " style="fill:#d88a15; stroke-width:1; stroke:black; " description="&lt;b&gt;APZ79616.1&lt;/b&gt;&lt;br&gt;FisH2&lt;br&gt;Location: 10502 - 11548&lt;br&gt;&lt;br&gt;&lt;b&gt;BlastP hit with ctg35_38&lt;/b&gt;&lt;br&gt;Percentage identity: 66&lt;br&gt;Percentage coverage: 99&lt;br&gt;BLAST bit score: 460&lt;br&gt;E-value: 2.3e-129&lt;br&gt;&lt;br&gt;&lt;b&gt;BlastP hit with ctg35_40&lt;/b&gt;&lt;br&gt;Percentage identity: 94&lt;br&gt;Percentage coverage: 100&lt;br&gt;BLAST bit score: 649&lt;br&gt;E-value: 3.6e-186" locus_tag="APZ79616.1" class="clusterblast-orf" id="dummy-1_h1_5_9"  />
</g>
<g id="a1_0010"  >
<polygon points="327,90 342,90 347,85 342,80 327,80 327,90 " style="fill:#15d829; stroke-width:1; stroke:black; " description="&lt;b&gt;APZ79617.1&lt;/b&gt;&lt;br&gt;FisH3&lt;br&gt;Location: 11545 - 12366&lt;br&gt;&lt;br&gt;&lt;b&gt;BlastP hit with ctg35_41&lt;/b&gt;&lt;br&gt;Percentage identity: 93&lt;br&gt;Percentage coverage: 100&lt;br&gt;BLAST bit score: 539&lt;br&gt;E-value: 2.5e-153" locus_tag="APZ79617.1" class="clusterblast-orf" id="dummy-1_h1_5_10"  />
</g>
<g id="a1_0011"  >
<polygon points="355,90 373,90 378,85 373,80 355,80 355,90 " style="fill:#1563d8; stroke-width:1; stroke:black; " description="&lt;b&gt;APZ79618.1&lt;/b&gt;&lt;br&gt;FisD&lt;br&gt;Location: 12687 - 13613&lt;br&gt;&lt;br&gt;&lt;b&gt;BlastP hit with ctg35_42&lt;/b&gt;&lt;br&gt;Percentage identity: 95&lt;br&gt;Percentage coverage: 100&lt;br&gt;BLAST bit score: 608&lt;br&gt;E-value: 5e-174" locus_tag="APZ79618.1" class="clusterblast-orf" id="dummy-1_h1_5_11"  />
</g>
<g id="a1_0012"  >
<polygon points="384,90 427,90 432,85 427,80 384,80 384,90 " style="fill:#d815c5; stroke-width:1; stroke:black; " description="&lt;b&gt;APZ79619.1&lt;/b&gt;&lt;br&gt;FisE4&lt;br&gt;Location: 13849 - 15795&lt;br&gt;&lt;br&gt;&lt;b&gt;BlastP hit with ctg35_43&lt;/b&gt;&lt;br&gt;Percentage identity: 96&lt;br&gt;Percentage coverage: 100&lt;br&gt;BLAST bit score: 1249&lt;br&gt;E-value: 0.0" locus_tag="APZ79619.1" class="clusterblast-orf" id="dummy-1_h1_5_12"  />
</g>
<g id="a1_0013"  >
<polygon points="434,90 459,90 464,85 459,80 434,80 434,90 " style="fill:#d8c515; stroke-width:1; stroke:black; " description="&lt;b&gt;APZ79620.1&lt;/b&gt;&lt;br&gt;FisE5&lt;br&gt;Location: 15855 - 17081&lt;br&gt;&lt;br&gt;&lt;b&gt;BlastP hit with ctg35_44&lt;/b&gt;&lt;br&gt;Percentage identity: 98&lt;br&gt;Percentage coverage: 100&lt;br&gt;BLAST bit score: 738&lt;br&gt;E-value: 3.9e-213" locus_tag="APZ79620.1" class="clusterblast-orf" id="dummy-1_h1_5_13"  />
</g>
<g id="a1_0014"  >
<polygon points="469,90 491,90 496,85 491,80 469,80 469,90 " style="fill:white; stroke-width:1; stroke:black; " description="&lt;b&gt;APZ79621.1&lt;/b&gt;&lt;br&gt;FisB3&lt;br&gt;Location: 17292 - 18368" locus_tag="APZ79621.1" class="clusterblast-orf" id="dummy-1_h1_5_14"  />
</g>
<g id="a1_0015"  >
<polygon points="498,90 529,90 534,85 529,80 498,80 498,90 " style="fill:white; stroke-width:1; stroke:black; " description="&lt;b&gt;APZ79622.1&lt;/b&gt;&lt;br&gt;FisB4&lt;br&gt;Location: 18419 - 19879" locus_tag="APZ79622.1" class="clusterblast-orf" id="dummy-1_h1_5_15"  />
</g>
<g id="a1_0016"  >
<polygon points="534,90 552,90 557,85 552,80 534,80 534,90 " style="fill:#15d863; stroke-width:1; stroke:black; " description="&lt;b&gt;APZ79623.1&lt;/b&gt;&lt;br&gt;FisI1&lt;br&gt;Location: 19887 - 20792&lt;br&gt;&lt;br&gt;&lt;b&gt;BlastP hit with ctg35_45&lt;/b&gt;&lt;br&gt;Percentage identity: 97&lt;br&gt;Percentage coverage: 100&lt;br&gt;BLAST bit score: 582&lt;br&gt;E-value: 2.9e-166" locus_tag="APZ79623.1" class="clusterblast-orf" id="dummy-1_h1_5_16"  />
</g>
<g id="a1_0017"  >
<polygon points="559,90 608,90 613,85 608,80 559,80 559,90 " style="fill:#1529d8; stroke-width:1; stroke:black; " description="&lt;b&gt;APZ79624.1&lt;/b&gt;&lt;br&gt;FisI2&lt;br&gt;Location: 20875 - 23079&lt;br&gt;&lt;br&gt;&lt;b&gt;BlastP hit with ctg35_46&lt;/b&gt;&lt;br&gt;Percentage identity: 97&lt;br&gt;Percentage coverage: 100&lt;br&gt;BLAST bit score: 1438&lt;br&gt;E-value: 0.0" locus_tag="APZ79624.1" class="clusterblast-orf" id="dummy-1_h1_5_17"  />
</g>
<g id="a1_0018"  >
<polygon points="618,90 634,90 639,85 634,80 618,80 618,90 " style="fill:#d8158a; stroke-width:1; stroke:black; " description="&lt;b&gt;APZ79625.1&lt;/b&gt;&lt;br&gt;FisI3&lt;br&gt;Location: 23251 - 24102&lt;br&gt;&lt;br&gt;&lt;b&gt;BlastP hit with ctg35_47&lt;/b&gt;&lt;br&gt;Percentage identity: 91&lt;br&gt;Percentage coverage: 100&lt;br&gt;BLAST bit score: 485&lt;br&gt;E-value: 5.9e-137" locus_tag="APZ79625.1" class="clusterblast-orf" id="dummy-1_h1_5_18"  />
</g>
<g id="a1_0019"  >
<polygon points="640,90 656,90 661,85 656,80 640,80 640,90 " style="fill:#b1d815; stroke-width:1; stroke:black; " description="&lt;b&gt;APZ79626.1&lt;/b&gt;&lt;br&gt;FisI4&lt;br&gt;Location: 24150 - 24974&lt;br&gt;&lt;br&gt;&lt;b&gt;BlastP hit with ctg35_48&lt;/b&gt;&lt;br&gt;Percentage identity: 94&lt;br&gt;Percentage coverage: 100&lt;br&gt;BLAST bit score: 501&lt;br&gt;E-value: 7.7e-142" locus_tag="APZ79626.1" class="clusterblast-orf" id="dummy-1_h1_5_19"  />
</g>
<g id="a1_0020"  >
<polygon points="662,90 688,90 693,85 688,80 662,80 662,90 " style="fill:#15d89e; stroke-width:1; stroke:black; " description="&lt;b&gt;APZ79627.1&lt;/b&gt;&lt;br&gt;FisI5&lt;br&gt;Location: 25031 - 26278&lt;br&gt;&lt;br&gt;&lt;b&gt;BlastP hit with ctg35_49&lt;/b&gt;&lt;br&gt;Percentage identity: 97&lt;br&gt;Percentage coverage: 100&lt;br&gt;BLAST bit score: 814&lt;br&gt;E-value: 6.2e-236" locus_tag="APZ79627.1" class="clusterblast-orf" id="dummy-1_h1_5_20"  />
</g>
<g id="a1_0021"  >
<polygon points="694,90 716,90 721,85 716,80 694,80 694,90 " style="fill:#3c15d8; stroke-width:1; stroke:black; " description="&lt;b&gt;APZ79628.1&lt;/b&gt;&lt;br&gt;FisI6&lt;br&gt;Location: 26318 - 27415&lt;br&gt;&lt;br&gt;&lt;b&gt;BlastP hit with ctg35_50&lt;/b&gt;&lt;br&gt;Percentage identity: 97&lt;br&gt;Percentage coverage: 100&lt;br&gt;BLAST bit score: 678&lt;br&gt;E-value: 8e-195" locus_tag="APZ79628.1" class="clusterblast-orf" id="dummy-1_h1_5_21"  />
</g>
<g id="a1_0022"  >
<polygon points="722,90 733,90 738,85 733,80 722,80 722,90 " style="fill:#d81550; stroke-width:1; stroke:black; " description="&lt;b&gt;APZ79629.1&lt;/b&gt;&lt;br&gt;FisG2&lt;br&gt;Location: 27440 - 28084&lt;br&gt;&lt;br&gt;&lt;b&gt;BlastP hit with ctg35_51&lt;/b&gt;&lt;br&gt;Percentage identity: 94&lt;br&gt;Percentage coverage: 100&lt;br&gt;BLAST bit score: 414&lt;br&gt;E-value: 1.3e-115" locus_tag="APZ79629.1" class="clusterblast-orf" id="dummy-1_h1_5_22"  />
</g>
</svg>
