<svg xmlns="http://www.w3.org/2000/svg" xmlns:xlink="http://www.w3.org/1999/xlink" version="1.1" x="0" y="0" height="230" width="800" viewBox="0 0 800 230" preserveAspectRatio="none"  >
<g label="Query sequence" class="clusterblast-cluster"  >
<text x="5" y="20" class="clusterblast-acc"  >
Query sequence</text>
<line x1="10" y1="35" x2="778.0" y2="35" style="stroke-width:1; stroke:grey; "  />
<polygon points="0,35 2,30 2,40 0,35 " style="fill:white; stroke-width:1; stroke:black; " description="&lt;b&gt;ctg3_148&lt;/b&gt;&lt;br&gt;ctg3 148&lt;br&gt;Location: 178154 - 178331" locus_tag="ctg3_148" class="clusterblast-orf" id="dummy-1_q0_0_all"  />
<polygon points="10,40 14,35 10,30 10,40 " style="fill:white; stroke-width:1; stroke:black; " description="&lt;b&gt;ctg3_149&lt;/b&gt;&lt;br&gt;ctg3 149&lt;br&gt;Location: 178820 - 179084" locus_tag="ctg3_149" class="clusterblast-orf" id="dummy-1_q1_0_all"  />
<polygon points="24,35 26,30 26,40 24,35 " style="fill:white; stroke-width:1; stroke:black; " description="&lt;b&gt;ctg3_150&lt;/b&gt;&lt;br&gt;ctg3 150&lt;br&gt;Location: 179799 - 179904" locus_tag="ctg3_150" class="clusterblast-orf" id="dummy-1_q2_0_all"  />
<polygon points="27,35 32,30 36,30 36,40 32,40 27,35 " style="fill:white; stroke-width:1; stroke:black; " description="&lt;b&gt;ctg3_151&lt;/b&gt;&lt;br&gt;ctg3 151&lt;br&gt;Location: 179991 - 180570" locus_tag="ctg3_151" class="clusterblast-orf" id="dummy-1_q3_0_all"  />
<polygon points="39,40 45,40 50,35 45,30 39,30 39,40 " style="fill:white; stroke-width:1; stroke:black; " description="&lt;b&gt;ctg3_152&lt;/b&gt;&lt;br&gt;ctg3 152&lt;br&gt;Location: 180764 - 181487" locus_tag="ctg3_152" class="clusterblast-orf" id="dummy-1_q4_0_all"  />
<polygon points="50,35 55,30 61,30 61,40 55,40 50,35 " style="fill:white; stroke-width:1; stroke:black; " description="&lt;b&gt;ctg3_153&lt;/b&gt;&lt;br&gt;ctg3 153&lt;br&gt;Location: 181531 - 182281" locus_tag="ctg3_153" class="clusterblast-orf" id="dummy-1_q5_0_all"  />
<polygon points="65,40 78,40 83,35 78,30 65,30 65,40 " style="fill:white; stroke-width:1; stroke:black; " description="&lt;b&gt;ctg3_154&lt;/b&gt;&lt;br&gt;ctg3 154&lt;br&gt;Location: 182492 - 183755" locus_tag="ctg3_154" class="clusterblast-orf" id="dummy-1_q6_0_all"  />
<polygon points="92,40 99,40 104,35 99,30 92,30 92,40 " style="fill:white; stroke-width:1; stroke:black; " description="&lt;b&gt;ctg3_155&lt;/b&gt;&lt;br&gt;ctg3 155&lt;br&gt;Location: 184312 - 185146" locus_tag="ctg3_155" class="clusterblast-orf" id="dummy-1_q7_0_all"  />
<polygon points="110,40 128,40 133,35 128,30 110,30 110,40 " style="fill:white; stroke-width:1; stroke:black; " description="&lt;b&gt;ctg3_156&lt;/b&gt;&lt;br&gt;ctg3 156&lt;br&gt;Location: 185539 - 187084" locus_tag="ctg3_156" class="clusterblast-orf" id="dummy-1_q8_0_all"  />
<polygon points="139,35 144,30 158,30 158,40 144,40 139,35 " style="fill:white; stroke-width:1; stroke:black; " description="&lt;b&gt;ctg3_157&lt;/b&gt;&lt;br&gt;ctg3 157&lt;br&gt;Location: 187465 - 188734" locus_tag="ctg3_157" class="clusterblast-orf" id="dummy-1_q9_0_all"  />
<polygon points="160,35 165,30 179,30 179,40 165,40 160,35 " style="fill:white; stroke-width:1; stroke:black; " description="&lt;b&gt;ctg3_158&lt;/b&gt;&lt;br&gt;ctg3 158&lt;br&gt;Location: 188869 - 190129" locus_tag="ctg3_158" class="clusterblast-orf" id="dummy-1_q10_0_all"  />
<polygon points="180,35 185,30 187,30 187,40 185,40 180,35 " style="fill:white; stroke-width:1; stroke:black; " description="&lt;b&gt;ctg3_159&lt;/b&gt;&lt;br&gt;ctg3 159&lt;br&gt;Location: 190226 - 190697" locus_tag="ctg3_159" class="clusterblast-orf" id="dummy-1_q11_0_all"  />
<polygon points="188,35 193,30 203,30 203,40 193,40 188,35 " style="fill:white; stroke-width:1; stroke:black; " description="&lt;b&gt;ctg3_160&lt;/b&gt;&lt;br&gt;ctg3 160&lt;br&gt;Location: 190706 - 191714" locus_tag="ctg3_160" class="clusterblast-orf" id="dummy-1_q12_0_all"  />
<polygon points="204,35 209,30 221,30 221,40 209,40 204,35 " style="fill:#d81515; stroke-width:1; stroke:black; " description="&lt;b&gt;ctg3_161&lt;/b&gt;&lt;br&gt;ctg3 161&lt;br&gt;Location: 191783 - 192962" locus_tag="ctg3_161" class="clusterblast-orf" id="dummy-1_q13_0_all"  />
<polygon points="223,35 228,30 241,30 241,40 228,40 223,35 " style="fill:#4dd815; stroke-width:1; stroke:black; " description="&lt;b&gt;ctg3_162&lt;/b&gt;&lt;br&gt;ctg3 162&lt;br&gt;Location: 193063 - 194263" locus_tag="ctg3_162" class="clusterblast-orf" id="dummy-1_q14_0_all"  />
<polygon points="254,40 269,40 274,35 269,30 254,30 254,40 " style="fill:white; stroke-width:1; stroke:black; " description="&lt;b&gt;ctg3_163&lt;/b&gt;&lt;br&gt;ctg3 163&lt;br&gt;Location: 195115 - 196465" locus_tag="ctg3_163" class="clusterblast-orf" id="dummy-1_q15_0_all"  />
<polygon points="284,40 284,40 289,35 284,30 284,30 284,40 " style="fill:white; stroke-width:1; stroke:black; " description="&lt;b&gt;ctg3_164&lt;/b&gt;&lt;br&gt;ctg3 164&lt;br&gt;Location: 197128 - 197452" locus_tag="ctg3_164" class="clusterblast-orf" id="dummy-1_q16_0_all"  />
<polygon points="292,40 369,40 374,35 369,30 292,30 292,40 " style="fill:#1585d8; stroke-width:1; stroke:black; " description="&lt;b&gt;ctg3_165&lt;/b&gt;&lt;br&gt;ctg3 165&lt;br&gt;Location: 197714 - 203171" locus_tag="ctg3_165" class="clusterblast-orf" id="dummy-1_q17_0_all"  />
<polygon points="376,40 380,40 385,35 380,30 376,30 376,40 " style="fill:white; stroke-width:1; stroke:black; " description="&lt;b&gt;ctg3_166&lt;/b&gt;&lt;br&gt;ctg3 166&lt;br&gt;Location: 203299 - 203863" locus_tag="ctg3_166" class="clusterblast-orf" id="dummy-1_q18_0_all"  />
<polygon points="386,40 407,40 412,35 407,30 386,30 386,40 " style="fill:#d815bc; stroke-width:1; stroke:black; " description="&lt;b&gt;ctg3_167&lt;/b&gt;&lt;br&gt;ctg3 167&lt;br&gt;Location: 203934 - 205674" locus_tag="ctg3_167" class="clusterblast-orf" id="dummy-1_q19_0_all"  />
<polygon points="413,40 478,40 483,35 478,30 413,30 413,40 " style="fill:#d8bc15; stroke-width:1; stroke:black; " description="&lt;b&gt;ctg3_168&lt;/b&gt;&lt;br&gt;ctg3 168&lt;br&gt;Location: 205772 - 210452" locus_tag="ctg3_168" class="clusterblast-orf" id="dummy-1_q20_0_all"  />
<polygon points="487,40 506,40 511,35 506,30 487,30 487,40 " style="fill:#15d885; stroke-width:1; stroke:black; " description="&lt;b&gt;ctg3_169&lt;/b&gt;&lt;br&gt;ctg3 169&lt;br&gt;Location: 210683 - 212345" locus_tag="ctg3_169" class="clusterblast-orf" id="dummy-1_q21_0_all"  />
<polygon points="512,40 529,40 534,35 529,30 512,30 512,40 " style="fill:#4d15d8; stroke-width:1; stroke:black; " description="&lt;b&gt;ctg3_170&lt;/b&gt;&lt;br&gt;ctg3 170&lt;br&gt;Location: 212347 - 213856" locus_tag="ctg3_170" class="clusterblast-orf" id="dummy-1_q22_0_all"  />
<polygon points="542,40 552,40 557,35 552,30 542,30 542,40 " style="fill:white; stroke-width:1; stroke:black; " description="&lt;b&gt;ctg3_171&lt;/b&gt;&lt;br&gt;ctg3 171&lt;br&gt;Location: 214396 - 215410" locus_tag="ctg3_171" class="clusterblast-orf" id="dummy-1_q23_0_all"  />
<polygon points="567,40 571,35 567,30 567,40 " style="fill:white; stroke-width:1; stroke:black; " description="&lt;b&gt;ctg3_172&lt;/b&gt;&lt;br&gt;ctg3 172&lt;br&gt;Location: 216025 - 216352" locus_tag="ctg3_172" class="clusterblast-orf" id="dummy-1_q24_0_all"  />
<polygon points="573,35 576,30 576,40 573,35 " style="fill:white; stroke-width:1; stroke:black; " description="&lt;b&gt;ctg3_173&lt;/b&gt;&lt;br&gt;ctg3 173&lt;br&gt;Location: 216455 - 216689" locus_tag="ctg3_173" class="clusterblast-orf" id="dummy-1_q25_0_all"  />
<polygon points="584,40 587,35 584,30 584,40 " style="fill:white; stroke-width:1; stroke:black; " description="&lt;b&gt;ctg3_174&lt;/b&gt;&lt;br&gt;ctg3 174&lt;br&gt;Location: 217187 - 217406" locus_tag="ctg3_174" class="clusterblast-orf" id="dummy-1_q26_0_all"  />
<polygon points="588,35 593,30 598,30 598,40 593,40 588,35 " style="fill:white; stroke-width:1; stroke:black; " description="&lt;b&gt;ctg3_175&lt;/b&gt;&lt;br&gt;ctg3 175&lt;br&gt;Location: 217486 - 218143" locus_tag="ctg3_175" class="clusterblast-orf" id="dummy-1_q27_0_all"  />
<polygon points="599,35 604,30 611,30 611,40 604,40 599,35 " style="fill:white; stroke-width:1; stroke:black; " description="&lt;b&gt;ctg3_176&lt;/b&gt;&lt;br&gt;ctg3 176&lt;br&gt;Location: 218180 - 218963" locus_tag="ctg3_176" class="clusterblast-orf" id="dummy-1_q28_0_all"  />
<polygon points="612,35 617,30 624,30 624,40 617,40 612,35 " style="fill:white; stroke-width:1; stroke:black; " description="&lt;b&gt;ctg3_177&lt;/b&gt;&lt;br&gt;ctg3 177&lt;br&gt;Location: 219085 - 219832" locus_tag="ctg3_177" class="clusterblast-orf" id="dummy-1_q29_0_all"  />
<polygon points="627,40 638,40 643,35 638,30 627,30 627,40 " style="fill:white; stroke-width:1; stroke:black; " description="&lt;b&gt;ctg3_178&lt;/b&gt;&lt;br&gt;ctg3 178&lt;br&gt;Location: 220056 - 221130" locus_tag="ctg3_178" class="clusterblast-orf" id="dummy-1_q30_0_all"  />
<polygon points="644,40 646,40 651,35 646,30 644,30 644,40 " style="fill:white; stroke-width:1; stroke:black; " description="&lt;b&gt;ctg3_179&lt;/b&gt;&lt;br&gt;ctg3 179&lt;br&gt;Location: 221190 - 221649" locus_tag="ctg3_179" class="clusterblast-orf" id="dummy-1_q31_0_all"  />
<polygon points="651,40 655,35 651,30 651,40 " style="fill:white; stroke-width:1; stroke:black; " description="&lt;b&gt;ctg3_180&lt;/b&gt;&lt;br&gt;ctg3 180&lt;br&gt;Location: 221690 - 221951" locus_tag="ctg3_180" class="clusterblast-orf" id="dummy-1_q32_0_all"  />
<polygon points="656,35 661,30 670,30 670,40 661,40 656,35 " style="fill:white; stroke-width:1; stroke:black; " description="&lt;b&gt;ctg3_181&lt;/b&gt;&lt;br&gt;ctg3 181&lt;br&gt;Location: 222026 - 222938" locus_tag="ctg3_181" class="clusterblast-orf" id="dummy-1_q33_0_all"  />
<polygon points="671,35 676,30 685,30 685,40 676,40 671,35 " style="fill:white; stroke-width:1; stroke:black; " description="&lt;b&gt;ctg3_182&lt;/b&gt;&lt;br&gt;ctg3 182&lt;br&gt;Location: 223025 - 223919" locus_tag="ctg3_182" class="clusterblast-orf" id="dummy-1_q34_0_all"  />
<polygon points="685,35 689,30 689,40 685,35 " style="fill:white; stroke-width:1; stroke:black; " description="&lt;b&gt;ctg3_183&lt;/b&gt;&lt;br&gt;ctg3 183&lt;br&gt;Location: 223968 - 224202" locus_tag="ctg3_183" class="clusterblast-orf" id="dummy-1_q35_0_all"  />
<polygon points="692,35 697,30 716,30 716,40 697,40 692,35 " style="fill:white; stroke-width:1; stroke:black; " description="&lt;b&gt;ctg3_184&lt;/b&gt;&lt;br&gt;ctg3 184&lt;br&gt;Location: 224405 - 226004" locus_tag="ctg3_184" class="clusterblast-orf" id="dummy-1_q36_0_all"  />
<polygon points="721,35 725,30 725,40 721,35 " style="fill:white; stroke-width:1; stroke:black; " description="&lt;b&gt;ctg3_185&lt;/b&gt;&lt;br&gt;ctg3 185&lt;br&gt;Location: 226348 - 226585" locus_tag="ctg3_185" class="clusterblast-orf" id="dummy-1_q37_0_all"  />
<polygon points="726,35 731,30 734,30 734,40 731,40 726,35 " style="fill:white; stroke-width:1; stroke:black; " description="&lt;b&gt;ctg3_186&lt;/b&gt;&lt;br&gt;ctg3 186&lt;br&gt;Location: 226696 - 227239" locus_tag="ctg3_186" class="clusterblast-orf" id="dummy-1_q38_0_all"  />
<polygon points="742,35 747,30 767,30 767,40 747,40 742,35 " style="fill:white; stroke-width:1; stroke:black; " description="&lt;b&gt;ctg3_187&lt;/b&gt;&lt;br&gt;ctg3 187&lt;br&gt;Location: 227731 - 229426" locus_tag="ctg3_187" class="clusterblast-orf" id="dummy-1_q39_0_all"  />
<polygon points="777,35 780,30 780,40 777,35 " style="fill:white; stroke-width:1; stroke:black; " description="&lt;b&gt;ctg3_188&lt;/b&gt;&lt;br&gt;ctg3 188&lt;br&gt;Location: 230083 - 230260" locus_tag="ctg3_188" class="clusterblast-orf" id="dummy-1_q40_0_all"  />
</g>
<g label="BGC0001612" description="BGC0001612_c1: ambiguine H isonitrile (6% of genes show similarity), Alkaloid" class="clusterblast-cluster"  >
<text x="5" y="70" class="clusterblast-acc"  >
<a xlink:href="https://mibig.secondarymetabolites.org/go/BGC0001612/1" target="_blank">BGC0001612</a>:                                                           ambiguine H isonitrile (6% of genes show similarity), Alkaloid</text>
<line x1="10" y1="85" x2="778.0" y2="85" style="stroke-width:1; stroke:grey; "  />
</g>
<g id="a1_000"  >
<polygon points="81,85 86,80 90,80 90,90 86,90 81,85 " style="fill:white; stroke-width:1; stroke:black; " description="&lt;b&gt;APB62269.1&lt;/b&gt;&lt;br&gt;phosphoglycerate mutase&lt;br&gt;Location: 41276 - 40632" locus_tag="APB62269.1" class="clusterblast-orf" id="dummy-1_h1_3_0"  />
</g>
<g id="a1_001"  >
<polygon points="91,85 96,80 107,80 107,90 96,90 91,85 " style="fill:white; stroke-width:1; stroke:black; " description="&lt;b&gt;APB62268.1&lt;/b&gt;&lt;br&gt;anthranilate phosphoribosyltransferase&lt;br&gt;Location: 40607 - 39510" locus_tag="APB62268.1" class="clusterblast-orf" id="dummy-1_h1_3_1"  />
</g>
<g id="a1_002"  >
<polygon points="108,85 113,80 126,80 126,90 113,90 108,85 " style="fill:white; stroke-width:1; stroke:black; " description="&lt;b&gt;APB62267.1&lt;/b&gt;&lt;br&gt;tryptophan synthase subunit beta&lt;br&gt;Location: 39474 - 38224" locus_tag="APB62267.1" class="clusterblast-orf" id="dummy-1_h1_3_2"  />
</g>
<g id="a1_003"  >
<polygon points="129,85 134,80 141,80 141,90 134,90 129,85 " style="fill:white; stroke-width:1; stroke:black; " description="&lt;b&gt;APB62266.1&lt;/b&gt;&lt;br&gt;tryptophan synthase subunit alpha&lt;br&gt;Location: 38062 - 37250" locus_tag="APB62266.1" class="clusterblast-orf" id="dummy-1_h1_3_3"  />
</g>
<g id="a1_004"  >
<polygon points="142,85 147,80 154,80 154,90 147,90 142,85 " style="fill:white; stroke-width:1; stroke:black; " description="&lt;b&gt;APB62265.1&lt;/b&gt;&lt;br&gt;indole-3-glycerol-phosphate synthase&lt;br&gt;Location: 37198 - 36347" locus_tag="APB62265.1" class="clusterblast-orf" id="dummy-1_h1_3_4"  />
</g>
<g id="a1_005"  >
<polygon points="158,85 163,80 191,80 191,90 163,90 158,85 " style="fill:white; stroke-width:1; stroke:black; " description="&lt;b&gt;APB62264.1&lt;/b&gt;&lt;br&gt;anthranilate synthase subunit I&lt;br&gt;Location: 36107 - 33903" locus_tag="APB62264.1" class="clusterblast-orf" id="dummy-1_h1_3_5"  />
</g>
<g id="a1_006"  >
<polygon points="192,85 197,80 205,80 205,90 197,90 192,85 " style="fill:white; stroke-width:1; stroke:black; " description="&lt;b&gt;APB62263.1&lt;/b&gt;&lt;br&gt;3-deoxy-D-arabinoheptulosonate-7-phosphate synthase&lt;br&gt;Location: 33849 - 32944" locus_tag="APB62263.1" class="clusterblast-orf" id="dummy-1_h1_3_6"  />
</g>
<g id="a1_007"  >
<polygon points="209,85 214,80 227,80 227,90 214,90 209,85 " style="fill:white; stroke-width:1; stroke:black; " description="&lt;b&gt;APB62262.1&lt;/b&gt;&lt;br&gt;4-hydroxy-3-methylbut-2-en-1-yl diphosphate synthase&lt;br&gt;Location: 32729 - 31503" locus_tag="APB62262.1" class="clusterblast-orf" id="dummy-1_h1_3_7"  />
</g>
<g id="a1_008"  >
<polygon points="228,85 233,80 257,80 257,90 233,90 228,85 " style="fill:white; stroke-width:1; stroke:black; " description="&lt;b&gt;APB62261.1&lt;/b&gt;&lt;br&gt;1-deoxy-D-xylulose-5-phosphate synthase&lt;br&gt;Location: 31430 - 29487" locus_tag="APB62261.1" class="clusterblast-orf" id="dummy-1_h1_3_8"  />
</g>
<g id="a1_009"  >
<polygon points="261,85 266,80 275,80 275,90 266,90 261,85 " style="fill:white; stroke-width:1; stroke:black; " description="&lt;b&gt;APB62260.1&lt;/b&gt;&lt;br&gt;Aromatic prenyltransferase&lt;br&gt;Location: 29230 - 28301" locus_tag="APB62260.1" class="clusterblast-orf" id="dummy-1_h1_3_9"  />
</g>
<g id="a1_0010"  >
<polygon points="282,85 287,80 294,80 294,90 287,90 282,85 " style="fill:white; stroke-width:1; stroke:black; " description="&lt;b&gt;APB62259.1&lt;/b&gt;&lt;br&gt;Isonitrile synthase&lt;br&gt;Location: 27824 - 27003" locus_tag="APB62259.1" class="clusterblast-orf" id="dummy-1_h1_3_10"  />
</g>
<g id="a1_0011"  >
<polygon points="294,85 299,80 309,80 309,90 299,90 294,85 " style="fill:white; stroke-width:1; stroke:black; " description="&lt;b&gt;APB62258.1&lt;/b&gt;&lt;br&gt;Isonitrile synthase&lt;br&gt;Location: 27003 - 26011" locus_tag="APB62258.1" class="clusterblast-orf" id="dummy-1_h1_3_11"  />
</g>
<g id="a1_0012"  >
<polygon points="312,85 317,80 326,80 326,90 317,90 312,85 " style="fill:white; stroke-width:1; stroke:black; " description="&lt;b&gt;APB62257.1&lt;/b&gt;&lt;br&gt;Isonitrile synthase&lt;br&gt;Location: 25819 - 24860" locus_tag="APB62257.1" class="clusterblast-orf" id="dummy-1_h1_3_12"  />
</g>
<g id="a1_0013"  >
<polygon points="331,85 336,80 349,80 349,90 336,90 331,85 " style="fill:white; stroke-width:1; stroke:black; " description="&lt;b&gt;APB62256.1&lt;/b&gt;&lt;br&gt;1-deoxy-D-xylulose 5-phosphate reductoisomerase&lt;br&gt;Location: 24554 - 23334" locus_tag="APB62256.1" class="clusterblast-orf" id="dummy-1_h1_3_13"  />
</g>
<g id="a1_0014"  >
<polygon points="350,85 355,80 359,80 359,90 355,90 350,85 " style="fill:white; stroke-width:1; stroke:black; " description="&lt;b&gt;APB62255.1&lt;/b&gt;&lt;br&gt;dephospho-CoA kinase-like protein&lt;br&gt;Location: 23269 - 22691" locus_tag="APB62255.1" class="clusterblast-orf" id="dummy-1_h1_3_14"  />
</g>
<g id="a1_0015"  >
<polygon points="381,90 387,90 392,85 387,80 381,80 381,90 " style="fill:white; stroke-width:1; stroke:black; " description="&lt;b&gt;APB62254.1&lt;/b&gt;&lt;br&gt;LuxR family transcriptional regulator&lt;br&gt;Location: 21198 - 20464" locus_tag="APB62254.1" class="clusterblast-orf" id="dummy-1_h1_3_15"  />
</g>
<g id="a1_0016"  >
<polygon points="396,85 401,80 406,80 406,90 401,90 396,85 " style="fill:white; stroke-width:1; stroke:black; " description="&lt;b&gt;APB62253.1&lt;/b&gt;&lt;br&gt;LuxR family transcriptional regulator&lt;br&gt;Location: 20232 - 19516" locus_tag="APB62253.1" class="clusterblast-orf" id="dummy-1_h1_3_16"  />
</g>
<g id="a1_0017"  >
<polygon points="444,90 455,90 460,85 455,80 444,80 444,90 " style="fill:white; stroke-width:1; stroke:black; " description="&lt;b&gt;APB62252.1&lt;/b&gt;&lt;br&gt;polyprenyl synthetase&lt;br&gt;Location: 16969 - 15929" locus_tag="APB62252.1" class="clusterblast-orf" id="dummy-1_h1_3_17"  />
</g>
<g id="a1_0018"  >
<polygon points="461,90 474,90 479,85 474,80 461,80 461,90 " style="fill:white; stroke-width:1; stroke:black; " description="&lt;b&gt;APB62251.1&lt;/b&gt;&lt;br&gt;4-hydroxy-3-methylbut-2-enyl diphosphate reductase&lt;br&gt;Location: 15892 - 14654" locus_tag="APB62251.1" class="clusterblast-orf" id="dummy-1_h1_3_18"  />
</g>
<g id="a1_0019"  >
<polygon points="482,90 492,90 497,85 492,80 482,80 482,90 " style="fill:white; stroke-width:1; stroke:black; " description="&lt;b&gt;APB62250.1&lt;/b&gt;&lt;br&gt;aromatic prenyltransferase&lt;br&gt;Location: 14489 - 13458" locus_tag="APB62250.1" class="clusterblast-orf" id="dummy-1_h1_3_19"  />
</g>
<g id="a1_0020"  >
<polygon points="501,90 513,90 518,85 513,80 501,80 501,90 " style="fill:white; stroke-width:1; stroke:black; " description="&lt;b&gt;APB62249.1&lt;/b&gt;&lt;br&gt;Rieske oxygenase&lt;br&gt;Location: 13158 - 12079" locus_tag="APB62249.1" class="clusterblast-orf" id="dummy-1_h1_3_20"  />
</g>
<g id="a1_0021"  >
<polygon points="519,90 530,90 535,85 530,80 519,80 519,90 " style="fill:white; stroke-width:1; stroke:black; " description="&lt;b&gt;APB62248.1&lt;/b&gt;&lt;br&gt;Rieske oxygenase&lt;br&gt;Location: 11991 - 10909" locus_tag="APB62248.1" class="clusterblast-orf" id="dummy-1_h1_3_21"  />
</g>
<g id="a1_0022"  >
<polygon points="540,90 551,90 556,85 551,80 540,80 540,90 " style="fill:white; stroke-width:1; stroke:black; " description="&lt;b&gt;APB62247.1&lt;/b&gt;&lt;br&gt;Rieske oxygenase&lt;br&gt;Location: 10601 - 9510" locus_tag="APB62247.1" class="clusterblast-orf" id="dummy-1_h1_3_22"  />
</g>
<g id="a1_0023"  >
<polygon points="557,90 563,90 568,85 563,80 557,80 557,90 " style="fill:white; stroke-width:1; stroke:black; " description="&lt;b&gt;APB62246.1&lt;/b&gt;&lt;br&gt;Stig cyclase&lt;br&gt;Location: 9455 - 8736" locus_tag="APB62246.1" class="clusterblast-orf" id="dummy-1_h1_3_23"  />
</g>
<g id="a1_0024"  >
<polygon points="573,90 578,90 583,85 578,80 573,80 573,90 " style="fill:white; stroke-width:1; stroke:black; " description="&lt;b&gt;APB62245.1&lt;/b&gt;&lt;br&gt;Stig cyclase&lt;br&gt;Location: 8409 - 7726" locus_tag="APB62245.1" class="clusterblast-orf" id="dummy-1_h1_3_24"  />
</g>
<g id="a1_0025"  >
<polygon points="588,90 593,90 598,85 593,80 588,80 588,90 " style="fill:white; stroke-width:1; stroke:black; " description="&lt;b&gt;APB62244.1&lt;/b&gt;&lt;br&gt;Stig cyclase&lt;br&gt;Location: 7396 - 6704" locus_tag="APB62244.1" class="clusterblast-orf" id="dummy-1_h1_3_25"  />
</g>
<g id="a1_0026"  >
<polygon points="604,90 609,90 614,85 609,80 604,80 604,90 " style="fill:white; stroke-width:1; stroke:black; " description="&lt;b&gt;APB62243.1&lt;/b&gt;&lt;br&gt;Stig cyclase&lt;br&gt;Location: 6307 - 5624" locus_tag="APB62243.1" class="clusterblast-orf" id="dummy-1_h1_3_26"  />
</g>
<g id="a1_0027"  >
<polygon points="621,90 629,90 634,85 629,80 621,80 621,90 " style="fill:white; stroke-width:1; stroke:black; " description="&lt;b&gt;APB62242.1&lt;/b&gt;&lt;br&gt;Rieske oxygenase&lt;br&gt;Location: 5186 - 4329" locus_tag="APB62242.1" class="clusterblast-orf" id="dummy-1_h1_3_27"  />
</g>
<g id="a1_0028"  >
<polygon points="636,90 645,90 650,85 645,80 636,80 636,90 " style="fill:white; stroke-width:1; stroke:black; " description="&lt;b&gt;APB62241.1&lt;/b&gt;&lt;br&gt;2OG-Fe(II) oxygenase&lt;br&gt;Location: 4204 - 3254" locus_tag="APB62241.1" class="clusterblast-orf" id="dummy-1_h1_3_28"  />
</g>
<g id="a1_0029"  >
<polygon points="656,85 661,80 673,80 673,90 661,90 656,85 " style="fill:#d81515; stroke-width:1; stroke:black; " description="&lt;b&gt;APB62240.1&lt;/b&gt;&lt;br&gt;ABC transporter&lt;br&gt;Location: 2847 - 1681&lt;br&gt;&lt;br&gt;&lt;b&gt;BlastP hit with ctg3_161&lt;/b&gt;&lt;br&gt;Percentage identity: 46&lt;br&gt;Percentage coverage: 99&lt;br&gt;BLAST bit score: 347&lt;br&gt;E-value: 2.6e-95" locus_tag="APB62240.1" class="clusterblast-orf" id="dummy-1_h1_3_29"  />
</g>
<g id="a1_0030"  >
<polygon points="674,85 679,80 691,80 691,90 679,90 674,85 " style="fill:#4dd815; stroke-width:1; stroke:black; " description="&lt;b&gt;APB62239.1&lt;/b&gt;&lt;br&gt;DevB family ABC transporter membrane fusion protein&lt;br&gt;Location: 1657 - 464&lt;br&gt;&lt;br&gt;&lt;b&gt;BlastP hit with ctg3_162&lt;/b&gt;&lt;br&gt;Percentage identity: 59&lt;br&gt;Percentage coverage: 100&lt;br&gt;BLAST bit score: 185&lt;br&gt;E-value: 1.8e-46" locus_tag="APB62239.1" class="clusterblast-orf" id="dummy-1_h1_3_30"  />
</g>
<g id="a1_0031"  >
<polygon points="692,85 697,80 698,80 698,90 697,90 692,85 " style="fill:white; stroke-width:1; stroke:black; " description="&lt;b&gt;APB62238.1&lt;/b&gt;&lt;br&gt;hypothetical protein&lt;br&gt;Location: 456 - 1" locus_tag="APB62238.1" class="clusterblast-orf" id="dummy-1_h1_3_31"  />
</g>
</svg>
