<svg xmlns="http://www.w3.org/2000/svg" xmlns:xlink="http://www.w3.org/1999/xlink" version="1.1" x="0" y="0" height="230" width="800" viewBox="0 0 800 230" preserveAspectRatio="none"  >
<g label="Query sequence" class="clusterblast-cluster"  >
<text x="5" y="20" class="clusterblast-acc"  >
Query sequence</text>
<line x1="10" y1="35" x2="778.0" y2="35" style="stroke-width:1; stroke:grey; "  />
<polygon points="0,35 5,30 54,30 54,40 5,40 0,35 " style="fill:#d81515; stroke-width:1; stroke:black; " description="&lt;b&gt;ctg44_1&lt;/b&gt;&lt;br&gt;ctg44 1&lt;br&gt;Location: 2 - 2855" locus_tag="ctg44_1" class="clusterblast-orf" id="dummy-1_q0_0_all"  />
<polygon points="54,35 59,30 202,30 202,40 59,40 54,35 " style="fill:#d81515; stroke-width:1; stroke:black; " description="&lt;b&gt;ctg44_2&lt;/b&gt;&lt;br&gt;ctg44 2&lt;br&gt;Location: 2851 - 10603" locus_tag="ctg44_2" class="clusterblast-orf" id="dummy-1_q1_0_all"  />
<polygon points="203,35 208,30 229,30 229,40 208,40 203,35 " style="fill:white; stroke-width:1; stroke:black; " description="&lt;b&gt;ctg44_3&lt;/b&gt;&lt;br&gt;ctg44 3&lt;br&gt;Location: 10645 - 11974" locus_tag="ctg44_3" class="clusterblast-orf" id="dummy-1_q2_0_all"  />
<polygon points="229,35 234,30 290,30 290,40 234,40 229,35 " style="fill:#d81515; stroke-width:1; stroke:black; " description="&lt;b&gt;ctg44_4&lt;/b&gt;&lt;br&gt;ctg44 4&lt;br&gt;Location: 11973 - 15183" locus_tag="ctg44_4" class="clusterblast-orf" id="dummy-1_q3_0_all"  />
<polygon points="291,35 296,30 417,30 417,40 296,40 291,35 " style="fill:#d81515; stroke-width:1; stroke:black; " description="&lt;b&gt;ctg44_5&lt;/b&gt;&lt;br&gt;ctg44 5&lt;br&gt;Location: 15231 - 21804" locus_tag="ctg44_5" class="clusterblast-orf" id="dummy-1_q4_0_all"  />
<polygon points="417,35 422,30 450,30 450,40 422,40 417,35 " style="fill:white; stroke-width:1; stroke:black; " description="&lt;b&gt;ctg44_6&lt;/b&gt;&lt;br&gt;ctg44 6&lt;br&gt;Location: 21831 - 23541" locus_tag="ctg44_6" class="clusterblast-orf" id="dummy-1_q5_0_all"  />
<polygon points="450,35 455,30 471,30 471,40 455,40 450,35 " style="fill:white; stroke-width:1; stroke:black; " description="&lt;b&gt;ctg44_7&lt;/b&gt;&lt;br&gt;ctg44 7&lt;br&gt;Location: 23524 - 24616" locus_tag="ctg44_7" class="clusterblast-orf" id="dummy-1_q6_0_all"  />
<polygon points="480,35 485,30 495,30 495,40 485,40 480,35 " style="fill:white; stroke-width:1; stroke:black; " description="&lt;b&gt;ctg44_8&lt;/b&gt;&lt;br&gt;ctg44 8&lt;br&gt;Location: 25092 - 25902" locus_tag="ctg44_8" class="clusterblast-orf" id="dummy-1_q7_0_all"  />
<polygon points="511,35 514,30 514,40 511,35 " style="fill:white; stroke-width:1; stroke:black; " description="&lt;b&gt;ctg44_9&lt;/b&gt;&lt;br&gt;ctg44 9&lt;br&gt;Location: 26747 - 26897" locus_tag="ctg44_9" class="clusterblast-orf" id="dummy-1_q8_0_all"  />
<polygon points="521,40 521,40 526,35 521,30 521,30 521,40 " style="fill:white; stroke-width:1; stroke:black; " description="&lt;b&gt;ctg44_10&lt;/b&gt;&lt;br&gt;ctg44 10&lt;br&gt;Location: 27248 - 27515" locus_tag="ctg44_10" class="clusterblast-orf" id="dummy-1_q9_0_all"  />
<polygon points="532,40 546,40 551,35 546,30 532,30 532,40 " style="fill:white; stroke-width:1; stroke:black; " description="&lt;b&gt;ctg44_11&lt;/b&gt;&lt;br&gt;ctg44 11&lt;br&gt;Location: 27802 - 28795" locus_tag="ctg44_11" class="clusterblast-orf" id="dummy-1_q10_0_all"  />
<polygon points="552,40 566,40 571,35 566,30 552,30 552,40 " style="fill:white; stroke-width:1; stroke:black; " description="&lt;b&gt;ctg44_12&lt;/b&gt;&lt;br&gt;ctg44 12&lt;br&gt;Location: 28884 - 29862" locus_tag="ctg44_12" class="clusterblast-orf" id="dummy-1_q11_0_all"  />
<polygon points="574,40 608,40 613,35 608,30 574,30 574,40 " style="fill:white; stroke-width:1; stroke:black; " description="&lt;b&gt;ctg44_13&lt;/b&gt;&lt;br&gt;ctg44 13&lt;br&gt;Location: 30001 - 32065" locus_tag="ctg44_13" class="clusterblast-orf" id="dummy-1_q12_0_all"  />
<polygon points="616,40 618,40 623,35 618,30 616,30 616,40 " style="fill:white; stroke-width:1; stroke:black; " description="&lt;b&gt;ctg44_14&lt;/b&gt;&lt;br&gt;ctg44 14&lt;br&gt;Location: 32192 - 32597" locus_tag="ctg44_14" class="clusterblast-orf" id="dummy-1_q13_0_all"  />
<polygon points="626,40 656,40 661,35 656,30 626,30 626,40 " style="fill:#15d8d8; stroke-width:1; stroke:black; " description="&lt;b&gt;ctg44_15&lt;/b&gt;&lt;br&gt;ctg44 15&lt;br&gt;Location: 32755 - 34561" locus_tag="ctg44_15" class="clusterblast-orf" id="dummy-1_q14_0_all"  />
<polygon points="661,40 688,40 693,35 688,30 661,30 661,40 " style="fill:white; stroke-width:1; stroke:black; " description="&lt;b&gt;ctg44_16&lt;/b&gt;&lt;br&gt;ctg44 16&lt;br&gt;Location: 34547 - 36230" locus_tag="ctg44_16" class="clusterblast-orf" id="dummy-1_q15_0_all"  />
<polygon points="696,35 701,30 722,30 722,40 701,40 696,35 " style="fill:white; stroke-width:1; stroke:black; " description="&lt;b&gt;ctg44_17&lt;/b&gt;&lt;br&gt;ctg44 17&lt;br&gt;Location: 36421 - 37750" locus_tag="ctg44_17" class="clusterblast-orf" id="dummy-1_q16_0_all"  />
<polygon points="722,35 727,30 739,30 739,40 727,40 722,35 " style="fill:white; stroke-width:1; stroke:black; " description="&lt;b&gt;ctg44_18&lt;/b&gt;&lt;br&gt;ctg44 18&lt;br&gt;Location: 37779 - 38628" locus_tag="ctg44_18" class="clusterblast-orf" id="dummy-1_q17_0_all"  />
<polygon points="749,35 754,30 780,30 780,40 754,40 749,35 " style="fill:white; stroke-width:1; stroke:black; " description="&lt;b&gt;ctg44_19&lt;/b&gt;&lt;br&gt;ctg44 19&lt;br&gt;Location: 39169 - 40774" locus_tag="ctg44_19" class="clusterblast-orf" id="dummy-1_q18_0_all"  />
</g>
<g label="BGC0001028" description="BGC0001028_c1: nostopeptolide A2 (37% of genes show similarity), Polyketide + NRP:Cyclic depsipeptide" class="clusterblast-cluster"  >
<text x="5" y="70" class="clusterblast-acc"  >
<a xlink:href="https://mibig.secondarymetabolites.org/go/BGC0001028/1" target="_blank">BGC0001028</a>:                                                                nostopeptolide A2 (37% of genes show similarity), Polyketide + NRP:Cyclic depsipeptide</text>
<line x1="10" y1="85" x2="778.0" y2="85" style="stroke-width:1; stroke:grey; "  />
</g>
<g id="a1_000"  >
<polygon points="13,85 18,80 51,80 51,90 18,90 13,85 " style="fill:#15d8d8; stroke-width:1; stroke:black; " description="&lt;b&gt;AAF17285.1&lt;/b&gt;&lt;br&gt;nosG&lt;br&gt;Location: 40725 - 38734&lt;br&gt;&lt;br&gt;&lt;b&gt;BlastP hit with ctg44_15&lt;/b&gt;&lt;br&gt;Percentage identity: 69&lt;br&gt;Percentage coverage: 98&lt;br&gt;BLAST bit score: 809&lt;br&gt;E-value: 3.8e-234" locus_tag="AAF17285.1" class="clusterblast-orf" id="dummy-1_h1_9_0"  />
</g>
<g id="a1_001"  >
<polygon points="53,85 58,80 69,80 69,90 58,90 53,85 " style="fill:white; stroke-width:1; stroke:black; " description="&lt;b&gt;AAF17284.1&lt;/b&gt;&lt;br&gt;nosF&lt;br&gt;Location: 38632 - 37811" locus_tag="AAF17284.1" class="clusterblast-orf" id="dummy-1_h1_9_1"  />
</g>
<g id="a1_002"  >
<polygon points="70,85 75,80 91,80 91,90 75,90 70,85 " style="fill:white; stroke-width:1; stroke:black; " description="&lt;b&gt;AAF17283.1&lt;/b&gt;&lt;br&gt;nosE&lt;br&gt;Location: 37771 - 36665" locus_tag="AAF17283.1" class="clusterblast-orf" id="dummy-1_h1_9_2"  />
</g>
<g id="a1_003"  >
<polygon points="92,85 97,80 107,80 107,90 97,90 92,85 " style="fill:white; stroke-width:1; stroke:black; " description="&lt;b&gt;AAF17282.1&lt;/b&gt;&lt;br&gt;Unknown&lt;br&gt;Location: 36617 - 35820" locus_tag="AAF17282.1" class="clusterblast-orf" id="dummy-1_h1_9_3"  />
</g>
<g id="a1_004"  >
<polygon points="111,85 116,80 251,80 251,90 116,90 111,85 " style="fill:#d81515; stroke-width:1; stroke:black; " description="&lt;b&gt;AAF17281.1&lt;/b&gt;&lt;br&gt;nosD&lt;br&gt;Location: 35614 - 28262&lt;br&gt;&lt;br&gt;&lt;b&gt;BlastP hit with ctg44_1&lt;/b&gt;&lt;br&gt;Percentage identity: 51&lt;br&gt;Percentage coverage: 94&lt;br&gt;BLAST bit score: 856&lt;br&gt;E-value: 5.6e-248&lt;br&gt;&lt;br&gt;&lt;b&gt;BlastP hit with ctg44_2&lt;/b&gt;&lt;br&gt;Percentage identity: 49&lt;br&gt;Percentage coverage: 78&lt;br&gt;BLAST bit score: 1769&lt;br&gt;E-value: 0.0&lt;br&gt;&lt;br&gt;&lt;b&gt;BlastP hit with ctg44_5&lt;/b&gt;&lt;br&gt;Percentage identity: 48&lt;br&gt;Percentage coverage: 79&lt;br&gt;BLAST bit score: 1488&lt;br&gt;E-value: 0.0" locus_tag="AAF17281.1" class="clusterblast-orf" id="dummy-1_h1_9_4"  />
</g>
<g id="a1_005"  >
<polygon points="251,85 256,80 442,80 442,90 256,90 251,85 " style="fill:#d81515; stroke-width:1; stroke:black; " description="&lt;b&gt;AAF17280.1&lt;/b&gt;&lt;br&gt;nosC&lt;br&gt;Location: 28265 - 18312&lt;br&gt;&lt;br&gt;&lt;b&gt;BlastP hit with ctg44_2&lt;/b&gt;&lt;br&gt;Percentage identity: 47&lt;br&gt;Percentage coverage: 80&lt;br&gt;BLAST bit score: 1737&lt;br&gt;E-value: 0.0&lt;br&gt;&lt;br&gt;&lt;b&gt;BlastP hit with ctg44_5&lt;/b&gt;&lt;br&gt;Percentage identity: 47&lt;br&gt;Percentage coverage: 80&lt;br&gt;BLAST bit score: 1507&lt;br&gt;E-value: 0.0" locus_tag="AAF17280.1" class="clusterblast-orf" id="dummy-1_h1_9_5"  />
</g>
<g id="a1_006"  >
<polygon points="443,85 448,80 515,80 515,90 448,90 443,85 " style="fill:white; stroke-width:1; stroke:black; " description="&lt;b&gt;AAF15892.2&lt;/b&gt;&lt;br&gt;nosB&lt;br&gt;Location: 18240 - 14506" locus_tag="AAF15892.2" class="clusterblast-orf" id="dummy-1_h1_9_6"  />
</g>
<g id="a1_007"  >
<polygon points="515,85 520,80 766,80 766,90 520,90 515,85 " style="fill:white; stroke-width:1; stroke:black; " description="&lt;b&gt;AAF15891.2&lt;/b&gt;&lt;br&gt;nosA&lt;br&gt;Location: 14509 - 1370" locus_tag="AAF15891.2" class="clusterblast-orf" id="dummy-1_h1_9_7"  />
</g>
</svg>
