<svg xmlns="http://www.w3.org/2000/svg" xmlns:xlink="http://www.w3.org/1999/xlink" version="1.1" x="0" y="0" height="550" width="800" viewBox="0 0 800 550" preserveAspectRatio="none"  >
<g label="Query sequence" class="clusterblast-cluster"  >
<text x="5" y="20" class="clusterblast-acc"  >
Query sequence</text>
<line x1="10" y1="35" x2="778.0" y2="35" style="stroke-width:1; stroke:grey; "  />
<polygon points="20,35 25,30 39,30 39,40 25,40 20,35 " style="fill:white; stroke-width:1; stroke:black; " description="&lt;b&gt;ctg25_18&lt;/b&gt;&lt;br&gt;ctg25 18&lt;br&gt;Location: 29371 - 30826" locus_tag="ctg25_18" class="clusterblast-orf" id="knownclusterblast-1_q0_0_all"  />
<polygon points="40,35 45,30 62,30 62,40 45,40 40,35 " style="fill:white; stroke-width:1; stroke:black; " description="&lt;b&gt;ctg25_19&lt;/b&gt;&lt;br&gt;ctg25 19&lt;br&gt;Location: 30934 - 32581" locus_tag="ctg25_19" class="clusterblast-orf" id="knownclusterblast-1_q1_0_all"  />
<polygon points="65,40 71,40 76,35 71,30 65,30 65,40 " style="fill:white; stroke-width:1; stroke:black; " description="&lt;b&gt;ctg25_20&lt;/b&gt;&lt;br&gt;ctg25 20&lt;br&gt;Location: 32828 - 33635" locus_tag="ctg25_20" class="clusterblast-orf" id="knownclusterblast-1_q2_0_all"  />
<polygon points="78,40 98,40 103,35 98,30 78,30 78,40 " style="fill:white; stroke-width:1; stroke:black; " description="&lt;b&gt;ctg25_21&lt;/b&gt;&lt;br&gt;ctg25 21&lt;br&gt;Location: 33775 - 35701" locus_tag="ctg25_21" class="clusterblast-orf" id="knownclusterblast-1_q3_0_all"  />
<polygon points="104,40 108,40 113,35 108,30 104,30 104,40 " style="fill:white; stroke-width:1; stroke:black; " description="&lt;b&gt;ctg25_22&lt;/b&gt;&lt;br&gt;ctg25 22&lt;br&gt;Location: 35757 - 36450" locus_tag="ctg25_22" class="clusterblast-orf" id="knownclusterblast-1_q4_0_all"  />
<polygon points="123,40 125,40 130,35 125,30 123,30 123,40 " style="fill:white; stroke-width:1; stroke:black; " description="&lt;b&gt;ctg25_23&lt;/b&gt;&lt;br&gt;ctg25 23&lt;br&gt;Location: 37196 - 37673" locus_tag="ctg25_23" class="clusterblast-orf" id="knownclusterblast-1_q5_0_all"  />
<polygon points="131,40 143,40 148,35 143,30 131,30 131,40 " style="fill:white; stroke-width:1; stroke:black; " description="&lt;b&gt;ctg25_24&lt;/b&gt;&lt;br&gt;ctg25 24&lt;br&gt;Location: 37781 - 39050" locus_tag="ctg25_24" class="clusterblast-orf" id="knownclusterblast-1_q6_0_all"  />
<polygon points="149,40 153,40 158,35 153,30 149,30 149,40 " style="fill:white; stroke-width:1; stroke:black; " description="&lt;b&gt;ctg25_25&lt;/b&gt;&lt;br&gt;ctg25 25&lt;br&gt;Location: 39123 - 39852" locus_tag="ctg25_25" class="clusterblast-orf" id="knownclusterblast-1_q7_0_all"  />
<polygon points="159,40 175,40 180,35 175,30 159,30 159,40 " style="fill:white; stroke-width:1; stroke:black; " description="&lt;b&gt;ctg25_26&lt;/b&gt;&lt;br&gt;ctg25 26&lt;br&gt;Location: 39907 - 41467" locus_tag="ctg25_26" class="clusterblast-orf" id="knownclusterblast-1_q8_0_all"  />
<polygon points="181,40 197,40 202,35 197,30 181,30 181,40 " style="fill:white; stroke-width:1; stroke:black; " description="&lt;b&gt;ctg25_27&lt;/b&gt;&lt;br&gt;ctg25 27&lt;br&gt;Location: 41572 - 43117" locus_tag="ctg25_27" class="clusterblast-orf" id="knownclusterblast-1_q9_0_all"  />
<polygon points="204,35 209,30 220,30 220,40 209,40 204,35 " style="fill:white; stroke-width:1; stroke:black; " description="&lt;b&gt;ctg25_28&lt;/b&gt;&lt;br&gt;ctg25 28&lt;br&gt;Location: 43308 - 44514" locus_tag="ctg25_28" class="clusterblast-orf" id="knownclusterblast-1_q10_0_all"  />
<polygon points="221,35 226,30 237,30 237,40 226,40 221,35 " style="fill:white; stroke-width:1; stroke:black; " description="&lt;b&gt;ctg25_29&lt;/b&gt;&lt;br&gt;ctg25 29&lt;br&gt;Location: 44601 - 45822" locus_tag="ctg25_29" class="clusterblast-orf" id="knownclusterblast-1_q11_0_all"  />
<polygon points="250,35 252,30 252,40 250,35 " style="fill:white; stroke-width:1; stroke:black; " description="&lt;b&gt;ctg25_30&lt;/b&gt;&lt;br&gt;ctg25 30&lt;br&gt;Location: 46765 - 46948" locus_tag="ctg25_30" class="clusterblast-orf" id="knownclusterblast-1_q12_0_all"  />
<polygon points="253,35 258,30 270,30 270,40 258,40 253,35 " style="fill:white; stroke-width:1; stroke:black; " description="&lt;b&gt;ctg25_31&lt;/b&gt;&lt;br&gt;ctg25 31&lt;br&gt;Location: 46975 - 48283" locus_tag="ctg25_31" class="clusterblast-orf" id="knownclusterblast-1_q13_0_all"  />
<polygon points="270,35 275,30 369,30 369,40 275,40 270,35 " style="fill:#d81515; stroke-width:1; stroke:black; " description="&lt;b&gt;ctg25_32&lt;/b&gt;&lt;br&gt;ctg25 32&lt;br&gt;Location: 48275 - 55724" locus_tag="ctg25_32" class="clusterblast-orf" id="knownclusterblast-1_q14_0_all"  />
<polygon points="369,35 374,30 414,30 414,40 374,40 369,35 " style="fill:#d81515; stroke-width:1; stroke:black; " description="&lt;b&gt;ctg25_33&lt;/b&gt;&lt;br&gt;ctg25 33&lt;br&gt;Location: 55720 - 59134" locus_tag="ctg25_33" class="clusterblast-orf" id="knownclusterblast-1_q15_0_all"  />
<polygon points="415,35 420,30 499,30 499,40 420,40 415,35 " style="fill:#d81515; stroke-width:1; stroke:black; " description="&lt;b&gt;ctg25_34&lt;/b&gt;&lt;br&gt;ctg25 34&lt;br&gt;Location: 59218 - 65602" locus_tag="ctg25_34" class="clusterblast-orf" id="knownclusterblast-1_q16_0_all"  />
<polygon points="502,35 507,30 515,30 515,40 507,40 502,35 " style="fill:white; stroke-width:1; stroke:black; " description="&lt;b&gt;ctg25_35&lt;/b&gt;&lt;br&gt;ctg25 35&lt;br&gt;Location: 65761 - 66799" locus_tag="ctg25_35" class="clusterblast-orf" id="knownclusterblast-1_q17_0_all"  />
<polygon points="516,35 521,30 530,30 530,40 521,40 516,35 " style="fill:white; stroke-width:1; stroke:black; " description="&lt;b&gt;ctg25_36&lt;/b&gt;&lt;br&gt;ctg25 36&lt;br&gt;Location: 66850 - 67876" locus_tag="ctg25_36" class="clusterblast-orf" id="knownclusterblast-1_q18_0_all"  />
<polygon points="550,35 555,30 589,30 589,40 555,40 550,35 " style="fill:white; stroke-width:1; stroke:black; " description="&lt;b&gt;ctg25_37&lt;/b&gt;&lt;br&gt;ctg25 37&lt;br&gt;Location: 69409 - 72334" locus_tag="ctg25_37" class="clusterblast-orf" id="knownclusterblast-1_q19_0_all"  />
<polygon points="590,35 595,30 621,30 621,40 595,40 590,35 " style="fill:white; stroke-width:1; stroke:black; " description="&lt;b&gt;ctg25_38&lt;/b&gt;&lt;br&gt;ctg25 38&lt;br&gt;Location: 72403 - 74773" locus_tag="ctg25_38" class="clusterblast-orf" id="knownclusterblast-1_q20_0_all"  />
<polygon points="623,35 628,30 642,30 642,40 628,40 623,35 " style="fill:white; stroke-width:1; stroke:black; " description="&lt;b&gt;ctg25_39&lt;/b&gt;&lt;br&gt;ctg25 39&lt;br&gt;Location: 74899 - 76339" locus_tag="ctg25_39" class="clusterblast-orf" id="knownclusterblast-1_q21_0_all"  />
<polygon points="644,35 649,30 659,30 659,40 649,40 644,35 " style="fill:white; stroke-width:1; stroke:black; " description="&lt;b&gt;ctg25_40&lt;/b&gt;&lt;br&gt;ctg25 40&lt;br&gt;Location: 76528 - 77626" locus_tag="ctg25_40" class="clusterblast-orf" id="knownclusterblast-1_q22_0_all"  />
<polygon points="662,35 665,30 665,40 662,35 " style="fill:white; stroke-width:1; stroke:black; " description="&lt;b&gt;ctg25_41&lt;/b&gt;&lt;br&gt;ctg25 41&lt;br&gt;Location: 77900 - 78098" locus_tag="ctg25_41" class="clusterblast-orf" id="knownclusterblast-1_q23_0_all"  />
<polygon points="666,35 670,30 670,40 666,35 " style="fill:white; stroke-width:1; stroke:black; " description="&lt;b&gt;ctg25_42&lt;/b&gt;&lt;br&gt;ctg25 42&lt;br&gt;Location: 78196 - 78460" locus_tag="ctg25_42" class="clusterblast-orf" id="knownclusterblast-1_q24_0_all"  />
<polygon points="671,35 674,30 674,40 671,35 " style="fill:white; stroke-width:1; stroke:black; " description="&lt;b&gt;ctg25_43&lt;/b&gt;&lt;br&gt;ctg25 43&lt;br&gt;Location: 78545 - 78767" locus_tag="ctg25_43" class="clusterblast-orf" id="knownclusterblast-1_q25_0_all"  />
<polygon points="675,35 678,30 678,40 675,35 " style="fill:white; stroke-width:1; stroke:black; " description="&lt;b&gt;ctg25_44&lt;/b&gt;&lt;br&gt;ctg25 44&lt;br&gt;Location: 78878 - 79097" locus_tag="ctg25_44" class="clusterblast-orf" id="knownclusterblast-1_q26_0_all"  />
<polygon points="680,35 683,30 683,40 680,35 " style="fill:white; stroke-width:1; stroke:black; " description="&lt;b&gt;ctg25_45&lt;/b&gt;&lt;br&gt;ctg25 45&lt;br&gt;Location: 79217 - 79436" locus_tag="ctg25_45" class="clusterblast-orf" id="knownclusterblast-1_q27_0_all"  />
<polygon points="688,40 692,40 697,35 692,30 688,30 688,40 " style="fill:white; stroke-width:1; stroke:black; " description="&lt;b&gt;ctg25_46&lt;/b&gt;&lt;br&gt;ctg25 46&lt;br&gt;Location: 79845 - 80493" locus_tag="ctg25_46" class="clusterblast-orf" id="knownclusterblast-1_q28_0_all"  />
<polygon points="696,40 698,35 696,30 696,40 " style="fill:white; stroke-width:1; stroke:black; " description="&lt;b&gt;ctg25_47&lt;/b&gt;&lt;br&gt;ctg25 47&lt;br&gt;Location: 80467 - 80587" locus_tag="ctg25_47" class="clusterblast-orf" id="knownclusterblast-1_q29_0_all"  />
<polygon points="703,40 710,40 715,35 710,30 703,30 703,40 " style="fill:white; stroke-width:1; stroke:black; " description="&lt;b&gt;ctg25_48&lt;/b&gt;&lt;br&gt;ctg25 48&lt;br&gt;Location: 80938 - 81904" locus_tag="ctg25_48" class="clusterblast-orf" id="knownclusterblast-1_q30_0_all"  />
<polygon points="715,35 720,30 727,30 727,40 720,40 715,35 " style="fill:white; stroke-width:1; stroke:black; " description="&lt;b&gt;ctg25_49&lt;/b&gt;&lt;br&gt;ctg25 49&lt;br&gt;Location: 81900 - 82803" locus_tag="ctg25_49" class="clusterblast-orf" id="knownclusterblast-1_q31_0_all"  />
<polygon points="729,40 735,40 740,35 735,30 729,30 729,40 " style="fill:white; stroke-width:1; stroke:black; " description="&lt;b&gt;ctg25_50&lt;/b&gt;&lt;br&gt;ctg25 50&lt;br&gt;Location: 82905 - 83760" locus_tag="ctg25_50" class="clusterblast-orf" id="knownclusterblast-1_q32_0_all"  />
<polygon points="743,40 755,40 760,35 755,30 743,30 743,40 " style="fill:white; stroke-width:1; stroke:black; " description="&lt;b&gt;ctg25_51&lt;/b&gt;&lt;br&gt;ctg25 51&lt;br&gt;Location: 83973 - 85248" locus_tag="ctg25_51" class="clusterblast-orf" id="knownclusterblast-1_q33_0_all"  />
</g>
<g label="BGC0001028" description="BGC0001028_c1: nostopeptolide A2 (37% of genes show similarity), Polyketide + NRP:Cyclic depsipeptide" class="clusterblast-cluster"  >
<text x="5" y="70" class="clusterblast-acc"  >
<a xlink:href="https://mibig.secondarymetabolites.org/go/BGC0001028/1" target="_blank">BGC0001028</a>:                                                                nostopeptolide A2 (37% of genes show similarity), Polyketide + NRP:Cyclic depsipeptide</text>
<line x1="10" y1="85" x2="778.0" y2="85" style="stroke-width:1; stroke:grey; "  />
</g>
<g id="a1_000"  >
<polygon points="129,85 134,80 155,80 155,90 134,90 129,85 " style="fill:white; stroke-width:1; stroke:black; " description="&lt;b&gt;AAF17285.1&lt;/b&gt;&lt;br&gt;nosG&lt;br&gt;Location: 40725 - 38734" locus_tag="AAF17285.1" class="clusterblast-orf" id="knownclusterblast-1_all_1_1_0"  />
</g>
<g id="a1_001"  >
<polygon points="157,85 162,80 167,80 167,90 162,90 157,85 " style="fill:white; stroke-width:1; stroke:black; " description="&lt;b&gt;AAF17284.1&lt;/b&gt;&lt;br&gt;nosF&lt;br&gt;Location: 38632 - 37811" locus_tag="AAF17284.1" class="clusterblast-orf" id="knownclusterblast-1_all_1_1_1"  />
</g>
<g id="a1_002"  >
<polygon points="168,85 173,80 183,80 183,90 173,90 168,85 " style="fill:white; stroke-width:1; stroke:black; " description="&lt;b&gt;AAF17283.1&lt;/b&gt;&lt;br&gt;nosE&lt;br&gt;Location: 37771 - 36665" locus_tag="AAF17283.1" class="clusterblast-orf" id="knownclusterblast-1_all_1_1_2"  />
</g>
<g id="a1_003"  >
<polygon points="183,85 188,80 194,80 194,90 188,90 183,85 " style="fill:white; stroke-width:1; stroke:black; " description="&lt;b&gt;AAF17282.1&lt;/b&gt;&lt;br&gt;Unknown&lt;br&gt;Location: 36617 - 35820" locus_tag="AAF17282.1" class="clusterblast-orf" id="knownclusterblast-1_all_1_1_3"  />
</g>
<g id="a1_004"  >
<polygon points="197,85 202,80 294,80 294,90 202,90 197,85 " style="fill:#d81515; stroke-width:1; stroke:black; " description="&lt;b&gt;AAF17281.1&lt;/b&gt;&lt;br&gt;nosD&lt;br&gt;Location: 35614 - 28262&lt;br&gt;&lt;br&gt;&lt;b&gt;BlastP hit with ctg25_32&lt;/b&gt;&lt;br&gt;Percentage identity: 48&lt;br&gt;Percentage coverage: 99&lt;br&gt;BLAST bit score: 2108&lt;br&gt;E-value: 0.0&lt;br&gt;&lt;br&gt;&lt;b&gt;BlastP hit with ctg25_33&lt;/b&gt;&lt;br&gt;Percentage identity: 48&lt;br&gt;Percentage coverage: 97&lt;br&gt;BLAST bit score: 964&lt;br&gt;E-value: 1.7e-280&lt;br&gt;&lt;br&gt;&lt;b&gt;BlastP hit with ctg25_34&lt;/b&gt;&lt;br&gt;Percentage identity: 50&lt;br&gt;Percentage coverage: 101&lt;br&gt;BLAST bit score: 1923&lt;br&gt;E-value: 0.0" locus_tag="AAF17281.1" class="clusterblast-orf" id="knownclusterblast-1_all_1_1_4"  />
</g>
<g id="a1_005"  >
<polygon points="294,85 299,80 426,80 426,90 299,90 294,85 " style="fill:#d81515; stroke-width:1; stroke:black; " description="&lt;b&gt;AAF17280.1&lt;/b&gt;&lt;br&gt;nosC&lt;br&gt;Location: 28265 - 18312&lt;br&gt;&lt;br&gt;&lt;b&gt;BlastP hit with ctg25_32&lt;/b&gt;&lt;br&gt;Percentage identity: 49&lt;br&gt;Percentage coverage: 92&lt;br&gt;BLAST bit score: 2005&lt;br&gt;E-value: 0.0&lt;br&gt;&lt;br&gt;&lt;b&gt;BlastP hit with ctg25_33&lt;/b&gt;&lt;br&gt;Percentage identity: 48&lt;br&gt;Percentage coverage: 97&lt;br&gt;BLAST bit score: 981&lt;br&gt;E-value: 1e-285&lt;br&gt;&lt;br&gt;&lt;b&gt;BlastP hit with ctg25_34&lt;/b&gt;&lt;br&gt;Percentage identity: 50&lt;br&gt;Percentage coverage: 103&lt;br&gt;BLAST bit score: 1925&lt;br&gt;E-value: 0.0" locus_tag="AAF17280.1" class="clusterblast-orf" id="knownclusterblast-1_all_1_1_5"  />
</g>
<g id="a1_006"  >
<polygon points="427,85 432,80 476,80 476,90 432,90 427,85 " style="fill:white; stroke-width:1; stroke:black; " description="&lt;b&gt;AAF15892.2&lt;/b&gt;&lt;br&gt;nosB&lt;br&gt;Location: 18240 - 14506" locus_tag="AAF15892.2" class="clusterblast-orf" id="knownclusterblast-1_all_1_1_6"  />
</g>
<g id="a1_007"  >
<polygon points="476,85 481,80 650,80 650,90 481,90 476,85 " style="fill:#d81515; stroke-width:1; stroke:black; " description="&lt;b&gt;AAF15891.2&lt;/b&gt;&lt;br&gt;nosA&lt;br&gt;Location: 14509 - 1370&lt;br&gt;&lt;br&gt;&lt;b&gt;BlastP hit with ctg25_32&lt;/b&gt;&lt;br&gt;Percentage identity: 48&lt;br&gt;Percentage coverage: 90&lt;br&gt;BLAST bit score: 1949&lt;br&gt;E-value: 0.0&lt;br&gt;&lt;br&gt;&lt;b&gt;BlastP hit with ctg25_33&lt;/b&gt;&lt;br&gt;Percentage identity: 47&lt;br&gt;Percentage coverage: 99&lt;br&gt;BLAST bit score: 952&lt;br&gt;E-value: 6.8e-277&lt;br&gt;&lt;br&gt;&lt;b&gt;BlastP hit with ctg25_34&lt;/b&gt;&lt;br&gt;Percentage identity: 50&lt;br&gt;Percentage coverage: 103&lt;br&gt;BLAST bit score: 1926&lt;br&gt;E-value: 0.0" locus_tag="AAF15891.2" class="clusterblast-orf" id="knownclusterblast-1_all_1_1_7"  />
</g>
<g label="BGC0000331" description="BGC0000331_c1: cyanopeptin (75% of genes show similarity), NRP" class="clusterblast-cluster"  >
<text x="5" y="120" class="clusterblast-acc"  >
<a xlink:href="https://mibig.secondarymetabolites.org/go/BGC0000331/1" target="_blank">BGC0000331</a>:                                                                      cyanopeptin (75% of genes show similarity), NRP</text>
<line x1="10" y1="135" x2="778.0" y2="135" style="stroke-width:1; stroke:grey; "  />
</g>
<g id="a1_000"  >
<polygon points="183,135 188,130 239,130 239,140 188,140 183,135 " style="fill:#d81515; stroke-width:1; stroke:black; " description="&lt;b&gt;ABI26079.1&lt;/b&gt;&lt;br&gt;OciC&lt;br&gt;Location: 31215 - 26962&lt;br&gt;&lt;br&gt;&lt;b&gt;BlastP hit with ctg25_34&lt;/b&gt;&lt;br&gt;Percentage identity: 53&lt;br&gt;Percentage coverage: 50&lt;br&gt;BLAST bit score: 1047&lt;br&gt;E-value: 3.8e-305" locus_tag="ABI26079.1" class="clusterblast-orf" id="knownclusterblast-1_all_1_2_0"  />
</g>
<g id="a1_001"  >
<polygon points="239,135 244,130 427,130 427,140 244,140 239,135 " style="fill:#d81515; stroke-width:1; stroke:black; " description="&lt;b&gt;ABI26078.1&lt;/b&gt;&lt;br&gt;OciB&lt;br&gt;Location: 26965 - 12779&lt;br&gt;&lt;br&gt;&lt;b&gt;BlastP hit with ctg25_32&lt;/b&gt;&lt;br&gt;Percentage identity: 47&lt;br&gt;Percentage coverage: 87&lt;br&gt;BLAST bit score: 1862&lt;br&gt;E-value: 0.0&lt;br&gt;&lt;br&gt;&lt;b&gt;BlastP hit with ctg25_33&lt;/b&gt;&lt;br&gt;Percentage identity: 47&lt;br&gt;Percentage coverage: 97&lt;br&gt;BLAST bit score: 943&lt;br&gt;E-value: 2.4e-274&lt;br&gt;&lt;br&gt;&lt;b&gt;BlastP hit with ctg25_34&lt;/b&gt;&lt;br&gt;Percentage identity: 50&lt;br&gt;Percentage coverage: 101&lt;br&gt;BLAST bit score: 1917&lt;br&gt;E-value: 0.0" locus_tag="ABI26078.1" class="clusterblast-orf" id="knownclusterblast-1_all_1_2_1"  />
</g>
<g id="a1_002"  >
<polygon points="427,135 432,130 565,130 565,140 432,140 427,135 " style="fill:#d81515; stroke-width:1; stroke:black; " description="&lt;b&gt;ABI26077.1&lt;/b&gt;&lt;br&gt;OciA&lt;br&gt;Location: 12782 - 2349&lt;br&gt;&lt;br&gt;&lt;b&gt;BlastP hit with ctg25_32&lt;/b&gt;&lt;br&gt;Percentage identity: 49&lt;br&gt;Percentage coverage: 87&lt;br&gt;BLAST bit score: 1907&lt;br&gt;E-value: 0.0&lt;br&gt;&lt;br&gt;&lt;b&gt;BlastP hit with ctg25_33&lt;/b&gt;&lt;br&gt;Percentage identity: 48&lt;br&gt;Percentage coverage: 97&lt;br&gt;BLAST bit score: 937&lt;br&gt;E-value: 2.3e-272&lt;br&gt;&lt;br&gt;&lt;b&gt;BlastP hit with ctg25_34&lt;/b&gt;&lt;br&gt;Percentage identity: 50&lt;br&gt;Percentage coverage: 102&lt;br&gt;BLAST bit score: 1915&lt;br&gt;E-value: 0.0" locus_tag="ABI26077.1" class="clusterblast-orf" id="knownclusterblast-1_all_1_2_2"  />
</g>
<g id="a1_003"  >
<polygon points="569,140 591,140 596,135 591,130 569,130 569,140 " style="fill:white; stroke-width:1; stroke:black; " description="&lt;b&gt;ABI26076.1&lt;/b&gt;&lt;br&gt;ABC transporter&lt;br&gt;Location: 2064 - 1" locus_tag="ABI26076.1" class="clusterblast-orf" id="knownclusterblast-1_all_1_2_3"  />
</g>
<g label="BGC0000397" description="BGC0000397_c1: nostocyclopeptide A2 (28% of genes show similarity), NRP" class="clusterblast-cluster"  >
<text x="5" y="170" class="clusterblast-acc"  >
<a xlink:href="https://mibig.secondarymetabolites.org/go/BGC0000397/1" target="_blank">BGC0000397</a>:                                                             nostocyclopeptide A2 (28% of genes show similarity), NRP</text>
<line x1="10" y1="185" x2="778.0" y2="185" style="stroke-width:1; stroke:grey; "  />
</g>
<g id="a1_000"  >
<polygon points="171,185 176,180 362,180 362,190 176,190 171,185 " style="fill:#d81515; stroke-width:1; stroke:black; " description="&lt;b&gt;AAO23334.1&lt;/b&gt;&lt;br&gt;NcpB&lt;br&gt;Location: 34111 - 19700&lt;br&gt;&lt;br&gt;&lt;b&gt;BlastP hit with ctg25_32&lt;/b&gt;&lt;br&gt;Percentage identity: 47&lt;br&gt;Percentage coverage: 93&lt;br&gt;BLAST bit score: 1915&lt;br&gt;E-value: 0.0&lt;br&gt;&lt;br&gt;&lt;b&gt;BlastP hit with ctg25_33&lt;/b&gt;&lt;br&gt;Percentage identity: 49&lt;br&gt;Percentage coverage: 99&lt;br&gt;BLAST bit score: 990&lt;br&gt;E-value: 1.7e-288&lt;br&gt;&lt;br&gt;&lt;b&gt;BlastP hit with ctg25_34&lt;/b&gt;&lt;br&gt;Percentage identity: 51&lt;br&gt;Percentage coverage: 104&lt;br&gt;BLAST bit score: 2045&lt;br&gt;E-value: 0.0" locus_tag="AAO23334.1" class="clusterblast-orf" id="knownclusterblast-1_all_1_3_0"  />
</g>
<g id="a1_001"  >
<polygon points="362,185 367,180 511,180 511,190 367,190 362,185 " style="fill:#d81515; stroke-width:1; stroke:black; " description="&lt;b&gt;AAO23333.1&lt;/b&gt;&lt;br&gt;NcpA&lt;br&gt;Location: 19703 - 8496&lt;br&gt;&lt;br&gt;&lt;b&gt;BlastP hit with ctg25_32&lt;/b&gt;&lt;br&gt;Percentage identity: 49&lt;br&gt;Percentage coverage: 89&lt;br&gt;BLAST bit score: 1976&lt;br&gt;E-value: 0.0&lt;br&gt;&lt;br&gt;&lt;b&gt;BlastP hit with ctg25_33&lt;/b&gt;&lt;br&gt;Percentage identity: 49&lt;br&gt;Percentage coverage: 98&lt;br&gt;BLAST bit score: 982&lt;br&gt;E-value: 4.7e-286&lt;br&gt;&lt;br&gt;&lt;b&gt;BlastP hit with ctg25_34&lt;/b&gt;&lt;br&gt;Percentage identity: 50&lt;br&gt;Percentage coverage: 101&lt;br&gt;BLAST bit score: 1929&lt;br&gt;E-value: 0.0" locus_tag="AAO23333.1" class="clusterblast-orf" id="knownclusterblast-1_all_1_3_1"  />
</g>
<g id="a1_002"  >
<polygon points="520,190 541,190 546,185 541,180 520,180 520,190 " style="fill:white; stroke-width:1; stroke:black; " description="&lt;b&gt;AAO23332.1&lt;/b&gt;&lt;br&gt;NcpC&lt;br&gt;Location: 7811 - 5793" locus_tag="AAO23332.1" class="clusterblast-orf" id="knownclusterblast-1_all_1_3_2"  />
</g>
<g id="a1_003"  >
<polygon points="548,190 564,190 569,185 564,180 548,180 548,190 " style="fill:white; stroke-width:1; stroke:black; " description="&lt;b&gt;AAO23331.1&lt;/b&gt;&lt;br&gt;penicillin-binding protein-like protein&lt;br&gt;Location: 5694 - 4090" locus_tag="AAO23331.1" class="clusterblast-orf" id="knownclusterblast-1_all_1_3_3"  />
</g>
<g id="a1_004"  >
<polygon points="570,190 576,190 581,185 576,180 570,180 570,190 " style="fill:white; stroke-width:1; stroke:black; " description="&lt;b&gt;AAO23330.1&lt;/b&gt;&lt;br&gt;unknown&lt;br&gt;Location: 3988 - 3191" locus_tag="AAO23330.1" class="clusterblast-orf" id="knownclusterblast-1_all_1_3_4"  />
</g>
<g id="a1_005"  >
<polygon points="582,190 591,190 596,185 591,180 582,180 582,190 " style="fill:white; stroke-width:1; stroke:black; " description="&lt;b&gt;AAO23329.1&lt;/b&gt;&lt;br&gt;NcpD&lt;br&gt;Location: 3142 - 2036" locus_tag="AAO23329.1" class="clusterblast-orf" id="knownclusterblast-1_all_1_3_5"  />
</g>
<g id="a1_006"  >
<polygon points="597,190 603,190 608,185 603,180 597,180 597,190 " style="fill:white; stroke-width:1; stroke:black; " description="&lt;b&gt;AAO23328.1&lt;/b&gt;&lt;br&gt;NcpE&lt;br&gt;Location: 1996 - 1175" locus_tag="AAO23328.1" class="clusterblast-orf" id="knownclusterblast-1_all_1_3_6"  />
</g>
<g label="BGC0000332" description="BGC0000332_c1: cyanopeptolin (42% of genes show similarity), NRP" class="clusterblast-cluster"  >
<text x="5" y="220" class="clusterblast-acc"  >
<a xlink:href="https://mibig.secondarymetabolites.org/go/BGC0000332/1" target="_blank">BGC0000332</a>:                                                                    cyanopeptolin (42% of genes show similarity), NRP</text>
<line x1="10" y1="235" x2="778.0" y2="235" style="stroke-width:1; stroke:grey; "  />
</g>
<g id="a1_000"  >
<polygon points="186,235 191,230 242,230 242,240 191,240 186,235 " style="fill:#d81515; stroke-width:1; stroke:black; " description="&lt;b&gt;AAZ03554.1&lt;/b&gt;&lt;br&gt;McnE&lt;br&gt;Location: 30858 - 26602&lt;br&gt;&lt;br&gt;&lt;b&gt;BlastP hit with ctg25_34&lt;/b&gt;&lt;br&gt;Percentage identity: 52&lt;br&gt;Percentage coverage: 51&lt;br&gt;BLAST bit score: 1027&lt;br&gt;E-value: 3.1e-299" locus_tag="AAZ03554.1" class="clusterblast-orf" id="knownclusterblast-1_all_1_4_0"  />
</g>
<g id="a1_001"  >
<polygon points="242,235 247,230 267,230 267,240 247,240 242,235 " style="fill:white; stroke-width:1; stroke:black; " description="&lt;b&gt;AAZ03553.1&lt;/b&gt;&lt;br&gt;McnD&lt;br&gt;Location: 26605 - 24728" locus_tag="AAZ03553.1" class="clusterblast-orf" id="knownclusterblast-1_all_1_4_1"  />
</g>
<g id="a1_002"  >
<polygon points="267,235 272,230 454,230 454,240 272,240 267,235 " style="fill:#d81515; stroke-width:1; stroke:black; " description="&lt;b&gt;AAZ03552.1&lt;/b&gt;&lt;br&gt;McnC&lt;br&gt;Location: 24731 - 10566&lt;br&gt;&lt;br&gt;&lt;b&gt;BlastP hit with ctg25_32&lt;/b&gt;&lt;br&gt;Percentage identity: 46&lt;br&gt;Percentage coverage: 88&lt;br&gt;BLAST bit score: 1834&lt;br&gt;E-value: 0.0&lt;br&gt;&lt;br&gt;&lt;b&gt;BlastP hit with ctg25_33&lt;/b&gt;&lt;br&gt;Percentage identity: 48&lt;br&gt;Percentage coverage: 97&lt;br&gt;BLAST bit score: 938&lt;br&gt;E-value: 1.3e-272&lt;br&gt;&lt;br&gt;&lt;b&gt;BlastP hit with ctg25_34&lt;/b&gt;&lt;br&gt;Percentage identity: 51&lt;br&gt;Percentage coverage: 101&lt;br&gt;BLAST bit score: 1995&lt;br&gt;E-value: 0.0" locus_tag="AAZ03552.1" class="clusterblast-orf" id="knownclusterblast-1_all_1_4_2"  />
</g>
<g id="a1_003"  >
<polygon points="454,235 459,230 498,230 498,240 459,240 454,235 " style="fill:white; stroke-width:1; stroke:black; " description="&lt;b&gt;AAZ03551.1&lt;/b&gt;&lt;br&gt;McnB&lt;br&gt;Location: 10569 - 7252" locus_tag="AAZ03551.1" class="clusterblast-orf" id="knownclusterblast-1_all_1_4_3"  />
</g>
<g id="a1_004"  >
<polygon points="498,235 503,230 542,230 542,240 503,240 498,235 " style="fill:#d81515; stroke-width:1; stroke:black; " description="&lt;b&gt;AAZ03550.1&lt;/b&gt;&lt;br&gt;McnA&lt;br&gt;Location: 7249 - 3953&lt;br&gt;&lt;br&gt;&lt;b&gt;BlastP hit with ctg25_34&lt;/b&gt;&lt;br&gt;Percentage identity: 48&lt;br&gt;Percentage coverage: 50&lt;br&gt;BLAST bit score: 891&lt;br&gt;E-value: 3.5e-258" locus_tag="AAZ03550.1" class="clusterblast-orf" id="knownclusterblast-1_all_1_4_4"  />
</g>
<g id="a1_005"  >
<polygon points="550,240 572,240 577,235 572,230 550,230 550,240 " style="fill:white; stroke-width:1; stroke:black; " description="&lt;b&gt;AAZ03549.1&lt;/b&gt;&lt;br&gt;McnF&lt;br&gt;Location: 3385 - 1316" locus_tag="AAZ03549.1" class="clusterblast-orf" id="knownclusterblast-1_all_1_4_5"  />
</g>
<g id="a1_006"  >
<polygon points="578,240 588,240 593,235 588,230 578,230 578,240 " style="fill:white; stroke-width:1; stroke:black; " description="&lt;b&gt;AAZ03548.1&lt;/b&gt;&lt;br&gt;McnG&lt;br&gt;Location: 1254 - 85" locus_tag="AAZ03548.1" class="clusterblast-orf" id="knownclusterblast-1_all_1_4_6"  />
</g>
<g label="BGC0001018" description="BGC0001018_c1: micropeptin K139 (25% of genes show similarity), NRP + Polyketide" class="clusterblast-cluster"  >
<text x="5" y="270" class="clusterblast-acc"  >
<a xlink:href="https://mibig.secondarymetabolites.org/go/BGC0001018/1" target="_blank">BGC0001018</a>:                                                                 micropeptin K139 (25% of genes show similarity), NRP + Polyketide</text>
<line x1="10" y1="285" x2="778.0" y2="285" style="stroke-width:1; stroke:grey; "  />
</g>
<g id="a1_000"  >
<polygon points="182,285 187,280 191,280 191,290 187,290 182,285 " style="fill:white; stroke-width:1; stroke:black; " description="&lt;b&gt;BAH22768.1&lt;/b&gt;&lt;br&gt;putative acyl-carrier protein reductase&lt;br&gt;Location: 31530 - 30796" locus_tag="BAH22768.1" class="clusterblast-orf" id="knownclusterblast-1_all_1_5_0"  />
</g>
<g id="a1_001"  >
<polygon points="194,285 199,280 204,280 204,290 199,290 194,285 " style="fill:white; stroke-width:1; stroke:black; " description="&lt;b&gt;BAH22767.1&lt;/b&gt;&lt;br&gt;putative methyltransferase&lt;br&gt;Location: 30638 - 29850" locus_tag="BAH22767.1" class="clusterblast-orf" id="knownclusterblast-1_all_1_5_1"  />
</g>
<g id="a1_002"  >
<polygon points="217,285 222,280 224,280 224,290 222,290 217,285 " style="fill:white; stroke-width:1; stroke:black; " description="&lt;b&gt;BAH22766.1&lt;/b&gt;&lt;br&gt;hypothetical protein&lt;br&gt;Location: 28837 - 28304" locus_tag="BAH22766.1" class="clusterblast-orf" id="knownclusterblast-1_all_1_5_2"  />
</g>
<g id="a1_003"  >
<polygon points="227,285 232,280 283,280 283,290 232,290 227,285 " style="fill:#d81515; stroke-width:1; stroke:black; " description="&lt;b&gt;BAH22765.1&lt;/b&gt;&lt;br&gt;nonribosomal peptide synthetase&lt;br&gt;Location: 28080 - 23920&lt;br&gt;&lt;br&gt;&lt;b&gt;BlastP hit with ctg25_34&lt;/b&gt;&lt;br&gt;Percentage identity: 52&lt;br&gt;Percentage coverage: 51&lt;br&gt;BLAST bit score: 1026&lt;br&gt;E-value: 7e-299" locus_tag="BAH22765.1" class="clusterblast-orf" id="knownclusterblast-1_all_1_5_3"  />
</g>
<g id="a1_004"  >
<polygon points="286,285 291,280 474,280 474,290 291,290 286,285 " style="fill:#d81515; stroke-width:1; stroke:black; " description="&lt;b&gt;BAH22764.1&lt;/b&gt;&lt;br&gt;nonribosomal peptide synthetase&lt;br&gt;Location: 23657 - 9459&lt;br&gt;&lt;br&gt;&lt;b&gt;BlastP hit with ctg25_32&lt;/b&gt;&lt;br&gt;Percentage identity: 46&lt;br&gt;Percentage coverage: 88&lt;br&gt;BLAST bit score: 1849&lt;br&gt;E-value: 0.0&lt;br&gt;&lt;br&gt;&lt;b&gt;BlastP hit with ctg25_33&lt;/b&gt;&lt;br&gt;Percentage identity: 46&lt;br&gt;Percentage coverage: 97&lt;br&gt;BLAST bit score: 937&lt;br&gt;E-value: 2.3e-272&lt;br&gt;&lt;br&gt;&lt;b&gt;BlastP hit with ctg25_34&lt;/b&gt;&lt;br&gt;Percentage identity: 50&lt;br&gt;Percentage coverage: 101&lt;br&gt;BLAST bit score: 1894&lt;br&gt;E-value: 0.0" locus_tag="BAH22764.1" class="clusterblast-orf" id="knownclusterblast-1_all_1_5_4"  />
</g>
<g id="a1_005"  >
<polygon points="474,285 479,280 518,280 518,290 479,290 474,285 " style="fill:white; stroke-width:1; stroke:black; " description="&lt;b&gt;BAH22763.1&lt;/b&gt;&lt;br&gt;nonribosomal peptide synthetase&lt;br&gt;Location: 9462 - 6145" locus_tag="BAH22763.1" class="clusterblast-orf" id="knownclusterblast-1_all_1_5_5"  />
</g>
<g id="a1_006"  >
<polygon points="518,285 523,280 562,280 562,290 523,290 518,285 " style="fill:white; stroke-width:1; stroke:black; " description="&lt;b&gt;BAH22762.1&lt;/b&gt;&lt;br&gt;nonribosomal peptide synthetase&lt;br&gt;Location: 6142 - 2804" locus_tag="BAH22762.1" class="clusterblast-orf" id="knownclusterblast-1_all_1_5_6"  />
</g>
<g id="a1_007"  >
<polygon points="570,290 592,290 597,285 592,280 570,280 570,290 " style="fill:white; stroke-width:1; stroke:black; " description="&lt;b&gt;BAH22761.1&lt;/b&gt;&lt;br&gt;putative ABC transporter&lt;br&gt;Location: 2231 - 162" locus_tag="BAH22761.1" class="clusterblast-orf" id="knownclusterblast-1_all_1_5_7"  />
</g>
<g label="BGC0000975" description="BGC0000975_c1: cryptophycin-327 (25% of genes show similarity), NRP + Polyketide" class="clusterblast-cluster"  >
<text x="5" y="320" class="clusterblast-acc"  >
<a xlink:href="https://mibig.secondarymetabolites.org/go/BGC0000975/1" target="_blank">BGC0000975</a>:                                                                 cryptophycin-327 (25% of genes show similarity), NRP + Polyketide</text>
<line x1="10" y1="335" x2="778.0" y2="335" style="stroke-width:1; stroke:grey; "  />
</g>
<g id="a1_000"  >
<polygon points="123,335 128,330 142,330 142,340 128,340 123,335 " style="fill:white; stroke-width:1; stroke:black; " description="&lt;b&gt;ABM21576.1&lt;/b&gt;&lt;br&gt;crpH&lt;br&gt;Location: 50271 - 48796" locus_tag="ABM21576.1" class="clusterblast-orf" id="knownclusterblast-1_all_1_6_0"  />
</g>
<g id="a1_001"  >
<polygon points="151,335 155,330 155,340 151,335 " style="fill:white; stroke-width:1; stroke:black; " description="&lt;b&gt;ABM21575.1&lt;/b&gt;&lt;br&gt;crpG&lt;br&gt;Location: 48153 - 47812" locus_tag="ABM21575.1" class="clusterblast-orf" id="knownclusterblast-1_all_1_6_1"  />
</g>
<g id="a1_002"  >
<polygon points="155,335 160,330 167,330 167,340 160,340 155,335 " style="fill:white; stroke-width:1; stroke:black; " description="&lt;b&gt;ABM21574.1&lt;/b&gt;&lt;br&gt;crpF&lt;br&gt;Location: 47800 - 46916" locus_tag="ABM21574.1" class="clusterblast-orf" id="knownclusterblast-1_all_1_6_2"  />
</g>
<g id="a1_003"  >
<polygon points="172,335 177,330 190,330 190,340 177,340 172,335 " style="fill:white; stroke-width:1; stroke:black; " description="&lt;b&gt;ABM21573.1&lt;/b&gt;&lt;br&gt;crpE&lt;br&gt;Location: 46532 - 45180" locus_tag="ABM21573.1" class="clusterblast-orf" id="knownclusterblast-1_all_1_6_3"  />
</g>
<g id="a1_004"  >
<polygon points="191,335 196,330 324,330 324,340 196,340 191,335 " style="fill:#d81515; stroke-width:1; stroke:black; " description="&lt;b&gt;ABM21572.1&lt;/b&gt;&lt;br&gt;crpD&lt;br&gt;Location: 45121 - 35090&lt;br&gt;&lt;br&gt;&lt;b&gt;BlastP hit with ctg25_33&lt;/b&gt;&lt;br&gt;Percentage identity: 56&lt;br&gt;Percentage coverage: 43&lt;br&gt;BLAST bit score: 500&lt;br&gt;E-value: 5.4e-141" locus_tag="ABM21572.1" class="clusterblast-orf" id="knownclusterblast-1_all_1_6_4"  />
</g>
<g id="a1_005"  >
<polygon points="324,335 329,330 401,330 401,340 329,340 324,335 " style="fill:#d81515; stroke-width:1; stroke:black; " description="&lt;b&gt;ABM21571.1&lt;/b&gt;&lt;br&gt;crpC&lt;br&gt;Location: 35051 - 29220&lt;br&gt;&lt;br&gt;&lt;b&gt;BlastP hit with ctg25_34&lt;/b&gt;&lt;br&gt;Percentage identity: 52&lt;br&gt;Percentage coverage: 43&lt;br&gt;BLAST bit score: 901&lt;br&gt;E-value: 3.4e-261" locus_tag="ABM21571.1" class="clusterblast-orf" id="knownclusterblast-1_all_1_6_5"  />
</g>
<g id="a1_006"  >
<polygon points="401,335 406,330 539,330 539,340 406,340 401,335 " style="fill:white; stroke-width:1; stroke:black; " description="&lt;b&gt;ABM21570.1&lt;/b&gt;&lt;br&gt;crpB&lt;br&gt;Location: 29223 - 18814" locus_tag="ABM21570.1" class="clusterblast-orf" id="knownclusterblast-1_all_1_6_6"  />
</g>
<g id="a1_007"  >
<polygon points="540,335 545,330 656,330 656,340 545,340 540,335 " style="fill:white; stroke-width:1; stroke:black; " description="&lt;b&gt;ABM21569.1&lt;/b&gt;&lt;br&gt;crpA&lt;br&gt;Location: 18789 - 9964" locus_tag="ABM21569.1" class="clusterblast-orf" id="knownclusterblast-1_all_1_6_7"  />
</g>
<g label="BGC0001125" description="BGC0001125_c1: puwainaphycin A / puwainaphycin B / puwainaphycin C / puwainap... (40% of genes show similarity), NRP + Polyketide" class="clusterblast-cluster"  >
<text x="5" y="370" class="clusterblast-acc"  >
<a xlink:href="https://mibig.secondarymetabolites.org/go/BGC0001125/1" target="_blank">BGC0001125</a>:            puwainaphycin A / puwainaphycin B / puwainaphycin C / puwainaphycin D (40% of genes show similarity), NRP + Polyketide</text>
<line x1="10" y1="385" x2="778.0" y2="385" style="stroke-width:1; stroke:grey; "  />
</g>
<g id="a1_000"  >
<polygon points="14,385 19,380 58,380 58,390 19,390 14,385 " style="fill:white; stroke-width:1; stroke:black; " description="&lt;b&gt;AIW82285.1&lt;/b&gt;&lt;br&gt;PuwH&lt;br&gt;Location: 56729 - 53421" locus_tag="AIW82285.1" class="clusterblast-orf" id="knownclusterblast-1_all_1_7_0"  />
</g>
<g id="a1_001"  >
<polygon points="60,385 65,380 199,380 199,390 65,390 60,385 " style="fill:#d81515; stroke-width:1; stroke:black; " description="&lt;b&gt;AIW82284.1&lt;/b&gt;&lt;br&gt;PuwG&lt;br&gt;Location: 53207 - 42729&lt;br&gt;&lt;br&gt;&lt;b&gt;BlastP hit with ctg25_33&lt;/b&gt;&lt;br&gt;Percentage identity: 49&lt;br&gt;Percentage coverage: 94&lt;br&gt;BLAST bit score: 946&lt;br&gt;E-value: 3.7e-275&lt;br&gt;&lt;br&gt;&lt;b&gt;BlastP hit with ctg25_34&lt;/b&gt;&lt;br&gt;Percentage identity: 47&lt;br&gt;Percentage coverage: 100&lt;br&gt;BLAST bit score: 1732&lt;br&gt;E-value: 0.0" locus_tag="AIW82284.1" class="clusterblast-orf" id="knownclusterblast-1_all_1_7_1"  />
</g>
<g id="a1_002"  >
<polygon points="200,385 205,380 294,380 294,390 205,390 200,385 " style="fill:#d81515; stroke-width:1; stroke:black; " description="&lt;b&gt;AIW82283.1&lt;/b&gt;&lt;br&gt;PuwF&lt;br&gt;Location: 42678 - 35566&lt;br&gt;&lt;br&gt;&lt;b&gt;BlastP hit with ctg25_33&lt;/b&gt;&lt;br&gt;Percentage identity: 48&lt;br&gt;Percentage coverage: 96&lt;br&gt;BLAST bit score: 959&lt;br&gt;E-value: 5.6e-279" locus_tag="AIW82283.1" class="clusterblast-orf" id="knownclusterblast-1_all_1_7_2"  />
</g>
<g id="a1_003"  >
<polygon points="294,385 299,380 416,380 416,390 299,390 294,385 " style="fill:#d81515; stroke-width:1; stroke:black; " description="&lt;b&gt;AIW82282.1&lt;/b&gt;&lt;br&gt;PuwE&lt;br&gt;Location: 35569 - 26336&lt;br&gt;&lt;br&gt;&lt;b&gt;BlastP hit with ctg25_34&lt;/b&gt;&lt;br&gt;Percentage identity: 46&lt;br&gt;Percentage coverage: 50&lt;br&gt;BLAST bit score: 831&lt;br&gt;E-value: 2.5e-240" locus_tag="AIW82282.1" class="clusterblast-orf" id="knownclusterblast-1_all_1_7_3"  />
</g>
<g id="a1_004"  >
<polygon points="420,385 424,380 424,390 420,385 " style="fill:white; stroke-width:1; stroke:black; " description="&lt;b&gt;AIW82281.1&lt;/b&gt;&lt;br&gt;PuwD&lt;br&gt;Location: 26067 - 25762" locus_tag="AIW82281.1" class="clusterblast-orf" id="knownclusterblast-1_all_1_7_4"  />
</g>
<g id="a1_005"  >
<polygon points="427,385 432,380 451,380 451,390 432,390 427,385 " style="fill:white; stroke-width:1; stroke:black; " description="&lt;b&gt;AIW82280.1&lt;/b&gt;&lt;br&gt;PuwC&lt;br&gt;Location: 25500 - 23707" locus_tag="AIW82280.1" class="clusterblast-orf" id="knownclusterblast-1_all_1_7_5"  />
</g>
<g id="a1_006"  >
<polygon points="451,385 456,380 552,380 552,390 456,390 451,385 " style="fill:white; stroke-width:1; stroke:black; " description="&lt;b&gt;AIW82279.1&lt;/b&gt;&lt;br&gt;PuwB&lt;br&gt;Location: 23703 - 16099" locus_tag="AIW82279.1" class="clusterblast-orf" id="knownclusterblast-1_all_1_7_6"  />
</g>
<g id="a1_007"  >
<polygon points="577,390 617,390 622,385 617,380 577,380 577,390 " style="fill:white; stroke-width:1; stroke:black; " description="&lt;b&gt;AIW82278.1&lt;/b&gt;&lt;br&gt;ORF2&lt;br&gt;Location: 14198 - 10848" locus_tag="AIW82278.1" class="clusterblast-orf" id="knownclusterblast-1_all_1_7_7"  />
</g>
<g id="a1_008"  >
<polygon points="624,390 733,390 738,385 733,380 624,380 624,390 " style="fill:#d81515; stroke-width:1; stroke:black; " description="&lt;b&gt;AIW82277.1&lt;/b&gt;&lt;br&gt;PuwA&lt;br&gt;Location: 10672 - 2060&lt;br&gt;&lt;br&gt;&lt;b&gt;BlastP hit with ctg25_33&lt;/b&gt;&lt;br&gt;Percentage identity: 48&lt;br&gt;Percentage coverage: 94&lt;br&gt;BLAST bit score: 929&lt;br&gt;E-value: 4.7e-270" locus_tag="AIW82277.1" class="clusterblast-orf" id="knownclusterblast-1_all_1_7_8"  />
</g>
<g id="a1_009"  >
<polygon points="739,390 760,390 765,385 760,380 739,380 739,390 " style="fill:white; stroke-width:1; stroke:black; " description="&lt;b&gt;AIW82276.1&lt;/b&gt;&lt;br&gt;ORF1&lt;br&gt;Location: 1980 - 1" locus_tag="AIW82276.1" class="clusterblast-orf" id="knownclusterblast-1_all_1_7_9"  />
</g>
<g label="BGC0001951" description="BGC0001951_c1: puwainaphycin F / minutissamide A (33% of genes show similarity), NRP" class="clusterblast-cluster"  >
<text x="5" y="420" class="clusterblast-acc"  >
<a xlink:href="https://mibig.secondarymetabolites.org/go/BGC0001951/1" target="_blank">BGC0001951</a>:                                                puwainaphycin F / minutissamide A (33% of genes show similarity), NRP</text>
<line x1="10" y1="435" x2="778.0" y2="435" style="stroke-width:1; stroke:grey; "  />
</g>
<g id="a1_000"  >
<polygon points="0,435 5,430 43,430 43,440 5,440 0,435 " style="fill:white; stroke-width:1; stroke:black; " description="&lt;b&gt;AXN93591.1&lt;/b&gt;&lt;br&gt;PuwH&lt;br&gt;Location: 58884 - 55576" locus_tag="AXN93591.1" class="clusterblast-orf" id="knownclusterblast-1_all_1_8_0"  />
</g>
<g id="a1_001"  >
<polygon points="45,435 50,430 277,430 277,440 50,440 45,435 " style="fill:#d81515; stroke-width:1; stroke:black; " description="&lt;b&gt;AXN93590.1&lt;/b&gt;&lt;br&gt;PuwF-G&lt;br&gt;Location: 55468 - 37913&lt;br&gt;&lt;br&gt;&lt;b&gt;BlastP hit with ctg25_33&lt;/b&gt;&lt;br&gt;Percentage identity: 48&lt;br&gt;Percentage coverage: 96&lt;br&gt;BLAST bit score: 945&lt;br&gt;E-value: 1.1e-274&lt;br&gt;&lt;br&gt;&lt;b&gt;BlastP hit with ctg25_34&lt;/b&gt;&lt;br&gt;Percentage identity: 48&lt;br&gt;Percentage coverage: 98&lt;br&gt;BLAST bit score: 1757&lt;br&gt;E-value: 0.0" locus_tag="AXN93590.1" class="clusterblast-orf" id="knownclusterblast-1_all_1_8_1"  />
</g>
<g id="a1_002"  >
<polygon points="277,435 282,430 401,430 401,440 282,440 277,435 " style="fill:#d81515; stroke-width:1; stroke:black; " description="&lt;b&gt;AXN93589.1&lt;/b&gt;&lt;br&gt;PuwE&lt;br&gt;Location: 37916 - 28551&lt;br&gt;&lt;br&gt;&lt;b&gt;BlastP hit with ctg25_34&lt;/b&gt;&lt;br&gt;Percentage identity: 46&lt;br&gt;Percentage coverage: 51&lt;br&gt;BLAST bit score: 831&lt;br&gt;E-value: 3.3e-240" locus_tag="AXN93589.1" class="clusterblast-orf" id="knownclusterblast-1_all_1_8_2"  />
</g>
<g id="a1_003"  >
<polygon points="405,435 409,430 409,440 405,435 " style="fill:white; stroke-width:1; stroke:black; " description="&lt;b&gt;AXN93588.1&lt;/b&gt;&lt;br&gt;PuwD&lt;br&gt;Location: 28239 - 27949" locus_tag="AXN93588.1" class="clusterblast-orf" id="knownclusterblast-1_all_1_8_3"  />
</g>
<g id="a1_004"  >
<polygon points="412,435 417,430 435,430 435,440 417,440 412,435 " style="fill:white; stroke-width:1; stroke:black; " description="&lt;b&gt;AXN93587.1&lt;/b&gt;&lt;br&gt;PuwC&lt;br&gt;Location: 27756 - 25984" locus_tag="AXN93587.1" class="clusterblast-orf" id="knownclusterblast-1_all_1_8_4"  />
</g>
<g id="a1_005"  >
<polygon points="435,435 440,430 538,430 538,440 440,440 435,435 " style="fill:white; stroke-width:1; stroke:black; " description="&lt;b&gt;AXN93586.1&lt;/b&gt;&lt;br&gt;PuwB&lt;br&gt;Location: 25980 - 18202" locus_tag="AXN93586.1" class="clusterblast-orf" id="knownclusterblast-1_all_1_8_5"  />
</g>
<g id="a1_006"  >
<polygon points="561,440 631,440 636,435 631,430 561,430 561,440 " style="fill:white; stroke-width:1; stroke:black; " description="&lt;b&gt;AXN93585.1&lt;/b&gt;&lt;br&gt;ORF2&lt;br&gt;Location: 16491 - 10864" locus_tag="AXN93585.1" class="clusterblast-orf" id="knownclusterblast-1_all_1_8_6"  />
</g>
<g id="a1_007"  >
<polygon points="638,440 747,440 752,435 747,430 638,430 638,440 " style="fill:#d81515; stroke-width:1; stroke:black; " description="&lt;b&gt;AXN93584.1&lt;/b&gt;&lt;br&gt;PuwA&lt;br&gt;Location: 10687 - 2075&lt;br&gt;&lt;br&gt;&lt;b&gt;BlastP hit with ctg25_33&lt;/b&gt;&lt;br&gt;Percentage identity: 48&lt;br&gt;Percentage coverage: 94&lt;br&gt;BLAST bit score: 933&lt;br&gt;E-value: 2.5e-271" locus_tag="AXN93584.1" class="clusterblast-orf" id="knownclusterblast-1_all_1_8_7"  />
</g>
<g id="a1_008"  >
<polygon points="753,440 775,440 780,435 775,430 753,430 753,440 " style="fill:white; stroke-width:1; stroke:black; " description="&lt;b&gt;AXN93583.1&lt;/b&gt;&lt;br&gt;ORF1&lt;br&gt;Location: 1995 - 1" locus_tag="AXN93583.1" class="clusterblast-orf" id="knownclusterblast-1_all_1_8_8"  />
</g>
<g label="BGC0001950" description="BGC0001950_c1: puwainaphycin F / minutissamide A (33% of genes show similarity), NRP" class="clusterblast-cluster"  >
<text x="5" y="470" class="clusterblast-acc"  >
<a xlink:href="https://mibig.secondarymetabolites.org/go/BGC0001950/1" target="_blank">BGC0001950</a>:                                                puwainaphycin F / minutissamide A (33% of genes show similarity), NRP</text>
<line x1="10" y1="485" x2="778.0" y2="485" style="stroke-width:1; stroke:grey; "  />
</g>
<g id="a1_000"  >
<polygon points="7,485 12,480 50,480 50,490 12,490 7,485 " style="fill:white; stroke-width:1; stroke:black; " description="&lt;b&gt;AXN93582.1&lt;/b&gt;&lt;br&gt;PuwH&lt;br&gt;Location: 57756 - 54511" locus_tag="AXN93582.1" class="clusterblast-orf" id="knownclusterblast-1_all_1_9_0"  />
</g>
<g id="a1_001"  >
<polygon points="52,485 57,480 285,480 285,490 57,490 52,485 " style="fill:#d81515; stroke-width:1; stroke:black; " description="&lt;b&gt;AXN93581.1&lt;/b&gt;&lt;br&gt;PuwF-G&lt;br&gt;Location: 54340 - 36785&lt;br&gt;&lt;br&gt;&lt;b&gt;BlastP hit with ctg25_33&lt;/b&gt;&lt;br&gt;Percentage identity: 48&lt;br&gt;Percentage coverage: 96&lt;br&gt;BLAST bit score: 944&lt;br&gt;E-value: 1.9e-274&lt;br&gt;&lt;br&gt;&lt;b&gt;BlastP hit with ctg25_34&lt;/b&gt;&lt;br&gt;Percentage identity: 48&lt;br&gt;Percentage coverage: 98&lt;br&gt;BLAST bit score: 1753&lt;br&gt;E-value: 0.0" locus_tag="AXN93581.1" class="clusterblast-orf" id="knownclusterblast-1_all_1_9_1"  />
</g>
<g id="a1_002"  >
<polygon points="285,485 290,480 409,480 409,490 290,490 285,485 " style="fill:#d81515; stroke-width:1; stroke:black; " description="&lt;b&gt;AXN93580.1&lt;/b&gt;&lt;br&gt;PuwE&lt;br&gt;Location: 36788 - 27423&lt;br&gt;&lt;br&gt;&lt;b&gt;BlastP hit with ctg25_34&lt;/b&gt;&lt;br&gt;Percentage identity: 46&lt;br&gt;Percentage coverage: 51&lt;br&gt;BLAST bit score: 831&lt;br&gt;E-value: 3.3e-240" locus_tag="AXN93580.1" class="clusterblast-orf" id="knownclusterblast-1_all_1_9_2"  />
</g>
<g id="a1_003"  >
<polygon points="413,485 417,480 417,490 413,485 " style="fill:white; stroke-width:1; stroke:black; " description="&lt;b&gt;AXN93579.1&lt;/b&gt;&lt;br&gt;PuwD&lt;br&gt;Location: 27111 - 26797" locus_tag="AXN93579.1" class="clusterblast-orf" id="knownclusterblast-1_all_1_9_3"  />
</g>
<g id="a1_004"  >
<polygon points="419,485 424,480 443,480 443,490 424,490 419,485 " style="fill:white; stroke-width:1; stroke:black; " description="&lt;b&gt;AXN93578.1&lt;/b&gt;&lt;br&gt;PuwC&lt;br&gt;Location: 26628 - 24856" locus_tag="AXN93578.1" class="clusterblast-orf" id="knownclusterblast-1_all_1_9_4"  />
</g>
<g id="a1_005"  >
<polygon points="443,485 448,480 546,480 546,490 448,490 443,485 " style="fill:white; stroke-width:1; stroke:black; " description="&lt;b&gt;AXN93577.1&lt;/b&gt;&lt;br&gt;PuwB&lt;br&gt;Location: 24852 - 17074" locus_tag="AXN93577.1" class="clusterblast-orf" id="knownclusterblast-1_all_1_9_5"  />
</g>
<g id="a1_006"  >
<polygon points="569,490 623,490 628,485 623,480 569,480 569,490 " style="fill:white; stroke-width:1; stroke:black; " description="&lt;b&gt;AXN93576.1&lt;/b&gt;&lt;br&gt;ORF2&lt;br&gt;Location: 15363 - 10864" locus_tag="AXN93576.1" class="clusterblast-orf" id="knownclusterblast-1_all_1_9_6"  />
</g>
<g id="a1_007"  >
<polygon points="630,490 740,490 745,485 740,480 630,480 630,490 " style="fill:#d81515; stroke-width:1; stroke:black; " description="&lt;b&gt;AXN93575.1&lt;/b&gt;&lt;br&gt;PuwA&lt;br&gt;Location: 10687 - 2075&lt;br&gt;&lt;br&gt;&lt;b&gt;BlastP hit with ctg25_33&lt;/b&gt;&lt;br&gt;Percentage identity: 48&lt;br&gt;Percentage coverage: 94&lt;br&gt;BLAST bit score: 933&lt;br&gt;E-value: 2.5e-271" locus_tag="AXN93575.1" class="clusterblast-orf" id="knownclusterblast-1_all_1_9_7"  />
</g>
<g id="a1_008"  >
<polygon points="746,490 767,490 772,485 767,480 746,480 746,490 " style="fill:white; stroke-width:1; stroke:black; " description="&lt;b&gt;AXN93574.1&lt;/b&gt;&lt;br&gt;ORF1&lt;br&gt;Location: 1995 - 1" locus_tag="AXN93574.1" class="clusterblast-orf" id="knownclusterblast-1_all_1_9_8"  />
</g>
<g label="BGC0000302" description="BGC0000302_c1: anabaenopeptin (42% of genes show similarity), NRP" class="clusterblast-cluster"  >
<text x="5" y="520" class="clusterblast-acc"  >
<a xlink:href="https://mibig.secondarymetabolites.org/go/BGC0000302/1" target="_blank">BGC0000302</a>:                                                                   anabaenopeptin (42% of genes show similarity), NRP</text>
<line x1="10" y1="535" x2="778.0" y2="535" style="stroke-width:1; stroke:grey; "  />
</g>
<g id="a1_000"  >
<polygon points="174,535 179,530 205,530 205,540 179,540 174,535 " style="fill:white; stroke-width:1; stroke:black; " description="&lt;b&gt;ACZ55948.1&lt;/b&gt;&lt;br&gt;ABC transporter&lt;br&gt;Location: 33240 - 30943" locus_tag="ACZ55948.1" class="clusterblast-orf" id="knownclusterblast-1_all_1_10_0"  />
</g>
<g id="a1_001"  >
<polygon points="210,535 215,530 226,530 226,540 215,540 210,535 " style="fill:white; stroke-width:1; stroke:black; " description="&lt;b&gt;ACZ55947.1&lt;/b&gt;&lt;br&gt;hydroxymethylglutaryl-CoA lyase-like protein&lt;br&gt;Location: 30534 - 29356" locus_tag="ACZ55947.1" class="clusterblast-orf" id="knownclusterblast-1_all_1_10_1"  />
</g>
<g id="a1_002"  >
<polygon points="226,535 231,530 282,530 282,540 231,540 226,535 " style="fill:#d81515; stroke-width:1; stroke:black; " description="&lt;b&gt;ACZ55946.1&lt;/b&gt;&lt;br&gt;non-ribosomal peptide synthetase&lt;br&gt;Location: 29313 - 25102&lt;br&gt;&lt;br&gt;&lt;b&gt;BlastP hit with ctg25_34&lt;/b&gt;&lt;br&gt;Percentage identity: 50&lt;br&gt;Percentage coverage: 49&lt;br&gt;BLAST bit score: 970&lt;br&gt;E-value: 4.5e-282" locus_tag="ACZ55946.1" class="clusterblast-orf" id="knownclusterblast-1_all_1_10_2"  />
</g>
<g id="a1_003"  >
<polygon points="282,535 287,530 384,530 384,540 287,540 282,535 " style="fill:#d81515; stroke-width:1; stroke:black; " description="&lt;b&gt;ACZ55944.1&lt;/b&gt;&lt;br&gt;non-ribosomal peptide synthetase&lt;br&gt;Location: 25105 - 17408&lt;br&gt;&lt;br&gt;&lt;b&gt;BlastP hit with ctg25_33&lt;/b&gt;&lt;br&gt;Percentage identity: 46&lt;br&gt;Percentage coverage: 99&lt;br&gt;BLAST bit score: 911&lt;br&gt;E-value: 1e-264&lt;br&gt;&lt;br&gt;&lt;b&gt;BlastP hit with ctg25_34&lt;/b&gt;&lt;br&gt;Percentage identity: 55&lt;br&gt;Percentage coverage: 50&lt;br&gt;BLAST bit score: 1105&lt;br&gt;E-value: 0.0" locus_tag="ACZ55944.1" class="clusterblast-orf" id="knownclusterblast-1_all_1_10_3"  />
</g>
<g id="a1_004"  >
<polygon points="387,535 392,530 429,530 429,540 392,540 387,535 " style="fill:white; stroke-width:1; stroke:black; " description="&lt;b&gt;ACZ55943.1&lt;/b&gt;&lt;br&gt;non-ribosomal peptide synthetase&lt;br&gt;Location: 17213 - 14004" locus_tag="ACZ55943.1" class="clusterblast-orf" id="knownclusterblast-1_all_1_10_4"  />
</g>
<g id="a1_005"  >
<polygon points="430,535 435,530 516,530 516,540 435,540 430,535 " style="fill:#d81515; stroke-width:1; stroke:black; " description="&lt;b&gt;ACZ55942.1&lt;/b&gt;&lt;br&gt;non-ribosomal peptide synthetase&lt;br&gt;Location: 13946 - 7422&lt;br&gt;&lt;br&gt;&lt;b&gt;BlastP hit with ctg25_34&lt;/b&gt;&lt;br&gt;Percentage identity: 47&lt;br&gt;Percentage coverage: 81&lt;br&gt;BLAST bit score: 1455&lt;br&gt;E-value: 0.0" locus_tag="ACZ55942.1" class="clusterblast-orf" id="knownclusterblast-1_all_1_10_5"  />
</g>
<g id="a1_006"  >
<polygon points="517,535 522,530 605,530 605,540 522,540 517,535 " style="fill:white; stroke-width:1; stroke:black; " description="&lt;b&gt;ACZ55945.1&lt;/b&gt;&lt;br&gt;non-ribosomal peptide synthetase&lt;br&gt;Location: 7332 - 745" locus_tag="ACZ55945.1" class="clusterblast-orf" id="knownclusterblast-1_all_1_10_6"  />
</g>
</svg>
