<svg xmlns="http://www.w3.org/2000/svg" xmlns:xlink="http://www.w3.org/1999/xlink" version="1.1" x="0" y="0" height="50" width="800" viewBox="0 0 800 50" preserveAspectRatio="none"  >
<g label="Query sequence" class="clusterblast-cluster"  >
<text x="5" y="20" class="clusterblast-acc"  >
Query sequence</text>
<line x1="10" y1="35" x2="778.0" y2="35" style="stroke-width:1; stroke:grey; "  />
<polygon points="0,35 5,30 49,30 49,40 5,40 0,35 " style="fill:white; stroke-width:1; stroke:black; " description="&lt;b&gt;ctg18_69&lt;/b&gt;&lt;br&gt;ctg18 69&lt;br&gt;Location: 72457 - 73771" locus_tag="ctg18_69" class="clusterblast-orf" id="knownclusterblast-1_q0_0_all"  />
<polygon points="78,40 87,40 92,35 87,30 78,30 78,40 " style="fill:white; stroke-width:1; stroke:black; " description="&lt;b&gt;ctg18_70&lt;/b&gt;&lt;br&gt;ctg18 70&lt;br&gt;Location: 74561 - 74936" locus_tag="ctg18_70" class="clusterblast-orf" id="knownclusterblast-1_q1_0_all"  />
<polygon points="99,40 136,40 141,35 136,30 99,30 99,40 " style="fill:white; stroke-width:1; stroke:black; " description="&lt;b&gt;ctg18_71&lt;/b&gt;&lt;br&gt;ctg18 71&lt;br&gt;Location: 75134 - 76253" locus_tag="ctg18_71" class="clusterblast-orf" id="knownclusterblast-1_q2_0_all"  />
<polygon points="150,40 163,40 168,35 163,30 150,30 150,40 " style="fill:white; stroke-width:1; stroke:black; " description="&lt;b&gt;ctg18_72&lt;/b&gt;&lt;br&gt;ctg18 72&lt;br&gt;Location: 76511 - 76991" locus_tag="ctg18_72" class="clusterblast-orf" id="knownclusterblast-1_q3_0_all"  />
<polygon points="171,35 176,30 254,30 254,40 176,40 171,35 " style="fill:white; stroke-width:1; stroke:black; " description="&lt;b&gt;ctg18_73&lt;/b&gt;&lt;br&gt;ctg18 73&lt;br&gt;Location: 77075 - 79298" locus_tag="ctg18_73" class="clusterblast-orf" id="knownclusterblast-1_q4_0_all"  />
<polygon points="300,40 307,40 312,35 307,30 300,30 300,40 " style="fill:white; stroke-width:1; stroke:black; " description="&lt;b&gt;ctg18_74&lt;/b&gt;&lt;br&gt;ctg18 74&lt;br&gt;Location: 80543 - 80870" locus_tag="ctg18_74" class="clusterblast-orf" id="knownclusterblast-1_q5_0_all"  />
<polygon points="334,40 341,40 346,35 341,30 334,30 334,40 " style="fill:white; stroke-width:1; stroke:black; " description="&lt;b&gt;ctg18_75&lt;/b&gt;&lt;br&gt;ctg18 75&lt;br&gt;Location: 81470 - 81785" locus_tag="ctg18_75" class="clusterblast-orf" id="knownclusterblast-1_q6_0_all"  />
<polygon points="345,40 357,40 362,35 357,30 345,30 345,40 " style="fill:white; stroke-width:1; stroke:black; " description="&lt;b&gt;ctg18_76&lt;/b&gt;&lt;br&gt;ctg18 76&lt;br&gt;Location: 81768 - 82209" locus_tag="ctg18_76" class="clusterblast-orf" id="knownclusterblast-1_q7_0_all"  />
<polygon points="361,40 432,40 437,35 432,30 361,30 361,40 " style="fill:white; stroke-width:1; stroke:black; " description="&lt;b&gt;ctg18_77&lt;/b&gt;&lt;br&gt;ctg18 77&lt;br&gt;Location: 82205 - 84233" locus_tag="ctg18_77" class="clusterblast-orf" id="knownclusterblast-1_q8_0_all"  />
<polygon points="441,40 444,40 449,35 444,30 441,30 441,40 " style="fill:white; stroke-width:1; stroke:black; " description="&lt;b&gt;ctg18_78&lt;/b&gt;&lt;br&gt;ctg18 78&lt;br&gt;Location: 84359 - 84572" locus_tag="ctg18_78" class="clusterblast-orf" id="knownclusterblast-1_q9_0_all"  />
<polygon points="466,40 468,40 473,35 468,30 466,30 466,40 " style="fill:white; stroke-width:1; stroke:black; " description="&lt;b&gt;ctg18_79&lt;/b&gt;&lt;br&gt;ctg18 79&lt;br&gt;Location: 85023 - 85218" locus_tag="ctg18_79" class="clusterblast-orf" id="knownclusterblast-1_q10_0_all"  />
<polygon points="472,35 477,30 482,30 482,40 477,40 472,35 " style="fill:white; stroke-width:1; stroke:black; " description="&lt;b&gt;ctg18_80&lt;/b&gt;&lt;br&gt;ctg18 80&lt;br&gt;Location: 85180 - 85447" locus_tag="ctg18_80" class="clusterblast-orf" id="knownclusterblast-1_q11_0_all"  />
<polygon points="487,40 516,40 521,35 516,30 487,30 487,40 " style="fill:white; stroke-width:1; stroke:black; " description="&lt;b&gt;ctg18_81&lt;/b&gt;&lt;br&gt;ctg18 81&lt;br&gt;Location: 85580 - 86513" locus_tag="ctg18_81" class="clusterblast-orf" id="knownclusterblast-1_q12_0_all"  />
<polygon points="521,40 585,40 590,35 585,30 521,30 521,40 " style="fill:white; stroke-width:1; stroke:black; " description="&lt;b&gt;ctg18_82&lt;/b&gt;&lt;br&gt;ctg18 82&lt;br&gt;Location: 86509 - 88372" locus_tag="ctg18_82" class="clusterblast-orf" id="knownclusterblast-1_q13_0_all"  />
<polygon points="592,40 629,40 634,35 629,30 592,30 592,40 " style="fill:white; stroke-width:1; stroke:black; " description="&lt;b&gt;ctg18_83&lt;/b&gt;&lt;br&gt;ctg18 83&lt;br&gt;Location: 88414 - 89545" locus_tag="ctg18_83" class="clusterblast-orf" id="knownclusterblast-1_q14_0_all"  />
<polygon points="636,35 641,30 688,30 688,40 641,40 636,35 " style="fill:white; stroke-width:1; stroke:black; " description="&lt;b&gt;ctg18_84&lt;/b&gt;&lt;br&gt;ctg18 84&lt;br&gt;Location: 89607 - 91002" locus_tag="ctg18_84" class="clusterblast-orf" id="knownclusterblast-1_q15_0_all"  />
<polygon points="688,35 693,30 732,30 732,40 693,40 688,35 " style="fill:white; stroke-width:1; stroke:black; " description="&lt;b&gt;ctg18_85&lt;/b&gt;&lt;br&gt;ctg18 85&lt;br&gt;Location: 91020 - 92196" locus_tag="ctg18_85" class="clusterblast-orf" id="knownclusterblast-1_q16_0_all"  />
<polygon points="733,35 738,30 780,30 780,40 738,40 733,35 " style="fill:white; stroke-width:1; stroke:black; " description="&lt;b&gt;ctg18_86&lt;/b&gt;&lt;br&gt;ctg18 86&lt;br&gt;Location: 92218 - 93484" locus_tag="ctg18_86" class="clusterblast-orf" id="knownclusterblast-1_q17_0_all"  />
</g>
</svg>
