<svg xmlns="http://www.w3.org/2000/svg" xmlns:xlink="http://www.w3.org/1999/xlink" version="1.1" x="0" y="0" height="230" width="800" viewBox="0 0 800 230" preserveAspectRatio="none"  >
<g label="Query sequence" class="clusterblast-cluster"  >
<text x="5" y="20" class="clusterblast-acc"  >
Query sequence</text>
<line x1="10" y1="35" x2="778.0" y2="35" style="stroke-width:1; stroke:grey; "  />
<polygon points="0,40 6,40 11,35 6,30 0,30 0,40 " style="fill:white; stroke-width:1; stroke:black; " description="&lt;b&gt;ctg47_1&lt;/b&gt;&lt;br&gt;ctg47 1&lt;br&gt;Location: 251 - 845" locus_tag="ctg47_1" class="clusterblast-orf" id="dummy-1_q0_0_all"  />
<polygon points="23,35 28,30 49,30 49,40 28,40 23,35 " style="fill:#d81515; stroke-width:1; stroke:black; " description="&lt;b&gt;ctg47_2&lt;/b&gt;&lt;br&gt;ctg47 2&lt;br&gt;Location: 1511 - 2918" locus_tag="ctg47_2" class="clusterblast-orf" id="dummy-1_q1_0_all"  />
<polygon points="49,35 54,30 55,30 55,40 54,40 49,35 " style="fill:#15d863; stroke-width:1; stroke:black; " description="&lt;b&gt;ctg47_3&lt;/b&gt;&lt;br&gt;ctg47 3&lt;br&gt;Location: 2955 - 3267" locus_tag="ctg47_3" class="clusterblast-orf" id="dummy-1_q2_0_all"  />
<polygon points="59,35 64,30 85,30 85,40 64,40 59,35 " style="fill:#1563d8; stroke-width:1; stroke:black; " description="&lt;b&gt;ctg47_4&lt;/b&gt;&lt;br&gt;ctg47 4&lt;br&gt;Location: 3481 - 4879" locus_tag="ctg47_4" class="clusterblast-orf" id="dummy-1_q3_0_all"  />
<polygon points="86,35 91,30 110,30 110,40 91,40 86,35 " style="fill:#b115d8; stroke-width:1; stroke:black; " description="&lt;b&gt;ctg47_5&lt;/b&gt;&lt;br&gt;ctg47 5&lt;br&gt;Location: 4959 - 6282" locus_tag="ctg47_5" class="clusterblast-orf" id="dummy-1_q4_0_all"  />
<polygon points="114,35 119,30 234,30 234,40 119,40 114,35 " style="fill:white; stroke-width:1; stroke:black; " description="&lt;b&gt;ctg47_6&lt;/b&gt;&lt;br&gt;ctg47 6&lt;br&gt;Location: 6455 - 13022" locus_tag="ctg47_6" class="clusterblast-orf" id="dummy-1_q5_0_all"  />
<polygon points="234,35 239,30 312,30 312,40 239,40 234,35 " style="fill:#15d863; stroke-width:1; stroke:black; " description="&lt;b&gt;ctg47_7&lt;/b&gt;&lt;br&gt;ctg47 7&lt;br&gt;Location: 13018 - 17269" locus_tag="ctg47_7" class="clusterblast-orf" id="dummy-1_q6_0_all"  />
<polygon points="312,35 317,30 372,30 372,40 317,40 312,35 " style="fill:#15d863; stroke-width:1; stroke:black; " description="&lt;b&gt;ctg47_8&lt;/b&gt;&lt;br&gt;ctg47 8&lt;br&gt;Location: 17265 - 20511" locus_tag="ctg47_8" class="clusterblast-orf" id="dummy-1_q7_0_all"  />
<polygon points="372,35 377,30 422,30 422,40 377,40 372,35 " style="fill:#15d863; stroke-width:1; stroke:black; " description="&lt;b&gt;ctg47_9&lt;/b&gt;&lt;br&gt;ctg47 9&lt;br&gt;Location: 20552 - 23258" locus_tag="ctg47_9" class="clusterblast-orf" id="dummy-1_q8_0_all"  />
<polygon points="423,35 428,30 439,30 439,40 428,40 423,35 " style="fill:white; stroke-width:1; stroke:black; " description="&lt;b&gt;ctg47_10&lt;/b&gt;&lt;br&gt;ctg47 10&lt;br&gt;Location: 23304 - 24192" locus_tag="ctg47_10" class="clusterblast-orf" id="dummy-1_q9_0_all"  />
<polygon points="457,35 462,30 463,30 463,40 462,40 457,35 " style="fill:#15d863; stroke-width:1; stroke:black; " description="&lt;b&gt;ctg47_11&lt;/b&gt;&lt;br&gt;ctg47 11&lt;br&gt;Location: 25168 - 25498" locus_tag="ctg47_11" class="clusterblast-orf" id="dummy-1_q10_0_all"  />
<polygon points="464,35 469,30 481,30 481,40 469,40 464,35 " style="fill:white; stroke-width:1; stroke:black; " description="&lt;b&gt;ctg47_12&lt;/b&gt;&lt;br&gt;ctg47 12&lt;br&gt;Location: 25557 - 26484" locus_tag="ctg47_12" class="clusterblast-orf" id="dummy-1_q11_0_all"  />
<polygon points="493,35 498,30 518,30 518,40 498,40 493,35 " style="fill:#b1d815; stroke-width:1; stroke:black; " description="&lt;b&gt;ctg47_13&lt;/b&gt;&lt;br&gt;ctg47 13&lt;br&gt;Location: 27104 - 28478" locus_tag="ctg47_13" class="clusterblast-orf" id="dummy-1_q12_0_all"  />
<polygon points="525,35 530,30 535,30 535,40 530,40 525,35 " style="fill:white; stroke-width:1; stroke:black; " description="&lt;b&gt;ctg47_14&lt;/b&gt;&lt;br&gt;ctg47 14&lt;br&gt;Location: 28888 - 29401" locus_tag="ctg47_14" class="clusterblast-orf" id="dummy-1_q13_0_all"  />
<polygon points="537,35 542,30 571,30 571,40 542,40 537,35 " style="fill:#15d863; stroke-width:1; stroke:black; " description="&lt;b&gt;ctg47_15&lt;/b&gt;&lt;br&gt;ctg47 15&lt;br&gt;Location: 29518 - 31351" locus_tag="ctg47_15" class="clusterblast-orf" id="dummy-1_q14_0_all"  />
<polygon points="577,35 580,30 580,40 577,35 " style="fill:white; stroke-width:1; stroke:black; " description="&lt;b&gt;ctg47_16&lt;/b&gt;&lt;br&gt;ctg47 16&lt;br&gt;Location: 31704 - 31836" locus_tag="ctg47_16" class="clusterblast-orf" id="dummy-1_q15_0_all"  />
<polygon points="606,35 611,30 659,30 659,40 611,40 606,35 " style="fill:white; stroke-width:1; stroke:black; " description="&lt;b&gt;ctg47_17&lt;/b&gt;&lt;br&gt;ctg47 17&lt;br&gt;Location: 33271 - 36166" locus_tag="ctg47_17" class="clusterblast-orf" id="dummy-1_q16_0_all"  />
<polygon points="676,40 693,40 698,35 693,30 676,30 676,40 " style="fill:white; stroke-width:1; stroke:black; " description="&lt;b&gt;ctg47_18&lt;/b&gt;&lt;br&gt;ctg47 18&lt;br&gt;Location: 37107 - 38292" locus_tag="ctg47_18" class="clusterblast-orf" id="dummy-1_q17_0_all"  />
<polygon points="719,40 732,40 737,35 732,30 719,30 719,40 " style="fill:white; stroke-width:1; stroke:black; " description="&lt;b&gt;ctg47_19&lt;/b&gt;&lt;br&gt;ctg47 19&lt;br&gt;Location: 39408 - 40404" locus_tag="ctg47_19" class="clusterblast-orf" id="dummy-1_q18_0_all"  />
<polygon points="737,40 753,40 758,35 753,30 737,30 737,40 " style="fill:white; stroke-width:1; stroke:black; " description="&lt;b&gt;ctg47_20&lt;/b&gt;&lt;br&gt;ctg47 20&lt;br&gt;Location: 40400 - 41561" locus_tag="ctg47_20" class="clusterblast-orf" id="dummy-1_q19_0_all"  />
<polygon points="758,40 775,40 780,35 775,30 758,30 758,40 " style="fill:white; stroke-width:1; stroke:black; " description="&lt;b&gt;ctg47_21&lt;/b&gt;&lt;br&gt;ctg47 21&lt;br&gt;Location: 41560 - 42733" locus_tag="ctg47_21" class="clusterblast-orf" id="dummy-1_q20_0_all"  />
</g>
<g label="BGC0001703" description="BGC0001703_c1: nocuolin A (27% of genes show similarity), Other" class="clusterblast-cluster"  >
<text x="5" y="70" class="clusterblast-acc"  >
<a xlink:href="https://mibig.secondarymetabolites.org/go/BGC0001703/1" target="_blank">BGC0001703</a>:                                                                       nocuolin A (27% of genes show similarity), Other</text>
<line x1="10" y1="85" x2="778.0" y2="85" style="stroke-width:1; stroke:grey; "  />
</g>
<g id="a1_000"  >
<polygon points="8,85 13,80 41,80 41,90 13,90 8,85 " style="fill:white; stroke-width:1; stroke:black; " description="&lt;b&gt;AKL71653.1&lt;/b&gt;&lt;br&gt;NocT&lt;br&gt;Location: 41570 - 39777" locus_tag="AKL71653.1" class="clusterblast-orf" id="dummy-1_h1_3_0"  />
</g>
<g id="a1_001"  >
<polygon points="46,85 51,80 105,80 105,90 51,90 46,85 " style="fill:white; stroke-width:1; stroke:black; " description="&lt;b&gt;AKL71652.1&lt;/b&gt;&lt;br&gt;NocS&lt;br&gt;Location: 39472 - 36260" locus_tag="AKL71652.1" class="clusterblast-orf" id="dummy-1_h1_3_1"  />
</g>
<g id="a1_002"  >
<polygon points="108,85 113,80 131,80 131,90 113,90 108,85 " style="fill:white; stroke-width:1; stroke:black; " description="&lt;b&gt;AKL71651.1&lt;/b&gt;&lt;br&gt;NocR&lt;br&gt;Location: 36121 - 34841" locus_tag="AKL71651.1" class="clusterblast-orf" id="dummy-1_h1_3_2"  />
</g>
<g id="a1_003"  >
<polygon points="132,85 137,80 260,80 260,90 137,90 132,85 " style="fill:white; stroke-width:1; stroke:black; " description="&lt;b&gt;AKL71650.1&lt;/b&gt;&lt;br&gt;NocQ&lt;br&gt;Location: 34785 - 27811" locus_tag="AKL71650.1" class="clusterblast-orf" id="dummy-1_h1_3_3"  />
</g>
<g id="a1_004"  >
<polygon points="260,85 265,80 334,80 334,90 265,90 260,85 " style="fill:#15d863; stroke-width:1; stroke:black; " description="&lt;b&gt;AKL71649.1&lt;/b&gt;&lt;br&gt;NocP&lt;br&gt;Location: 27814 - 23822&lt;br&gt;&lt;br&gt;&lt;b&gt;BlastP hit with ctg47_8&lt;/b&gt;&lt;br&gt;Percentage identity: 53&lt;br&gt;Percentage coverage: 83&lt;br&gt;BLAST bit score: 904&lt;br&gt;E-value: 1.6e-262&lt;br&gt;&lt;br&gt;&lt;b&gt;BlastP hit with ctg47_9&lt;/b&gt;&lt;br&gt;Percentage identity: 56&lt;br&gt;Percentage coverage: 100&lt;br&gt;BLAST bit score: 992&lt;br&gt;E-value: 3.6e-289" locus_tag="AKL71649.1" class="clusterblast-orf" id="dummy-1_h1_3_4"  />
</g>
<g id="a1_005"  >
<polygon points="334,85 339,80 358,80 358,90 339,90 334,85 " style="fill:#b1d815; stroke-width:1; stroke:black; " description="&lt;b&gt;AKL71648.1&lt;/b&gt;&lt;br&gt;NocO&lt;br&gt;Location: 23818 - 22490&lt;br&gt;&lt;br&gt;&lt;b&gt;BlastP hit with ctg47_13&lt;/b&gt;&lt;br&gt;Percentage identity: 51&lt;br&gt;Percentage coverage: 93&lt;br&gt;BLAST bit score: 438&lt;br&gt;E-value: 1.3e-122" locus_tag="AKL71648.1" class="clusterblast-orf" id="dummy-1_h1_3_5"  />
</g>
<g id="a1_006"  >
<polygon points="359,85 364,80 385,80 385,90 364,90 359,85 " style="fill:#d81515; stroke-width:1; stroke:black; " description="&lt;b&gt;AKL71647.1&lt;/b&gt;&lt;br&gt;NocN&lt;br&gt;Location: 22441 - 21035&lt;br&gt;&lt;br&gt;&lt;b&gt;BlastP hit with ctg47_2&lt;/b&gt;&lt;br&gt;Percentage identity: 48&lt;br&gt;Percentage coverage: 95&lt;br&gt;BLAST bit score: 395&lt;br&gt;E-value: 1e-109" locus_tag="AKL71647.1" class="clusterblast-orf" id="dummy-1_h1_3_6"  />
</g>
<g id="a1_007"  >
<polygon points="386,85 390,80 390,90 386,85 " style="fill:#15d863; stroke-width:1; stroke:black; " description="&lt;b&gt;AKL71646.1&lt;/b&gt;&lt;br&gt;NocM&lt;br&gt;Location: 20981 - 20784&lt;br&gt;&lt;br&gt;&lt;b&gt;BlastP hit with ctg47_3&lt;/b&gt;&lt;br&gt;Percentage identity: 52&lt;br&gt;Percentage coverage: 63&lt;br&gt;BLAST bit score: 80&lt;br&gt;E-value: 2.1e-15&lt;br&gt;&lt;br&gt;&lt;b&gt;BlastP hit with ctg47_11&lt;/b&gt;&lt;br&gt;Percentage identity: 62&lt;br&gt;Percentage coverage: 60&lt;br&gt;BLAST bit score: 94&lt;br&gt;E-value: 1.1e-19" locus_tag="AKL71646.1" class="clusterblast-orf" id="dummy-1_h1_3_7"  />
</g>
<g id="a1_008"  >
<polygon points="395,85 400,80 430,80 430,90 400,90 395,85 " style="fill:#15d863; stroke-width:1; stroke:black; " description="&lt;b&gt;AKL71645.1&lt;/b&gt;&lt;br&gt;NocL&lt;br&gt;Location: 20464 - 18560&lt;br&gt;&lt;br&gt;&lt;b&gt;BlastP hit with ctg47_15&lt;/b&gt;&lt;br&gt;Percentage identity: 59&lt;br&gt;Percentage coverage: 100&lt;br&gt;BLAST bit score: 722&lt;br&gt;E-value: 6.2e-208" locus_tag="AKL71645.1" class="clusterblast-orf" id="dummy-1_h1_3_8"  />
</g>
<g id="a1_009"  >
<polygon points="449,90 464,90 469,85 464,80 449,80 449,90 " style="fill:white; stroke-width:1; stroke:black; " description="&lt;b&gt;AKL71644.1&lt;/b&gt;&lt;br&gt;NocK&lt;br&gt;Location: 17567 - 16437" locus_tag="AKL71644.1" class="clusterblast-orf" id="dummy-1_h1_3_9"  />
</g>
<g id="a1_0010"  >
<polygon points="481,90 495,90 500,85 495,80 481,80 481,90 " style="fill:white; stroke-width:1; stroke:black; " description="&lt;b&gt;AKL71643.1&lt;/b&gt;&lt;br&gt;NocJ&lt;br&gt;Location: 15787 - 14753" locus_tag="AKL71643.1" class="clusterblast-orf" id="dummy-1_h1_3_10"  />
</g>
<g id="a1_0011"  >
<polygon points="500,90 516,90 521,85 516,80 500,80 500,90 " style="fill:white; stroke-width:1; stroke:black; " description="&lt;b&gt;AKL71642.1&lt;/b&gt;&lt;br&gt;NocI&lt;br&gt;Location: 14749 - 13628" locus_tag="AKL71642.1" class="clusterblast-orf" id="dummy-1_h1_3_11"  />
</g>
<g id="a1_0012"  >
<polygon points="522,90 555,90 560,85 555,80 522,80 522,90 " style="fill:#15d863; stroke-width:1; stroke:black; " description="&lt;b&gt;AKL71641.1&lt;/b&gt;&lt;br&gt;NocH&lt;br&gt;Location: 13564 - 11474&lt;br&gt;&lt;br&gt;&lt;b&gt;BlastP hit with ctg47_15&lt;/b&gt;&lt;br&gt;Percentage identity: 55&lt;br&gt;Percentage coverage: 95&lt;br&gt;BLAST bit score: 648&lt;br&gt;E-value: 1.1e-185" locus_tag="AKL71641.1" class="clusterblast-orf" id="dummy-1_h1_3_12"  />
</g>
<g id="a1_0013"  >
<polygon points="563,90 577,90 582,85 577,80 563,80 563,90 " style="fill:white; stroke-width:1; stroke:black; " description="&lt;b&gt;AKL71640.1&lt;/b&gt;&lt;br&gt;NocG&lt;br&gt;Location: 11347 - 10304" locus_tag="AKL71640.1" class="clusterblast-orf" id="dummy-1_h1_3_13"  />
</g>
<g id="a1_0014"  >
<polygon points="586,90 629,90 634,85 629,80 586,80 586,90 " style="fill:white; stroke-width:1; stroke:black; " description="&lt;b&gt;AKL71639.1&lt;/b&gt;&lt;br&gt;NocF&lt;br&gt;Location: 10080 - 7462" locus_tag="AKL71639.1" class="clusterblast-orf" id="dummy-1_h1_3_14"  />
</g>
<g id="a1_0015"  >
<polygon points="636,90 658,90 663,85 658,80 636,80 636,90 " style="fill:white; stroke-width:1; stroke:black; " description="&lt;b&gt;AKL71638.1&lt;/b&gt;&lt;br&gt;NocE&lt;br&gt;Location: 7353 - 5893" locus_tag="AKL71638.1" class="clusterblast-orf" id="dummy-1_h1_3_15"  />
</g>
<g id="a1_0016"  >
<polygon points="664,90 672,90 677,85 672,80 664,80 664,90 " style="fill:white; stroke-width:1; stroke:black; " description="&lt;b&gt;AKL71637.1&lt;/b&gt;&lt;br&gt;NocD&lt;br&gt;Location: 5817 - 5122" locus_tag="AKL71637.1" class="clusterblast-orf" id="dummy-1_h1_3_16"  />
</g>
<g id="a1_0017"  >
<polygon points="677,90 703,90 708,85 703,80 677,80 677,90 " style="fill:white; stroke-width:1; stroke:black; " description="&lt;b&gt;AKL71636.1&lt;/b&gt;&lt;br&gt;NocC&lt;br&gt;Location: 5103 - 3451" locus_tag="AKL71636.1" class="clusterblast-orf" id="dummy-1_h1_3_17"  />
</g>
<g id="a1_0018"  >
<polygon points="709,90 720,90 725,85 720,80 709,80 709,90 " style="fill:white; stroke-width:1; stroke:black; " description="&lt;b&gt;AKL71635.1&lt;/b&gt;&lt;br&gt;putative hydrolase&lt;br&gt;Location: 3394 - 2525" locus_tag="AKL71635.1" class="clusterblast-orf" id="dummy-1_h1_3_18"  />
</g>
<g id="a1_0019"  >
<polygon points="729,90 734,90 739,85 734,80 729,80 729,90 " style="fill:white; stroke-width:1; stroke:black; " description="&lt;b&gt;AKL71634.1&lt;/b&gt;&lt;br&gt;NocB&lt;br&gt;Location: 2293 - 1736" locus_tag="AKL71634.1" class="clusterblast-orf" id="dummy-1_h1_3_19"  />
</g>
<g id="a1_0020"  >
<polygon points="742,90 749,90 754,85 749,80 742,80 742,90 " style="fill:white; stroke-width:1; stroke:black; " description="&lt;b&gt;AKL71633.1&lt;/b&gt;&lt;br&gt;NocA&lt;br&gt;Location: 1582 - 938" locus_tag="AKL71633.1" class="clusterblast-orf" id="dummy-1_h1_3_20"  />
</g>
<g id="a1_0021"  >
<polygon points="755,90 766,90 771,85 766,80 755,80 755,90 " style="fill:white; stroke-width:1; stroke:black; " description="&lt;b&gt;AKL71632.1&lt;/b&gt;&lt;br&gt;putative hydrolase&lt;br&gt;Location: 864 - 1" locus_tag="AKL71632.1" class="clusterblast-orf" id="dummy-1_h1_3_21"  />
</g>
</svg>
