<svg xmlns="http://www.w3.org/2000/svg" xmlns:xlink="http://www.w3.org/1999/xlink" version="1.1" x="0" y="0" height="230" width="800" viewBox="0 0 800 230" preserveAspectRatio="none"  >
<g label="Query sequence" class="clusterblast-cluster"  >
<text x="5" y="20" class="clusterblast-acc"  >
Query sequence</text>
<line x1="10" y1="35" x2="778.0" y2="35" style="stroke-width:1; stroke:grey; "  />
<polygon points="120,35 125,30 157,30 157,40 125,40 120,35 " style="fill:#d81515; stroke-width:1; stroke:black; " description="&lt;b&gt;ctg44_1&lt;/b&gt;&lt;br&gt;ctg44 1&lt;br&gt;Location: 2 - 2855" locus_tag="ctg44_1" class="clusterblast-orf" id="dummy-1_q0_0_all"  />
<polygon points="157,35 162,30 260,30 260,40 162,40 157,35 " style="fill:#d81515; stroke-width:1; stroke:black; " description="&lt;b&gt;ctg44_2&lt;/b&gt;&lt;br&gt;ctg44 2&lt;br&gt;Location: 2851 - 10603" locus_tag="ctg44_2" class="clusterblast-orf" id="dummy-1_q1_0_all"  />
<polygon points="261,35 266,30 278,30 278,40 266,40 261,35 " style="fill:white; stroke-width:1; stroke:black; " description="&lt;b&gt;ctg44_3&lt;/b&gt;&lt;br&gt;ctg44 3&lt;br&gt;Location: 10645 - 11974" locus_tag="ctg44_3" class="clusterblast-orf" id="dummy-1_q2_0_all"  />
<polygon points="278,35 283,30 321,30 321,40 283,40 278,35 " style="fill:#d81515; stroke-width:1; stroke:black; " description="&lt;b&gt;ctg44_4&lt;/b&gt;&lt;br&gt;ctg44 4&lt;br&gt;Location: 11973 - 15183" locus_tag="ctg44_4" class="clusterblast-orf" id="dummy-1_q3_0_all"  />
<polygon points="321,35 326,30 408,30 408,40 326,40 321,35 " style="fill:#d81515; stroke-width:1; stroke:black; " description="&lt;b&gt;ctg44_5&lt;/b&gt;&lt;br&gt;ctg44 5&lt;br&gt;Location: 15231 - 21804" locus_tag="ctg44_5" class="clusterblast-orf" id="dummy-1_q4_0_all"  />
<polygon points="409,35 414,30 431,30 431,40 414,40 409,35 " style="fill:white; stroke-width:1; stroke:black; " description="&lt;b&gt;ctg44_6&lt;/b&gt;&lt;br&gt;ctg44 6&lt;br&gt;Location: 21831 - 23541" locus_tag="ctg44_6" class="clusterblast-orf" id="dummy-1_q5_0_all"  />
<polygon points="431,35 436,30 446,30 446,40 436,40 431,35 " style="fill:white; stroke-width:1; stroke:black; " description="&lt;b&gt;ctg44_7&lt;/b&gt;&lt;br&gt;ctg44 7&lt;br&gt;Location: 23524 - 24616" locus_tag="ctg44_7" class="clusterblast-orf" id="dummy-1_q6_0_all"  />
<polygon points="452,35 457,30 463,30 463,40 457,40 452,35 " style="fill:white; stroke-width:1; stroke:black; " description="&lt;b&gt;ctg44_8&lt;/b&gt;&lt;br&gt;ctg44 8&lt;br&gt;Location: 25092 - 25902" locus_tag="ctg44_8" class="clusterblast-orf" id="dummy-1_q7_0_all"  />
<polygon points="474,35 476,30 476,40 474,35 " style="fill:white; stroke-width:1; stroke:black; " description="&lt;b&gt;ctg44_9&lt;/b&gt;&lt;br&gt;ctg44 9&lt;br&gt;Location: 26747 - 26897" locus_tag="ctg44_9" class="clusterblast-orf" id="dummy-1_q8_0_all"  />
<polygon points="480,40 484,35 480,30 480,40 " style="fill:white; stroke-width:1; stroke:black; " description="&lt;b&gt;ctg44_10&lt;/b&gt;&lt;br&gt;ctg44 10&lt;br&gt;Location: 27248 - 27515" locus_tag="ctg44_10" class="clusterblast-orf" id="dummy-1_q9_0_all"  />
<polygon points="488,40 496,40 501,35 496,30 488,30 488,40 " style="fill:white; stroke-width:1; stroke:black; " description="&lt;b&gt;ctg44_11&lt;/b&gt;&lt;br&gt;ctg44 11&lt;br&gt;Location: 27802 - 28795" locus_tag="ctg44_11" class="clusterblast-orf" id="dummy-1_q10_0_all"  />
<polygon points="502,40 510,40 515,35 510,30 502,30 502,40 " style="fill:white; stroke-width:1; stroke:black; " description="&lt;b&gt;ctg44_12&lt;/b&gt;&lt;br&gt;ctg44 12&lt;br&gt;Location: 28884 - 29862" locus_tag="ctg44_12" class="clusterblast-orf" id="dummy-1_q11_0_all"  />
<polygon points="517,40 539,40 544,35 539,30 517,30 517,40 " style="fill:white; stroke-width:1; stroke:black; " description="&lt;b&gt;ctg44_13&lt;/b&gt;&lt;br&gt;ctg44 13&lt;br&gt;Location: 30001 - 32065" locus_tag="ctg44_13" class="clusterblast-orf" id="dummy-1_q12_0_all"  />
<polygon points="546,40 546,40 551,35 546,30 546,30 546,40 " style="fill:white; stroke-width:1; stroke:black; " description="&lt;b&gt;ctg44_14&lt;/b&gt;&lt;br&gt;ctg44 14&lt;br&gt;Location: 32192 - 32597" locus_tag="ctg44_14" class="clusterblast-orf" id="dummy-1_q13_0_all"  />
<polygon points="553,40 572,40 577,35 572,30 553,30 553,40 " style="fill:#15d8d8; stroke-width:1; stroke:black; " description="&lt;b&gt;ctg44_15&lt;/b&gt;&lt;br&gt;ctg44 15&lt;br&gt;Location: 32755 - 34561" locus_tag="ctg44_15" class="clusterblast-orf" id="dummy-1_q14_0_all"  />
<polygon points="577,40 594,40 599,35 594,30 577,30 577,40 " style="fill:white; stroke-width:1; stroke:black; " description="&lt;b&gt;ctg44_16&lt;/b&gt;&lt;br&gt;ctg44 16&lt;br&gt;Location: 34547 - 36230" locus_tag="ctg44_16" class="clusterblast-orf" id="dummy-1_q15_0_all"  />
<polygon points="602,35 607,30 620,30 620,40 607,40 602,35 " style="fill:white; stroke-width:1; stroke:black; " description="&lt;b&gt;ctg44_17&lt;/b&gt;&lt;br&gt;ctg44 17&lt;br&gt;Location: 36421 - 37750" locus_tag="ctg44_17" class="clusterblast-orf" id="dummy-1_q16_0_all"  />
<polygon points="620,35 625,30 631,30 631,40 625,40 620,35 " style="fill:white; stroke-width:1; stroke:black; " description="&lt;b&gt;ctg44_18&lt;/b&gt;&lt;br&gt;ctg44 18&lt;br&gt;Location: 37779 - 38628" locus_tag="ctg44_18" class="clusterblast-orf" id="dummy-1_q17_0_all"  />
<polygon points="638,35 643,30 660,30 660,40 643,40 638,35 " style="fill:white; stroke-width:1; stroke:black; " description="&lt;b&gt;ctg44_19&lt;/b&gt;&lt;br&gt;ctg44 19&lt;br&gt;Location: 39169 - 40774" locus_tag="ctg44_19" class="clusterblast-orf" id="dummy-1_q18_0_all"  />
</g>
<g label="BGC0001951" description="BGC0001951_c1: puwainaphycin F / minutissamide A (44% of genes show similarity), NRP" class="clusterblast-cluster"  >
<text x="5" y="70" class="clusterblast-acc"  >
<a xlink:href="https://mibig.secondarymetabolites.org/go/BGC0001951/1" target="_blank">BGC0001951</a>:                                                puwainaphycin F / minutissamide A (44% of genes show similarity), NRP</text>
<line x1="10" y1="85" x2="778.0" y2="85" style="stroke-width:1; stroke:grey; "  />
</g>
<g id="a1_000"  >
<polygon points="0,85 5,80 43,80 43,90 5,90 0,85 " style="fill:#d81515; stroke-width:1; stroke:black; " description="&lt;b&gt;AXN93591.1&lt;/b&gt;&lt;br&gt;PuwH&lt;br&gt;Location: 58884 - 55576&lt;br&gt;&lt;br&gt;&lt;b&gt;BlastP hit with ctg44_4&lt;/b&gt;&lt;br&gt;Percentage identity: 52&lt;br&gt;Percentage coverage: 101&lt;br&gt;BLAST bit score: 1055&lt;br&gt;E-value: 4.1e-308" locus_tag="AXN93591.1" class="clusterblast-orf" id="dummy-1_h1_4_0"  />
</g>
<g id="a1_001"  >
<polygon points="45,85 50,80 277,80 277,90 50,90 45,85 " style="fill:#d81515; stroke-width:1; stroke:black; " description="&lt;b&gt;AXN93590.1&lt;/b&gt;&lt;br&gt;PuwF-G&lt;br&gt;Location: 55468 - 37913&lt;br&gt;&lt;br&gt;&lt;b&gt;BlastP hit with ctg44_1&lt;/b&gt;&lt;br&gt;Percentage identity: 47&lt;br&gt;Percentage coverage: 94&lt;br&gt;BLAST bit score: 749&lt;br&gt;E-value: 5.6e-216&lt;br&gt;&lt;br&gt;&lt;b&gt;BlastP hit with ctg44_5&lt;/b&gt;&lt;br&gt;Percentage identity: 50&lt;br&gt;Percentage coverage: 100&lt;br&gt;BLAST bit score: 2038&lt;br&gt;E-value: 0.0" locus_tag="AXN93590.1" class="clusterblast-orf" id="dummy-1_h1_4_1"  />
</g>
<g id="a1_002"  >
<polygon points="277,85 282,80 401,80 401,90 282,90 277,85 " style="fill:white; stroke-width:1; stroke:black; " description="&lt;b&gt;AXN93589.1&lt;/b&gt;&lt;br&gt;PuwE&lt;br&gt;Location: 37916 - 28551" locus_tag="AXN93589.1" class="clusterblast-orf" id="dummy-1_h1_4_2"  />
</g>
<g id="a1_003"  >
<polygon points="405,85 409,80 409,90 405,85 " style="fill:white; stroke-width:1; stroke:black; " description="&lt;b&gt;AXN93588.1&lt;/b&gt;&lt;br&gt;PuwD&lt;br&gt;Location: 28239 - 27949" locus_tag="AXN93588.1" class="clusterblast-orf" id="dummy-1_h1_4_3"  />
</g>
<g id="a1_004"  >
<polygon points="412,85 417,80 435,80 435,90 417,90 412,85 " style="fill:white; stroke-width:1; stroke:black; " description="&lt;b&gt;AXN93587.1&lt;/b&gt;&lt;br&gt;PuwC&lt;br&gt;Location: 27756 - 25984" locus_tag="AXN93587.1" class="clusterblast-orf" id="dummy-1_h1_4_4"  />
</g>
<g id="a1_005"  >
<polygon points="435,85 440,80 538,80 538,90 440,90 435,85 " style="fill:white; stroke-width:1; stroke:black; " description="&lt;b&gt;AXN93586.1&lt;/b&gt;&lt;br&gt;PuwB&lt;br&gt;Location: 25980 - 18202" locus_tag="AXN93586.1" class="clusterblast-orf" id="dummy-1_h1_4_5"  />
</g>
<g id="a1_006"  >
<polygon points="561,90 631,90 636,85 631,80 561,80 561,90 " style="fill:white; stroke-width:1; stroke:black; " description="&lt;b&gt;AXN93585.1&lt;/b&gt;&lt;br&gt;ORF2&lt;br&gt;Location: 16491 - 10864" locus_tag="AXN93585.1" class="clusterblast-orf" id="dummy-1_h1_4_6"  />
</g>
<g id="a1_007"  >
<polygon points="638,90 747,90 752,85 747,80 638,80 638,90 " style="fill:#d81515; stroke-width:1; stroke:black; " description="&lt;b&gt;AXN93584.1&lt;/b&gt;&lt;br&gt;PuwA&lt;br&gt;Location: 10687 - 2075&lt;br&gt;&lt;br&gt;&lt;b&gt;BlastP hit with ctg44_1&lt;/b&gt;&lt;br&gt;Percentage identity: 46&lt;br&gt;Percentage coverage: 93&lt;br&gt;BLAST bit score: 750&lt;br&gt;E-value: 3.3e-216" locus_tag="AXN93584.1" class="clusterblast-orf" id="dummy-1_h1_4_7"  />
</g>
<g id="a1_008"  >
<polygon points="753,90 775,90 780,85 775,80 753,80 753,90 " style="fill:#15d8d8; stroke-width:1; stroke:black; " description="&lt;b&gt;AXN93583.1&lt;/b&gt;&lt;br&gt;ORF1&lt;br&gt;Location: 1995 - 1&lt;br&gt;&lt;br&gt;&lt;b&gt;BlastP hit with ctg44_15&lt;/b&gt;&lt;br&gt;Percentage identity: 50&lt;br&gt;Percentage coverage: 96&lt;br&gt;BLAST bit score: 560&lt;br&gt;E-value: 4e-159" locus_tag="AXN93583.1" class="clusterblast-orf" id="dummy-1_h1_4_8"  />
</g>
</svg>
