<svg xmlns="http://www.w3.org/2000/svg" xmlns:xlink="http://www.w3.org/1999/xlink" version="1.1" x="0" y="0" height="230" width="800" viewBox="0 0 800 230" preserveAspectRatio="none"  >
<g label="Query sequence" class="clusterblast-cluster"  >
<text x="5" y="20" class="clusterblast-acc"  >
Query sequence</text>
<line x1="10" y1="35" x2="778.0" y2="35" style="stroke-width:1; stroke:grey; "  />
<polygon points="105,40 152,40 157,35 152,30 105,30 105,40 " style="fill:white; stroke-width:1; stroke:black; " description="&lt;b&gt;ctg35_27&lt;/b&gt;&lt;br&gt;ctg35 27&lt;br&gt;Location: 31729 - 34594" locus_tag="ctg35_27" class="clusterblast-orf" id="dummy-1_q0_0_all"  />
<polygon points="158,35 163,30 179,30 179,40 163,40 158,35 " style="fill:#d81515; stroke-width:1; stroke:black; " description="&lt;b&gt;ctg35_28&lt;/b&gt;&lt;br&gt;ctg35 28&lt;br&gt;Location: 34635 - 35802" locus_tag="ctg35_28" class="clusterblast-orf" id="dummy-1_q1_0_all"  />
<polygon points="180,35 185,30 201,30 201,40 185,40 180,35 " style="fill:#77d815; stroke-width:1; stroke:black; " description="&lt;b&gt;ctg35_29&lt;/b&gt;&lt;br&gt;ctg35 29&lt;br&gt;Location: 35849 - 37028" locus_tag="ctg35_29" class="clusterblast-orf" id="dummy-1_q2_0_all"  />
<polygon points="203,35 208,30 211,30 211,40 208,40 203,35 " style="fill:#15d8d8; stroke-width:1; stroke:black; " description="&lt;b&gt;ctg35_30&lt;/b&gt;&lt;br&gt;ctg35 30&lt;br&gt;Location: 37121 - 37571" locus_tag="ctg35_30" class="clusterblast-orf" id="dummy-1_q3_0_all"  />
<polygon points="215,40 218,35 215,30 215,40 " style="fill:white; stroke-width:1; stroke:black; " description="&lt;b&gt;ctg35_31&lt;/b&gt;&lt;br&gt;ctg35 31&lt;br&gt;Location: 37803 - 37968" locus_tag="ctg35_31" class="clusterblast-orf" id="dummy-1_q4_0_all"  />
<polygon points="220,40 244,40 249,35 244,30 220,30 220,40 " style="fill:#7715d8; stroke-width:1; stroke:black; " description="&lt;b&gt;ctg35_32&lt;/b&gt;&lt;br&gt;ctg35 32&lt;br&gt;Location: 38038 - 39661" locus_tag="ctg35_32" class="clusterblast-orf" id="dummy-1_q5_0_all"  />
<polygon points="250,40 272,40 277,35 272,30 250,30 250,40 " style="fill:#d85015; stroke-width:1; stroke:black; " description="&lt;b&gt;ctg35_33&lt;/b&gt;&lt;br&gt;ctg35 33&lt;br&gt;Location: 39741 - 41196" locus_tag="ctg35_33" class="clusterblast-orf" id="dummy-1_q6_0_all"  />
<polygon points="286,40 301,40 306,35 301,30 286,30 286,40 " style="fill:white; stroke-width:1; stroke:black; " description="&lt;b&gt;ctg35_34&lt;/b&gt;&lt;br&gt;ctg35 34&lt;br&gt;Location: 41716 - 42796" locus_tag="ctg35_34" class="clusterblast-orf" id="dummy-1_q7_0_all"  />
<polygon points="315,40 324,40 329,35 324,30 315,30 315,40 " style="fill:#3cd815; stroke-width:1; stroke:black; " description="&lt;b&gt;ctg35_35&lt;/b&gt;&lt;br&gt;ctg35 35&lt;br&gt;Location: 43309 - 44074" locus_tag="ctg35_35" class="clusterblast-orf" id="dummy-1_q8_0_all"  />
<polygon points="336,40 342,40 347,35 342,30 336,30 336,40 " style="fill:#159ed8; stroke-width:1; stroke:black; " description="&lt;b&gt;ctg35_36&lt;/b&gt;&lt;br&gt;ctg35 36&lt;br&gt;Location: 44456 - 45035" locus_tag="ctg35_36" class="clusterblast-orf" id="dummy-1_q9_0_all"  />
<polygon points="348,40 365,40 370,35 365,30 348,30 348,40 " style="fill:#b115d8; stroke-width:1; stroke:black; " description="&lt;b&gt;ctg35_37&lt;/b&gt;&lt;br&gt;ctg35 37&lt;br&gt;Location: 45103 - 46324" locus_tag="ctg35_37" class="clusterblast-orf" id="dummy-1_q10_0_all"  />
<polygon points="377,40 390,40 395,35 390,30 377,30 377,40 " style="fill:#d88a15; stroke-width:1; stroke:black; " description="&lt;b&gt;ctg35_38&lt;/b&gt;&lt;br&gt;ctg35 38&lt;br&gt;Location: 46718 - 47678" locus_tag="ctg35_38" class="clusterblast-orf" id="dummy-1_q11_0_all"  />
<polygon points="396,35 399,30 399,40 396,35 " style="fill:white; stroke-width:1; stroke:black; " description="&lt;b&gt;ctg35_39&lt;/b&gt;&lt;br&gt;ctg35 39&lt;br&gt;Location: 47752 - 47902" locus_tag="ctg35_39" class="clusterblast-orf" id="dummy-1_q12_0_all"  />
<polygon points="402,40 415,40 420,35 415,30 402,30 402,40 " style="fill:#d88a15; stroke-width:1; stroke:black; " description="&lt;b&gt;ctg35_40&lt;/b&gt;&lt;br&gt;ctg35 40&lt;br&gt;Location: 48100 - 49096" locus_tag="ctg35_40" class="clusterblast-orf" id="dummy-1_q13_0_all"  />
<polygon points="420,40 430,40 435,35 430,30 420,30 420,40 " style="fill:#15d829; stroke-width:1; stroke:black; " description="&lt;b&gt;ctg35_41&lt;/b&gt;&lt;br&gt;ctg35 41&lt;br&gt;Location: 49095 - 49914" locus_tag="ctg35_41" class="clusterblast-orf" id="dummy-1_q14_0_all"  />
<polygon points="441,40 453,40 458,35 453,30 441,30 441,40 " style="fill:#1563d8; stroke-width:1; stroke:black; " description="&lt;b&gt;ctg35_42&lt;/b&gt;&lt;br&gt;ctg35 42&lt;br&gt;Location: 50231 - 51158" locus_tag="ctg35_42" class="clusterblast-orf" id="dummy-1_q15_0_all"  />
<polygon points="462,40 493,40 498,35 493,30 462,30 462,40 " style="fill:#d815c5; stroke-width:1; stroke:black; " description="&lt;b&gt;ctg35_43&lt;/b&gt;&lt;br&gt;ctg35 43&lt;br&gt;Location: 51402 - 53355" locus_tag="ctg35_43" class="clusterblast-orf" id="dummy-1_q16_0_all"  />
<polygon points="502,40 517,40 522,35 517,30 502,30 502,40 " style="fill:#d8c515; stroke-width:1; stroke:black; " description="&lt;b&gt;ctg35_44&lt;/b&gt;&lt;br&gt;ctg35 44&lt;br&gt;Location: 53573 - 54710" locus_tag="ctg35_44" class="clusterblast-orf" id="dummy-1_q17_0_all"  />
<polygon points="525,40 537,40 542,35 537,30 525,30 525,40 " style="fill:#15d863; stroke-width:1; stroke:black; " description="&lt;b&gt;ctg35_45&lt;/b&gt;&lt;br&gt;ctg35 45&lt;br&gt;Location: 54887 - 55793" locus_tag="ctg35_45" class="clusterblast-orf" id="dummy-1_q18_0_all"  />
<polygon points="543,40 578,40 583,35 578,30 543,30 543,40 " style="fill:#1529d8; stroke-width:1; stroke:black; " description="&lt;b&gt;ctg35_46&lt;/b&gt;&lt;br&gt;ctg35 46&lt;br&gt;Location: 55875 - 58080" locus_tag="ctg35_46" class="clusterblast-orf" id="dummy-1_q19_0_all"  />
<polygon points="587,40 597,40 602,35 597,30 587,30 587,40 " style="fill:#d8158a; stroke-width:1; stroke:black; " description="&lt;b&gt;ctg35_47&lt;/b&gt;&lt;br&gt;ctg35 47&lt;br&gt;Location: 58261 - 59113" locus_tag="ctg35_47" class="clusterblast-orf" id="dummy-1_q20_0_all"  />
<polygon points="603,40 613,40 618,35 613,30 603,30 603,40 " style="fill:#b1d815; stroke-width:1; stroke:black; " description="&lt;b&gt;ctg35_48&lt;/b&gt;&lt;br&gt;ctg35 48&lt;br&gt;Location: 59160 - 59985" locus_tag="ctg35_48" class="clusterblast-orf" id="dummy-1_q21_0_all"  />
<polygon points="619,40 637,40 642,35 637,30 619,30 619,40 " style="fill:#15d89e; stroke-width:1; stroke:black; " description="&lt;b&gt;ctg35_49&lt;/b&gt;&lt;br&gt;ctg35 49&lt;br&gt;Location: 60041 - 61289" locus_tag="ctg35_49" class="clusterblast-orf" id="dummy-1_q22_0_all"  />
<polygon points="642,40 657,40 662,35 657,30 642,30 642,40 " style="fill:#3c15d8; stroke-width:1; stroke:black; " description="&lt;b&gt;ctg35_50&lt;/b&gt;&lt;br&gt;ctg35 50&lt;br&gt;Location: 61328 - 62426" locus_tag="ctg35_50" class="clusterblast-orf" id="dummy-1_q23_0_all"  />
<polygon points="663,40 669,40 674,35 669,30 663,30 663,40 " style="fill:#d81550; stroke-width:1; stroke:black; " description="&lt;b&gt;ctg35_51&lt;/b&gt;&lt;br&gt;ctg35 51&lt;br&gt;Location: 62450 - 63095" locus_tag="ctg35_51" class="clusterblast-orf" id="dummy-1_q24_0_all"  />
</g>
<g label="BGC0001501" description="BGC0001501_c1: ambiguine P (57% of genes show similarity), Alkaloid" class="clusterblast-cluster"  >
<text x="5" y="70" class="clusterblast-acc"  >
<a xlink:href="https://mibig.secondarymetabolites.org/go/BGC0001501/1" target="_blank">BGC0001501</a>:                                                                      ambiguine P (57% of genes show similarity), Alkaloid</text>
<line x1="10" y1="85" x2="778.0" y2="85" style="stroke-width:1; stroke:grey; "  />
</g>
<g id="a1_000"  >
<polygon points="0,90 3,90 8,85 3,80 0,80 0,90 " style="fill:#15d8d8; stroke-width:1; stroke:black; " description="&lt;b&gt;APZ79574.1&lt;/b&gt;&lt;br&gt;FilA1&lt;br&gt;Location: 1 - 456&lt;br&gt;&lt;br&gt;&lt;b&gt;BlastP hit with ctg35_30&lt;/b&gt;&lt;br&gt;Percentage identity: 84&lt;br&gt;Percentage coverage: 101&lt;br&gt;BLAST bit score: 243&lt;br&gt;E-value: 1.6e-64" locus_tag="APZ79574.1" class="clusterblast-orf" id="dummy-1_h1_4_0"  />
</g>
<g id="a1_001"  >
<polygon points="8,90 25,90 30,85 25,80 8,80 8,90 " style="fill:#77d815; stroke-width:1; stroke:black; " description="&lt;b&gt;APZ79575.1&lt;/b&gt;&lt;br&gt;FilA2&lt;br&gt;Location: 464 - 1657&lt;br&gt;&lt;br&gt;&lt;b&gt;BlastP hit with ctg35_29&lt;/b&gt;&lt;br&gt;Percentage identity: 78&lt;br&gt;Percentage coverage: 100&lt;br&gt;BLAST bit score: 450&lt;br&gt;E-value: 2.2e-126" locus_tag="APZ79575.1" class="clusterblast-orf" id="dummy-1_h1_4_1"  />
</g>
<g id="a1_002"  >
<polygon points="30,90 46,90 51,85 46,80 30,80 30,90 " style="fill:#d81515; stroke-width:1; stroke:black; " description="&lt;b&gt;APZ79576.1&lt;/b&gt;&lt;br&gt;FilA3&lt;br&gt;Location: 1681 - 2847&lt;br&gt;&lt;br&gt;&lt;b&gt;BlastP hit with ctg35_28&lt;/b&gt;&lt;br&gt;Percentage identity: 91&lt;br&gt;Percentage coverage: 100&lt;br&gt;BLAST bit score: 687&lt;br&gt;E-value: 1.1e-197" locus_tag="APZ79576.1" class="clusterblast-orf" id="dummy-1_h1_4_2"  />
</g>
<g id="a1_003"  >
<polygon points="59,85 64,80 76,80 76,90 64,90 59,85 " style="fill:white; stroke-width:1; stroke:black; " description="&lt;b&gt;APZ79577.1&lt;/b&gt;&lt;br&gt;FilB1&lt;br&gt;Location: 3258 - 4208" locus_tag="APZ79577.1" class="clusterblast-orf" id="dummy-1_h1_4_3"  />
</g>
<g id="a1_004"  >
<polygon points="78,85 83,80 94,80 94,90 83,90 78,85 " style="fill:white; stroke-width:1; stroke:black; " description="&lt;b&gt;APZ79578.1&lt;/b&gt;&lt;br&gt;FilB2&lt;br&gt;Location: 4333 - 5190" locus_tag="APZ79578.1" class="clusterblast-orf" id="dummy-1_h1_4_4"  />
</g>
<g id="a1_005"  >
<polygon points="102,85 107,80 114,80 114,90 107,90 102,85 " style="fill:white; stroke-width:1; stroke:black; " description="&lt;b&gt;APZ79579.1&lt;/b&gt;&lt;br&gt;FilC1&lt;br&gt;Location: 5626 - 6309" locus_tag="APZ79579.1" class="clusterblast-orf" id="dummy-1_h1_4_5"  />
</g>
<g id="a1_006"  >
<polygon points="116,85 121,80 135,80 135,90 121,90 116,85 " style="fill:white; stroke-width:1; stroke:black; " description="&lt;b&gt;APZ79580.1&lt;/b&gt;&lt;br&gt;FilB3&lt;br&gt;Location: 6397 - 7485" locus_tag="APZ79580.1" class="clusterblast-orf" id="dummy-1_h1_4_6"  />
</g>
<g id="a1_007"  >
<polygon points="143,85 148,80 155,80 155,90 148,90 143,85 " style="fill:white; stroke-width:1; stroke:black; " description="&lt;b&gt;APZ79581.1&lt;/b&gt;&lt;br&gt;FilC2&lt;br&gt;Location: 7880 - 8572" locus_tag="APZ79581.1" class="clusterblast-orf" id="dummy-1_h1_4_7"  />
</g>
<g id="a1_008"  >
<polygon points="161,85 166,80 174,80 174,90 166,90 161,85 " style="fill:white; stroke-width:1; stroke:black; " description="&lt;b&gt;APZ79582.1&lt;/b&gt;&lt;br&gt;FilC3&lt;br&gt;Location: 8902 - 9603" locus_tag="APZ79582.1" class="clusterblast-orf" id="dummy-1_h1_4_8"  />
</g>
<g id="a1_009"  >
<polygon points="180,85 185,80 192,80 192,90 185,90 180,85 " style="fill:white; stroke-width:1; stroke:black; " description="&lt;b&gt;APZ79583.1&lt;/b&gt;&lt;br&gt;FilC4&lt;br&gt;Location: 9937 - 10623" locus_tag="APZ79583.1" class="clusterblast-orf" id="dummy-1_h1_4_9"  />
</g>
<g id="a1_0010"  >
<polygon points="194,85 199,80 214,80 214,90 199,90 194,85 " style="fill:white; stroke-width:1; stroke:black; " description="&lt;b&gt;APZ79584.1&lt;/b&gt;&lt;br&gt;FilB4&lt;br&gt;Location: 10711 - 11802" locus_tag="APZ79584.1" class="clusterblast-orf" id="dummy-1_h1_4_10"  />
</g>
<g id="a1_0011"  >
<polygon points="219,85 224,80 239,80 239,90 224,90 219,85 " style="fill:white; stroke-width:1; stroke:black; " description="&lt;b&gt;APZ79585.1&lt;/b&gt;&lt;br&gt;FilB5&lt;br&gt;Location: 12110 - 13192" locus_tag="APZ79585.1" class="clusterblast-orf" id="dummy-1_h1_4_11"  />
</g>
<g id="a1_0012"  >
<polygon points="241,85 246,80 260,80 260,90 246,90 241,85 " style="fill:white; stroke-width:1; stroke:black; " description="&lt;b&gt;APZ79586.1&lt;/b&gt;&lt;br&gt;FilB6&lt;br&gt;Location: 13280 - 14359" locus_tag="APZ79586.1" class="clusterblast-orf" id="dummy-1_h1_4_12"  />
</g>
<g id="a1_0013"  >
<polygon points="274,85 279,80 292,80 292,90 279,90 274,85 " style="fill:#1563d8; stroke-width:1; stroke:black; " description="&lt;b&gt;APZ79587.1&lt;/b&gt;&lt;br&gt;FilD1&lt;br&gt;Location: 15107 - 16138&lt;br&gt;&lt;br&gt;&lt;b&gt;BlastP hit with ctg35_42&lt;/b&gt;&lt;br&gt;Percentage identity: 58&lt;br&gt;Percentage coverage: 98&lt;br&gt;BLAST bit score: 362&lt;br&gt;E-value: 8.2e-100" locus_tag="APZ79587.1" class="clusterblast-orf" id="dummy-1_h1_4_13"  />
</g>
<g id="a1_0014"  >
<polygon points="295,85 300,80 318,80 318,90 300,90 295,85 " style="fill:white; stroke-width:1; stroke:black; " description="&lt;b&gt;APZ79588.1&lt;/b&gt;&lt;br&gt;FilE1&lt;br&gt;Location: 16303 - 17541" locus_tag="APZ79588.1" class="clusterblast-orf" id="dummy-1_h1_4_14"  />
</g>
<g id="a1_0015"  >
<polygon points="319,85 324,80 337,80 337,90 324,90 319,85 " style="fill:white; stroke-width:1; stroke:black; " description="&lt;b&gt;APZ79589.1&lt;/b&gt;&lt;br&gt;FilE2&lt;br&gt;Location: 17578 - 18618" locus_tag="APZ79589.1" class="clusterblast-orf" id="dummy-1_h1_4_15"  />
</g>
<g id="a1_0016"  >
<polygon points="384,90 392,90 397,85 392,80 384,80 384,90 " style="fill:white; stroke-width:1; stroke:black; " description="&lt;b&gt;APZ79590.1&lt;/b&gt;&lt;br&gt;FilF1&lt;br&gt;Location: 21166 - 21882" locus_tag="APZ79590.1" class="clusterblast-orf" id="dummy-1_h1_4_16"  />
</g>
<g id="a1_0017"  >
<polygon points="401,85 406,80 414,80 414,90 406,90 401,85 " style="fill:white; stroke-width:1; stroke:black; " description="&lt;b&gt;APZ79591.1&lt;/b&gt;&lt;br&gt;FilF2&lt;br&gt;Location: 22114 - 22848" locus_tag="APZ79591.1" class="clusterblast-orf" id="dummy-1_h1_4_17"  />
</g>
<g id="a1_0018"  >
<polygon points="439,90 445,90 450,85 445,80 439,80 439,90 " style="fill:#159ed8; stroke-width:1; stroke:black; " description="&lt;b&gt;APZ79592.1&lt;/b&gt;&lt;br&gt;FilG1&lt;br&gt;Location: 24224 - 24802&lt;br&gt;&lt;br&gt;&lt;b&gt;BlastP hit with ctg35_36&lt;/b&gt;&lt;br&gt;Percentage identity: 89&lt;br&gt;Percentage coverage: 100&lt;br&gt;BLAST bit score: 333&lt;br&gt;E-value: 1.9e-91" locus_tag="APZ79592.1" class="clusterblast-orf" id="dummy-1_h1_4_18"  />
</g>
<g id="a1_0019"  >
<polygon points="451,90 468,90 473,85 468,80 451,80 451,90 " style="fill:#b115d8; stroke-width:1; stroke:black; " description="&lt;b&gt;APZ79593.1&lt;/b&gt;&lt;br&gt;FilE3&lt;br&gt;Location: 24867 - 26087&lt;br&gt;&lt;br&gt;&lt;b&gt;BlastP hit with ctg35_37&lt;/b&gt;&lt;br&gt;Percentage identity: 94&lt;br&gt;Percentage coverage: 100&lt;br&gt;BLAST bit score: 760&lt;br&gt;E-value: 1e-219" locus_tag="APZ79593.1" class="clusterblast-orf" id="dummy-1_h1_4_19"  />
</g>
<g id="a1_0020"  >
<polygon points="479,90 491,90 496,85 491,80 479,80 479,90 " style="fill:#d88a15; stroke-width:1; stroke:black; " description="&lt;b&gt;APZ79594.1&lt;/b&gt;&lt;br&gt;FilH1&lt;br&gt;Location: 26393 - 27352&lt;br&gt;&lt;br&gt;&lt;b&gt;BlastP hit with ctg35_38&lt;/b&gt;&lt;br&gt;Percentage identity: 89&lt;br&gt;Percentage coverage: 100&lt;br&gt;BLAST bit score: 609&lt;br&gt;E-value: 3e-174&lt;br&gt;&lt;br&gt;&lt;b&gt;BlastP hit with ctg35_40&lt;/b&gt;&lt;br&gt;Percentage identity: 67&lt;br&gt;Percentage coverage: 93&lt;br&gt;BLAST bit score: 447&lt;br&gt;E-value: 2.1e-125" locus_tag="APZ79594.1" class="clusterblast-orf" id="dummy-1_h1_4_20"  />
</g>
<g id="a1_0021"  >
<polygon points="499,90 512,90 517,85 512,80 499,80 499,90 " style="fill:#d88a15; stroke-width:1; stroke:black; " description="&lt;b&gt;APZ79595.1&lt;/b&gt;&lt;br&gt;FilH2&lt;br&gt;Location: 27544 - 28539&lt;br&gt;&lt;br&gt;&lt;b&gt;BlastP hit with ctg35_38&lt;/b&gt;&lt;br&gt;Percentage identity: 66&lt;br&gt;Percentage coverage: 99&lt;br&gt;BLAST bit score: 456&lt;br&gt;E-value: 4.3e-128&lt;br&gt;&lt;br&gt;&lt;b&gt;BlastP hit with ctg35_40&lt;/b&gt;&lt;br&gt;Percentage identity: 92&lt;br&gt;Percentage coverage: 100&lt;br&gt;BLAST bit score: 630&lt;br&gt;E-value: 1.3e-180" locus_tag="APZ79595.1" class="clusterblast-orf" id="dummy-1_h1_4_21"  />
</g>
<g id="a1_0022"  >
<polygon points="517,90 527,90 532,85 527,80 517,80 517,90 " style="fill:#15d829; stroke-width:1; stroke:black; " description="&lt;b&gt;APZ79596.1&lt;/b&gt;&lt;br&gt;FilH3&lt;br&gt;Location: 28539 - 29360&lt;br&gt;&lt;br&gt;&lt;b&gt;BlastP hit with ctg35_41&lt;/b&gt;&lt;br&gt;Percentage identity: 93&lt;br&gt;Percentage coverage: 100&lt;br&gt;BLAST bit score: 531&lt;br&gt;E-value: 9e-151" locus_tag="APZ79596.1" class="clusterblast-orf" id="dummy-1_h1_4_22"  />
</g>
<g id="a1_0023"  >
<polygon points="541,90 553,90 558,85 553,80 541,80 541,90 " style="fill:#1563d8; stroke-width:1; stroke:black; " description="&lt;b&gt;APZ79597.1&lt;/b&gt;&lt;br&gt;FilD2&lt;br&gt;Location: 29837 - 30766&lt;br&gt;&lt;br&gt;&lt;b&gt;BlastP hit with ctg35_42&lt;/b&gt;&lt;br&gt;Percentage identity: 94&lt;br&gt;Percentage coverage: 100&lt;br&gt;BLAST bit score: 607&lt;br&gt;E-value: 8.5e-174" locus_tag="APZ79597.1" class="clusterblast-orf" id="dummy-1_h1_4_23"  />
</g>
<g id="a1_0024"  >
<polygon points="563,90 593,90 598,85 593,80 563,80 563,90 " style="fill:#d815c5; stroke-width:1; stroke:black; " description="&lt;b&gt;APZ79598.1&lt;/b&gt;&lt;br&gt;FilE4&lt;br&gt;Location: 31023 - 32966&lt;br&gt;&lt;br&gt;&lt;b&gt;BlastP hit with ctg35_43&lt;/b&gt;&lt;br&gt;Percentage identity: 96&lt;br&gt;Percentage coverage: 100&lt;br&gt;BLAST bit score: 1244&lt;br&gt;E-value: 0.0" locus_tag="APZ79598.1" class="clusterblast-orf" id="dummy-1_h1_4_24"  />
</g>
<g id="a1_0025"  >
<polygon points="599,90 616,90 621,85 616,80 599,80 599,90 " style="fill:#d8c515; stroke-width:1; stroke:black; " description="&lt;b&gt;APZ79599.1&lt;/b&gt;&lt;br&gt;FilE5&lt;br&gt;Location: 33039 - 34265&lt;br&gt;&lt;br&gt;&lt;b&gt;BlastP hit with ctg35_44&lt;/b&gt;&lt;br&gt;Percentage identity: 98&lt;br&gt;Percentage coverage: 100&lt;br&gt;BLAST bit score: 738&lt;br&gt;E-value: 6.7e-213" locus_tag="APZ79599.1" class="clusterblast-orf" id="dummy-1_h1_4_25"  />
</g>
<g id="a1_0026"  >
<polygon points="625,90 637,90 642,85 637,80 625,80 625,90 " style="fill:#15d863; stroke-width:1; stroke:black; " description="&lt;b&gt;APZ79600.1&lt;/b&gt;&lt;br&gt;FilI1&lt;br&gt;Location: 34480 - 35385&lt;br&gt;&lt;br&gt;&lt;b&gt;BlastP hit with ctg35_45&lt;/b&gt;&lt;br&gt;Percentage identity: 98&lt;br&gt;Percentage coverage: 100&lt;br&gt;BLAST bit score: 584&lt;br&gt;E-value: 9.9e-167" locus_tag="APZ79600.1" class="clusterblast-orf" id="dummy-1_h1_4_26"  />
</g>
<g id="a1_0027"  >
<polygon points="643,90 678,90 683,85 678,80 643,80 643,90 " style="fill:#1529d8; stroke-width:1; stroke:black; " description="&lt;b&gt;APZ79601.1&lt;/b&gt;&lt;br&gt;FilI2&lt;br&gt;Location: 35439 - 37643&lt;br&gt;&lt;br&gt;&lt;b&gt;BlastP hit with ctg35_46&lt;/b&gt;&lt;br&gt;Percentage identity: 94&lt;br&gt;Percentage coverage: 100&lt;br&gt;BLAST bit score: 1393&lt;br&gt;E-value: 0.0" locus_tag="APZ79601.1" class="clusterblast-orf" id="dummy-1_h1_4_27"  />
</g>
<g id="a1_0028"  >
<polygon points="688,90 699,90 704,85 699,80 688,80 688,90 " style="fill:#d8158a; stroke-width:1; stroke:black; " description="&lt;b&gt;APZ79602.1&lt;/b&gt;&lt;br&gt;FilI3&lt;br&gt;Location: 37949 - 38800&lt;br&gt;&lt;br&gt;&lt;b&gt;BlastP hit with ctg35_47&lt;/b&gt;&lt;br&gt;Percentage identity: 92&lt;br&gt;Percentage coverage: 100&lt;br&gt;BLAST bit score: 492&lt;br&gt;E-value: 4.8e-139" locus_tag="APZ79602.1" class="clusterblast-orf" id="dummy-1_h1_4_28"  />
</g>
<g id="a1_0029"  >
<polygon points="705,90 715,90 720,85 715,80 705,80 705,90 " style="fill:#b1d815; stroke-width:1; stroke:black; " description="&lt;b&gt;APZ79603.1&lt;/b&gt;&lt;br&gt;FilI4&lt;br&gt;Location: 38884 - 39696&lt;br&gt;&lt;br&gt;&lt;b&gt;BlastP hit with ctg35_48&lt;/b&gt;&lt;br&gt;Percentage identity: 91&lt;br&gt;Percentage coverage: 100&lt;br&gt;BLAST bit score: 477&lt;br&gt;E-value: 1.5e-134" locus_tag="APZ79603.1" class="clusterblast-orf" id="dummy-1_h1_4_29"  />
</g>
<g id="a1_0030"  >
<polygon points="724,90 742,90 747,85 742,80 724,80 724,90 " style="fill:#15d89e; stroke-width:1; stroke:black; " description="&lt;b&gt;APZ79604.1&lt;/b&gt;&lt;br&gt;FilI5&lt;br&gt;Location: 39921 - 41168&lt;br&gt;&lt;br&gt;&lt;b&gt;BlastP hit with ctg35_49&lt;/b&gt;&lt;br&gt;Percentage identity: 95&lt;br&gt;Percentage coverage: 100&lt;br&gt;BLAST bit score: 794&lt;br&gt;E-value: 8.7e-230" locus_tag="APZ79604.1" class="clusterblast-orf" id="dummy-1_h1_4_30"  />
</g>
<g id="a1_0031"  >
<polygon points="747,90 762,90 767,85 762,80 747,80 747,90 " style="fill:#3c15d8; stroke-width:1; stroke:black; " description="&lt;b&gt;APZ79605.1&lt;/b&gt;&lt;br&gt;FilI6&lt;br&gt;Location: 41208 - 42305&lt;br&gt;&lt;br&gt;&lt;b&gt;BlastP hit with ctg35_50&lt;/b&gt;&lt;br&gt;Percentage identity: 96&lt;br&gt;Percentage coverage: 100&lt;br&gt;BLAST bit score: 679&lt;br&gt;E-value: 2.7e-195" locus_tag="APZ79605.1" class="clusterblast-orf" id="dummy-1_h1_4_31"  />
</g>
<g id="a1_0032"  >
<polygon points="768,90 775,90 780,85 775,80 768,80 768,90 " style="fill:#d81550; stroke-width:1; stroke:black; " description="&lt;b&gt;APZ79606.1&lt;/b&gt;&lt;br&gt;FilG2&lt;br&gt;Location: 42330 - 42974&lt;br&gt;&lt;br&gt;&lt;b&gt;BlastP hit with ctg35_51&lt;/b&gt;&lt;br&gt;Percentage identity: 94&lt;br&gt;Percentage coverage: 100&lt;br&gt;BLAST bit score: 412&lt;br&gt;E-value: 4.8e-115" locus_tag="APZ79606.1" class="clusterblast-orf" id="dummy-1_h1_4_32"  />
</g>
</svg>
