<svg xmlns="http://www.w3.org/2000/svg" xmlns:xlink="http://www.w3.org/1999/xlink" version="1.1" x="0" y="0" height="230" width="800" viewBox="0 0 800 230" preserveAspectRatio="none"  >
<g label="Query sequence" class="clusterblast-cluster"  >
<text x="5" y="20" class="clusterblast-acc"  >
Query sequence</text>
<line x1="10" y1="35" x2="778.0" y2="35" style="stroke-width:1; stroke:grey; "  />
<polygon points="0,40 4,40 9,35 4,30 0,30 0,40 " style="fill:white; stroke-width:1; stroke:black; " description="&lt;b&gt;ctg17_15&lt;/b&gt;&lt;br&gt;ctg17 15&lt;br&gt;Location: 26765 - 27812" locus_tag="ctg17_15" class="clusterblast-orf" id="dummy-1_q0_0_all"  />
<polygon points="12,35 17,30 20,30 20,40 17,40 12,35 " style="fill:#d81515; stroke-width:1; stroke:black; " description="&lt;b&gt;ctg17_16&lt;/b&gt;&lt;br&gt;ctg17 16&lt;br&gt;Location: 28117 - 28990" locus_tag="ctg17_16" class="clusterblast-orf" id="dummy-1_q1_0_all"  />
<polygon points="22,35 27,30 30,30 30,40 27,40 22,35 " style="fill:#3cd815; stroke-width:1; stroke:black; " description="&lt;b&gt;ctg17_17&lt;/b&gt;&lt;br&gt;ctg17 17&lt;br&gt;Location: 29305 - 30163" locus_tag="ctg17_17" class="clusterblast-orf" id="dummy-1_q2_0_all"  />
<polygon points="33,35 38,30 40,30 40,40 38,40 33,35 " style="fill:#1563d8; stroke-width:1; stroke:black; " description="&lt;b&gt;ctg17_18&lt;/b&gt;&lt;br&gt;ctg17 18&lt;br&gt;Location: 30530 - 31217" locus_tag="ctg17_18" class="clusterblast-orf" id="dummy-1_q3_0_all"  />
<polygon points="45,35 50,30 52,30 52,40 50,40 45,35 " style="fill:#1563d8; stroke-width:1; stroke:black; " description="&lt;b&gt;ctg17_19&lt;/b&gt;&lt;br&gt;ctg17 19&lt;br&gt;Location: 31875 - 32568" locus_tag="ctg17_19" class="clusterblast-orf" id="dummy-1_q4_0_all"  />
<polygon points="53,35 58,30 60,30 60,40 58,40 53,35 " style="fill:#1563d8; stroke-width:1; stroke:black; " description="&lt;b&gt;ctg17_20&lt;/b&gt;&lt;br&gt;ctg17 20&lt;br&gt;Location: 32774 - 33461" locus_tag="ctg17_20" class="clusterblast-orf" id="dummy-1_q5_0_all"  />
<polygon points="62,35 67,30 72,30 72,40 67,40 62,35 " style="fill:#b115d8; stroke-width:1; stroke:black; " description="&lt;b&gt;ctg17_21&lt;/b&gt;&lt;br&gt;ctg17 21&lt;br&gt;Location: 33692 - 34895" locus_tag="ctg17_21" class="clusterblast-orf" id="dummy-1_q6_0_all"  />
<polygon points="73,35 78,30 82,30 82,40 78,40 73,35 " style="fill:#d88a15; stroke-width:1; stroke:black; " description="&lt;b&gt;ctg17_22&lt;/b&gt;&lt;br&gt;ctg17 22&lt;br&gt;Location: 34960 - 35986" locus_tag="ctg17_22" class="clusterblast-orf" id="dummy-1_q7_0_all"  />
<polygon points="99,40 100,40 105,35 100,30 99,30 99,40 " style="fill:#15d863; stroke-width:1; stroke:black; " description="&lt;b&gt;ctg17_23&lt;/b&gt;&lt;br&gt;ctg17 23&lt;br&gt;Location: 37826 - 38531" locus_tag="ctg17_23" class="clusterblast-orf" id="dummy-1_q8_0_all"  />
<polygon points="106,35 111,30 112,30 112,40 111,40 106,35 " style="fill:#3c15d8; stroke-width:1; stroke:black; " description="&lt;b&gt;ctg17_24&lt;/b&gt;&lt;br&gt;ctg17 24&lt;br&gt;Location: 38583 - 39315" locus_tag="ctg17_24" class="clusterblast-orf" id="dummy-1_q9_0_all"  />
<polygon points="114,40 116,40 121,35 116,30 114,30 114,40 " style="fill:white; stroke-width:1; stroke:black; " description="&lt;b&gt;ctg17_25&lt;/b&gt;&lt;br&gt;ctg17 25&lt;br&gt;Location: 39541 - 40294" locus_tag="ctg17_25" class="clusterblast-orf" id="dummy-1_q10_0_all"  />
<polygon points="121,35 126,30 129,30 129,40 126,40 121,35 " style="fill:white; stroke-width:1; stroke:black; " description="&lt;b&gt;ctg17_26&lt;/b&gt;&lt;br&gt;ctg17 26&lt;br&gt;Location: 40326 - 41211" locus_tag="ctg17_26" class="clusterblast-orf" id="dummy-1_q11_0_all"  />
<polygon points="129,35 131,30 131,40 129,35 " style="fill:white; stroke-width:1; stroke:black; " description="&lt;b&gt;ctg17_27&lt;/b&gt;&lt;br&gt;ctg17 27&lt;br&gt;Location: 41228 - 41456" locus_tag="ctg17_27" class="clusterblast-orf" id="dummy-1_q12_0_all"  />
<polygon points="132,35 137,30 144,30 144,40 137,40 132,35 " style="fill:white; stroke-width:1; stroke:black; " description="&lt;b&gt;ctg17_28&lt;/b&gt;&lt;br&gt;ctg17 28&lt;br&gt;Location: 41494 - 42868" locus_tag="ctg17_28" class="clusterblast-orf" id="dummy-1_q13_0_all"  />
<polygon points="145,35 150,30 152,30 152,40 150,40 145,35 " style="fill:white; stroke-width:1; stroke:black; " description="&lt;b&gt;ctg17_29&lt;/b&gt;&lt;br&gt;ctg17 29&lt;br&gt;Location: 42933 - 43821" locus_tag="ctg17_29" class="clusterblast-orf" id="dummy-1_q14_0_all"  />
<polygon points="154,35 159,30 166,30 166,40 159,40 154,35 " style="fill:#d8158a; stroke-width:1; stroke:black; " description="&lt;b&gt;ctg17_30&lt;/b&gt;&lt;br&gt;ctg17 30&lt;br&gt;Location: 43937 - 45284" locus_tag="ctg17_30" class="clusterblast-orf" id="dummy-1_q15_0_all"  />
<polygon points="166,35 171,30 203,30 203,40 171,40 166,35 " style="fill:#b1d815; stroke-width:1; stroke:black; " description="&lt;b&gt;ctg17_31&lt;/b&gt;&lt;br&gt;ctg17 31&lt;br&gt;Location: 45283 - 49459" locus_tag="ctg17_31" class="clusterblast-orf" id="dummy-1_q16_0_all"  />
<polygon points="204,35 209,30 211,30 211,40 209,40 204,35 " style="fill:white; stroke-width:1; stroke:black; " description="&lt;b&gt;ctg17_32&lt;/b&gt;&lt;br&gt;ctg17 32&lt;br&gt;Location: 49619 - 50378" locus_tag="ctg17_32" class="clusterblast-orf" id="dummy-1_q17_0_all"  />
<polygon points="212,35 217,30 253,30 253,40 217,40 212,35 " style="fill:#15d8d8; stroke-width:1; stroke:black; " description="&lt;b&gt;ctg17_33&lt;/b&gt;&lt;br&gt;ctg17 33&lt;br&gt;Location: 50430 - 55038" locus_tag="ctg17_33" class="clusterblast-orf" id="dummy-1_q18_0_all"  />
<polygon points="253,35 258,30 293,30 293,40 258,40 253,35 " style="fill:#15d8d8; stroke-width:1; stroke:black; " description="&lt;b&gt;ctg17_34&lt;/b&gt;&lt;br&gt;ctg17 34&lt;br&gt;Location: 55072 - 59473" locus_tag="ctg17_34" class="clusterblast-orf" id="dummy-1_q19_0_all"  />
<polygon points="293,35 298,30 308,30 308,40 298,40 293,35 " style="fill:white; stroke-width:1; stroke:black; " description="&lt;b&gt;ctg17_35&lt;/b&gt;&lt;br&gt;ctg17 35&lt;br&gt;Location: 59524 - 61180" locus_tag="ctg17_35" class="clusterblast-orf" id="dummy-1_q20_0_all"  />
<polygon points="308,35 313,30 350,30 350,40 313,40 308,35 " style="fill:#15d8d8; stroke-width:1; stroke:black; " description="&lt;b&gt;ctg17_36&lt;/b&gt;&lt;br&gt;ctg17 36&lt;br&gt;Location: 61214 - 65870" locus_tag="ctg17_36" class="clusterblast-orf" id="dummy-1_q21_0_all"  />
<polygon points="350,35 355,30 375,30 375,40 355,40 350,35 " style="fill:white; stroke-width:1; stroke:black; " description="&lt;b&gt;ctg17_37&lt;/b&gt;&lt;br&gt;ctg17 37&lt;br&gt;Location: 65891 - 68657" locus_tag="ctg17_37" class="clusterblast-orf" id="dummy-1_q22_0_all"  />
<polygon points="376,35 381,30 386,30 386,40 381,40 376,35 " style="fill:white; stroke-width:1; stroke:black; " description="&lt;b&gt;ctg17_38&lt;/b&gt;&lt;br&gt;ctg17 38&lt;br&gt;Location: 68705 - 69878" locus_tag="ctg17_38" class="clusterblast-orf" id="dummy-1_q23_0_all"  />
<polygon points="387,35 392,30 395,30 395,40 392,40 387,35 " style="fill:white; stroke-width:1; stroke:black; " description="&lt;b&gt;ctg17_39&lt;/b&gt;&lt;br&gt;ctg17 39&lt;br&gt;Location: 70021 - 70903" locus_tag="ctg17_39" class="clusterblast-orf" id="dummy-1_q24_0_all"  />
<polygon points="395,35 400,30 408,30 408,40 400,40 395,35 " style="fill:white; stroke-width:1; stroke:black; " description="&lt;b&gt;ctg17_40&lt;/b&gt;&lt;br&gt;ctg17 40&lt;br&gt;Location: 70914 - 72318" locus_tag="ctg17_40" class="clusterblast-orf" id="dummy-1_q25_0_all"  />
<polygon points="408,35 413,30 462,30 462,40 413,40 408,35 " style="fill:#15d8d8; stroke-width:1; stroke:black; " description="&lt;b&gt;ctg17_41&lt;/b&gt;&lt;br&gt;ctg17 41&lt;br&gt;Location: 72314 - 78377" locus_tag="ctg17_41" class="clusterblast-orf" id="dummy-1_q26_0_all"  />
<polygon points="462,35 467,30 491,30 491,40 467,40 462,35 " style="fill:white; stroke-width:1; stroke:black; " description="&lt;b&gt;ctg17_42&lt;/b&gt;&lt;br&gt;ctg17 42&lt;br&gt;Location: 78390 - 81627" locus_tag="ctg17_42" class="clusterblast-orf" id="dummy-1_q27_0_all"  />
<polygon points="492,35 497,30 501,30 501,40 497,40 492,35 " style="fill:white; stroke-width:1; stroke:black; " description="&lt;b&gt;ctg17_43&lt;/b&gt;&lt;br&gt;ctg17 43&lt;br&gt;Location: 81731 - 82748" locus_tag="ctg17_43" class="clusterblast-orf" id="dummy-1_q28_0_all"  />
<polygon points="501,35 506,30 543,30 543,40 506,40 501,35 " style="fill:#b1d815; stroke-width:1; stroke:black; " description="&lt;b&gt;ctg17_44&lt;/b&gt;&lt;br&gt;ctg17 44&lt;br&gt;Location: 82722 - 87378" locus_tag="ctg17_44" class="clusterblast-orf" id="dummy-1_q29_0_all"  />
<polygon points="543,35 548,30 603,30 603,40 548,40 543,35 " style="fill:#b1d815; stroke-width:1; stroke:black; " description="&lt;b&gt;ctg17_45&lt;/b&gt;&lt;br&gt;ctg17 45&lt;br&gt;Location: 87379 - 94063" locus_tag="ctg17_45" class="clusterblast-orf" id="dummy-1_q30_0_all"  />
<polygon points="604,35 605,30 605,40 604,35 " style="fill:white; stroke-width:1; stroke:black; " description="&lt;b&gt;ctg17_46&lt;/b&gt;&lt;br&gt;ctg17 46&lt;br&gt;Location: 94137 - 94305" locus_tag="ctg17_46" class="clusterblast-orf" id="dummy-1_q31_0_all"  />
<polygon points="613,40 633,40 638,35 633,30 613,30 613,40 " style="fill:white; stroke-width:1; stroke:black; " description="&lt;b&gt;ctg17_47&lt;/b&gt;&lt;br&gt;ctg17 47&lt;br&gt;Location: 95180 - 97985" locus_tag="ctg17_47" class="clusterblast-orf" id="dummy-1_q32_0_all"  />
<polygon points="639,40 642,35 639,30 639,40 " style="fill:white; stroke-width:1; stroke:black; " description="&lt;b&gt;ctg17_48&lt;/b&gt;&lt;br&gt;ctg17 48&lt;br&gt;Location: 98128 - 98395" locus_tag="ctg17_48" class="clusterblast-orf" id="dummy-1_q33_0_all"  />
<polygon points="642,40 646,40 651,35 646,30 642,30 642,40 " style="fill:white; stroke-width:1; stroke:black; " description="&lt;b&gt;ctg17_49&lt;/b&gt;&lt;br&gt;ctg17 49&lt;br&gt;Location: 98424 - 99402" locus_tag="ctg17_49" class="clusterblast-orf" id="dummy-1_q34_0_all"  />
<polygon points="650,40 654,35 650,30 650,40 " style="fill:white; stroke-width:1; stroke:black; " description="&lt;b&gt;ctg17_50&lt;/b&gt;&lt;br&gt;ctg17 50&lt;br&gt;Location: 99367 - 99784" locus_tag="ctg17_50" class="clusterblast-orf" id="dummy-1_q35_0_all"  />
<polygon points="655,35 660,30 671,30 671,40 660,40 655,35 " style="fill:white; stroke-width:1; stroke:black; " description="&lt;b&gt;ctg17_51&lt;/b&gt;&lt;br&gt;ctg17 51&lt;br&gt;Location: 99885 - 101700" locus_tag="ctg17_51" class="clusterblast-orf" id="dummy-1_q36_0_all"  />
<polygon points="678,40 682,40 687,35 682,30 678,30 678,40 " style="fill:white; stroke-width:1; stroke:black; " description="&lt;b&gt;ctg17_52&lt;/b&gt;&lt;br&gt;ctg17 52&lt;br&gt;Location: 102448 - 103432" locus_tag="ctg17_52" class="clusterblast-orf" id="dummy-1_q37_0_all"  />
<polygon points="688,40 688,40 693,35 688,30 688,30 688,40 " style="fill:white; stroke-width:1; stroke:black; " description="&lt;b&gt;ctg17_53&lt;/b&gt;&lt;br&gt;ctg17 53&lt;br&gt;Location: 103508 - 104147" locus_tag="ctg17_53" class="clusterblast-orf" id="dummy-1_q38_0_all"  />
<polygon points="695,40 703,40 708,35 703,30 695,30 695,40 " style="fill:white; stroke-width:1; stroke:black; " description="&lt;b&gt;ctg17_54&lt;/b&gt;&lt;br&gt;ctg17 54&lt;br&gt;Location: 104293 - 105838" locus_tag="ctg17_54" class="clusterblast-orf" id="dummy-1_q39_0_all"  />
<polygon points="708,35 713,30 716,30 716,40 713,40 708,35 " style="fill:white; stroke-width:1; stroke:black; " description="&lt;b&gt;ctg17_55&lt;/b&gt;&lt;br&gt;ctg17 55&lt;br&gt;Location: 105838 - 106639" locus_tag="ctg17_55" class="clusterblast-orf" id="dummy-1_q40_0_all"  />
<polygon points="716,35 721,30 725,30 725,40 721,40 716,35 " style="fill:white; stroke-width:1; stroke:black; " description="&lt;b&gt;ctg17_56&lt;/b&gt;&lt;br&gt;ctg17 56&lt;br&gt;Location: 106642 - 107683" locus_tag="ctg17_56" class="clusterblast-orf" id="dummy-1_q41_0_all"  />
<polygon points="725,35 730,30 734,30 734,40 730,40 725,35 " style="fill:white; stroke-width:1; stroke:black; " description="&lt;b&gt;ctg17_57&lt;/b&gt;&lt;br&gt;ctg17 57&lt;br&gt;Location: 107679 - 108711" locus_tag="ctg17_57" class="clusterblast-orf" id="dummy-1_q42_0_all"  />
<polygon points="737,40 738,40 743,35 738,30 737,30 737,40 " style="fill:white; stroke-width:1; stroke:black; " description="&lt;b&gt;ctg17_58&lt;/b&gt;&lt;br&gt;ctg17 58&lt;br&gt;Location: 109014 - 109716" locus_tag="ctg17_58" class="clusterblast-orf" id="dummy-1_q43_0_all"  />
<polygon points="743,40 745,40 750,35 745,30 743,30 743,40 " style="fill:white; stroke-width:1; stroke:black; " description="&lt;b&gt;ctg17_59&lt;/b&gt;&lt;br&gt;ctg17 59&lt;br&gt;Location: 109715 - 110507" locus_tag="ctg17_59" class="clusterblast-orf" id="dummy-1_q44_0_all"  />
<polygon points="751,40 765,40 770,35 765,30 751,30 751,40 " style="fill:white; stroke-width:1; stroke:black; " description="&lt;b&gt;ctg17_60&lt;/b&gt;&lt;br&gt;ctg17 60&lt;br&gt;Location: 110585 - 112691" locus_tag="ctg17_60" class="clusterblast-orf" id="dummy-1_q45_0_all"  />
<polygon points="774,40 776,35 774,30 774,40 " style="fill:white; stroke-width:1; stroke:black; " description="&lt;b&gt;ctg17_61&lt;/b&gt;&lt;br&gt;ctg17 61&lt;br&gt;Location: 113178 - 113397" locus_tag="ctg17_61" class="clusterblast-orf" id="dummy-1_q46_0_all"  />
<polygon points="778,40 780,35 778,30 778,40 " style="fill:white; stroke-width:1; stroke:black; " description="&lt;b&gt;ctg17_62&lt;/b&gt;&lt;br&gt;ctg17 62&lt;br&gt;Location: 113561 - 113771" locus_tag="ctg17_62" class="clusterblast-orf" id="dummy-1_q47_0_all"  />
</g>
<g label="BGC0001028" description="BGC0001028_c1: nostopeptolide A2 (50% of genes show similarity), Polyketide + NRP:Cyclic depsipeptide" class="clusterblast-cluster"  >
<text x="5" y="70" class="clusterblast-acc"  >
<a xlink:href="https://mibig.secondarymetabolites.org/go/BGC0001028/1" target="_blank">BGC0001028</a>:                                                                nostopeptolide A2 (50% of genes show similarity), Polyketide + NRP:Cyclic depsipeptide</text>
<line x1="10" y1="85" x2="778.0" y2="85" style="stroke-width:1; stroke:grey; "  />
</g>
<g id="a1_000"  >
<polygon points="213,85 218,80 231,80 231,90 218,90 213,85 " style="fill:white; stroke-width:1; stroke:black; " description="&lt;b&gt;AAF17285.1&lt;/b&gt;&lt;br&gt;nosG&lt;br&gt;Location: 40725 - 38734" locus_tag="AAF17285.1" class="clusterblast-orf" id="dummy-1_h1_1_0"  />
</g>
<g id="a1_001"  >
<polygon points="232,85 237,80 239,80 239,90 237,90 232,85 " style="fill:white; stroke-width:1; stroke:black; " description="&lt;b&gt;AAF17284.1&lt;/b&gt;&lt;br&gt;nosF&lt;br&gt;Location: 38632 - 37811" locus_tag="AAF17284.1" class="clusterblast-orf" id="dummy-1_h1_1_1"  />
</g>
<g id="a1_002"  >
<polygon points="240,85 245,80 249,80 249,90 245,90 240,85 " style="fill:white; stroke-width:1; stroke:black; " description="&lt;b&gt;AAF17283.1&lt;/b&gt;&lt;br&gt;nosE&lt;br&gt;Location: 37771 - 36665" locus_tag="AAF17283.1" class="clusterblast-orf" id="dummy-1_h1_1_2"  />
</g>
<g id="a1_003"  >
<polygon points="250,85 255,80 257,80 257,90 255,90 250,85 " style="fill:white; stroke-width:1; stroke:black; " description="&lt;b&gt;AAF17282.1&lt;/b&gt;&lt;br&gt;Unknown&lt;br&gt;Location: 36617 - 35820" locus_tag="AAF17282.1" class="clusterblast-orf" id="dummy-1_h1_1_3"  />
</g>
<g id="a1_004"  >
<polygon points="259,85 264,80 325,80 325,90 264,90 259,85 " style="fill:#b1d815; stroke-width:1; stroke:black; " description="&lt;b&gt;AAF17281.1&lt;/b&gt;&lt;br&gt;nosD&lt;br&gt;Location: 35614 - 28262&lt;br&gt;&lt;br&gt;&lt;b&gt;BlastP hit with ctg17_31&lt;/b&gt;&lt;br&gt;Percentage identity: 46&lt;br&gt;Percentage coverage: 98&lt;br&gt;BLAST bit score: 1117&lt;br&gt;E-value: 0.0" locus_tag="AAF17281.1" class="clusterblast-orf" id="dummy-1_h1_1_4"  />
</g>
<g id="a1_005"  >
<polygon points="325,85 330,80 414,80 414,90 330,90 325,85 " style="fill:#b1d815; stroke-width:1; stroke:black; " description="&lt;b&gt;AAF17280.1&lt;/b&gt;&lt;br&gt;nosC&lt;br&gt;Location: 28265 - 18312&lt;br&gt;&lt;br&gt;&lt;b&gt;BlastP hit with ctg17_31&lt;/b&gt;&lt;br&gt;Percentage identity: 48&lt;br&gt;Percentage coverage: 80&lt;br&gt;BLAST bit score: 953&lt;br&gt;E-value: 3.7e-277&lt;br&gt;&lt;br&gt;&lt;b&gt;BlastP hit with ctg17_44&lt;/b&gt;&lt;br&gt;Percentage identity: 46&lt;br&gt;Percentage coverage: 100&lt;br&gt;BLAST bit score: 1247&lt;br&gt;E-value: 0.0" locus_tag="AAF17280.1" class="clusterblast-orf" id="dummy-1_h1_1_5"  />
</g>
<g id="a1_006"  >
<polygon points="415,85 420,80 448,80 448,90 420,90 415,85 " style="fill:#15d8d8; stroke-width:1; stroke:black; " description="&lt;b&gt;AAF15892.2&lt;/b&gt;&lt;br&gt;nosB&lt;br&gt;Location: 18240 - 14506&lt;br&gt;&lt;br&gt;&lt;b&gt;BlastP hit with ctg17_33&lt;/b&gt;&lt;br&gt;Percentage identity: 59&lt;br&gt;Percentage coverage: 62&lt;br&gt;BLAST bit score: 1114&lt;br&gt;E-value: 0.0&lt;br&gt;&lt;br&gt;&lt;b&gt;BlastP hit with ctg17_34&lt;/b&gt;&lt;br&gt;Percentage identity: 54&lt;br&gt;Percentage coverage: 60&lt;br&gt;BLAST bit score: 956&lt;br&gt;E-value: 6.1e-278&lt;br&gt;&lt;br&gt;&lt;b&gt;BlastP hit with ctg17_36&lt;/b&gt;&lt;br&gt;Percentage identity: 61&lt;br&gt;Percentage coverage: 57&lt;br&gt;BLAST bit score: 1075&lt;br&gt;E-value: 0.0&lt;br&gt;&lt;br&gt;&lt;b&gt;BlastP hit with ctg17_41&lt;/b&gt;&lt;br&gt;Percentage identity: 62&lt;br&gt;Percentage coverage: 44&lt;br&gt;BLAST bit score: 1110&lt;br&gt;E-value: 0.0" locus_tag="AAF15892.2" class="clusterblast-orf" id="dummy-1_h1_1_6"  />
</g>
<g id="a1_007"  >
<polygon points="448,85 453,80 566,80 566,90 453,90 448,85 " style="fill:#b1d815; stroke-width:1; stroke:black; " description="&lt;b&gt;AAF15891.2&lt;/b&gt;&lt;br&gt;nosA&lt;br&gt;Location: 14509 - 1370&lt;br&gt;&lt;br&gt;&lt;b&gt;BlastP hit with ctg17_31&lt;/b&gt;&lt;br&gt;Percentage identity: 47&lt;br&gt;Percentage coverage: 79&lt;br&gt;BLAST bit score: 953&lt;br&gt;E-value: 4.9e-277" locus_tag="AAF15891.2" class="clusterblast-orf" id="dummy-1_h1_1_7"  />
</g>
</svg>
