<svg xmlns="http://www.w3.org/2000/svg" xmlns:xlink="http://www.w3.org/1999/xlink" version="1.1" x="0" y="0" height="230" width="800" viewBox="0 0 800 230" preserveAspectRatio="none"  >
<g label="Query sequence" class="clusterblast-cluster"  >
<text x="5" y="20" class="clusterblast-acc"  >
Query sequence</text>
<line x1="10" y1="35" x2="778.0" y2="35" style="stroke-width:1; stroke:grey; "  />
<polygon points="0,40 3,40 8,35 3,30 0,30 0,40 " style="fill:white; stroke-width:1; stroke:black; " description="&lt;b&gt;ctg20_76&lt;/b&gt;&lt;br&gt;ctg20 76&lt;br&gt;Location: 77878 - 78331" locus_tag="ctg20_76" class="clusterblast-orf" id="dummy-2_q0_0_all"  />
<polygon points="12,40 17,40 22,35 17,30 12,30 12,40 " style="fill:white; stroke-width:1; stroke:black; " description="&lt;b&gt;ctg20_77&lt;/b&gt;&lt;br&gt;ctg20 77&lt;br&gt;Location: 78524 - 79070" locus_tag="ctg20_77" class="clusterblast-orf" id="dummy-2_q1_0_all"  />
<polygon points="25,40 27,40 32,35 27,30 25,30 25,40 " style="fill:white; stroke-width:1; stroke:black; " description="&lt;b&gt;ctg20_78&lt;/b&gt;&lt;br&gt;ctg20 78&lt;br&gt;Location: 79233 - 79596" locus_tag="ctg20_78" class="clusterblast-orf" id="dummy-2_q2_0_all"  />
<polygon points="51,40 112,40 117,35 112,30 51,30 51,40 " style="fill:white; stroke-width:1; stroke:black; " description="&lt;b&gt;ctg20_79&lt;/b&gt;&lt;br&gt;ctg20 79&lt;br&gt;Location: 80656 - 84172" locus_tag="ctg20_79" class="clusterblast-orf" id="dummy-2_q3_0_all"  />
<polygon points="119,35 124,30 127,30 127,40 124,40 119,35 " style="fill:white; stroke-width:1; stroke:black; " description="&lt;b&gt;ctg20_80&lt;/b&gt;&lt;br&gt;ctg20 80&lt;br&gt;Location: 84312 - 84756" locus_tag="ctg20_80" class="clusterblast-orf" id="dummy-2_q4_0_all"  />
<polygon points="130,35 135,30 146,30 146,40 135,40 130,35 " style="fill:white; stroke-width:1; stroke:black; " description="&lt;b&gt;ctg20_81&lt;/b&gt;&lt;br&gt;ctg20 81&lt;br&gt;Location: 84892 - 85765" locus_tag="ctg20_81" class="clusterblast-orf" id="dummy-2_q5_0_all"  />
<polygon points="163,40 164,40 169,35 164,30 163,30 163,40 " style="fill:white; stroke-width:1; stroke:black; " description="&lt;b&gt;ctg20_82&lt;/b&gt;&lt;br&gt;ctg20 82&lt;br&gt;Location: 86668 - 86977" locus_tag="ctg20_82" class="clusterblast-orf" id="dummy-2_q6_0_all"  />
<polygon points="174,35 177,30 177,40 174,35 " style="fill:white; stroke-width:1; stroke:black; " description="&lt;b&gt;ctg20_83&lt;/b&gt;&lt;br&gt;ctg20 83&lt;br&gt;Location: 87285 - 87438" locus_tag="ctg20_83" class="clusterblast-orf" id="dummy-2_q7_0_all"  />
<polygon points="193,35 198,30 207,30 207,40 198,40 193,35 " style="fill:white; stroke-width:1; stroke:black; " description="&lt;b&gt;ctg20_84&lt;/b&gt;&lt;br&gt;ctg20 84&lt;br&gt;Location: 88287 - 89061" locus_tag="ctg20_84" class="clusterblast-orf" id="dummy-2_q8_0_all"  />
<polygon points="208,40 216,40 221,35 216,30 208,30 208,40 " style="fill:white; stroke-width:1; stroke:black; " description="&lt;b&gt;ctg20_85&lt;/b&gt;&lt;br&gt;ctg20 85&lt;br&gt;Location: 89083 - 89779" locus_tag="ctg20_85" class="clusterblast-orf" id="dummy-2_q9_0_all"  />
<polygon points="225,35 230,30 248,30 248,40 230,40 225,35 " style="fill:white; stroke-width:1; stroke:black; " description="&lt;b&gt;ctg20_86&lt;/b&gt;&lt;br&gt;ctg20 86&lt;br&gt;Location: 90002 - 91250" locus_tag="ctg20_86" class="clusterblast-orf" id="dummy-2_q10_0_all"  />
<polygon points="249,40 249,40 254,35 249,30 249,30 249,40 " style="fill:white; stroke-width:1; stroke:black; " description="&lt;b&gt;ctg20_87&lt;/b&gt;&lt;br&gt;ctg20 87&lt;br&gt;Location: 91309 - 91570" locus_tag="ctg20_87" class="clusterblast-orf" id="dummy-2_q11_0_all"  />
<polygon points="257,35 262,30 272,30 272,40 262,40 257,35 " style="fill:white; stroke-width:1; stroke:black; " description="&lt;b&gt;ctg20_88&lt;/b&gt;&lt;br&gt;ctg20 88&lt;br&gt;Location: 91751 - 92558" locus_tag="ctg20_88" class="clusterblast-orf" id="dummy-2_q12_0_all"  />
<polygon points="276,35 281,30 314,30 314,40 281,40 276,35 " style="fill:#d81515; stroke-width:1; stroke:black; " description="&lt;b&gt;ctg20_89&lt;/b&gt;&lt;br&gt;ctg20 89&lt;br&gt;Location: 92760 - 94779" locus_tag="ctg20_89" class="clusterblast-orf" id="dummy-2_q13_0_all"  />
<polygon points="315,35 320,30 330,30 330,40 320,40 315,35 " style="fill:#15d815; stroke-width:1; stroke:black; " description="&lt;b&gt;ctg20_90&lt;/b&gt;&lt;br&gt;ctg20 90&lt;br&gt;Location: 94853 - 95675" locus_tag="ctg20_90" class="clusterblast-orf" id="dummy-2_q14_0_all"  />
<polygon points="332,35 337,30 352,30 352,40 337,40 332,35 " style="fill:#1515d8; stroke-width:1; stroke:black; " description="&lt;b&gt;ctg20_91&lt;/b&gt;&lt;br&gt;ctg20 91&lt;br&gt;Location: 95745 - 96849" locus_tag="ctg20_91" class="clusterblast-orf" id="dummy-2_q15_0_all"  />
<polygon points="353,35 358,30 368,30 368,40 358,40 353,35 " style="fill:#d815d8; stroke-width:1; stroke:black; " description="&lt;b&gt;ctg20_92&lt;/b&gt;&lt;br&gt;ctg20 92&lt;br&gt;Location: 96903 - 97698" locus_tag="ctg20_92" class="clusterblast-orf" id="dummy-2_q16_0_all"  />
<polygon points="371,35 376,30 608,30 608,40 376,40 371,35 " style="fill:#d8d815; stroke-width:1; stroke:black; " description="&lt;b&gt;ctg20_93&lt;/b&gt;&lt;br&gt;ctg20 93&lt;br&gt;Location: 97856 - 110645" locus_tag="ctg20_93" class="clusterblast-orf" id="dummy-2_q17_0_all"  />
<polygon points="608,35 613,30 686,30 686,40 613,40 608,35 " style="fill:#d8d815; stroke-width:1; stroke:black; " description="&lt;b&gt;ctg20_94&lt;/b&gt;&lt;br&gt;ctg20 94&lt;br&gt;Location: 110646 - 114840" locus_tag="ctg20_94" class="clusterblast-orf" id="dummy-2_q18_0_all"  />
<polygon points="688,35 693,30 725,30 725,40 693,40 688,35 " style="fill:#d81515; stroke-width:1; stroke:black; " description="&lt;b&gt;ctg20_95&lt;/b&gt;&lt;br&gt;ctg20 95&lt;br&gt;Location: 114919 - 116941" locus_tag="ctg20_95" class="clusterblast-orf" id="dummy-2_q19_0_all"  />
<polygon points="728,35 733,30 750,30 750,40 733,40 728,35 " style="fill:#15d8d8; stroke-width:1; stroke:black; " description="&lt;b&gt;ctg20_96&lt;/b&gt;&lt;br&gt;ctg20 96&lt;br&gt;Location: 117100 - 118279" locus_tag="ctg20_96" class="clusterblast-orf" id="dummy-2_q20_0_all"  />
<polygon points="751,35 756,30 780,30 780,40 756,40 751,35 " style="fill:#d8d815; stroke-width:1; stroke:black; " description="&lt;b&gt;ctg20_97&lt;/b&gt;&lt;br&gt;ctg20 97&lt;br&gt;Location: 118312 - 119869" locus_tag="ctg20_97" class="clusterblast-orf" id="dummy-2_q21_0_all"  />
</g>
<g label="BGC0000975" description="BGC0000975_c1: cryptophycin-327 (25% of genes show similarity), NRP + Polyketide" class="clusterblast-cluster"  >
<text x="5" y="70" class="clusterblast-acc"  >
<a xlink:href="https://mibig.secondarymetabolites.org/go/BGC0000975/1" target="_blank">BGC0000975</a>:                                                                 cryptophycin-327 (25% of genes show similarity), NRP + Polyketide</text>
<line x1="10" y1="85" x2="778.0" y2="85" style="stroke-width:1; stroke:grey; "  />
</g>
<g id="a2_000"  >
<polygon points="15,85 20,80 43,80 43,90 20,90 15,85 " style="fill:white; stroke-width:1; stroke:black; " description="&lt;b&gt;ABM21576.1&lt;/b&gt;&lt;br&gt;crpH&lt;br&gt;Location: 50271 - 48796" locus_tag="ABM21576.1" class="clusterblast-orf" id="dummy-2_h2_8_0"  />
</g>
<g id="a2_001"  >
<polygon points="54,85 59,80 61,80 61,90 59,90 54,85 " style="fill:white; stroke-width:1; stroke:black; " description="&lt;b&gt;ABM21575.1&lt;/b&gt;&lt;br&gt;crpG&lt;br&gt;Location: 48153 - 47812" locus_tag="ABM21575.1" class="clusterblast-orf" id="dummy-2_h2_8_1"  />
</g>
<g id="a2_002"  >
<polygon points="61,85 66,80 77,80 77,90 66,90 61,85 " style="fill:white; stroke-width:1; stroke:black; " description="&lt;b&gt;ABM21574.1&lt;/b&gt;&lt;br&gt;crpF&lt;br&gt;Location: 47800 - 46916" locus_tag="ABM21574.1" class="clusterblast-orf" id="dummy-2_h2_8_2"  />
</g>
<g id="a2_003"  >
<polygon points="85,85 90,80 110,80 110,90 90,90 85,85 " style="fill:white; stroke-width:1; stroke:black; " description="&lt;b&gt;ABM21573.1&lt;/b&gt;&lt;br&gt;crpE&lt;br&gt;Location: 46532 - 45180" locus_tag="ABM21573.1" class="clusterblast-orf" id="dummy-2_h2_8_3"  />
</g>
<g id="a2_004"  >
<polygon points="111,85 116,80 297,80 297,90 116,90 111,85 " style="fill:#d8d815; stroke-width:1; stroke:black; " description="&lt;b&gt;ABM21572.1&lt;/b&gt;&lt;br&gt;crpD&lt;br&gt;Location: 45121 - 35090&lt;br&gt;&lt;br&gt;&lt;b&gt;BlastP hit with ctg20_93&lt;/b&gt;&lt;br&gt;Percentage identity: 46&lt;br&gt;Percentage coverage: 43&lt;br&gt;BLAST bit score: 1496&lt;br&gt;E-value: 0.0&lt;br&gt;&lt;br&gt;&lt;b&gt;BlastP hit with ctg20_94&lt;/b&gt;&lt;br&gt;Percentage identity: 49&lt;br&gt;Percentage coverage: 98&lt;br&gt;BLAST bit score: 1286&lt;br&gt;E-value: 0.0" locus_tag="ABM21572.1" class="clusterblast-orf" id="dummy-2_h2_8_4"  />
</g>
<g id="a2_005"  >
<polygon points="298,85 303,80 406,80 406,90 303,90 298,85 " style="fill:white; stroke-width:1; stroke:black; " description="&lt;b&gt;ABM21571.1&lt;/b&gt;&lt;br&gt;crpC&lt;br&gt;Location: 35051 - 29220" locus_tag="ABM21571.1" class="clusterblast-orf" id="dummy-2_h2_8_5"  />
</g>
<g id="a2_006"  >
<polygon points="406,85 411,80 599,80 599,90 411,90 406,85 " style="fill:white; stroke-width:1; stroke:black; " description="&lt;b&gt;ABM21570.1&lt;/b&gt;&lt;br&gt;crpB&lt;br&gt;Location: 29223 - 18814" locus_tag="ABM21570.1" class="clusterblast-orf" id="dummy-2_h2_8_6"  />
</g>
<g id="a2_007"  >
<polygon points="600,85 605,80 764,80 764,90 605,90 600,85 " style="fill:#d8d815; stroke-width:1; stroke:black; " description="&lt;b&gt;ABM21569.1&lt;/b&gt;&lt;br&gt;crpA&lt;br&gt;Location: 18789 - 9964&lt;br&gt;&lt;br&gt;&lt;b&gt;BlastP hit with ctg20_94&lt;/b&gt;&lt;br&gt;Percentage identity: 61&lt;br&gt;Percentage coverage: 40&lt;br&gt;BLAST bit score: 698&lt;br&gt;E-value: 2.8e-200" locus_tag="ABM21569.1" class="clusterblast-orf" id="dummy-2_h2_8_7"  />
</g>
</svg>
