<svg xmlns="http://www.w3.org/2000/svg" xmlns:xlink="http://www.w3.org/1999/xlink" version="1.1" x="0" y="0" height="50" width="800" viewBox="0 0 800 50" preserveAspectRatio="none"  >
<g label="Query sequence" class="clusterblast-cluster"  >
<text x="5" y="20" class="clusterblast-acc"  >
Query sequence</text>
<line x1="10" y1="35" x2="778.0" y2="35" style="stroke-width:1; stroke:grey; "  />
<polygon points="0,40 4,40 9,35 4,30 0,30 0,40 " style="fill:white; stroke-width:1; stroke:black; " description="&lt;b&gt;ctg43_2&lt;/b&gt;&lt;br&gt;ctg43 2&lt;br&gt;Location: 1689 - 2118" locus_tag="ctg43_2" class="clusterblast-orf" id="knownclusterblast-1_q0_0_all"  />
<polygon points="15,40 21,40 26,35 21,30 15,30 15,40 " style="fill:white; stroke-width:1; stroke:black; " description="&lt;b&gt;ctg43_3&lt;/b&gt;&lt;br&gt;ctg43 3&lt;br&gt;Location: 2407 - 2947" locus_tag="ctg43_3" class="clusterblast-orf" id="knownclusterblast-1_q1_0_all"  />
<polygon points="34,40 51,40 56,35 51,30 34,30 34,40 " style="fill:white; stroke-width:1; stroke:black; " description="&lt;b&gt;ctg43_4&lt;/b&gt;&lt;br&gt;ctg43 4&lt;br&gt;Location: 3314 - 4370" locus_tag="ctg43_4" class="clusterblast-orf" id="knownclusterblast-1_q2_0_all"  />
<polygon points="65,40 71,40 76,35 71,30 65,30 65,40 " style="fill:white; stroke-width:1; stroke:black; " description="&lt;b&gt;ctg43_5&lt;/b&gt;&lt;br&gt;ctg43 5&lt;br&gt;Location: 4798 - 5368" locus_tag="ctg43_5" class="clusterblast-orf" id="knownclusterblast-1_q3_0_all"  />
<polygon points="79,40 103,40 108,35 103,30 79,30 79,40 " style="fill:white; stroke-width:1; stroke:black; " description="&lt;b&gt;ctg43_6&lt;/b&gt;&lt;br&gt;ctg43 6&lt;br&gt;Location: 5475 - 6894" locus_tag="ctg43_6" class="clusterblast-orf" id="knownclusterblast-1_q4_0_all"  />
<polygon points="109,35 114,30 139,30 139,40 114,40 109,35 " style="fill:white; stroke-width:1; stroke:black; " description="&lt;b&gt;ctg43_7&lt;/b&gt;&lt;br&gt;ctg43 7&lt;br&gt;Location: 6926 - 8387" locus_tag="ctg43_7" class="clusterblast-orf" id="knownclusterblast-1_q5_0_all"  />
<polygon points="140,35 145,30 184,30 184,40 145,40 140,35 " style="fill:white; stroke-width:1; stroke:black; " description="&lt;b&gt;ctg43_8&lt;/b&gt;&lt;br&gt;ctg43 8&lt;br&gt;Location: 8392 - 10540" locus_tag="ctg43_8" class="clusterblast-orf" id="knownclusterblast-1_q6_0_all"  />
<polygon points="185,35 190,30 254,30 254,40 190,40 185,35 " style="fill:white; stroke-width:1; stroke:black; " description="&lt;b&gt;ctg43_9&lt;/b&gt;&lt;br&gt;ctg43 9&lt;br&gt;Location: 10562 - 13868" locus_tag="ctg43_9" class="clusterblast-orf" id="knownclusterblast-1_q7_0_all"  />
<polygon points="257,35 261,30 261,40 257,35 " style="fill:white; stroke-width:1; stroke:black; " description="&lt;b&gt;ctg43_10&lt;/b&gt;&lt;br&gt;ctg43 10&lt;br&gt;Location: 14000 - 14225" locus_tag="ctg43_10" class="clusterblast-orf" id="knownclusterblast-1_q8_0_all"  />
<polygon points="266,40 309,40 314,35 309,30 266,30 266,40 " style="fill:white; stroke-width:1; stroke:black; " description="&lt;b&gt;ctg43_11&lt;/b&gt;&lt;br&gt;ctg43 11&lt;br&gt;Location: 14438 - 16748" locus_tag="ctg43_11" class="clusterblast-orf" id="knownclusterblast-1_q9_0_all"  />
<polygon points="319,40 370,40 375,35 370,30 319,30 319,40 " style="fill:white; stroke-width:1; stroke:black; " description="&lt;b&gt;ctg43_12&lt;/b&gt;&lt;br&gt;ctg43 12&lt;br&gt;Location: 16974 - 19674" locus_tag="ctg43_12" class="clusterblast-orf" id="knownclusterblast-1_q10_0_all"  />
<polygon points="375,40 426,40 431,35 426,30 375,30 375,40 " style="fill:white; stroke-width:1; stroke:black; " description="&lt;b&gt;ctg43_13&lt;/b&gt;&lt;br&gt;ctg43 13&lt;br&gt;Location: 19677 - 22353" locus_tag="ctg43_13" class="clusterblast-orf" id="knownclusterblast-1_q11_0_all"  />
<polygon points="435,35 440,30 451,30 451,40 440,40 435,35 " style="fill:white; stroke-width:1; stroke:black; " description="&lt;b&gt;ctg43_14&lt;/b&gt;&lt;br&gt;ctg43 14&lt;br&gt;Location: 22550 - 23345" locus_tag="ctg43_14" class="clusterblast-orf" id="knownclusterblast-1_q12_0_all"  />
<polygon points="456,40 460,40 465,35 460,30 456,30 456,40 " style="fill:white; stroke-width:1; stroke:black; " description="&lt;b&gt;ctg43_15&lt;/b&gt;&lt;br&gt;ctg43 15&lt;br&gt;Location: 23561 - 24005" locus_tag="ctg43_15" class="clusterblast-orf" id="knownclusterblast-1_q13_0_all"  />
<polygon points="469,40 493,40 498,35 493,30 469,30 469,40 " style="fill:white; stroke-width:1; stroke:black; " description="&lt;b&gt;ctg43_16&lt;/b&gt;&lt;br&gt;ctg43 16&lt;br&gt;Location: 24169 - 25570" locus_tag="ctg43_16" class="clusterblast-orf" id="knownclusterblast-1_q14_0_all"  />
<polygon points="505,40 517,40 522,35 517,30 505,30 505,40 " style="fill:white; stroke-width:1; stroke:black; " description="&lt;b&gt;ctg43_17&lt;/b&gt;&lt;br&gt;ctg43 17&lt;br&gt;Location: 25904 - 26723" locus_tag="ctg43_17" class="clusterblast-orf" id="knownclusterblast-1_q15_0_all"  />
<polygon points="526,40 548,40 553,35 548,30 526,30 526,40 " style="fill:white; stroke-width:1; stroke:black; " description="&lt;b&gt;ctg43_18&lt;/b&gt;&lt;br&gt;ctg43 18&lt;br&gt;Location: 26941 - 28237" locus_tag="ctg43_18" class="clusterblast-orf" id="knownclusterblast-1_q16_0_all"  />
<polygon points="554,40 591,40 596,35 591,30 554,30 554,40 " style="fill:white; stroke-width:1; stroke:black; " description="&lt;b&gt;ctg43_19&lt;/b&gt;&lt;br&gt;ctg43 19&lt;br&gt;Location: 28273 - 30271" locus_tag="ctg43_19" class="clusterblast-orf" id="knownclusterblast-1_q17_0_all"  />
<polygon points="596,40 614,40 619,35 614,30 596,30 596,40 " style="fill:white; stroke-width:1; stroke:black; " description="&lt;b&gt;ctg43_20&lt;/b&gt;&lt;br&gt;ctg43 20&lt;br&gt;Location: 30299 - 31370" locus_tag="ctg43_20" class="clusterblast-orf" id="knownclusterblast-1_q18_0_all"  />
<polygon points="619,40 637,40 642,35 637,30 619,30 619,40 " style="fill:white; stroke-width:1; stroke:black; " description="&lt;b&gt;ctg43_21&lt;/b&gt;&lt;br&gt;ctg43 21&lt;br&gt;Location: 31369 - 32473" locus_tag="ctg43_21" class="clusterblast-orf" id="knownclusterblast-1_q19_0_all"  />
<polygon points="642,40 665,40 670,35 665,30 642,30 642,40 " style="fill:white; stroke-width:1; stroke:black; " description="&lt;b&gt;ctg43_22&lt;/b&gt;&lt;br&gt;ctg43 22&lt;br&gt;Location: 32469 - 33825" locus_tag="ctg43_22" class="clusterblast-orf" id="knownclusterblast-1_q20_0_all"  />
<polygon points="676,40 694,40 699,35 694,30 676,30 676,40 " style="fill:white; stroke-width:1; stroke:black; " description="&lt;b&gt;ctg43_23&lt;/b&gt;&lt;br&gt;ctg43 23&lt;br&gt;Location: 34121 - 35234" locus_tag="ctg43_23" class="clusterblast-orf" id="knownclusterblast-1_q21_0_all"  />
<polygon points="711,40 712,40 717,35 712,30 711,30 711,40 " style="fill:white; stroke-width:1; stroke:black; " description="&lt;b&gt;ctg43_24&lt;/b&gt;&lt;br&gt;ctg43 24&lt;br&gt;Location: 35776 - 36085" locus_tag="ctg43_24" class="clusterblast-orf" id="knownclusterblast-1_q22_0_all"  />
<polygon points="718,40 736,40 741,35 736,30 718,30 718,40 " style="fill:white; stroke-width:1; stroke:black; " description="&lt;b&gt;ctg43_25&lt;/b&gt;&lt;br&gt;ctg43 25&lt;br&gt;Location: 36137 - 37241" locus_tag="ctg43_25" class="clusterblast-orf" id="knownclusterblast-1_q23_0_all"  />
<polygon points="741,40 750,40 755,35 750,30 741,30 741,40 " style="fill:white; stroke-width:1; stroke:black; " description="&lt;b&gt;ctg43_26&lt;/b&gt;&lt;br&gt;ctg43 26&lt;br&gt;Location: 37237 - 37912" locus_tag="ctg43_26" class="clusterblast-orf" id="knownclusterblast-1_q24_0_all"  />
<polygon points="762,40 763,40 768,35 763,30 762,30 762,40 " style="fill:white; stroke-width:1; stroke:black; " description="&lt;b&gt;ctg43_27&lt;/b&gt;&lt;br&gt;ctg43 27&lt;br&gt;Location: 38216 - 38504" locus_tag="ctg43_27" class="clusterblast-orf" id="knownclusterblast-1_q25_0_all"  />
<polygon points="769,40 769,40 774,35 769,30 769,30 769,40 " style="fill:white; stroke-width:1; stroke:black; " description="&lt;b&gt;ctg43_28&lt;/b&gt;&lt;br&gt;ctg43 28&lt;br&gt;Location: 38552 - 38816" locus_tag="ctg43_28" class="clusterblast-orf" id="knownclusterblast-1_q26_0_all"  />
<polygon points="776,40 780,35 776,30 776,40 " style="fill:white; stroke-width:1; stroke:black; " description="&lt;b&gt;ctg43_29&lt;/b&gt;&lt;br&gt;ctg43 29&lt;br&gt;Location: 38905 - 39082" locus_tag="ctg43_29" class="clusterblast-orf" id="knownclusterblast-1_q27_0_all"  />
</g>
</svg>
