<svg xmlns="http://www.w3.org/2000/svg" xmlns:xlink="http://www.w3.org/1999/xlink" version="1.1" x="0" y="0" height="230" width="800" viewBox="0 0 800 230" preserveAspectRatio="none"  >
<g label="Query sequence" class="clusterblast-cluster"  >
<text x="5" y="20" class="clusterblast-acc"  >
Query sequence</text>
<line x1="10" y1="35" x2="778.0" y2="35" style="stroke-width:1; stroke:grey; "  />
<polygon points="0,40 1,35 0,30 0,40 " style="fill:white; stroke-width:1; stroke:black; " description="&lt;b&gt;ctg13_19&lt;/b&gt;&lt;br&gt;ctg13 19&lt;br&gt;Location: 21258 - 21378" locus_tag="ctg13_19" class="clusterblast-orf" id="dummy-1_q0_0_all"  />
<polygon points="1,40 6,40 11,35 6,30 1,30 1,40 " style="fill:white; stroke-width:1; stroke:black; " description="&lt;b&gt;ctg13_20&lt;/b&gt;&lt;br&gt;ctg13 20&lt;br&gt;Location: 21382 - 22054" locus_tag="ctg13_20" class="clusterblast-orf" id="dummy-1_q1_0_all"  />
<polygon points="11,40 19,40 24,35 19,30 11,30 11,40 " style="fill:white; stroke-width:1; stroke:black; " description="&lt;b&gt;ctg13_21&lt;/b&gt;&lt;br&gt;ctg13 21&lt;br&gt;Location: 22046 - 22937" locus_tag="ctg13_21" class="clusterblast-orf" id="dummy-1_q2_0_all"  />
<polygon points="25,40 53,40 58,35 53,30 25,30 25,40 " style="fill:white; stroke-width:1; stroke:black; " description="&lt;b&gt;ctg13_22&lt;/b&gt;&lt;br&gt;ctg13 22&lt;br&gt;Location: 22982 - 25232" locus_tag="ctg13_22" class="clusterblast-orf" id="dummy-1_q3_0_all"  />
<polygon points="58,40 62,40 67,35 62,30 58,30 58,40 " style="fill:white; stroke-width:1; stroke:black; " description="&lt;b&gt;ctg13_23&lt;/b&gt;&lt;br&gt;ctg13 23&lt;br&gt;Location: 25234 - 25846" locus_tag="ctg13_23" class="clusterblast-orf" id="dummy-1_q4_0_all"  />
<polygon points="69,40 73,35 69,30 69,40 " style="fill:white; stroke-width:1; stroke:black; " description="&lt;b&gt;ctg13_24&lt;/b&gt;&lt;br&gt;ctg13 24&lt;br&gt;Location: 25936 - 26224" locus_tag="ctg13_24" class="clusterblast-orf" id="dummy-1_q5_0_all"  />
<polygon points="74,40 80,40 85,35 80,30 74,30 74,40 " style="fill:white; stroke-width:1; stroke:black; " description="&lt;b&gt;ctg13_25&lt;/b&gt;&lt;br&gt;ctg13 25&lt;br&gt;Location: 26298 - 27024" locus_tag="ctg13_25" class="clusterblast-orf" id="dummy-1_q6_0_all"  />
<polygon points="91,40 100,40 105,35 100,30 91,30 91,40 " style="fill:white; stroke-width:1; stroke:black; " description="&lt;b&gt;ctg13_26&lt;/b&gt;&lt;br&gt;ctg13 26&lt;br&gt;Location: 27452 - 28421" locus_tag="ctg13_26" class="clusterblast-orf" id="dummy-1_q7_0_all"  />
<polygon points="108,35 113,30 113,30 113,40 113,40 108,35 " style="fill:white; stroke-width:1; stroke:black; " description="&lt;b&gt;ctg13_27&lt;/b&gt;&lt;br&gt;ctg13 27&lt;br&gt;Location: 28569 - 28935" locus_tag="ctg13_27" class="clusterblast-orf" id="dummy-1_q8_0_all"  />
<polygon points="115,40 118,35 115,30 115,40 " style="fill:white; stroke-width:1; stroke:black; " description="&lt;b&gt;ctg13_28&lt;/b&gt;&lt;br&gt;ctg13 28&lt;br&gt;Location: 29098 - 29278" locus_tag="ctg13_28" class="clusterblast-orf" id="dummy-1_q9_0_all"  />
<polygon points="121,40 124,40 129,35 124,30 121,30 121,40 " style="fill:white; stroke-width:1; stroke:black; " description="&lt;b&gt;ctg13_29&lt;/b&gt;&lt;br&gt;ctg13 29&lt;br&gt;Location: 29465 - 30029" locus_tag="ctg13_29" class="clusterblast-orf" id="dummy-1_q10_0_all"  />
<polygon points="134,35 139,30 152,30 152,40 139,40 134,35 " style="fill:white; stroke-width:1; stroke:black; " description="&lt;b&gt;ctg13_30&lt;/b&gt;&lt;br&gt;ctg13 30&lt;br&gt;Location: 30331 - 31537" locus_tag="ctg13_30" class="clusterblast-orf" id="dummy-1_q11_0_all"  />
<polygon points="152,35 157,30 161,30 161,40 157,40 152,35 " style="fill:white; stroke-width:1; stroke:black; " description="&lt;b&gt;ctg13_31&lt;/b&gt;&lt;br&gt;ctg13 31&lt;br&gt;Location: 31579 - 32206" locus_tag="ctg13_31" class="clusterblast-orf" id="dummy-1_q12_0_all"  />
<polygon points="162,35 167,30 177,30 177,40 167,40 162,35 " style="fill:white; stroke-width:1; stroke:black; " description="&lt;b&gt;ctg13_32&lt;/b&gt;&lt;br&gt;ctg13 32&lt;br&gt;Location: 32279 - 33230" locus_tag="ctg13_32" class="clusterblast-orf" id="dummy-1_q13_0_all"  />
<polygon points="178,40 192,40 197,35 192,30 178,30 178,40 " style="fill:white; stroke-width:1; stroke:black; " description="&lt;b&gt;ctg13_33&lt;/b&gt;&lt;br&gt;ctg13 33&lt;br&gt;Location: 33361 - 34621" locus_tag="ctg13_33" class="clusterblast-orf" id="dummy-1_q14_0_all"  />
<polygon points="198,35 203,30 208,30 208,40 203,40 198,35 " style="fill:#d81515; stroke-width:1; stroke:black; " description="&lt;b&gt;ctg13_34&lt;/b&gt;&lt;br&gt;ctg13 34&lt;br&gt;Location: 34666 - 35362" locus_tag="ctg13_34" class="clusterblast-orf" id="dummy-1_q15_0_all"  />
<polygon points="208,35 213,30 226,30 226,40 213,40 208,35 " style="fill:white; stroke-width:1; stroke:black; " description="&lt;b&gt;ctg13_35&lt;/b&gt;&lt;br&gt;ctg13 35&lt;br&gt;Location: 35387 - 36560" locus_tag="ctg13_35" class="clusterblast-orf" id="dummy-1_q16_0_all"  />
<polygon points="227,35 232,30 245,30 245,40 232,40 227,35 " style="fill:white; stroke-width:1; stroke:black; " description="&lt;b&gt;ctg13_36&lt;/b&gt;&lt;br&gt;ctg13 36&lt;br&gt;Location: 36656 - 37862" locus_tag="ctg13_36" class="clusterblast-orf" id="dummy-1_q17_0_all"  />
<polygon points="249,35 253,30 253,40 249,35 " style="fill:white; stroke-width:1; stroke:black; " description="&lt;b&gt;ctg13_37&lt;/b&gt;&lt;br&gt;ctg13 37&lt;br&gt;Location: 38109 - 38424" locus_tag="ctg13_37" class="clusterblast-orf" id="dummy-1_q18_0_all"  />
<polygon points="265,40 269,35 265,30 265,40 " style="fill:white; stroke-width:1; stroke:black; " description="&lt;b&gt;ctg13_38&lt;/b&gt;&lt;br&gt;ctg13 38&lt;br&gt;Location: 39245 - 39518" locus_tag="ctg13_38" class="clusterblast-orf" id="dummy-1_q19_0_all"  />
<polygon points="278,40 378,40 383,35 378,30 278,30 278,40 " style="fill:#15d815; stroke-width:1; stroke:black; " description="&lt;b&gt;ctg13_39&lt;/b&gt;&lt;br&gt;ctg13 39&lt;br&gt;Location: 40069 - 47212" locus_tag="ctg13_39" class="clusterblast-orf" id="dummy-1_q20_0_all"  />
<polygon points="385,40 427,40 432,35 427,30 385,30 385,40 " style="fill:#1597d8; stroke-width:1; stroke:black; " description="&lt;b&gt;ctg13_40&lt;/b&gt;&lt;br&gt;ctg13 40&lt;br&gt;Location: 47314 - 50497" locus_tag="ctg13_40" class="clusterblast-orf" id="dummy-1_q21_0_all"  />
<polygon points="434,40 453,40 458,35 453,30 434,30 434,40 " style="fill:#9715d8; stroke-width:1; stroke:black; " description="&lt;b&gt;ctg13_41&lt;/b&gt;&lt;br&gt;ctg13 41&lt;br&gt;Location: 50625 - 52275" locus_tag="ctg13_41" class="clusterblast-orf" id="dummy-1_q22_0_all"  />
<polygon points="458,40 467,40 472,35 467,30 458,30 458,40 " style="fill:#d89715; stroke-width:1; stroke:black; " description="&lt;b&gt;ctg13_42&lt;/b&gt;&lt;br&gt;ctg13 42&lt;br&gt;Location: 52289 - 53207" locus_tag="ctg13_42" class="clusterblast-orf" id="dummy-1_q23_0_all"  />
<polygon points="473,40 485,40 490,35 485,30 473,30 473,40 " style="fill:#15d897; stroke-width:1; stroke:black; " description="&lt;b&gt;ctg13_43&lt;/b&gt;&lt;br&gt;ctg13 43&lt;br&gt;Location: 53284 - 54436" locus_tag="ctg13_43" class="clusterblast-orf" id="dummy-1_q24_0_all"  />
<polygon points="492,40 513,40 518,35 513,30 492,30 492,40 " style="fill:#1515d8; stroke-width:1; stroke:black; " description="&lt;b&gt;ctg13_44&lt;/b&gt;&lt;br&gt;ctg13 44&lt;br&gt;Location: 54585 - 56370" locus_tag="ctg13_44" class="clusterblast-orf" id="dummy-1_q25_0_all"  />
<polygon points="521,40 534,40 539,35 534,30 521,30 521,40 " style="fill:#d81597; stroke-width:1; stroke:black; " description="&lt;b&gt;ctg13_45&lt;/b&gt;&lt;br&gt;ctg13 45&lt;br&gt;Location: 56532 - 57750" locus_tag="ctg13_45" class="clusterblast-orf" id="dummy-1_q26_0_all"  />
<polygon points="539,40 556,40 561,35 556,30 539,30 539,40 " style="fill:white; stroke-width:1; stroke:black; " description="&lt;b&gt;ctg13_46&lt;/b&gt;&lt;br&gt;ctg13 46&lt;br&gt;Location: 57765 - 59232" locus_tag="ctg13_46" class="clusterblast-orf" id="dummy-1_q27_0_all"  />
<polygon points="563,40 567,35 563,30 563,40 " style="fill:#97d815; stroke-width:1; stroke:black; " description="&lt;b&gt;ctg13_47&lt;/b&gt;&lt;br&gt;ctg13 47&lt;br&gt;Location: 59368 - 59668" locus_tag="ctg13_47" class="clusterblast-orf" id="dummy-1_q28_0_all"  />
<polygon points="568,35 570,30 570,40 568,35 " style="fill:white; stroke-width:1; stroke:black; " description="&lt;b&gt;ctg13_48&lt;/b&gt;&lt;br&gt;ctg13 48&lt;br&gt;Location: 59737 - 59869" locus_tag="ctg13_48" class="clusterblast-orf" id="dummy-1_q29_0_all"  />
<polygon points="570,40 593,40 598,35 593,30 570,30 570,40 " style="fill:white; stroke-width:1; stroke:black; " description="&lt;b&gt;ctg13_49&lt;/b&gt;&lt;br&gt;ctg13 49&lt;br&gt;Location: 59886 - 61758" locus_tag="ctg13_49" class="clusterblast-orf" id="dummy-1_q30_0_all"  />
<polygon points="599,40 615,40 620,35 615,30 599,30 599,40 " style="fill:white; stroke-width:1; stroke:black; " description="&lt;b&gt;ctg13_50&lt;/b&gt;&lt;br&gt;ctg13 50&lt;br&gt;Location: 61811 - 63218" locus_tag="ctg13_50" class="clusterblast-orf" id="dummy-1_q31_0_all"  />
<polygon points="620,40 636,40 641,35 636,30 620,30 620,40 " style="fill:white; stroke-width:1; stroke:black; " description="&lt;b&gt;ctg13_51&lt;/b&gt;&lt;br&gt;ctg13 51&lt;br&gt;Location: 63257 - 64646" locus_tag="ctg13_51" class="clusterblast-orf" id="dummy-1_q32_0_all"  />
<polygon points="642,40 651,40 656,35 651,30 642,30 642,40 " style="fill:white; stroke-width:1; stroke:black; " description="&lt;b&gt;ctg13_52&lt;/b&gt;&lt;br&gt;ctg13 52&lt;br&gt;Location: 64711 - 65713" locus_tag="ctg13_52" class="clusterblast-orf" id="dummy-1_q33_0_all"  />
<polygon points="656,40 658,40 663,35 658,30 656,30 656,40 " style="fill:white; stroke-width:1; stroke:black; " description="&lt;b&gt;ctg13_53&lt;/b&gt;&lt;br&gt;ctg13 53&lt;br&gt;Location: 65717 - 66188" locus_tag="ctg13_53" class="clusterblast-orf" id="dummy-1_q34_0_all"  />
<polygon points="669,35 674,30 682,30 682,40 674,40 669,35 " style="fill:white; stroke-width:1; stroke:black; " description="&lt;b&gt;ctg13_54&lt;/b&gt;&lt;br&gt;ctg13 54&lt;br&gt;Location: 66540 - 67440" locus_tag="ctg13_54" class="clusterblast-orf" id="dummy-1_q35_0_all"  />
<polygon points="683,35 688,30 702,30 702,40 688,40 683,35 " style="fill:white; stroke-width:1; stroke:black; " description="&lt;b&gt;ctg13_55&lt;/b&gt;&lt;br&gt;ctg13 55&lt;br&gt;Location: 67526 - 68810" locus_tag="ctg13_55" class="clusterblast-orf" id="dummy-1_q36_0_all"  />
<polygon points="704,35 709,30 723,30 723,40 709,40 704,35 " style="fill:white; stroke-width:1; stroke:black; " description="&lt;b&gt;ctg13_56&lt;/b&gt;&lt;br&gt;ctg13 56&lt;br&gt;Location: 68920 - 70219" locus_tag="ctg13_56" class="clusterblast-orf" id="dummy-1_q37_0_all"  />
<polygon points="731,35 736,30 736,30 736,40 736,40 731,35 " style="fill:white; stroke-width:1; stroke:black; " description="&lt;b&gt;ctg13_57&lt;/b&gt;&lt;br&gt;ctg13 57&lt;br&gt;Location: 70771 - 71131" locus_tag="ctg13_57" class="clusterblast-orf" id="dummy-1_q38_0_all"  />
<polygon points="739,40 760,40 765,35 760,30 739,30 739,40 " style="fill:white; stroke-width:1; stroke:black; " description="&lt;b&gt;ctg13_58&lt;/b&gt;&lt;br&gt;ctg13 58&lt;br&gt;Location: 71294 - 73058" locus_tag="ctg13_58" class="clusterblast-orf" id="dummy-1_q39_0_all"  />
<polygon points="765,35 768,30 768,40 765,35 " style="fill:white; stroke-width:1; stroke:black; " description="&lt;b&gt;ctg13_59&lt;/b&gt;&lt;br&gt;ctg13 59&lt;br&gt;Location: 73092 - 73293" locus_tag="ctg13_59" class="clusterblast-orf" id="dummy-1_q40_0_all"  />
<polygon points="771,40 773,35 771,30 771,40 " style="fill:white; stroke-width:1; stroke:black; " description="&lt;b&gt;ctg13_60&lt;/b&gt;&lt;br&gt;ctg13 60&lt;br&gt;Location: 73447 - 73579" locus_tag="ctg13_60" class="clusterblast-orf" id="dummy-1_q41_0_all"  />
<polygon points="774,35 779,30 780,30 780,40 779,40 774,35 " style="fill:white; stroke-width:1; stroke:black; " description="&lt;b&gt;ctg13_61&lt;/b&gt;&lt;br&gt;ctg13 61&lt;br&gt;Location: 73672 - 74053" locus_tag="ctg13_61" class="clusterblast-orf" id="dummy-1_q42_0_all"  />
</g>
<g label="BGC0000869" description="BGC0000869_c1: heterocyst glycolipids (57% of genes show similarity), Other" class="clusterblast-cluster"  >
<text x="5" y="70" class="clusterblast-acc"  >
<a xlink:href="https://mibig.secondarymetabolites.org/go/BGC0000869/1" target="_blank">BGC0000869</a>:                                                           heterocyst glycolipids (57% of genes show similarity), Other</text>
<line x1="10" y1="85" x2="778.0" y2="85" style="stroke-width:1; stroke:grey; "  />
</g>
<g id="a1_000"  >
<polygon points="257,90 332,90 337,85 332,80 257,80 257,90 " style="fill:#15d815; stroke-width:1; stroke:black; " description="&lt;b&gt;AGJ76601.1&lt;/b&gt;&lt;br&gt;HglE&lt;br&gt;Location: 1 - 5445&lt;br&gt;&lt;br&gt;&lt;b&gt;BlastP hit with ctg13_39&lt;/b&gt;&lt;br&gt;Percentage identity: 58&lt;br&gt;Percentage coverage: 77&lt;br&gt;BLAST bit score: 1956&lt;br&gt;E-value: 0.0" locus_tag="AGJ76601.1" class="clusterblast-orf" id="dummy-1_h1_3_0"  />
</g>
<g id="a1_001"  >
<polygon points="339,90 360,90 365,85 360,80 339,80 339,90 " style="fill:white; stroke-width:1; stroke:black; " description="&lt;b&gt;AGJ76602.1&lt;/b&gt;&lt;br&gt;HglG&lt;br&gt;Location: 5589 - 7316" locus_tag="AGJ76602.1" class="clusterblast-orf" id="dummy-1_h1_3_1"  />
</g>
<g id="a1_002"  >
<polygon points="368,90 433,90 438,85 433,80 368,80 368,90 " style="fill:#1597d8; stroke-width:1; stroke:black; " description="&lt;b&gt;AGJ76603.1&lt;/b&gt;&lt;br&gt;HglC&lt;br&gt;Location: 7505 - 12253&lt;br&gt;&lt;br&gt;&lt;b&gt;BlastP hit with ctg13_40&lt;/b&gt;&lt;br&gt;Percentage identity: 49&lt;br&gt;Percentage coverage: 107&lt;br&gt;BLAST bit score: 1032&lt;br&gt;E-value: 4.8e-301" locus_tag="AGJ76603.1" class="clusterblast-orf" id="dummy-1_h1_3_2"  />
</g>
<g id="a1_003"  >
<polygon points="440,90 461,90 466,85 461,80 440,80 440,90 " style="fill:#9715d8; stroke-width:1; stroke:black; " description="&lt;b&gt;AGJ76604.1&lt;/b&gt;&lt;br&gt;PfaD&lt;br&gt;Location: 12371 - 14134&lt;br&gt;&lt;br&gt;&lt;b&gt;BlastP hit with ctg13_41&lt;/b&gt;&lt;br&gt;Percentage identity: 71&lt;br&gt;Percentage coverage: 100&lt;br&gt;BLAST bit score: 804&lt;br&gt;E-value: 8.5e-233" locus_tag="AGJ76604.1" class="clusterblast-orf" id="dummy-1_h1_3_3"  />
</g>
<g id="a1_004"  >
<polygon points="466,90 483,90 488,85 483,80 466,80 466,90 " style="fill:#97d815; stroke-width:1; stroke:black; " description="&lt;b&gt;AGJ76605.1&lt;/b&gt;&lt;br&gt;HglB&lt;br&gt;Location: 14137 - 15651&lt;br&gt;&lt;br&gt;&lt;b&gt;BlastP hit with ctg13_47&lt;/b&gt;&lt;br&gt;Percentage identity: 63&lt;br&gt;Percentage coverage: 81&lt;br&gt;BLAST bit score: 113&lt;br&gt;E-value: 2.8e-25" locus_tag="AGJ76605.1" class="clusterblast-orf" id="dummy-1_h1_3_4"  />
</g>
<g id="a1_005"  >
<polygon points="498,90 505,90 510,85 505,80 498,80 498,90 " style="fill:white; stroke-width:1; stroke:black; " description="&lt;b&gt;AGJ76606.1&lt;/b&gt;&lt;br&gt;SDR&lt;br&gt;Location: 16328 - 17131" locus_tag="AGJ76606.1" class="clusterblast-orf" id="dummy-1_h1_3_5"  />
</g>
<g id="a1_006"  >
<polygon points="512,85 517,80 522,80 522,90 517,90 512,85 " style="fill:white; stroke-width:1; stroke:black; " description="&lt;b&gt;AGJ76607.1&lt;/b&gt;&lt;br&gt;HetI&lt;br&gt;Location: 17235 - 17945" locus_tag="AGJ76607.1" class="clusterblast-orf" id="dummy-1_h1_3_6"  />
</g>
</svg>
