<svg xmlns="http://www.w3.org/2000/svg" xmlns:xlink="http://www.w3.org/1999/xlink" version="1.1" x="0" y="0" height="230" width="800" viewBox="0 0 800 230" preserveAspectRatio="none"  >
<g label="Query sequence" class="clusterblast-cluster"  >
<text x="5" y="20" class="clusterblast-acc"  >
Query sequence</text>
<line x1="10" y1="35" x2="778.0" y2="35" style="stroke-width:1; stroke:grey; "  />
<polygon points="0,40 6,40 11,35 6,30 0,30 0,40 " style="fill:white; stroke-width:1; stroke:black; " description="&lt;b&gt;ctg47_1&lt;/b&gt;&lt;br&gt;ctg47 1&lt;br&gt;Location: 251 - 845" locus_tag="ctg47_1" class="clusterblast-orf" id="dummy-1_q0_0_all"  />
<polygon points="23,35 28,30 49,30 49,40 28,40 23,35 " style="fill:#d81515; stroke-width:1; stroke:black; " description="&lt;b&gt;ctg47_2&lt;/b&gt;&lt;br&gt;ctg47 2&lt;br&gt;Location: 1511 - 2918" locus_tag="ctg47_2" class="clusterblast-orf" id="dummy-1_q1_0_all"  />
<polygon points="49,35 54,30 55,30 55,40 54,40 49,35 " style="fill:#15d863; stroke-width:1; stroke:black; " description="&lt;b&gt;ctg47_3&lt;/b&gt;&lt;br&gt;ctg47 3&lt;br&gt;Location: 2955 - 3267" locus_tag="ctg47_3" class="clusterblast-orf" id="dummy-1_q2_0_all"  />
<polygon points="59,35 64,30 85,30 85,40 64,40 59,35 " style="fill:#1563d8; stroke-width:1; stroke:black; " description="&lt;b&gt;ctg47_4&lt;/b&gt;&lt;br&gt;ctg47 4&lt;br&gt;Location: 3481 - 4879" locus_tag="ctg47_4" class="clusterblast-orf" id="dummy-1_q3_0_all"  />
<polygon points="86,35 91,30 110,30 110,40 91,40 86,35 " style="fill:#b115d8; stroke-width:1; stroke:black; " description="&lt;b&gt;ctg47_5&lt;/b&gt;&lt;br&gt;ctg47 5&lt;br&gt;Location: 4959 - 6282" locus_tag="ctg47_5" class="clusterblast-orf" id="dummy-1_q4_0_all"  />
<polygon points="114,35 119,30 234,30 234,40 119,40 114,35 " style="fill:white; stroke-width:1; stroke:black; " description="&lt;b&gt;ctg47_6&lt;/b&gt;&lt;br&gt;ctg47 6&lt;br&gt;Location: 6455 - 13022" locus_tag="ctg47_6" class="clusterblast-orf" id="dummy-1_q5_0_all"  />
<polygon points="234,35 239,30 312,30 312,40 239,40 234,35 " style="fill:#15d863; stroke-width:1; stroke:black; " description="&lt;b&gt;ctg47_7&lt;/b&gt;&lt;br&gt;ctg47 7&lt;br&gt;Location: 13018 - 17269" locus_tag="ctg47_7" class="clusterblast-orf" id="dummy-1_q6_0_all"  />
<polygon points="312,35 317,30 372,30 372,40 317,40 312,35 " style="fill:#15d863; stroke-width:1; stroke:black; " description="&lt;b&gt;ctg47_8&lt;/b&gt;&lt;br&gt;ctg47 8&lt;br&gt;Location: 17265 - 20511" locus_tag="ctg47_8" class="clusterblast-orf" id="dummy-1_q7_0_all"  />
<polygon points="372,35 377,30 422,30 422,40 377,40 372,35 " style="fill:#15d863; stroke-width:1; stroke:black; " description="&lt;b&gt;ctg47_9&lt;/b&gt;&lt;br&gt;ctg47 9&lt;br&gt;Location: 20552 - 23258" locus_tag="ctg47_9" class="clusterblast-orf" id="dummy-1_q8_0_all"  />
<polygon points="423,35 428,30 439,30 439,40 428,40 423,35 " style="fill:white; stroke-width:1; stroke:black; " description="&lt;b&gt;ctg47_10&lt;/b&gt;&lt;br&gt;ctg47 10&lt;br&gt;Location: 23304 - 24192" locus_tag="ctg47_10" class="clusterblast-orf" id="dummy-1_q9_0_all"  />
<polygon points="457,35 462,30 463,30 463,40 462,40 457,35 " style="fill:#15d863; stroke-width:1; stroke:black; " description="&lt;b&gt;ctg47_11&lt;/b&gt;&lt;br&gt;ctg47 11&lt;br&gt;Location: 25168 - 25498" locus_tag="ctg47_11" class="clusterblast-orf" id="dummy-1_q10_0_all"  />
<polygon points="464,35 469,30 481,30 481,40 469,40 464,35 " style="fill:white; stroke-width:1; stroke:black; " description="&lt;b&gt;ctg47_12&lt;/b&gt;&lt;br&gt;ctg47 12&lt;br&gt;Location: 25557 - 26484" locus_tag="ctg47_12" class="clusterblast-orf" id="dummy-1_q11_0_all"  />
<polygon points="493,35 498,30 518,30 518,40 498,40 493,35 " style="fill:#b1d815; stroke-width:1; stroke:black; " description="&lt;b&gt;ctg47_13&lt;/b&gt;&lt;br&gt;ctg47 13&lt;br&gt;Location: 27104 - 28478" locus_tag="ctg47_13" class="clusterblast-orf" id="dummy-1_q12_0_all"  />
<polygon points="525,35 530,30 535,30 535,40 530,40 525,35 " style="fill:white; stroke-width:1; stroke:black; " description="&lt;b&gt;ctg47_14&lt;/b&gt;&lt;br&gt;ctg47 14&lt;br&gt;Location: 28888 - 29401" locus_tag="ctg47_14" class="clusterblast-orf" id="dummy-1_q13_0_all"  />
<polygon points="537,35 542,30 571,30 571,40 542,40 537,35 " style="fill:#15d863; stroke-width:1; stroke:black; " description="&lt;b&gt;ctg47_15&lt;/b&gt;&lt;br&gt;ctg47 15&lt;br&gt;Location: 29518 - 31351" locus_tag="ctg47_15" class="clusterblast-orf" id="dummy-1_q14_0_all"  />
<polygon points="577,35 580,30 580,40 577,35 " style="fill:white; stroke-width:1; stroke:black; " description="&lt;b&gt;ctg47_16&lt;/b&gt;&lt;br&gt;ctg47 16&lt;br&gt;Location: 31704 - 31836" locus_tag="ctg47_16" class="clusterblast-orf" id="dummy-1_q15_0_all"  />
<polygon points="606,35 611,30 659,30 659,40 611,40 606,35 " style="fill:white; stroke-width:1; stroke:black; " description="&lt;b&gt;ctg47_17&lt;/b&gt;&lt;br&gt;ctg47 17&lt;br&gt;Location: 33271 - 36166" locus_tag="ctg47_17" class="clusterblast-orf" id="dummy-1_q16_0_all"  />
<polygon points="676,40 693,40 698,35 693,30 676,30 676,40 " style="fill:white; stroke-width:1; stroke:black; " description="&lt;b&gt;ctg47_18&lt;/b&gt;&lt;br&gt;ctg47 18&lt;br&gt;Location: 37107 - 38292" locus_tag="ctg47_18" class="clusterblast-orf" id="dummy-1_q17_0_all"  />
<polygon points="719,40 732,40 737,35 732,30 719,30 719,40 " style="fill:white; stroke-width:1; stroke:black; " description="&lt;b&gt;ctg47_19&lt;/b&gt;&lt;br&gt;ctg47 19&lt;br&gt;Location: 39408 - 40404" locus_tag="ctg47_19" class="clusterblast-orf" id="dummy-1_q18_0_all"  />
<polygon points="737,40 753,40 758,35 753,30 737,30 737,40 " style="fill:white; stroke-width:1; stroke:black; " description="&lt;b&gt;ctg47_20&lt;/b&gt;&lt;br&gt;ctg47 20&lt;br&gt;Location: 40400 - 41561" locus_tag="ctg47_20" class="clusterblast-orf" id="dummy-1_q19_0_all"  />
<polygon points="758,40 775,40 780,35 775,30 758,30 758,40 " style="fill:white; stroke-width:1; stroke:black; " description="&lt;b&gt;ctg47_21&lt;/b&gt;&lt;br&gt;ctg47 21&lt;br&gt;Location: 41560 - 42733" locus_tag="ctg47_21" class="clusterblast-orf" id="dummy-1_q20_0_all"  />
</g>
<g label="BGC0001884" description="BGC0001884_c1: aranazole A / aranazole B / aranazole C / aranazole D (81% of genes show similarity), NRP + Polyketide" class="clusterblast-cluster"  >
<text x="5" y="70" class="clusterblast-acc"  >
<a xlink:href="https://mibig.secondarymetabolites.org/go/BGC0001884/1" target="_blank">BGC0001884</a>:                            aranazole A / aranazole B / aranazole C / aranazole D (81% of genes show similarity), NRP + Polyketide</text>
<line x1="10" y1="85" x2="778.0" y2="85" style="stroke-width:1; stroke:grey; "  />
</g>
<g id="a1_000"  >
<polygon points="4,85 9,80 99,80 99,90 9,90 4,85 " style="fill:#15d863; stroke-width:1; stroke:black; " description="&lt;b&gt;DAB41918.1&lt;/b&gt;&lt;br&gt;ArzP - PKS (KS, AT, OMT, ACP, TE)&lt;br&gt;Location: 41956 - 36806&lt;br&gt;&lt;br&gt;&lt;b&gt;BlastP hit with ctg47_8&lt;/b&gt;&lt;br&gt;Percentage identity: 47&lt;br&gt;Percentage coverage: 83&lt;br&gt;BLAST bit score: 789&lt;br&gt;E-value: 7.3e-228&lt;br&gt;&lt;br&gt;&lt;b&gt;BlastP hit with ctg47_9&lt;/b&gt;&lt;br&gt;Percentage identity: 49&lt;br&gt;Percentage coverage: 101&lt;br&gt;BLAST bit score: 830&lt;br&gt;E-value: 3.1e-240" locus_tag="DAB41918.1" class="clusterblast-orf" id="dummy-1_h1_1_0"  />
</g>
<g id="a1_001"  >
<polygon points="99,85 104,80 177,80 177,90 104,90 99,85 " style="fill:#15d863; stroke-width:1; stroke:black; " description="&lt;b&gt;DAB41917.1&lt;/b&gt;&lt;br&gt;ArzO - NRPS (Cy, A, Ox, PCP)&lt;br&gt;Location: 36813 - 32551&lt;br&gt;&lt;br&gt;&lt;b&gt;BlastP hit with ctg47_7&lt;/b&gt;&lt;br&gt;Percentage identity: 67&lt;br&gt;Percentage coverage: 98&lt;br&gt;BLAST bit score: 1880&lt;br&gt;E-value: 0.0" locus_tag="DAB41917.1" class="clusterblast-orf" id="dummy-1_h1_1_1"  />
</g>
<g id="a1_002"  >
<polygon points="177,85 182,80 283,80 283,90 182,90 177,85 " style="fill:#15d863; stroke-width:1; stroke:black; " description="&lt;b&gt;DAB41916.1&lt;/b&gt;&lt;br&gt;ArzN - PKS (KS, AT, OMT, KR, ACP)&lt;br&gt;Location: 32554 - 26801&lt;br&gt;&lt;br&gt;&lt;b&gt;BlastP hit with ctg47_8&lt;/b&gt;&lt;br&gt;Percentage identity: 51&lt;br&gt;Percentage coverage: 91&lt;br&gt;BLAST bit score: 966&lt;br&gt;E-value: 4.3e-281&lt;br&gt;&lt;br&gt;&lt;b&gt;BlastP hit with ctg47_9&lt;/b&gt;&lt;br&gt;Percentage identity: 60&lt;br&gt;Percentage coverage: 98&lt;br&gt;BLAST bit score: 1062&lt;br&gt;E-value: 2.8e-310" locus_tag="DAB41916.1" class="clusterblast-orf" id="dummy-1_h1_1_2"  />
</g>
<g id="a1_003"  >
<polygon points="282,85 287,80 426,80 426,90 287,90 282,85 " style="fill:#15d863; stroke-width:1; stroke:black; " description="&lt;b&gt;DAB41915.1&lt;/b&gt;&lt;br&gt;ArzM - PKS (KS, AT, DH, MT, ER, KR, ACP)&lt;br&gt;Location: 26811 - 18967&lt;br&gt;&lt;br&gt;&lt;b&gt;BlastP hit with ctg47_8&lt;/b&gt;&lt;br&gt;Percentage identity: 51&lt;br&gt;Percentage coverage: 84&lt;br&gt;BLAST bit score: 905&lt;br&gt;E-value: 9.1e-263&lt;br&gt;&lt;br&gt;&lt;b&gt;BlastP hit with ctg47_9&lt;/b&gt;&lt;br&gt;Percentage identity: 58&lt;br&gt;Percentage coverage: 99&lt;br&gt;BLAST bit score: 1042&lt;br&gt;E-value: 5.2e-304" locus_tag="DAB41915.1" class="clusterblast-orf" id="dummy-1_h1_1_3"  />
</g>
<g id="a1_004"  >
<polygon points="425,85 430,80 467,80 467,90 430,90 425,85 " style="fill:#15d863; stroke-width:1; stroke:black; " description="&lt;b&gt;DAB41914.1&lt;/b&gt;&lt;br&gt;ArzL - PKS (FAAL, ACP)&lt;br&gt;Location: 19034 - 16731&lt;br&gt;&lt;br&gt;&lt;b&gt;BlastP hit with ctg47_15&lt;/b&gt;&lt;br&gt;Percentage identity: 61&lt;br&gt;Percentage coverage: 98&lt;br&gt;BLAST bit score: 733&lt;br&gt;E-value: 3.5e-211" locus_tag="DAB41914.1" class="clusterblast-orf" id="dummy-1_h1_1_4"  />
</g>
<g id="a1_005"  >
<polygon points="485,85 490,80 499,80 499,90 490,90 485,85 " style="fill:white; stroke-width:1; stroke:black; " description="&lt;b&gt;DAB41913.1&lt;/b&gt;&lt;br&gt;ArzK - O-methyltransferase&lt;br&gt;Location: 15799 - 15005" locus_tag="DAB41913.1" class="clusterblast-orf" id="dummy-1_h1_1_5"  />
</g>
<g id="a1_006"  >
<polygon points="502,85 507,80 526,80 526,90 507,90 502,85 " style="fill:#b115d8; stroke-width:1; stroke:black; " description="&lt;b&gt;DAB41912.1&lt;/b&gt;&lt;br&gt;ArzJ - aKG/Fe(II) halogenase&lt;br&gt;Location: 14851 - 13544&lt;br&gt;&lt;br&gt;&lt;b&gt;BlastP hit with ctg47_5&lt;/b&gt;&lt;br&gt;Percentage identity: 69&lt;br&gt;Percentage coverage: 100&lt;br&gt;BLAST bit score: 641&lt;br&gt;E-value: 1.3e-183" locus_tag="DAB41912.1" class="clusterblast-orf" id="dummy-1_h1_1_6"  />
</g>
<g id="a1_007"  >
<polygon points="528,85 533,80 551,80 551,90 533,90 528,85 " style="fill:#b115d8; stroke-width:1; stroke:black; " description="&lt;b&gt;DAB41911.1&lt;/b&gt;&lt;br&gt;ArzI - aKG/Fe(II) halogenase&lt;br&gt;Location: 13456 - 12200&lt;br&gt;&lt;br&gt;&lt;b&gt;BlastP hit with ctg47_5&lt;/b&gt;&lt;br&gt;Percentage identity: 70&lt;br&gt;Percentage coverage: 96&lt;br&gt;BLAST bit score: 639&lt;br&gt;E-value: 4.9e-183" locus_tag="DAB41911.1" class="clusterblast-orf" id="dummy-1_h1_1_7"  />
</g>
<g id="a1_008"  >
<polygon points="558,85 563,80 584,80 584,90 563,90 558,85 " style="fill:#1563d8; stroke-width:1; stroke:black; " description="&lt;b&gt;DAB41910.1&lt;/b&gt;&lt;br&gt;ArzH - cytochrome P450&lt;br&gt;Location: 11781 - 10378&lt;br&gt;&lt;br&gt;&lt;b&gt;BlastP hit with ctg47_4&lt;/b&gt;&lt;br&gt;Percentage identity: 48&lt;br&gt;Percentage coverage: 95&lt;br&gt;BLAST bit score: 403&lt;br&gt;E-value: 4.8e-112" locus_tag="DAB41910.1" class="clusterblast-orf" id="dummy-1_h1_1_8"  />
</g>
<g id="a1_009"  >
<polygon points="586,85 591,80 610,80 610,90 591,90 586,85 " style="fill:#b115d8; stroke-width:1; stroke:black; " description="&lt;b&gt;DAB41909.1&lt;/b&gt;&lt;br&gt;ArzG - aKG/Fe(II) halogenase&lt;br&gt;Location: 10289 - 8994&lt;br&gt;&lt;br&gt;&lt;b&gt;BlastP hit with ctg47_5&lt;/b&gt;&lt;br&gt;Percentage identity: 69&lt;br&gt;Percentage coverage: 100&lt;br&gt;BLAST bit score: 651&lt;br&gt;E-value: 1.3e-186" locus_tag="DAB41909.1" class="clusterblast-orf" id="dummy-1_h1_1_9"  />
</g>
<g id="a1_0010"  >
<polygon points="611,85 616,80 635,80 635,90 616,90 611,85 " style="fill:#b115d8; stroke-width:1; stroke:black; " description="&lt;b&gt;DAB41908.1&lt;/b&gt;&lt;br&gt;ArzF - aKG/Fe(II) halogenase&lt;br&gt;Location: 8902 - 7580&lt;br&gt;&lt;br&gt;&lt;b&gt;BlastP hit with ctg47_5&lt;/b&gt;&lt;br&gt;Percentage identity: 69&lt;br&gt;Percentage coverage: 100&lt;br&gt;BLAST bit score: 667&lt;br&gt;E-value: 1.3e-191" locus_tag="DAB41908.1" class="clusterblast-orf" id="dummy-1_h1_1_10"  />
</g>
<g id="a1_0011"  >
<polygon points="639,85 644,80 656,80 656,90 644,90 639,85 " style="fill:white; stroke-width:1; stroke:black; " description="&lt;b&gt;DAB41907.1&lt;/b&gt;&lt;br&gt;ArzE - Rieske protein&lt;br&gt;Location: 7402 - 6482" locus_tag="DAB41907.1" class="clusterblast-orf" id="dummy-1_h1_1_11"  />
</g>
<g id="a1_0012"  >
<polygon points="662,85 667,80 686,80 686,90 667,90 662,85 " style="fill:#b115d8; stroke-width:1; stroke:black; " description="&lt;b&gt;DAB41906.1&lt;/b&gt;&lt;br&gt;ArzD - aKG/Fe(II) halogenase&lt;br&gt;Location: 6158 - 4821&lt;br&gt;&lt;br&gt;&lt;b&gt;BlastP hit with ctg47_5&lt;/b&gt;&lt;br&gt;Percentage identity: 68&lt;br&gt;Percentage coverage: 102&lt;br&gt;BLAST bit score: 639&lt;br&gt;E-value: 2.9e-183" locus_tag="DAB41906.1" class="clusterblast-orf" id="dummy-1_h1_1_12"  />
</g>
<g id="a1_0013"  >
<polygon points="688,85 693,80 710,80 710,90 693,90 688,85 " style="fill:#b115d8; stroke-width:1; stroke:black; " description="&lt;b&gt;DAB41905.1&lt;/b&gt;&lt;br&gt;ArzC - aKG/Fe(II) halogenase&lt;br&gt;Location: 4729 - 3521&lt;br&gt;&lt;br&gt;&lt;b&gt;BlastP hit with ctg47_5&lt;/b&gt;&lt;br&gt;Percentage identity: 72&lt;br&gt;Percentage coverage: 93&lt;br&gt;BLAST bit score: 624&lt;br&gt;E-value: 1.3e-178" locus_tag="DAB41905.1" class="clusterblast-orf" id="dummy-1_h1_1_13"  />
</g>
<g id="a1_0014"  >
<polygon points="714,85 719,80 738,80 738,90 719,90 714,85 " style="fill:#b115d8; stroke-width:1; stroke:black; " description="&lt;b&gt;DAB41904.1&lt;/b&gt;&lt;br&gt;ArzB - aKG/Fe(II) oxygenase&lt;br&gt;Location: 3328 - 2003&lt;br&gt;&lt;br&gt;&lt;b&gt;BlastP hit with ctg47_5&lt;/b&gt;&lt;br&gt;Percentage identity: 63&lt;br&gt;Percentage coverage: 100&lt;br&gt;BLAST bit score: 601&lt;br&gt;E-value: 1.5e-171" locus_tag="DAB41904.1" class="clusterblast-orf" id="dummy-1_h1_1_14"  />
</g>
<g id="a1_0015"  >
<polygon points="749,85 754,80 775,80 775,90 754,90 749,85 " style="fill:white; stroke-width:1; stroke:black; " description="&lt;b&gt;DAB41903.1&lt;/b&gt;&lt;br&gt;ArzA - cytochrome P450&lt;br&gt;Location: 1371 - 1" locus_tag="DAB41903.1" class="clusterblast-orf" id="dummy-1_h1_1_15"  />
</g>
</svg>
