<svg xmlns="http://www.w3.org/2000/svg" xmlns:xlink="http://www.w3.org/1999/xlink" version="1.1" x="0" y="0" height="50" width="800" viewBox="0 0 800 50" preserveAspectRatio="none"  >
<g label="Query sequence" class="clusterblast-cluster"  >
<text x="5" y="20" class="clusterblast-acc"  >
Query sequence</text>
<line x1="10" y1="35" x2="778.0" y2="35" style="stroke-width:1; stroke:grey; "  />
<polygon points="0,40 2,40 7,35 2,30 0,30 0,40 " style="fill:white; stroke-width:1; stroke:black; " description="&lt;b&gt;ctg31_1&lt;/b&gt;&lt;br&gt;ctg31 1&lt;br&gt;Location: 487 - 988" locus_tag="ctg31_1" class="clusterblast-orf" id="knownclusterblast-1_q0_0_all"  />
<polygon points="11,35 16,30 40,30 40,40 16,40 11,35 " style="fill:white; stroke-width:1; stroke:black; " description="&lt;b&gt;ctg31_2&lt;/b&gt;&lt;br&gt;ctg31 2&lt;br&gt;Location: 1210 - 3103" locus_tag="ctg31_2" class="clusterblast-orf" id="knownclusterblast-1_q1_0_all"  />
<polygon points="47,40 49,40 54,35 49,30 47,30 47,40 " style="fill:white; stroke-width:1; stroke:black; " description="&lt;b&gt;ctg31_3&lt;/b&gt;&lt;br&gt;ctg31 3&lt;br&gt;Location: 3542 - 3968" locus_tag="ctg31_3" class="clusterblast-orf" id="knownclusterblast-1_q2_0_all"  />
<polygon points="62,35 67,30 75,30 75,40 67,40 62,35 " style="fill:white; stroke-width:1; stroke:black; " description="&lt;b&gt;ctg31_4&lt;/b&gt;&lt;br&gt;ctg31 4&lt;br&gt;Location: 4500 - 5307" locus_tag="ctg31_4" class="clusterblast-orf" id="knownclusterblast-1_q3_0_all"  />
<polygon points="75,35 80,30 90,30 90,40 80,40 75,35 " style="fill:white; stroke-width:1; stroke:black; " description="&lt;b&gt;ctg31_5&lt;/b&gt;&lt;br&gt;ctg31 5&lt;br&gt;Location: 5299 - 6304" locus_tag="ctg31_5" class="clusterblast-orf" id="knownclusterblast-1_q4_0_all"  />
<polygon points="95,40 95,40 100,35 95,30 95,30 95,40 " style="fill:white; stroke-width:1; stroke:black; " description="&lt;b&gt;ctg31_6&lt;/b&gt;&lt;br&gt;ctg31 6&lt;br&gt;Location: 6613 - 6916" locus_tag="ctg31_6" class="clusterblast-orf" id="knownclusterblast-1_q5_0_all"  />
<polygon points="104,35 109,30 129,30 129,40 109,40 104,35 " style="fill:white; stroke-width:1; stroke:black; " description="&lt;b&gt;ctg31_7&lt;/b&gt;&lt;br&gt;ctg31 7&lt;br&gt;Location: 7206 - 8814" locus_tag="ctg31_7" class="clusterblast-orf" id="knownclusterblast-1_q6_0_all"  />
<polygon points="132,40 132,40 137,35 132,30 132,30 132,40 " style="fill:white; stroke-width:1; stroke:black; " description="&lt;b&gt;ctg31_8&lt;/b&gt;&lt;br&gt;ctg31 8&lt;br&gt;Location: 9004 - 9268" locus_tag="ctg31_8" class="clusterblast-orf" id="knownclusterblast-1_q7_0_all"  />
<polygon points="138,40 140,40 145,35 140,30 138,30 138,40 " style="fill:white; stroke-width:1; stroke:black; " description="&lt;b&gt;ctg31_9&lt;/b&gt;&lt;br&gt;ctg31 9&lt;br&gt;Location: 9351 - 9831" locus_tag="ctg31_9" class="clusterblast-orf" id="knownclusterblast-1_q8_0_all"  />
<polygon points="148,40 154,40 159,35 154,30 148,30 148,40 " style="fill:white; stroke-width:1; stroke:black; " description="&lt;b&gt;ctg31_10&lt;/b&gt;&lt;br&gt;ctg31 10&lt;br&gt;Location: 10033 - 10696" locus_tag="ctg31_10" class="clusterblast-orf" id="knownclusterblast-1_q9_0_all"  />
<polygon points="161,40 161,40 166,35 161,30 161,30 161,40 " style="fill:white; stroke-width:1; stroke:black; " description="&lt;b&gt;ctg31_11&lt;/b&gt;&lt;br&gt;ctg31 11&lt;br&gt;Location: 10849 - 11179" locus_tag="ctg31_11" class="clusterblast-orf" id="knownclusterblast-1_q10_0_all"  />
<polygon points="168,35 173,30 186,30 186,40 173,40 168,35 " style="fill:white; stroke-width:1; stroke:black; " description="&lt;b&gt;ctg31_12&lt;/b&gt;&lt;br&gt;ctg31 12&lt;br&gt;Location: 11281 - 12418" locus_tag="ctg31_12" class="clusterblast-orf" id="knownclusterblast-1_q11_0_all"  />
<polygon points="188,35 193,30 200,30 200,40 193,40 188,35 " style="fill:white; stroke-width:1; stroke:black; " description="&lt;b&gt;ctg31_13&lt;/b&gt;&lt;br&gt;ctg31 13&lt;br&gt;Location: 12545 - 13331" locus_tag="ctg31_13" class="clusterblast-orf" id="knownclusterblast-1_q12_0_all"  />
<polygon points="216,35 221,30 228,30 228,40 221,40 216,35 " style="fill:white; stroke-width:1; stroke:black; " description="&lt;b&gt;ctg31_14&lt;/b&gt;&lt;br&gt;ctg31 14&lt;br&gt;Location: 14387 - 15107" locus_tag="ctg31_14" class="clusterblast-orf" id="knownclusterblast-1_q13_0_all"  />
<polygon points="236,35 241,30 249,30 249,40 241,40 236,35 " style="fill:white; stroke-width:1; stroke:black; " description="&lt;b&gt;ctg31_15&lt;/b&gt;&lt;br&gt;ctg31 15&lt;br&gt;Location: 15682 - 16465" locus_tag="ctg31_15" class="clusterblast-orf" id="knownclusterblast-1_q14_0_all"  />
<polygon points="248,35 253,30 257,30 257,40 253,40 248,35 " style="fill:white; stroke-width:1; stroke:black; " description="&lt;b&gt;ctg31_16&lt;/b&gt;&lt;br&gt;ctg31 16&lt;br&gt;Location: 16421 - 17000" locus_tag="ctg31_16" class="clusterblast-orf" id="knownclusterblast-1_q15_0_all"  />
<polygon points="263,40 352,40 357,35 352,30 263,30 263,40 " style="fill:white; stroke-width:1; stroke:black; " description="&lt;b&gt;ctg31_17&lt;/b&gt;&lt;br&gt;ctg31 17&lt;br&gt;Location: 17400 - 23442" locus_tag="ctg31_17" class="clusterblast-orf" id="knownclusterblast-1_q16_0_all"  />
<polygon points="357,40 395,40 400,35 395,30 357,30 357,40 " style="fill:white; stroke-width:1; stroke:black; " description="&lt;b&gt;ctg31_18&lt;/b&gt;&lt;br&gt;ctg31 18&lt;br&gt;Location: 23441 - 26192" locus_tag="ctg31_18" class="clusterblast-orf" id="knownclusterblast-1_q17_0_all"  />
<polygon points="400,40 472,40 477,35 472,30 400,30 400,40 " style="fill:white; stroke-width:1; stroke:black; " description="&lt;b&gt;ctg31_19&lt;/b&gt;&lt;br&gt;ctg31 19&lt;br&gt;Location: 26188 - 31108" locus_tag="ctg31_19" class="clusterblast-orf" id="knownclusterblast-1_q18_0_all"  />
<polygon points="478,40 478,40 483,35 478,30 478,30 478,40 " style="fill:white; stroke-width:1; stroke:black; " description="&lt;b&gt;ctg31_20&lt;/b&gt;&lt;br&gt;ctg31 20&lt;br&gt;Location: 31174 - 31489" locus_tag="ctg31_20" class="clusterblast-orf" id="knownclusterblast-1_q19_0_all"  />
<polygon points="483,40 503,40 508,35 503,30 483,30 483,40 " style="fill:white; stroke-width:1; stroke:black; " description="&lt;b&gt;ctg31_21&lt;/b&gt;&lt;br&gt;ctg31 21&lt;br&gt;Location: 31485 - 33084" locus_tag="ctg31_21" class="clusterblast-orf" id="knownclusterblast-1_q20_0_all"  />
<polygon points="511,40 548,40 553,35 548,30 511,30 511,40 " style="fill:white; stroke-width:1; stroke:black; " description="&lt;b&gt;ctg31_22&lt;/b&gt;&lt;br&gt;ctg31 22&lt;br&gt;Location: 33305 - 35960" locus_tag="ctg31_22" class="clusterblast-orf" id="knownclusterblast-1_q21_0_all"  />
<polygon points="553,40 557,40 562,35 557,30 553,30 553,40 " style="fill:white; stroke-width:1; stroke:black; " description="&lt;b&gt;ctg31_23&lt;/b&gt;&lt;br&gt;ctg31 23&lt;br&gt;Location: 36022 - 36544" locus_tag="ctg31_23" class="clusterblast-orf" id="knownclusterblast-1_q22_0_all"  />
<polygon points="563,40 577,40 582,35 577,30 563,30 563,40 " style="fill:white; stroke-width:1; stroke:black; " description="&lt;b&gt;ctg31_24&lt;/b&gt;&lt;br&gt;ctg31 24&lt;br&gt;Location: 36641 - 37829" locus_tag="ctg31_24" class="clusterblast-orf" id="knownclusterblast-1_q23_0_all"  />
<polygon points="593,40 602,40 607,35 602,30 593,30 593,40 " style="fill:white; stroke-width:1; stroke:black; " description="&lt;b&gt;ctg31_25&lt;/b&gt;&lt;br&gt;ctg31 25&lt;br&gt;Location: 38578 - 39454" locus_tag="ctg31_25" class="clusterblast-orf" id="knownclusterblast-1_q24_0_all"  />
<polygon points="608,35 613,30 627,30 627,40 613,40 608,35 " style="fill:white; stroke-width:1; stroke:black; " description="&lt;b&gt;ctg31_26&lt;/b&gt;&lt;br&gt;ctg31 26&lt;br&gt;Location: 39528 - 40728" locus_tag="ctg31_26" class="clusterblast-orf" id="knownclusterblast-1_q25_0_all"  />
<polygon points="632,35 637,30 649,30 649,40 637,40 632,35 " style="fill:white; stroke-width:1; stroke:black; " description="&lt;b&gt;ctg31_27&lt;/b&gt;&lt;br&gt;ctg31 27&lt;br&gt;Location: 41076 - 42141" locus_tag="ctg31_27" class="clusterblast-orf" id="knownclusterblast-1_q26_0_all"  />
<polygon points="649,35 654,30 654,30 654,40 654,40 649,35 " style="fill:white; stroke-width:1; stroke:black; " description="&lt;b&gt;ctg31_28&lt;/b&gt;&lt;br&gt;ctg31 28&lt;br&gt;Location: 42177 - 42495" locus_tag="ctg31_28" class="clusterblast-orf" id="knownclusterblast-1_q27_0_all"  />
<polygon points="656,35 661,30 692,30 692,40 661,40 656,35 " style="fill:white; stroke-width:1; stroke:black; " description="&lt;b&gt;ctg31_29&lt;/b&gt;&lt;br&gt;ctg31 29&lt;br&gt;Location: 42582 - 44919" locus_tag="ctg31_29" class="clusterblast-orf" id="knownclusterblast-1_q28_0_all"  />
<polygon points="700,35 705,30 708,30 708,40 705,40 700,35 " style="fill:white; stroke-width:1; stroke:black; " description="&lt;b&gt;ctg31_30&lt;/b&gt;&lt;br&gt;ctg31 30&lt;br&gt;Location: 45440 - 45938" locus_tag="ctg31_30" class="clusterblast-orf" id="knownclusterblast-1_q29_0_all"  />
<polygon points="708,40 716,40 721,35 716,30 708,30 708,40 " style="fill:white; stroke-width:1; stroke:black; " description="&lt;b&gt;ctg31_31&lt;/b&gt;&lt;br&gt;ctg31 31&lt;br&gt;Location: 45955 - 46792" locus_tag="ctg31_31" class="clusterblast-orf" id="knownclusterblast-1_q30_0_all"  />
<polygon points="725,40 736,40 741,35 736,30 725,30 725,40 " style="fill:white; stroke-width:1; stroke:black; " description="&lt;b&gt;ctg31_32&lt;/b&gt;&lt;br&gt;ctg31 32&lt;br&gt;Location: 47022 - 48030" locus_tag="ctg31_32" class="clusterblast-orf" id="knownclusterblast-1_q31_0_all"  />
<polygon points="741,40 748,40 753,35 748,30 741,30 741,40 " style="fill:white; stroke-width:1; stroke:black; " description="&lt;b&gt;ctg31_33&lt;/b&gt;&lt;br&gt;ctg31 33&lt;br&gt;Location: 48029 - 48842" locus_tag="ctg31_33" class="clusterblast-orf" id="knownclusterblast-1_q32_0_all"  />
<polygon points="755,40 775,40 780,35 775,30 755,30 755,40 " style="fill:white; stroke-width:1; stroke:black; " description="&lt;b&gt;ctg31_34&lt;/b&gt;&lt;br&gt;ctg31 34&lt;br&gt;Location: 48920 - 50534" locus_tag="ctg31_34" class="clusterblast-orf" id="knownclusterblast-1_q33_0_all"  />
</g>
</svg>
