<svg xmlns="http://www.w3.org/2000/svg" xmlns:xlink="http://www.w3.org/1999/xlink" version="1.1" x="0" y="0" height="230" width="800" viewBox="0 0 800 230" preserveAspectRatio="none"  >
<g label="Query sequence" class="clusterblast-cluster"  >
<text x="5" y="20" class="clusterblast-acc"  >
Query sequence</text>
<line x1="10" y1="35" x2="778.0" y2="35" style="stroke-width:1; stroke:grey; "  />
<polygon points="54,40 110,40 115,35 110,30 54,30 54,40 " style="fill:white; stroke-width:1; stroke:black; " description="&lt;b&gt;ctg35_27&lt;/b&gt;&lt;br&gt;ctg35 27&lt;br&gt;Location: 31729 - 34594" locus_tag="ctg35_27" class="clusterblast-orf" id="dummy-1_q0_0_all"  />
<polygon points="116,35 121,30 141,30 141,40 121,40 116,35 " style="fill:#d81515; stroke-width:1; stroke:black; " description="&lt;b&gt;ctg35_28&lt;/b&gt;&lt;br&gt;ctg35 28&lt;br&gt;Location: 34635 - 35802" locus_tag="ctg35_28" class="clusterblast-orf" id="dummy-1_q1_0_all"  />
<polygon points="142,35 147,30 167,30 167,40 147,40 142,35 " style="fill:#77d815; stroke-width:1; stroke:black; " description="&lt;b&gt;ctg35_29&lt;/b&gt;&lt;br&gt;ctg35 29&lt;br&gt;Location: 35849 - 37028" locus_tag="ctg35_29" class="clusterblast-orf" id="dummy-1_q2_0_all"  />
<polygon points="169,35 174,30 179,30 179,40 174,40 169,35 " style="fill:#15d8d8; stroke-width:1; stroke:black; " description="&lt;b&gt;ctg35_30&lt;/b&gt;&lt;br&gt;ctg35 30&lt;br&gt;Location: 37121 - 37571" locus_tag="ctg35_30" class="clusterblast-orf" id="dummy-1_q3_0_all"  />
<polygon points="184,40 188,35 184,30 184,40 " style="fill:white; stroke-width:1; stroke:black; " description="&lt;b&gt;ctg35_31&lt;/b&gt;&lt;br&gt;ctg35 31&lt;br&gt;Location: 37803 - 37968" locus_tag="ctg35_31" class="clusterblast-orf" id="dummy-1_q4_0_all"  />
<polygon points="189,40 219,40 224,35 219,30 189,30 189,40 " style="fill:#7715d8; stroke-width:1; stroke:black; " description="&lt;b&gt;ctg35_32&lt;/b&gt;&lt;br&gt;ctg35 32&lt;br&gt;Location: 38038 - 39661" locus_tag="ctg35_32" class="clusterblast-orf" id="dummy-1_q5_0_all"  />
<polygon points="226,40 252,40 257,35 252,30 226,30 226,40 " style="fill:#d85015; stroke-width:1; stroke:black; " description="&lt;b&gt;ctg35_33&lt;/b&gt;&lt;br&gt;ctg35 33&lt;br&gt;Location: 39741 - 41196" locus_tag="ctg35_33" class="clusterblast-orf" id="dummy-1_q6_0_all"  />
<polygon points="268,40 286,40 291,35 286,30 268,30 268,40 " style="fill:white; stroke-width:1; stroke:black; " description="&lt;b&gt;ctg35_34&lt;/b&gt;&lt;br&gt;ctg35 34&lt;br&gt;Location: 41716 - 42796" locus_tag="ctg35_34" class="clusterblast-orf" id="dummy-1_q7_0_all"  />
<polygon points="302,40 313,40 318,35 313,30 302,30 302,40 " style="fill:#3cd815; stroke-width:1; stroke:black; " description="&lt;b&gt;ctg35_35&lt;/b&gt;&lt;br&gt;ctg35 35&lt;br&gt;Location: 43309 - 44074" locus_tag="ctg35_35" class="clusterblast-orf" id="dummy-1_q8_0_all"  />
<polygon points="326,40 334,40 339,35 334,30 326,30 326,40 " style="fill:#159ed8; stroke-width:1; stroke:black; " description="&lt;b&gt;ctg35_36&lt;/b&gt;&lt;br&gt;ctg35 36&lt;br&gt;Location: 44456 - 45035" locus_tag="ctg35_36" class="clusterblast-orf" id="dummy-1_q9_0_all"  />
<polygon points="340,40 361,40 366,35 361,30 340,30 340,40 " style="fill:#b115d8; stroke-width:1; stroke:black; " description="&lt;b&gt;ctg35_37&lt;/b&gt;&lt;br&gt;ctg35 37&lt;br&gt;Location: 45103 - 46324" locus_tag="ctg35_37" class="clusterblast-orf" id="dummy-1_q10_0_all"  />
<polygon points="375,40 390,40 395,35 390,30 375,30 375,40 " style="fill:#d88a15; stroke-width:1; stroke:black; " description="&lt;b&gt;ctg35_38&lt;/b&gt;&lt;br&gt;ctg35 38&lt;br&gt;Location: 46718 - 47678" locus_tag="ctg35_38" class="clusterblast-orf" id="dummy-1_q11_0_all"  />
<polygon points="397,35 400,30 400,40 397,35 " style="fill:white; stroke-width:1; stroke:black; " description="&lt;b&gt;ctg35_39&lt;/b&gt;&lt;br&gt;ctg35 39&lt;br&gt;Location: 47752 - 47902" locus_tag="ctg35_39" class="clusterblast-orf" id="dummy-1_q12_0_all"  />
<polygon points="404,40 421,40 426,35 421,30 404,30 404,40 " style="fill:#d88a15; stroke-width:1; stroke:black; " description="&lt;b&gt;ctg35_40&lt;/b&gt;&lt;br&gt;ctg35 40&lt;br&gt;Location: 48100 - 49096" locus_tag="ctg35_40" class="clusterblast-orf" id="dummy-1_q13_0_all"  />
<polygon points="426,40 438,40 443,35 438,30 426,30 426,40 " style="fill:#15d829; stroke-width:1; stroke:black; " description="&lt;b&gt;ctg35_41&lt;/b&gt;&lt;br&gt;ctg35 41&lt;br&gt;Location: 49095 - 49914" locus_tag="ctg35_41" class="clusterblast-orf" id="dummy-1_q14_0_all"  />
<polygon points="450,40 465,40 470,35 465,30 450,30 450,40 " style="fill:#1563d8; stroke-width:1; stroke:black; " description="&lt;b&gt;ctg35_42&lt;/b&gt;&lt;br&gt;ctg35 42&lt;br&gt;Location: 50231 - 51158" locus_tag="ctg35_42" class="clusterblast-orf" id="dummy-1_q15_0_all"  />
<polygon points="475,40 512,40 517,35 512,30 475,30 475,40 " style="fill:#d815c5; stroke-width:1; stroke:black; " description="&lt;b&gt;ctg35_43&lt;/b&gt;&lt;br&gt;ctg35 43&lt;br&gt;Location: 51402 - 53355" locus_tag="ctg35_43" class="clusterblast-orf" id="dummy-1_q16_0_all"  />
<polygon points="522,40 541,40 546,35 541,30 522,30 522,40 " style="fill:#d8c515; stroke-width:1; stroke:black; " description="&lt;b&gt;ctg35_44&lt;/b&gt;&lt;br&gt;ctg35 44&lt;br&gt;Location: 53573 - 54710" locus_tag="ctg35_44" class="clusterblast-orf" id="dummy-1_q17_0_all"  />
<polygon points="550,40 564,40 569,35 564,30 550,30 550,40 " style="fill:#15d863; stroke-width:1; stroke:black; " description="&lt;b&gt;ctg35_45&lt;/b&gt;&lt;br&gt;ctg35 45&lt;br&gt;Location: 54887 - 55793" locus_tag="ctg35_45" class="clusterblast-orf" id="dummy-1_q18_0_all"  />
<polygon points="571,40 613,40 618,35 613,30 571,30 571,40 " style="fill:#1529d8; stroke-width:1; stroke:black; " description="&lt;b&gt;ctg35_46&lt;/b&gt;&lt;br&gt;ctg35 46&lt;br&gt;Location: 55875 - 58080" locus_tag="ctg35_46" class="clusterblast-orf" id="dummy-1_q19_0_all"  />
<polygon points="622,40 635,40 640,35 635,30 622,30 622,40 " style="fill:#d8158a; stroke-width:1; stroke:black; " description="&lt;b&gt;ctg35_47&lt;/b&gt;&lt;br&gt;ctg35 47&lt;br&gt;Location: 58261 - 59113" locus_tag="ctg35_47" class="clusterblast-orf" id="dummy-1_q20_0_all"  />
<polygon points="641,40 654,40 659,35 654,30 641,30 641,40 " style="fill:#b1d815; stroke-width:1; stroke:black; " description="&lt;b&gt;ctg35_48&lt;/b&gt;&lt;br&gt;ctg35 48&lt;br&gt;Location: 59160 - 59985" locus_tag="ctg35_48" class="clusterblast-orf" id="dummy-1_q21_0_all"  />
<polygon points="660,40 682,40 687,35 682,30 660,30 660,40 " style="fill:#15d89e; stroke-width:1; stroke:black; " description="&lt;b&gt;ctg35_49&lt;/b&gt;&lt;br&gt;ctg35 49&lt;br&gt;Location: 60041 - 61289" locus_tag="ctg35_49" class="clusterblast-orf" id="dummy-1_q22_0_all"  />
<polygon points="688,40 706,40 711,35 706,30 688,30 688,40 " style="fill:#3c15d8; stroke-width:1; stroke:black; " description="&lt;b&gt;ctg35_50&lt;/b&gt;&lt;br&gt;ctg35 50&lt;br&gt;Location: 61328 - 62426" locus_tag="ctg35_50" class="clusterblast-orf" id="dummy-1_q23_0_all"  />
<polygon points="712,40 720,40 725,35 720,30 712,30 712,40 " style="fill:#d81550; stroke-width:1; stroke:black; " description="&lt;b&gt;ctg35_51&lt;/b&gt;&lt;br&gt;ctg35 51&lt;br&gt;Location: 62450 - 63095" locus_tag="ctg35_51" class="clusterblast-orf" id="dummy-1_q24_0_all"  />
</g>
<g label="BGC0000668" description="BGC0000668_c1: 12-epi-hapalindole C isonitrile / 12-epi-hapalindole E / 12-ep... (50% of genes show similarity), Terpene + Alkaloid" class="clusterblast-cluster"  >
<text x="5" y="70" class="clusterblast-acc"  >
<a xlink:href="https://mibig.secondarymetabolites.org/go/BGC0000668/1" target="_blank">BGC0000668</a>: 12-epi-hapalindole C isonitrile / 12-epi-hapalindole E / 12-epi-fischerindole U isonitrile / fischerindole L / 12-epi-fischerindole I isonitrile / welwitindolinone A isonitrile / welwitindolinone B isothiocyanate / welwitindolinone C isothiocyanate / N-methylwelwitindolinone C isothiocyanate / N-methylwelwitinsolinone C isonitrile / 3-epi-welwitindolinone B isothiocyanate / 3-(Z-2'-isocyanoethenyl)-indole (50% of genes show similarity), Terpene + Alkaloid</text>
<line x1="10" y1="85" x2="778.0" y2="85" style="stroke-width:1; stroke:grey; "  />
</g>
<g id="a1_000"  >
<polygon points="0,90 7,90 12,85 7,80 0,80 0,90 " style="fill:#159ed8; stroke-width:1; stroke:black; " description="&lt;b&gt;AHI58845.1&lt;/b&gt;&lt;br&gt;dephospho-CoA kinase-like protein&lt;br&gt;Location: 36570 - 35993&lt;br&gt;&lt;br&gt;&lt;b&gt;BlastP hit with ctg35_36&lt;/b&gt;&lt;br&gt;Percentage identity: 91&lt;br&gt;Percentage coverage: 99&lt;br&gt;BLAST bit score: 339&lt;br&gt;E-value: 4.6e-93" locus_tag="AHI58845.1" class="clusterblast-orf" id="dummy-1_h1_6_0"  />
</g>
<g id="a1_001"  >
<polygon points="14,90 34,90 39,85 34,80 14,80 14,90 " style="fill:#b115d8; stroke-width:1; stroke:black; " description="&lt;b&gt;AHI58844.1&lt;/b&gt;&lt;br&gt;1-deoxy-D-xylulose 5-phosphate reductoisomerase (IspC, Dxr)&lt;br&gt;Location: 35877 - 34708&lt;br&gt;&lt;br&gt;&lt;b&gt;BlastP hit with ctg35_37&lt;/b&gt;&lt;br&gt;Percentage identity: 95&lt;br&gt;Percentage coverage: 96&lt;br&gt;BLAST bit score: 739&lt;br&gt;E-value: 2.5e-213" locus_tag="AHI58844.1" class="clusterblast-orf" id="dummy-1_h1_6_1"  />
</g>
<g id="a1_002"  >
<polygon points="45,85 50,80 56,80 56,90 50,90 45,85 " style="fill:white; stroke-width:1; stroke:black; " description="&lt;b&gt;AHI58843.1&lt;/b&gt;&lt;br&gt;transposase&lt;br&gt;Location: 34446 - 33931" locus_tag="AHI58843.1" class="clusterblast-orf" id="dummy-1_h1_6_2"  />
</g>
<g id="a1_003"  >
<polygon points="57,85 62,80 68,80 68,90 62,90 57,85 " style="fill:white; stroke-width:1; stroke:black; " description="&lt;b&gt;AHI58842.1&lt;/b&gt;&lt;br&gt;transposase&lt;br&gt;Location: 33895 - 33386" locus_tag="AHI58842.1" class="clusterblast-orf" id="dummy-1_h1_6_3"  />
</g>
<g id="a1_004"  >
<polygon points="74,90 90,90 95,85 90,80 74,80 74,90 " style="fill:#d88a15; stroke-width:1; stroke:black; " description="&lt;b&gt;AHI58841.1&lt;/b&gt;&lt;br&gt;isonitrile indole synthase A (IsnA)&lt;br&gt;Location: 33102 - 32131&lt;br&gt;&lt;br&gt;&lt;b&gt;BlastP hit with ctg35_38&lt;/b&gt;&lt;br&gt;Percentage identity: 89&lt;br&gt;Percentage coverage: 100&lt;br&gt;BLAST bit score: 603&lt;br&gt;E-value: 2.2e-172&lt;br&gt;&lt;br&gt;&lt;b&gt;BlastP hit with ctg35_40&lt;/b&gt;&lt;br&gt;Percentage identity: 65&lt;br&gt;Percentage coverage: 93&lt;br&gt;BLAST bit score: 438&lt;br&gt;E-value: 1.3e-122" locus_tag="AHI58841.1" class="clusterblast-orf" id="dummy-1_h1_6_4"  />
</g>
<g id="a1_005"  >
<polygon points="103,90 120,90 125,85 120,80 103,80 103,90 " style="fill:#d88a15; stroke-width:1; stroke:black; " description="&lt;b&gt;AHI58840.1&lt;/b&gt;&lt;br&gt;isonitrile indole synthase A (IsnA)&lt;br&gt;Location: 31723 - 30728&lt;br&gt;&lt;br&gt;&lt;b&gt;BlastP hit with ctg35_38&lt;/b&gt;&lt;br&gt;Percentage identity: 65&lt;br&gt;Percentage coverage: 96&lt;br&gt;BLAST bit score: 444&lt;br&gt;E-value: 1.3e-124&lt;br&gt;&lt;br&gt;&lt;b&gt;BlastP hit with ctg35_40&lt;/b&gt;&lt;br&gt;Percentage identity: 91&lt;br&gt;Percentage coverage: 100&lt;br&gt;BLAST bit score: 626&lt;br&gt;E-value: 1.9e-179" locus_tag="AHI58840.1" class="clusterblast-orf" id="dummy-1_h1_6_5"  />
</g>
<g id="a1_006"  >
<polygon points="124,90 137,90 142,85 137,80 124,80 124,90 " style="fill:#15d829; stroke-width:1; stroke:black; " description="&lt;b&gt;AHI58839.1&lt;/b&gt;&lt;br&gt;isonitrile indole synthase B (IsnB)&lt;br&gt;Location: 30731 - 29910&lt;br&gt;&lt;br&gt;&lt;b&gt;BlastP hit with ctg35_41&lt;/b&gt;&lt;br&gt;Percentage identity: 91&lt;br&gt;Percentage coverage: 100&lt;br&gt;BLAST bit score: 525&lt;br&gt;E-value: 3.8e-149" locus_tag="AHI58839.1" class="clusterblast-orf" id="dummy-1_h1_6_6"  />
</g>
<g id="a1_007"  >
<polygon points="149,90 164,90 169,85 164,80 149,80 149,90 " style="fill:#1563d8; stroke-width:1; stroke:black; " description="&lt;b&gt;AHI58838.1&lt;/b&gt;&lt;br&gt;aromatic prenyl transferase&lt;br&gt;Location: 29593 - 28667&lt;br&gt;&lt;br&gt;&lt;b&gt;BlastP hit with ctg35_42&lt;/b&gt;&lt;br&gt;Percentage identity: 95&lt;br&gt;Percentage coverage: 100&lt;br&gt;BLAST bit score: 609&lt;br&gt;E-value: 3.8e-174" locus_tag="AHI58838.1" class="clusterblast-orf" id="dummy-1_h1_6_7"  />
</g>
<g id="a1_008"  >
<polygon points="174,90 211,90 216,85 211,80 174,80 174,90 " style="fill:#d815c5; stroke-width:1; stroke:black; " description="&lt;b&gt;AHI58837.1&lt;/b&gt;&lt;br&gt;1-deoxy-D-xylulose-5-phosphate synthase (DXS)&lt;br&gt;Location: 28413 - 26470&lt;br&gt;&lt;br&gt;&lt;b&gt;BlastP hit with ctg35_43&lt;/b&gt;&lt;br&gt;Percentage identity: 96&lt;br&gt;Percentage coverage: 100&lt;br&gt;BLAST bit score: 1239&lt;br&gt;E-value: 0.0" locus_tag="AHI58837.1" class="clusterblast-orf" id="dummy-1_h1_6_8"  />
</g>
<g id="a1_009"  >
<polygon points="217,90 238,90 243,85 238,80 217,80 217,90 " style="fill:#d8c515; stroke-width:1; stroke:black; " description="&lt;b&gt;AHI58836.1&lt;/b&gt;&lt;br&gt;4-hydroxy-3-methylbut-2-en-1-yl diphosphate synthase (IspG)&lt;br&gt;Location: 26397 - 25171&lt;br&gt;&lt;br&gt;&lt;b&gt;BlastP hit with ctg35_44&lt;/b&gt;&lt;br&gt;Percentage identity: 98&lt;br&gt;Percentage coverage: 100&lt;br&gt;BLAST bit score: 738&lt;br&gt;E-value: 6.7e-213" locus_tag="AHI58836.1" class="clusterblast-orf" id="dummy-1_h1_6_9"  />
</g>
<g id="a1_0010"  >
<polygon points="246,90 261,90 266,85 261,80 246,80 246,90 " style="fill:#15d863; stroke-width:1; stroke:black; " description="&lt;b&gt;AHI58835.1&lt;/b&gt;&lt;br&gt;3-deoxy-D-arabinoheptulosonate 7-phosphate (DAHP) synthase&lt;br&gt;Location: 25030 - 24125&lt;br&gt;&lt;br&gt;&lt;b&gt;BlastP hit with ctg35_45&lt;/b&gt;&lt;br&gt;Percentage identity: 96&lt;br&gt;Percentage coverage: 100&lt;br&gt;BLAST bit score: 574&lt;br&gt;E-value: 1e-163" locus_tag="AHI58835.1" class="clusterblast-orf" id="dummy-1_h1_6_10"  />
</g>
<g id="a1_0011"  >
<polygon points="267,90 309,90 314,85 309,80 267,80 267,90 " style="fill:#1529d8; stroke-width:1; stroke:black; " description="&lt;b&gt;AHI58834.1&lt;/b&gt;&lt;br&gt;anthranilate synthase (TrpE)&lt;br&gt;Location: 24071 - 21867&lt;br&gt;&lt;br&gt;&lt;b&gt;BlastP hit with ctg35_46&lt;/b&gt;&lt;br&gt;Percentage identity: 91&lt;br&gt;Percentage coverage: 100&lt;br&gt;BLAST bit score: 1361&lt;br&gt;E-value: 0.0" locus_tag="AHI58834.1" class="clusterblast-orf" id="dummy-1_h1_6_11"  />
</g>
<g id="a1_0012"  >
<polygon points="317,90 331,90 336,85 331,80 317,80 317,90 " style="fill:#d8158a; stroke-width:1; stroke:black; " description="&lt;b&gt;AHI58833.1&lt;/b&gt;&lt;br&gt;indole-3-glycerol phosphate synthase (TrpC)&lt;br&gt;Location: 21724 - 20861&lt;br&gt;&lt;br&gt;&lt;b&gt;BlastP hit with ctg35_47&lt;/b&gt;&lt;br&gt;Percentage identity: 91&lt;br&gt;Percentage coverage: 100&lt;br&gt;BLAST bit score: 493&lt;br&gt;E-value: 1.7e-139" locus_tag="AHI58833.1" class="clusterblast-orf" id="dummy-1_h1_6_12"  />
</g>
<g id="a1_0013"  >
<polygon points="337,90 350,90 355,85 350,80 337,80 337,90 " style="fill:#b1d815; stroke-width:1; stroke:black; " description="&lt;b&gt;AHI58832.1&lt;/b&gt;&lt;br&gt;tryptophan synthase subunit alpha (TrpA)&lt;br&gt;Location: 20778 - 19954&lt;br&gt;&lt;br&gt;&lt;b&gt;BlastP hit with ctg35_48&lt;/b&gt;&lt;br&gt;Percentage identity: 89&lt;br&gt;Percentage coverage: 100&lt;br&gt;BLAST bit score: 478&lt;br&gt;E-value: 9.1e-135" locus_tag="AHI58832.1" class="clusterblast-orf" id="dummy-1_h1_6_13"  />
</g>
<g id="a1_0014"  >
<polygon points="358,90 380,90 385,85 380,80 358,80 358,90 " style="fill:#15d89e; stroke-width:1; stroke:black; " description="&lt;b&gt;AHI58831.1&lt;/b&gt;&lt;br&gt;tryptophan synthase subunit beta (TrpB)&lt;br&gt;Location: 19814 - 18567&lt;br&gt;&lt;br&gt;&lt;b&gt;BlastP hit with ctg35_49&lt;/b&gt;&lt;br&gt;Percentage identity: 94&lt;br&gt;Percentage coverage: 100&lt;br&gt;BLAST bit score: 794&lt;br&gt;E-value: 8.7e-230" locus_tag="AHI58831.1" class="clusterblast-orf" id="dummy-1_h1_6_14"  />
</g>
<g id="a1_0015"  >
<polygon points="385,90 404,90 409,85 404,80 385,80 385,90 " style="fill:#3c15d8; stroke-width:1; stroke:black; " description="&lt;b&gt;AHI58830.1&lt;/b&gt;&lt;br&gt;anthranilate phosphoribosyltransferase (TrpD)&lt;br&gt;Location: 18542 - 17445&lt;br&gt;&lt;br&gt;&lt;b&gt;BlastP hit with ctg35_50&lt;/b&gt;&lt;br&gt;Percentage identity: 93&lt;br&gt;Percentage coverage: 100&lt;br&gt;BLAST bit score: 653&lt;br&gt;E-value: 2.1e-187" locus_tag="AHI58830.1" class="clusterblast-orf" id="dummy-1_h1_6_15"  />
</g>
<g id="a1_0016"  >
<polygon points="409,90 418,90 423,85 418,80 409,80 409,90 " style="fill:#d81550; stroke-width:1; stroke:black; " description="&lt;b&gt;AHI58829.1&lt;/b&gt;&lt;br&gt;phosphoglycerate mutase family protein&lt;br&gt;Location: 17420 - 16776&lt;br&gt;&lt;br&gt;&lt;b&gt;BlastP hit with ctg35_51&lt;/b&gt;&lt;br&gt;Percentage identity: 94&lt;br&gt;Percentage coverage: 100&lt;br&gt;BLAST bit score: 409&lt;br&gt;E-value: 4e-114" locus_tag="AHI58829.1" class="clusterblast-orf" id="dummy-1_h1_6_16"  />
</g>
<g id="a1_0017"  >
<polygon points="425,85 430,80 449,80 449,90 430,90 425,85 " style="fill:white; stroke-width:1; stroke:black; " description="&lt;b&gt;AHI58828.1&lt;/b&gt;&lt;br&gt;putative two component response regulator&lt;br&gt;Location: 16668 - 15577" locus_tag="AHI58828.1" class="clusterblast-orf" id="dummy-1_h1_6_17"  />
</g>
<g id="a1_0018"  >
<polygon points="461,90 472,90 477,85 472,80 461,80 461,90 " style="fill:white; stroke-width:1; stroke:black; " description="&lt;b&gt;AHI58827.1&lt;/b&gt;&lt;br&gt;LuxR family transcriptional regulator&lt;br&gt;Location: 15009 - 14278" locus_tag="AHI58827.1" class="clusterblast-orf" id="dummy-1_h1_6_18"  />
</g>
<g id="a1_0019"  >
<polygon points="481,85 486,80 496,80 496,90 486,90 481,85 " style="fill:white; stroke-width:1; stroke:black; " description="&lt;b&gt;AHI58826.1&lt;/b&gt;&lt;br&gt;LuxR family transcriptional regulator&lt;br&gt;Location: 14056 - 13352" locus_tag="AHI58826.1" class="clusterblast-orf" id="dummy-1_h1_6_19"  />
</g>
<g id="a1_0020"  >
<polygon points="531,90 548,90 553,85 548,80 531,80 531,90 " style="fill:white; stroke-width:1; stroke:black; " description="&lt;b&gt;AHI58825.1&lt;/b&gt;&lt;br&gt;geranyl diphosphate synthase&lt;br&gt;Location: 11727 - 10723" locus_tag="AHI58825.1" class="clusterblast-orf" id="dummy-1_h1_6_20"  />
</g>
<g id="a1_0021"  >
<polygon points="553,90 575,90 580,85 575,80 553,80 553,90 " style="fill:white; stroke-width:1; stroke:black; " description="&lt;b&gt;AHI58824.1&lt;/b&gt;&lt;br&gt;4-hydroxy-3-methylbut-2-enyl diphosphate reductase(IspH)&lt;br&gt;Location: 10686 - 9427" locus_tag="AHI58824.1" class="clusterblast-orf" id="dummy-1_h1_6_21"  />
</g>
<g id="a1_0022"  >
<polygon points="582,90 592,90 597,85 592,80 582,80 582,90 " style="fill:white; stroke-width:1; stroke:black; " description="&lt;b&gt;AHI58823.1&lt;/b&gt;&lt;br&gt;Unknown&lt;br&gt;Location: 9354 - 8668" locus_tag="AHI58823.1" class="clusterblast-orf" id="dummy-1_h1_6_22"  />
</g>
<g id="a1_0023"  >
<polygon points="601,90 619,90 624,85 619,80 601,80 601,90 " style="fill:white; stroke-width:1; stroke:black; " description="&lt;b&gt;AHI58822.1&lt;/b&gt;&lt;br&gt;Rieske oxygenase&lt;br&gt;Location: 8486 - 7404" locus_tag="AHI58822.1" class="clusterblast-orf" id="dummy-1_h1_6_23"  />
</g>
<g id="a1_0024"  >
<polygon points="628,90 646,90 651,85 646,80 628,80 628,90 " style="fill:white; stroke-width:1; stroke:black; " description="&lt;b&gt;AHI58821.1&lt;/b&gt;&lt;br&gt;Rieske oxygenase&lt;br&gt;Location: 7197 - 6124" locus_tag="AHI58821.1" class="clusterblast-orf" id="dummy-1_h1_6_24"  />
</g>
<g id="a1_0025"  >
<polygon points="655,90 674,90 679,85 674,80 655,80 655,90 " style="fill:white; stroke-width:1; stroke:black; " description="&lt;b&gt;AHI58820.1&lt;/b&gt;&lt;br&gt;Rieske oxygenase&lt;br&gt;Location: 5928 - 4840" locus_tag="AHI58820.1" class="clusterblast-orf" id="dummy-1_h1_6_25"  />
</g>
<g id="a1_0026"  >
<polygon points="682,90 700,90 705,85 700,80 682,80 682,90 " style="fill:white; stroke-width:1; stroke:black; " description="&lt;b&gt;AHI58819.1&lt;/b&gt;&lt;br&gt;Rieske oxygenase&lt;br&gt;Location: 4672 - 3593" locus_tag="AHI58819.1" class="clusterblast-orf" id="dummy-1_h1_6_26"  />
</g>
<g id="a1_0027"  >
<polygon points="706,90 715,90 720,85 715,80 706,80 706,90 " style="fill:white; stroke-width:1; stroke:black; " description="&lt;b&gt;AHI58818.1&lt;/b&gt;&lt;br&gt;Unknown&lt;br&gt;Location: 3572 - 2892" locus_tag="AHI58818.1" class="clusterblast-orf" id="dummy-1_h1_6_27"  />
</g>
<g id="a1_0028"  >
<polygon points="722,90 739,90 744,85 739,80 722,80 722,90 " style="fill:white; stroke-width:1; stroke:black; " description="&lt;b&gt;AHI58817.1&lt;/b&gt;&lt;br&gt;N-methyl transferase&lt;br&gt;Location: 2822 - 1779" locus_tag="AHI58817.1" class="clusterblast-orf" id="dummy-1_h1_6_28"  />
</g>
<g id="a1_0029"  >
<polygon points="761,90 775,90 780,85 775,80 761,80 761,90 " style="fill:white; stroke-width:1; stroke:black; " description="&lt;b&gt;AHI58816.1&lt;/b&gt;&lt;br&gt;halogenase, 2OG-Fe(II) oxygenase family&lt;br&gt;Location: 998 - 126" locus_tag="AHI58816.1" class="clusterblast-orf" id="dummy-1_h1_6_29"  />
</g>
</svg>
