<svg xmlns="http://www.w3.org/2000/svg" xmlns:xlink="http://www.w3.org/1999/xlink" version="1.1" x="0" y="0" height="230" width="800" viewBox="0 0 800 230" preserveAspectRatio="none"  >
<g label="Query sequence" class="clusterblast-cluster"  >
<text x="5" y="20" class="clusterblast-acc"  >
Query sequence</text>
<line x1="10" y1="35" x2="778.0" y2="35" style="stroke-width:1; stroke:grey; "  />
<polygon points="18,40 81,40 86,35 81,30 18,30 18,40 " style="fill:white; stroke-width:1; stroke:black; " description="&lt;b&gt;ctg35_27&lt;/b&gt;&lt;br&gt;ctg35 27&lt;br&gt;Location: 31729 - 34594" locus_tag="ctg35_27" class="clusterblast-orf" id="dummy-1_q0_0_all"  />
<polygon points="87,35 92,30 115,30 115,40 92,40 87,35 " style="fill:#d81515; stroke-width:1; stroke:black; " description="&lt;b&gt;ctg35_28&lt;/b&gt;&lt;br&gt;ctg35 28&lt;br&gt;Location: 34635 - 35802" locus_tag="ctg35_28" class="clusterblast-orf" id="dummy-1_q1_0_all"  />
<polygon points="116,35 121,30 144,30 144,40 121,40 116,35 " style="fill:#77d815; stroke-width:1; stroke:black; " description="&lt;b&gt;ctg35_29&lt;/b&gt;&lt;br&gt;ctg35 29&lt;br&gt;Location: 35849 - 37028" locus_tag="ctg35_29" class="clusterblast-orf" id="dummy-1_q2_0_all"  />
<polygon points="146,35 151,30 157,30 157,40 151,40 146,35 " style="fill:#15d8d8; stroke-width:1; stroke:black; " description="&lt;b&gt;ctg35_30&lt;/b&gt;&lt;br&gt;ctg35 30&lt;br&gt;Location: 37121 - 37571" locus_tag="ctg35_30" class="clusterblast-orf" id="dummy-1_q3_0_all"  />
<polygon points="162,40 166,35 162,30 162,40 " style="fill:white; stroke-width:1; stroke:black; " description="&lt;b&gt;ctg35_31&lt;/b&gt;&lt;br&gt;ctg35 31&lt;br&gt;Location: 37803 - 37968" locus_tag="ctg35_31" class="clusterblast-orf" id="dummy-1_q4_0_all"  />
<polygon points="168,40 201,40 206,35 201,30 168,30 168,40 " style="fill:#7715d8; stroke-width:1; stroke:black; " description="&lt;b&gt;ctg35_32&lt;/b&gt;&lt;br&gt;ctg35 32&lt;br&gt;Location: 38038 - 39661" locus_tag="ctg35_32" class="clusterblast-orf" id="dummy-1_q5_0_all"  />
<polygon points="208,40 237,40 242,35 237,30 208,30 208,40 " style="fill:#d85015; stroke-width:1; stroke:black; " description="&lt;b&gt;ctg35_33&lt;/b&gt;&lt;br&gt;ctg35 33&lt;br&gt;Location: 39741 - 41196" locus_tag="ctg35_33" class="clusterblast-orf" id="dummy-1_q6_0_all"  />
<polygon points="255,40 275,40 280,35 275,30 255,30 255,40 " style="fill:white; stroke-width:1; stroke:black; " description="&lt;b&gt;ctg35_34&lt;/b&gt;&lt;br&gt;ctg35 34&lt;br&gt;Location: 41716 - 42796" locus_tag="ctg35_34" class="clusterblast-orf" id="dummy-1_q7_0_all"  />
<polygon points="292,40 306,40 311,35 306,30 292,30 292,40 " style="fill:#3cd815; stroke-width:1; stroke:black; " description="&lt;b&gt;ctg35_35&lt;/b&gt;&lt;br&gt;ctg35 35&lt;br&gt;Location: 43309 - 44074" locus_tag="ctg35_35" class="clusterblast-orf" id="dummy-1_q8_0_all"  />
<polygon points="320,40 328,40 333,35 328,30 320,30 320,40 " style="fill:#159ed8; stroke-width:1; stroke:black; " description="&lt;b&gt;ctg35_36&lt;/b&gt;&lt;br&gt;ctg35 36&lt;br&gt;Location: 44456 - 45035" locus_tag="ctg35_36" class="clusterblast-orf" id="dummy-1_q9_0_all"  />
<polygon points="335,40 359,40 364,35 359,30 335,30 335,40 " style="fill:#b115d8; stroke-width:1; stroke:black; " description="&lt;b&gt;ctg35_37&lt;/b&gt;&lt;br&gt;ctg35 37&lt;br&gt;Location: 45103 - 46324" locus_tag="ctg35_37" class="clusterblast-orf" id="dummy-1_q10_0_all"  />
<polygon points="373,40 391,40 396,35 391,30 373,30 373,40 " style="fill:#d88a15; stroke-width:1; stroke:black; " description="&lt;b&gt;ctg35_38&lt;/b&gt;&lt;br&gt;ctg35 38&lt;br&gt;Location: 46718 - 47678" locus_tag="ctg35_38" class="clusterblast-orf" id="dummy-1_q11_0_all"  />
<polygon points="398,35 401,30 401,40 398,35 " style="fill:white; stroke-width:1; stroke:black; " description="&lt;b&gt;ctg35_39&lt;/b&gt;&lt;br&gt;ctg35 39&lt;br&gt;Location: 47752 - 47902" locus_tag="ctg35_39" class="clusterblast-orf" id="dummy-1_q12_0_all"  />
<polygon points="406,40 425,40 430,35 425,30 406,30 406,40 " style="fill:#d88a15; stroke-width:1; stroke:black; " description="&lt;b&gt;ctg35_40&lt;/b&gt;&lt;br&gt;ctg35 40&lt;br&gt;Location: 48100 - 49096" locus_tag="ctg35_40" class="clusterblast-orf" id="dummy-1_q13_0_all"  />
<polygon points="430,40 444,40 449,35 444,30 430,30 430,40 " style="fill:#15d829; stroke-width:1; stroke:black; " description="&lt;b&gt;ctg35_41&lt;/b&gt;&lt;br&gt;ctg35 41&lt;br&gt;Location: 49095 - 49914" locus_tag="ctg35_41" class="clusterblast-orf" id="dummy-1_q14_0_all"  />
<polygon points="457,40 474,40 479,35 474,30 457,30 457,40 " style="fill:#1563d8; stroke-width:1; stroke:black; " description="&lt;b&gt;ctg35_42&lt;/b&gt;&lt;br&gt;ctg35 42&lt;br&gt;Location: 50231 - 51158" locus_tag="ctg35_42" class="clusterblast-orf" id="dummy-1_q15_0_all"  />
<polygon points="484,40 526,40 531,35 526,30 484,30 484,40 " style="fill:#d815c5; stroke-width:1; stroke:black; " description="&lt;b&gt;ctg35_43&lt;/b&gt;&lt;br&gt;ctg35 43&lt;br&gt;Location: 51402 - 53355" locus_tag="ctg35_43" class="clusterblast-orf" id="dummy-1_q16_0_all"  />
<polygon points="536,40 558,40 563,35 558,30 536,30 536,40 " style="fill:#d8c515; stroke-width:1; stroke:black; " description="&lt;b&gt;ctg35_44&lt;/b&gt;&lt;br&gt;ctg35 44&lt;br&gt;Location: 53573 - 54710" locus_tag="ctg35_44" class="clusterblast-orf" id="dummy-1_q17_0_all"  />
<polygon points="567,40 583,40 588,35 583,30 567,30 567,40 " style="fill:#15d863; stroke-width:1; stroke:black; " description="&lt;b&gt;ctg35_45&lt;/b&gt;&lt;br&gt;ctg35 45&lt;br&gt;Location: 54887 - 55793" locus_tag="ctg35_45" class="clusterblast-orf" id="dummy-1_q18_0_all"  />
<polygon points="590,40 638,40 643,35 638,30 590,30 590,40 " style="fill:#1529d8; stroke-width:1; stroke:black; " description="&lt;b&gt;ctg35_46&lt;/b&gt;&lt;br&gt;ctg35 46&lt;br&gt;Location: 55875 - 58080" locus_tag="ctg35_46" class="clusterblast-orf" id="dummy-1_q19_0_all"  />
<polygon points="647,40 662,40 667,35 662,30 647,30 647,40 " style="fill:#d8158a; stroke-width:1; stroke:black; " description="&lt;b&gt;ctg35_47&lt;/b&gt;&lt;br&gt;ctg35 47&lt;br&gt;Location: 58261 - 59113" locus_tag="ctg35_47" class="clusterblast-orf" id="dummy-1_q20_0_all"  />
<polygon points="668,40 683,40 688,35 683,30 668,30 668,40 " style="fill:#b1d815; stroke-width:1; stroke:black; " description="&lt;b&gt;ctg35_48&lt;/b&gt;&lt;br&gt;ctg35 48&lt;br&gt;Location: 59160 - 59985" locus_tag="ctg35_48" class="clusterblast-orf" id="dummy-1_q21_0_all"  />
<polygon points="689,40 714,40 719,35 714,30 689,30 689,40 " style="fill:#15d89e; stroke-width:1; stroke:black; " description="&lt;b&gt;ctg35_49&lt;/b&gt;&lt;br&gt;ctg35 49&lt;br&gt;Location: 60041 - 61289" locus_tag="ctg35_49" class="clusterblast-orf" id="dummy-1_q22_0_all"  />
<polygon points="720,40 741,40 746,35 741,30 720,30 720,40 " style="fill:#3c15d8; stroke-width:1; stroke:black; " description="&lt;b&gt;ctg35_50&lt;/b&gt;&lt;br&gt;ctg35 50&lt;br&gt;Location: 61328 - 62426" locus_tag="ctg35_50" class="clusterblast-orf" id="dummy-1_q23_0_all"  />
<polygon points="746,40 756,40 761,35 756,30 746,30 746,40 " style="fill:#d81550; stroke-width:1; stroke:black; " description="&lt;b&gt;ctg35_51&lt;/b&gt;&lt;br&gt;ctg35 51&lt;br&gt;Location: 62450 - 63095" locus_tag="ctg35_51" class="clusterblast-orf" id="dummy-1_q24_0_all"  />
</g>
<g label="BGC0001692" description="BGC0001692_c1: nematophin (12% of genes show similarity), NRP" class="clusterblast-cluster"  >
<text x="5" y="70" class="clusterblast-acc"  >
<a xlink:href="https://mibig.secondarymetabolites.org/go/BGC0001692/1" target="_blank">BGC0001692</a>:                                                                       nematophin (12% of genes show similarity), NRP</text>
<line x1="10" y1="85" x2="778.0" y2="85" style="stroke-width:1; stroke:grey; "  />
</g>
<g id="a1_000"  >
<polygon points="0,90 31,90 36,85 31,80 0,80 0,90 " style="fill:#7715d8; stroke-width:1; stroke:black; " description="&lt;b&gt;XNC1_RS09375&lt;/b&gt;&lt;br&gt;Re/Si-specific NAD(P)(+) transhydrogenase subunit alpha&lt;br&gt;Location: 1 - 1533&lt;br&gt;&lt;br&gt;&lt;b&gt;BlastP hit with ctg35_32&lt;/b&gt;&lt;br&gt;Percentage identity: 53&lt;br&gt;Percentage coverage: 101&lt;br&gt;BLAST bit score: 498&lt;br&gt;E-value: 1.3e-140" locus_tag="XNC1_RS09375" class="clusterblast-orf" id="dummy-1_h1_9_0"  />
</g>
<g id="a1_001"  >
<polygon points="36,90 64,90 69,85 64,80 36,80 36,90 " style="fill:#d85015; stroke-width:1; stroke:black; " description="&lt;b&gt;XNC1_RS09380&lt;/b&gt;&lt;br&gt;Re/Si-specific NAD(P)(+) transhydrogenase subunit beta&lt;br&gt;Location: 1544 - 2932&lt;br&gt;&lt;br&gt;&lt;b&gt;BlastP hit with ctg35_33&lt;/b&gt;&lt;br&gt;Percentage identity: 66&lt;br&gt;Percentage coverage: 96&lt;br&gt;BLAST bit score: 554&lt;br&gt;E-value: 2.3e-157" locus_tag="XNC1_RS09380" class="clusterblast-orf" id="dummy-1_h1_9_1"  />
</g>
<g id="a1_002"  >
<polygon points="82,90 188,90 193,85 188,80 82,80 82,90 " style="fill:white; stroke-width:1; stroke:black; " description="&lt;b&gt;XNC1_RS20595&lt;/b&gt;&lt;br&gt;non-ribosomal peptide synthetase&lt;br&gt;Location: 3492 - 8174" locus_tag="XNC1_RS20595" class="clusterblast-orf" id="dummy-1_h1_9_2"  />
</g>
<g id="a1_003"  >
<polygon points="193,90 299,90 304,85 299,80 193,80 193,90 " style="fill:white; stroke-width:1; stroke:black; " description="&lt;b&gt;XNC1_RS09390&lt;/b&gt;&lt;br&gt;non-ribosomal peptide synthetase&lt;br&gt;Location: 8171 - 12835" locus_tag="XNC1_RS09390" class="clusterblast-orf" id="dummy-1_h1_9_3"  />
</g>
<g id="a1_004"  >
<polygon points="304,90 441,90 446,85 441,80 304,80 304,90 " style="fill:white; stroke-width:1; stroke:black; " description="&lt;b&gt;XNC1_RS09395&lt;/b&gt;&lt;br&gt;non-ribosomal peptide synthetase&lt;br&gt;Location: 12832 - 18828" locus_tag="XNC1_RS09395" class="clusterblast-orf" id="dummy-1_h1_9_4"  />
</g>
<g id="a1_005"  >
<polygon points="447,85 452,80 457,80 457,90 452,90 447,85 " style="fill:white; stroke-width:1; stroke:black; " description="&lt;b&gt;XNC1_RS22245&lt;/b&gt;&lt;br&gt;adenylate kinase&lt;br&gt;Location: 18904 - 19300" locus_tag="XNC1_RS22245" class="clusterblast-orf" id="dummy-1_h1_9_5"  />
</g>
<g id="a1_006"  >
<polygon points="458,90 459,90 464,85 459,80 458,80 458,90 " style="fill:white; stroke-width:1; stroke:black; " description="&lt;b&gt;XNC1_RS22865&lt;/b&gt;&lt;br&gt;IS630 family transposase&lt;br&gt;Location: 19345 - 19608" locus_tag="XNC1_RS22865" class="clusterblast-orf" id="dummy-1_h1_9_6"  />
</g>
<g id="a1_007"  >
<polygon points="467,90 561,90 566,85 561,80 467,80 467,90 " style="fill:white; stroke-width:1; stroke:black; " description="&lt;b&gt;XNC1_RS09410&lt;/b&gt;&lt;br&gt;non-ribosomal peptide synthetase&lt;br&gt;Location: 19715 - 23926" locus_tag="XNC1_RS09410" class="clusterblast-orf" id="dummy-1_h1_9_7"  />
</g>
<g id="a1_008"  >
<polygon points="577,90 596,90 601,85 596,80 577,80 577,90 " style="fill:white; stroke-width:1; stroke:black; " description="&lt;b&gt;XNC1_RS09415&lt;/b&gt;&lt;br&gt;tyrosine-type recombinase/integrase&lt;br&gt;Location: 24386 - 25402" locus_tag="XNC1_RS09415" class="clusterblast-orf" id="dummy-1_h1_9_8"  />
</g>
<g id="a1_009"  >
<polygon points="608,90 624,90 629,85 624,80 608,80 608,90 " style="fill:white; stroke-width:1; stroke:black; " description="&lt;b&gt;XNC1_RS09420&lt;/b&gt;&lt;br&gt;DMT family transporter&lt;br&gt;Location: 25687 - 26565" locus_tag="XNC1_RS09420" class="clusterblast-orf" id="dummy-1_h1_9_9"  />
</g>
<g id="a1_0010"  >
<polygon points="634,90 655,90 660,85 655,80 634,80 634,90 " style="fill:white; stroke-width:1; stroke:black; " description="&lt;b&gt;XNC1_RS09425&lt;/b&gt;&lt;br&gt;amidinotransferase&lt;br&gt;Location: 26770 - 27861" locus_tag="XNC1_RS09425" class="clusterblast-orf" id="dummy-1_h1_9_10"  />
</g>
<g id="a1_0011"  >
<polygon points="662,90 679,90 684,85 679,80 662,80 662,90 " style="fill:white; stroke-width:1; stroke:black; " description="&lt;b&gt;XNC1_RS09430&lt;/b&gt;&lt;br&gt;fatty acid desaturase&lt;br&gt;Location: 27973 - 28905" locus_tag="XNC1_RS09430" class="clusterblast-orf" id="dummy-1_h1_9_11"  />
</g>
<g id="a1_0012"  >
<polygon points="686,90 702,90 707,85 702,80 686,80 686,90 " style="fill:white; stroke-width:1; stroke:black; " description="&lt;b&gt;XNC1_RS09435&lt;/b&gt;&lt;br&gt;hypothetical protein&lt;br&gt;Location: 28988 - 29851" locus_tag="XNC1_RS09435" class="clusterblast-orf" id="dummy-1_h1_9_12"  />
</g>
<g id="a1_0013"  >
<polygon points="709,85 714,80 731,80 731,90 714,90 709,85 " style="fill:white; stroke-width:1; stroke:black; " description="&lt;b&gt;XNC1_RS09440&lt;/b&gt;&lt;br&gt;universal stress protein UspE&lt;br&gt;Location: 29919 - 30863" locus_tag="XNC1_RS09440" class="clusterblast-orf" id="dummy-1_h1_9_13"  />
</g>
<g id="a1_0014"  >
<polygon points="734,85 739,80 752,80 752,90 739,90 734,85 " style="fill:white; stroke-width:1; stroke:black; " description="&lt;b&gt;XNC1_RS09445&lt;/b&gt;&lt;br&gt;FNR family transcription factor&lt;br&gt;Location: 30991 - 31755" locus_tag="XNC1_RS09445" class="clusterblast-orf" id="dummy-1_h1_9_14"  />
</g>
<g id="a1_0015"  >
<polygon points="758,90 775,90 780,85 775,80 758,80 758,90 " style="fill:white; stroke-width:1; stroke:black; " description="&lt;b&gt;XNC1_RS09450&lt;/b&gt;&lt;br&gt;hypothetical protein&lt;br&gt;Location: 31991 - 32914" locus_tag="XNC1_RS09450" class="clusterblast-orf" id="dummy-1_h1_9_15"  />
</g>
</svg>
