<svg xmlns="http://www.w3.org/2000/svg" xmlns:xlink="http://www.w3.org/1999/xlink" version="1.1" x="0" y="0" height="230" width="800" viewBox="0 0 800 230" preserveAspectRatio="none"  >
<g label="Query sequence" class="clusterblast-cluster"  >
<text x="5" y="20" class="clusterblast-acc"  >
Query sequence</text>
<line x1="10" y1="35" x2="778.0" y2="35" style="stroke-width:1; stroke:grey; "  />
<polygon points="102,35 107,30 142,30 142,40 107,40 102,35 " style="fill:#d81515; stroke-width:1; stroke:black; " description="&lt;b&gt;ctg44_1&lt;/b&gt;&lt;br&gt;ctg44 1&lt;br&gt;Location: 2 - 2855" locus_tag="ctg44_1" class="clusterblast-orf" id="dummy-1_q0_0_all"  />
<polygon points="142,35 147,30 251,30 251,40 147,40 142,35 " style="fill:#d81515; stroke-width:1; stroke:black; " description="&lt;b&gt;ctg44_2&lt;/b&gt;&lt;br&gt;ctg44 2&lt;br&gt;Location: 2851 - 10603" locus_tag="ctg44_2" class="clusterblast-orf" id="dummy-1_q1_0_all"  />
<polygon points="252,35 257,30 271,30 271,40 257,40 252,35 " style="fill:white; stroke-width:1; stroke:black; " description="&lt;b&gt;ctg44_3&lt;/b&gt;&lt;br&gt;ctg44 3&lt;br&gt;Location: 10645 - 11974" locus_tag="ctg44_3" class="clusterblast-orf" id="dummy-1_q2_0_all"  />
<polygon points="271,35 276,30 316,30 316,40 276,40 271,35 " style="fill:#d81515; stroke-width:1; stroke:black; " description="&lt;b&gt;ctg44_4&lt;/b&gt;&lt;br&gt;ctg44 4&lt;br&gt;Location: 11973 - 15183" locus_tag="ctg44_4" class="clusterblast-orf" id="dummy-1_q3_0_all"  />
<polygon points="317,35 322,30 410,30 410,40 322,40 317,35 " style="fill:#d81515; stroke-width:1; stroke:black; " description="&lt;b&gt;ctg44_5&lt;/b&gt;&lt;br&gt;ctg44 5&lt;br&gt;Location: 15231 - 21804" locus_tag="ctg44_5" class="clusterblast-orf" id="dummy-1_q4_0_all"  />
<polygon points="410,35 415,30 434,30 434,40 415,40 410,35 " style="fill:white; stroke-width:1; stroke:black; " description="&lt;b&gt;ctg44_6&lt;/b&gt;&lt;br&gt;ctg44 6&lt;br&gt;Location: 21831 - 23541" locus_tag="ctg44_6" class="clusterblast-orf" id="dummy-1_q5_0_all"  />
<polygon points="434,35 439,30 449,30 449,40 439,40 434,35 " style="fill:white; stroke-width:1; stroke:black; " description="&lt;b&gt;ctg44_7&lt;/b&gt;&lt;br&gt;ctg44 7&lt;br&gt;Location: 23524 - 24616" locus_tag="ctg44_7" class="clusterblast-orf" id="dummy-1_q6_0_all"  />
<polygon points="456,35 461,30 467,30 467,40 461,40 456,35 " style="fill:white; stroke-width:1; stroke:black; " description="&lt;b&gt;ctg44_8&lt;/b&gt;&lt;br&gt;ctg44 8&lt;br&gt;Location: 25092 - 25902" locus_tag="ctg44_8" class="clusterblast-orf" id="dummy-1_q7_0_all"  />
<polygon points="479,35 482,30 482,40 479,35 " style="fill:white; stroke-width:1; stroke:black; " description="&lt;b&gt;ctg44_9&lt;/b&gt;&lt;br&gt;ctg44 9&lt;br&gt;Location: 26747 - 26897" locus_tag="ctg44_9" class="clusterblast-orf" id="dummy-1_q8_0_all"  />
<polygon points="486,40 490,35 486,30 486,40 " style="fill:white; stroke-width:1; stroke:black; " description="&lt;b&gt;ctg44_10&lt;/b&gt;&lt;br&gt;ctg44 10&lt;br&gt;Location: 27248 - 27515" locus_tag="ctg44_10" class="clusterblast-orf" id="dummy-1_q9_0_all"  />
<polygon points="494,40 503,40 508,35 503,30 494,30 494,40 " style="fill:white; stroke-width:1; stroke:black; " description="&lt;b&gt;ctg44_11&lt;/b&gt;&lt;br&gt;ctg44 11&lt;br&gt;Location: 27802 - 28795" locus_tag="ctg44_11" class="clusterblast-orf" id="dummy-1_q10_0_all"  />
<polygon points="510,40 518,40 523,35 518,30 510,30 510,40 " style="fill:white; stroke-width:1; stroke:black; " description="&lt;b&gt;ctg44_12&lt;/b&gt;&lt;br&gt;ctg44 12&lt;br&gt;Location: 28884 - 29862" locus_tag="ctg44_12" class="clusterblast-orf" id="dummy-1_q11_0_all"  />
<polygon points="525,40 549,40 554,35 549,30 525,30 525,40 " style="fill:white; stroke-width:1; stroke:black; " description="&lt;b&gt;ctg44_13&lt;/b&gt;&lt;br&gt;ctg44 13&lt;br&gt;Location: 30001 - 32065" locus_tag="ctg44_13" class="clusterblast-orf" id="dummy-1_q12_0_all"  />
<polygon points="556,40 557,40 562,35 557,30 556,30 556,40 " style="fill:white; stroke-width:1; stroke:black; " description="&lt;b&gt;ctg44_14&lt;/b&gt;&lt;br&gt;ctg44 14&lt;br&gt;Location: 32192 - 32597" locus_tag="ctg44_14" class="clusterblast-orf" id="dummy-1_q13_0_all"  />
<polygon points="564,40 585,40 590,35 585,30 564,30 564,40 " style="fill:#15d8d8; stroke-width:1; stroke:black; " description="&lt;b&gt;ctg44_15&lt;/b&gt;&lt;br&gt;ctg44 15&lt;br&gt;Location: 32755 - 34561" locus_tag="ctg44_15" class="clusterblast-orf" id="dummy-1_q14_0_all"  />
<polygon points="590,40 608,40 613,35 608,30 590,30 590,40 " style="fill:white; stroke-width:1; stroke:black; " description="&lt;b&gt;ctg44_16&lt;/b&gt;&lt;br&gt;ctg44 16&lt;br&gt;Location: 34547 - 36230" locus_tag="ctg44_16" class="clusterblast-orf" id="dummy-1_q15_0_all"  />
<polygon points="616,35 621,30 635,30 635,40 621,40 616,35 " style="fill:white; stroke-width:1; stroke:black; " description="&lt;b&gt;ctg44_17&lt;/b&gt;&lt;br&gt;ctg44 17&lt;br&gt;Location: 36421 - 37750" locus_tag="ctg44_17" class="clusterblast-orf" id="dummy-1_q16_0_all"  />
<polygon points="635,35 640,30 647,30 647,40 640,40 635,35 " style="fill:white; stroke-width:1; stroke:black; " description="&lt;b&gt;ctg44_18&lt;/b&gt;&lt;br&gt;ctg44 18&lt;br&gt;Location: 37779 - 38628" locus_tag="ctg44_18" class="clusterblast-orf" id="dummy-1_q17_0_all"  />
<polygon points="655,35 660,30 677,30 677,40 660,40 655,35 " style="fill:white; stroke-width:1; stroke:black; " description="&lt;b&gt;ctg44_19&lt;/b&gt;&lt;br&gt;ctg44 19&lt;br&gt;Location: 39169 - 40774" locus_tag="ctg44_19" class="clusterblast-orf" id="dummy-1_q18_0_all"  />
</g>
<g label="BGC0001029" description="BGC0001029_c1: nostophycin (18% of genes show similarity), NRP + Polyketide" class="clusterblast-cluster"  >
<text x="5" y="70" class="clusterblast-acc"  >
<a xlink:href="https://mibig.secondarymetabolites.org/go/BGC0001029/1" target="_blank">BGC0001029</a>:                                                                      nostophycin (18% of genes show similarity), NRP + Polyketide</text>
<line x1="10" y1="85" x2="778.0" y2="85" style="stroke-width:1; stroke:grey; "  />
</g>
<g id="a1_000"  >
<polygon points="0,90 27,90 32,85 27,80 0,80 0,90 " style="fill:white; stroke-width:1; stroke:black; " description="&lt;b&gt;AEU11004.1&lt;/b&gt;&lt;br&gt;hypothetical protein&lt;br&gt;Location: 55249 - 52949" locus_tag="AEU11004.1" class="clusterblast-orf" id="dummy-1_h1_8_0"  />
</g>
<g id="a1_001"  >
<polygon points="35,85 40,80 250,80 250,90 40,90 35,85 " style="fill:#d81515; stroke-width:1; stroke:black; " description="&lt;b&gt;AEU11003.1&lt;/b&gt;&lt;br&gt;NpnC&lt;br&gt;Location: 52732 - 37517&lt;br&gt;&lt;br&gt;&lt;b&gt;BlastP hit with ctg44_1&lt;/b&gt;&lt;br&gt;Percentage identity: 51&lt;br&gt;Percentage coverage: 92&lt;br&gt;BLAST bit score: 847&lt;br&gt;E-value: 2e-245&lt;br&gt;&lt;br&gt;&lt;b&gt;BlastP hit with ctg44_2&lt;/b&gt;&lt;br&gt;Percentage identity: 48&lt;br&gt;Percentage coverage: 79&lt;br&gt;BLAST bit score: 1695&lt;br&gt;E-value: 0.0&lt;br&gt;&lt;br&gt;&lt;b&gt;BlastP hit with ctg44_4&lt;/b&gt;&lt;br&gt;Percentage identity: 50&lt;br&gt;Percentage coverage: 98&lt;br&gt;BLAST bit score: 994&lt;br&gt;E-value: 1.5e-289&lt;br&gt;&lt;br&gt;&lt;b&gt;BlastP hit with ctg44_5&lt;/b&gt;&lt;br&gt;Percentage identity: 49&lt;br&gt;Percentage coverage: 100&lt;br&gt;BLAST bit score: 1931&lt;br&gt;E-value: 0.0" locus_tag="AEU11003.1" class="clusterblast-orf" id="dummy-1_h1_8_1"  />
</g>
<g id="a1_002"  >
<polygon points="250,85 255,80 452,80 452,90 255,90 250,85 " style="fill:#d81515; stroke-width:1; stroke:black; " description="&lt;b&gt;AEU11006.1&lt;/b&gt;&lt;br&gt;NpnB&lt;br&gt;Location: 37514 - 23208&lt;br&gt;&lt;br&gt;&lt;b&gt;BlastP hit with ctg44_4&lt;/b&gt;&lt;br&gt;Percentage identity: 51&lt;br&gt;Percentage coverage: 98&lt;br&gt;BLAST bit score: 1016&lt;br&gt;E-value: 2.8e-296&lt;br&gt;&lt;br&gt;&lt;b&gt;BlastP hit with ctg44_5&lt;/b&gt;&lt;br&gt;Percentage identity: 47&lt;br&gt;Percentage coverage: 71&lt;br&gt;BLAST bit score: 1290&lt;br&gt;E-value: 0.0" locus_tag="AEU11006.1" class="clusterblast-orf" id="dummy-1_h1_8_2"  />
</g>
<g id="a1_003"  >
<polygon points="452,85 457,80 669,80 669,90 457,90 452,85 " style="fill:white; stroke-width:1; stroke:black; " description="&lt;b&gt;AEU11005.1&lt;/b&gt;&lt;br&gt;NpnA&lt;br&gt;Location: 23181 - 7801" locus_tag="AEU11005.1" class="clusterblast-orf" id="dummy-1_h1_8_3"  />
</g>
<g id="a1_004"  >
<polygon points="682,85 687,80 690,80 690,90 687,90 682,85 " style="fill:white; stroke-width:1; stroke:black; " description="&lt;b&gt;AEU11002.1&lt;/b&gt;&lt;br&gt;putative RNA ligase&lt;br&gt;Location: 6888 - 6331" locus_tag="AEU11002.1" class="clusterblast-orf" id="dummy-1_h1_8_4"  />
</g>
<g id="a1_005"  >
<polygon points="697,90 698,90 703,85 698,80 697,80 697,90 " style="fill:white; stroke-width:1; stroke:black; " description="&lt;b&gt;AEU11001.1&lt;/b&gt;&lt;br&gt;hypothetical protein&lt;br&gt;Location: 5812 - 5432" locus_tag="AEU11001.1" class="clusterblast-orf" id="dummy-1_h1_8_5"  />
</g>
<g id="a1_006"  >
<polygon points="705,90 706,90 711,85 706,80 705,80 705,90 " style="fill:white; stroke-width:1; stroke:black; " description="&lt;b&gt;AEU11000.1&lt;/b&gt;&lt;br&gt;hypothetical protein&lt;br&gt;Location: 5279 - 4881" locus_tag="AEU11000.1" class="clusterblast-orf" id="dummy-1_h1_8_6"  />
</g>
<g id="a1_007"  >
<polygon points="711,90 712,90 717,85 712,80 711,80 711,90 " style="fill:white; stroke-width:1; stroke:black; " description="&lt;b&gt;AEU10999.1&lt;/b&gt;&lt;br&gt;GTP cyclohydrolase&lt;br&gt;Location: 4849 - 4439" locus_tag="AEU10999.1" class="clusterblast-orf" id="dummy-1_h1_8_7"  />
</g>
<g id="a1_008"  >
<polygon points="719,90 738,90 743,85 738,80 719,80 719,90 " style="fill:white; stroke-width:1; stroke:black; " description="&lt;b&gt;AEU10998.1&lt;/b&gt;&lt;br&gt;hypothetical protein&lt;br&gt;Location: 4286 - 2610" locus_tag="AEU10998.1" class="clusterblast-orf" id="dummy-1_h1_8_8"  />
</g>
<g id="a1_009"  >
<polygon points="743,85 748,80 759,80 759,90 748,90 743,85 " style="fill:white; stroke-width:1; stroke:black; " description="&lt;b&gt;AEU10997.1&lt;/b&gt;&lt;br&gt;ABC transporter&lt;br&gt;Location: 2578 - 1487" locus_tag="AEU10997.1" class="clusterblast-orf" id="dummy-1_h1_8_9"  />
</g>
<g id="a1_0010"  >
<polygon points="760,85 765,80 780,80 780,90 765,90 760,85 " style="fill:white; stroke-width:1; stroke:black; " description="&lt;b&gt;AEU10996.1&lt;/b&gt;&lt;br&gt;ResB-like protein&lt;br&gt;Location: 1390 - 1" locus_tag="AEU10996.1" class="clusterblast-orf" id="dummy-1_h1_8_10"  />
</g>
</svg>
