<svg xmlns="http://www.w3.org/2000/svg" xmlns:xlink="http://www.w3.org/1999/xlink" version="1.1" x="0" y="0" height="230" width="800" viewBox="0 0 800 230" preserveAspectRatio="none"  >
<g label="Query sequence" class="clusterblast-cluster"  >
<text x="5" y="20" class="clusterblast-acc"  >
Query sequence</text>
<line x1="10" y1="35" x2="778.0" y2="35" style="stroke-width:1; stroke:grey; "  />
<polygon points="0,35 5,30 54,30 54,40 5,40 0,35 " style="fill:#d81515; stroke-width:1; stroke:black; " description="&lt;b&gt;ctg44_1&lt;/b&gt;&lt;br&gt;ctg44 1&lt;br&gt;Location: 2 - 2855" locus_tag="ctg44_1" class="clusterblast-orf" id="dummy-1_q0_0_all"  />
<polygon points="54,35 59,30 202,30 202,40 59,40 54,35 " style="fill:#d81515; stroke-width:1; stroke:black; " description="&lt;b&gt;ctg44_2&lt;/b&gt;&lt;br&gt;ctg44 2&lt;br&gt;Location: 2851 - 10603" locus_tag="ctg44_2" class="clusterblast-orf" id="dummy-1_q1_0_all"  />
<polygon points="203,35 208,30 229,30 229,40 208,40 203,35 " style="fill:white; stroke-width:1; stroke:black; " description="&lt;b&gt;ctg44_3&lt;/b&gt;&lt;br&gt;ctg44 3&lt;br&gt;Location: 10645 - 11974" locus_tag="ctg44_3" class="clusterblast-orf" id="dummy-1_q2_0_all"  />
<polygon points="229,35 234,30 290,30 290,40 234,40 229,35 " style="fill:#d81515; stroke-width:1; stroke:black; " description="&lt;b&gt;ctg44_4&lt;/b&gt;&lt;br&gt;ctg44 4&lt;br&gt;Location: 11973 - 15183" locus_tag="ctg44_4" class="clusterblast-orf" id="dummy-1_q3_0_all"  />
<polygon points="291,35 296,30 417,30 417,40 296,40 291,35 " style="fill:#d81515; stroke-width:1; stroke:black; " description="&lt;b&gt;ctg44_5&lt;/b&gt;&lt;br&gt;ctg44 5&lt;br&gt;Location: 15231 - 21804" locus_tag="ctg44_5" class="clusterblast-orf" id="dummy-1_q4_0_all"  />
<polygon points="417,35 422,30 450,30 450,40 422,40 417,35 " style="fill:white; stroke-width:1; stroke:black; " description="&lt;b&gt;ctg44_6&lt;/b&gt;&lt;br&gt;ctg44 6&lt;br&gt;Location: 21831 - 23541" locus_tag="ctg44_6" class="clusterblast-orf" id="dummy-1_q5_0_all"  />
<polygon points="450,35 455,30 471,30 471,40 455,40 450,35 " style="fill:white; stroke-width:1; stroke:black; " description="&lt;b&gt;ctg44_7&lt;/b&gt;&lt;br&gt;ctg44 7&lt;br&gt;Location: 23524 - 24616" locus_tag="ctg44_7" class="clusterblast-orf" id="dummy-1_q6_0_all"  />
<polygon points="480,35 485,30 495,30 495,40 485,40 480,35 " style="fill:white; stroke-width:1; stroke:black; " description="&lt;b&gt;ctg44_8&lt;/b&gt;&lt;br&gt;ctg44 8&lt;br&gt;Location: 25092 - 25902" locus_tag="ctg44_8" class="clusterblast-orf" id="dummy-1_q7_0_all"  />
<polygon points="511,35 514,30 514,40 511,35 " style="fill:white; stroke-width:1; stroke:black; " description="&lt;b&gt;ctg44_9&lt;/b&gt;&lt;br&gt;ctg44 9&lt;br&gt;Location: 26747 - 26897" locus_tag="ctg44_9" class="clusterblast-orf" id="dummy-1_q8_0_all"  />
<polygon points="521,40 521,40 526,35 521,30 521,30 521,40 " style="fill:white; stroke-width:1; stroke:black; " description="&lt;b&gt;ctg44_10&lt;/b&gt;&lt;br&gt;ctg44 10&lt;br&gt;Location: 27248 - 27515" locus_tag="ctg44_10" class="clusterblast-orf" id="dummy-1_q9_0_all"  />
<polygon points="532,40 546,40 551,35 546,30 532,30 532,40 " style="fill:white; stroke-width:1; stroke:black; " description="&lt;b&gt;ctg44_11&lt;/b&gt;&lt;br&gt;ctg44 11&lt;br&gt;Location: 27802 - 28795" locus_tag="ctg44_11" class="clusterblast-orf" id="dummy-1_q10_0_all"  />
<polygon points="552,40 566,40 571,35 566,30 552,30 552,40 " style="fill:white; stroke-width:1; stroke:black; " description="&lt;b&gt;ctg44_12&lt;/b&gt;&lt;br&gt;ctg44 12&lt;br&gt;Location: 28884 - 29862" locus_tag="ctg44_12" class="clusterblast-orf" id="dummy-1_q11_0_all"  />
<polygon points="574,40 608,40 613,35 608,30 574,30 574,40 " style="fill:white; stroke-width:1; stroke:black; " description="&lt;b&gt;ctg44_13&lt;/b&gt;&lt;br&gt;ctg44 13&lt;br&gt;Location: 30001 - 32065" locus_tag="ctg44_13" class="clusterblast-orf" id="dummy-1_q12_0_all"  />
<polygon points="616,40 618,40 623,35 618,30 616,30 616,40 " style="fill:white; stroke-width:1; stroke:black; " description="&lt;b&gt;ctg44_14&lt;/b&gt;&lt;br&gt;ctg44 14&lt;br&gt;Location: 32192 - 32597" locus_tag="ctg44_14" class="clusterblast-orf" id="dummy-1_q13_0_all"  />
<polygon points="626,40 656,40 661,35 656,30 626,30 626,40 " style="fill:#15d8d8; stroke-width:1; stroke:black; " description="&lt;b&gt;ctg44_15&lt;/b&gt;&lt;br&gt;ctg44 15&lt;br&gt;Location: 32755 - 34561" locus_tag="ctg44_15" class="clusterblast-orf" id="dummy-1_q14_0_all"  />
<polygon points="661,40 688,40 693,35 688,30 661,30 661,40 " style="fill:white; stroke-width:1; stroke:black; " description="&lt;b&gt;ctg44_16&lt;/b&gt;&lt;br&gt;ctg44 16&lt;br&gt;Location: 34547 - 36230" locus_tag="ctg44_16" class="clusterblast-orf" id="dummy-1_q15_0_all"  />
<polygon points="696,35 701,30 722,30 722,40 701,40 696,35 " style="fill:white; stroke-width:1; stroke:black; " description="&lt;b&gt;ctg44_17&lt;/b&gt;&lt;br&gt;ctg44 17&lt;br&gt;Location: 36421 - 37750" locus_tag="ctg44_17" class="clusterblast-orf" id="dummy-1_q16_0_all"  />
<polygon points="722,35 727,30 739,30 739,40 727,40 722,35 " style="fill:white; stroke-width:1; stroke:black; " description="&lt;b&gt;ctg44_18&lt;/b&gt;&lt;br&gt;ctg44 18&lt;br&gt;Location: 37779 - 38628" locus_tag="ctg44_18" class="clusterblast-orf" id="dummy-1_q17_0_all"  />
<polygon points="749,35 754,30 780,30 780,40 754,40 749,35 " style="fill:white; stroke-width:1; stroke:black; " description="&lt;b&gt;ctg44_19&lt;/b&gt;&lt;br&gt;ctg44 19&lt;br&gt;Location: 39169 - 40774" locus_tag="ctg44_19" class="clusterblast-orf" id="dummy-1_q18_0_all"  />
</g>
<g label="BGC0000302" description="BGC0000302_c1: anabaenopeptin (85% of genes show similarity), NRP" class="clusterblast-cluster"  >
<text x="5" y="70" class="clusterblast-acc"  >
<a xlink:href="https://mibig.secondarymetabolites.org/go/BGC0000302/1" target="_blank">BGC0000302</a>:                                                                   anabaenopeptin (85% of genes show similarity), NRP</text>
<line x1="10" y1="85" x2="778.0" y2="85" style="stroke-width:1; stroke:grey; "  />
</g>
<g id="a1_000"  >
<polygon points="79,85 84,80 123,80 123,90 84,90 79,85 " style="fill:#15d8d8; stroke-width:1; stroke:black; " description="&lt;b&gt;ACZ55948.1&lt;/b&gt;&lt;br&gt;ABC transporter&lt;br&gt;Location: 33240 - 30943&lt;br&gt;&lt;br&gt;&lt;b&gt;BlastP hit with ctg44_15&lt;/b&gt;&lt;br&gt;Percentage identity: 65&lt;br&gt;Percentage coverage: 98&lt;br&gt;BLAST bit score: 757&lt;br&gt;E-value: 2.2e-218" locus_tag="ACZ55948.1" class="clusterblast-orf" id="dummy-1_h1_3_0"  />
</g>
<g id="a1_001"  >
<polygon points="130,85 135,80 153,80 153,90 135,90 130,85 " style="fill:white; stroke-width:1; stroke:black; " description="&lt;b&gt;ACZ55947.1&lt;/b&gt;&lt;br&gt;hydroxymethylglutaryl-CoA lyase-like protein&lt;br&gt;Location: 30534 - 29356" locus_tag="ACZ55947.1" class="clusterblast-orf" id="dummy-1_h1_3_1"  />
</g>
<g id="a1_002"  >
<polygon points="154,85 159,80 234,80 234,90 159,90 154,85 " style="fill:#d81515; stroke-width:1; stroke:black; " description="&lt;b&gt;ACZ55946.1&lt;/b&gt;&lt;br&gt;non-ribosomal peptide synthetase&lt;br&gt;Location: 29313 - 25102&lt;br&gt;&lt;br&gt;&lt;b&gt;BlastP hit with ctg44_1&lt;/b&gt;&lt;br&gt;Percentage identity: 77&lt;br&gt;Percentage coverage: 100&lt;br&gt;BLAST bit score: 1457&lt;br&gt;E-value: 0.0&lt;br&gt;&lt;br&gt;&lt;b&gt;BlastP hit with ctg44_2&lt;/b&gt;&lt;br&gt;Percentage identity: 54&lt;br&gt;Percentage coverage: 42&lt;br&gt;BLAST bit score: 1142&lt;br&gt;E-value: 0.0" locus_tag="ACZ55946.1" class="clusterblast-orf" id="dummy-1_h1_3_2"  />
</g>
<g id="a1_003"  >
<polygon points="234,85 239,80 382,80 382,90 239,90 234,85 " style="fill:#d81515; stroke-width:1; stroke:black; " description="&lt;b&gt;ACZ55944.1&lt;/b&gt;&lt;br&gt;non-ribosomal peptide synthetase&lt;br&gt;Location: 25105 - 17408&lt;br&gt;&lt;br&gt;&lt;b&gt;BlastP hit with ctg44_1&lt;/b&gt;&lt;br&gt;Percentage identity: 59&lt;br&gt;Percentage coverage: 96&lt;br&gt;BLAST bit score: 1063&lt;br&gt;E-value: 1.8e-310&lt;br&gt;&lt;br&gt;&lt;b&gt;BlastP hit with ctg44_2&lt;/b&gt;&lt;br&gt;Percentage identity: 80&lt;br&gt;Percentage coverage: 100&lt;br&gt;BLAST bit score: 4117&lt;br&gt;E-value: 0.0" locus_tag="ACZ55944.1" class="clusterblast-orf" id="dummy-1_h1_3_3"  />
</g>
<g id="a1_004"  >
<polygon points="385,85 390,80 447,80 447,90 390,90 385,85 " style="fill:#d81515; stroke-width:1; stroke:black; " description="&lt;b&gt;ACZ55943.1&lt;/b&gt;&lt;br&gt;non-ribosomal peptide synthetase&lt;br&gt;Location: 17213 - 14004&lt;br&gt;&lt;br&gt;&lt;b&gt;BlastP hit with ctg44_4&lt;/b&gt;&lt;br&gt;Percentage identity: 79&lt;br&gt;Percentage coverage: 100&lt;br&gt;BLAST bit score: 1694&lt;br&gt;E-value: 0.0" locus_tag="ACZ55943.1" class="clusterblast-orf" id="dummy-1_h1_3_4"  />
</g>
<g id="a1_005"  >
<polygon points="448,85 453,80 573,80 573,90 453,90 448,85 " style="fill:#d81515; stroke-width:1; stroke:black; " description="&lt;b&gt;ACZ55942.1&lt;/b&gt;&lt;br&gt;non-ribosomal peptide synthetase&lt;br&gt;Location: 13946 - 7422&lt;br&gt;&lt;br&gt;&lt;b&gt;BlastP hit with ctg44_4&lt;/b&gt;&lt;br&gt;Percentage identity: 46&lt;br&gt;Percentage coverage: 60&lt;br&gt;BLAST bit score: 532&lt;br&gt;E-value: 1.6e-150&lt;br&gt;&lt;br&gt;&lt;b&gt;BlastP hit with ctg44_5&lt;/b&gt;&lt;br&gt;Percentage identity: 72&lt;br&gt;Percentage coverage: 101&lt;br&gt;BLAST bit score: 3123&lt;br&gt;E-value: 0.0" locus_tag="ACZ55942.1" class="clusterblast-orf" id="dummy-1_h1_3_5"  />
</g>
<g id="a1_006"  >
<polygon points="574,85 579,80 700,80 700,90 579,90 574,85 " style="fill:#d81515; stroke-width:1; stroke:black; " description="&lt;b&gt;ACZ55945.1&lt;/b&gt;&lt;br&gt;non-ribosomal peptide synthetase&lt;br&gt;Location: 7332 - 745&lt;br&gt;&lt;br&gt;&lt;b&gt;BlastP hit with ctg44_5&lt;/b&gt;&lt;br&gt;Percentage identity: 59&lt;br&gt;Percentage coverage: 100&lt;br&gt;BLAST bit score: 2459&lt;br&gt;E-value: 0.0" locus_tag="ACZ55945.1" class="clusterblast-orf" id="dummy-1_h1_3_6"  />
</g>
</svg>
