<svg xmlns="http://www.w3.org/2000/svg" xmlns:xlink="http://www.w3.org/1999/xlink" version="1.1" x="0" y="0" height="230" width="800" viewBox="0 0 800 230" preserveAspectRatio="none"  >
<g label="Query sequence" class="clusterblast-cluster"  >
<text x="5" y="20" class="clusterblast-acc"  >
Query sequence</text>
<line x1="10" y1="35" x2="778.0" y2="35" style="stroke-width:1; stroke:grey; "  />
<polygon points="0,40 3,40 8,35 3,30 0,30 0,40 " style="fill:white; stroke-width:1; stroke:black; " description="&lt;b&gt;ctg20_76&lt;/b&gt;&lt;br&gt;ctg20 76&lt;br&gt;Location: 77878 - 78331" locus_tag="ctg20_76" class="clusterblast-orf" id="dummy-2_q0_0_all"  />
<polygon points="12,40 17,40 22,35 17,30 12,30 12,40 " style="fill:white; stroke-width:1; stroke:black; " description="&lt;b&gt;ctg20_77&lt;/b&gt;&lt;br&gt;ctg20 77&lt;br&gt;Location: 78524 - 79070" locus_tag="ctg20_77" class="clusterblast-orf" id="dummy-2_q1_0_all"  />
<polygon points="25,40 27,40 32,35 27,30 25,30 25,40 " style="fill:white; stroke-width:1; stroke:black; " description="&lt;b&gt;ctg20_78&lt;/b&gt;&lt;br&gt;ctg20 78&lt;br&gt;Location: 79233 - 79596" locus_tag="ctg20_78" class="clusterblast-orf" id="dummy-2_q2_0_all"  />
<polygon points="51,40 112,40 117,35 112,30 51,30 51,40 " style="fill:white; stroke-width:1; stroke:black; " description="&lt;b&gt;ctg20_79&lt;/b&gt;&lt;br&gt;ctg20 79&lt;br&gt;Location: 80656 - 84172" locus_tag="ctg20_79" class="clusterblast-orf" id="dummy-2_q3_0_all"  />
<polygon points="119,35 124,30 127,30 127,40 124,40 119,35 " style="fill:white; stroke-width:1; stroke:black; " description="&lt;b&gt;ctg20_80&lt;/b&gt;&lt;br&gt;ctg20 80&lt;br&gt;Location: 84312 - 84756" locus_tag="ctg20_80" class="clusterblast-orf" id="dummy-2_q4_0_all"  />
<polygon points="130,35 135,30 146,30 146,40 135,40 130,35 " style="fill:white; stroke-width:1; stroke:black; " description="&lt;b&gt;ctg20_81&lt;/b&gt;&lt;br&gt;ctg20 81&lt;br&gt;Location: 84892 - 85765" locus_tag="ctg20_81" class="clusterblast-orf" id="dummy-2_q5_0_all"  />
<polygon points="163,40 164,40 169,35 164,30 163,30 163,40 " style="fill:white; stroke-width:1; stroke:black; " description="&lt;b&gt;ctg20_82&lt;/b&gt;&lt;br&gt;ctg20 82&lt;br&gt;Location: 86668 - 86977" locus_tag="ctg20_82" class="clusterblast-orf" id="dummy-2_q6_0_all"  />
<polygon points="174,35 177,30 177,40 174,35 " style="fill:white; stroke-width:1; stroke:black; " description="&lt;b&gt;ctg20_83&lt;/b&gt;&lt;br&gt;ctg20 83&lt;br&gt;Location: 87285 - 87438" locus_tag="ctg20_83" class="clusterblast-orf" id="dummy-2_q7_0_all"  />
<polygon points="193,35 198,30 207,30 207,40 198,40 193,35 " style="fill:white; stroke-width:1; stroke:black; " description="&lt;b&gt;ctg20_84&lt;/b&gt;&lt;br&gt;ctg20 84&lt;br&gt;Location: 88287 - 89061" locus_tag="ctg20_84" class="clusterblast-orf" id="dummy-2_q8_0_all"  />
<polygon points="208,40 216,40 221,35 216,30 208,30 208,40 " style="fill:white; stroke-width:1; stroke:black; " description="&lt;b&gt;ctg20_85&lt;/b&gt;&lt;br&gt;ctg20 85&lt;br&gt;Location: 89083 - 89779" locus_tag="ctg20_85" class="clusterblast-orf" id="dummy-2_q9_0_all"  />
<polygon points="225,35 230,30 248,30 248,40 230,40 225,35 " style="fill:white; stroke-width:1; stroke:black; " description="&lt;b&gt;ctg20_86&lt;/b&gt;&lt;br&gt;ctg20 86&lt;br&gt;Location: 90002 - 91250" locus_tag="ctg20_86" class="clusterblast-orf" id="dummy-2_q10_0_all"  />
<polygon points="249,40 249,40 254,35 249,30 249,30 249,40 " style="fill:white; stroke-width:1; stroke:black; " description="&lt;b&gt;ctg20_87&lt;/b&gt;&lt;br&gt;ctg20 87&lt;br&gt;Location: 91309 - 91570" locus_tag="ctg20_87" class="clusterblast-orf" id="dummy-2_q11_0_all"  />
<polygon points="257,35 262,30 272,30 272,40 262,40 257,35 " style="fill:white; stroke-width:1; stroke:black; " description="&lt;b&gt;ctg20_88&lt;/b&gt;&lt;br&gt;ctg20 88&lt;br&gt;Location: 91751 - 92558" locus_tag="ctg20_88" class="clusterblast-orf" id="dummy-2_q12_0_all"  />
<polygon points="276,35 281,30 314,30 314,40 281,40 276,35 " style="fill:#d81515; stroke-width:1; stroke:black; " description="&lt;b&gt;ctg20_89&lt;/b&gt;&lt;br&gt;ctg20 89&lt;br&gt;Location: 92760 - 94779" locus_tag="ctg20_89" class="clusterblast-orf" id="dummy-2_q13_0_all"  />
<polygon points="315,35 320,30 330,30 330,40 320,40 315,35 " style="fill:#15d815; stroke-width:1; stroke:black; " description="&lt;b&gt;ctg20_90&lt;/b&gt;&lt;br&gt;ctg20 90&lt;br&gt;Location: 94853 - 95675" locus_tag="ctg20_90" class="clusterblast-orf" id="dummy-2_q14_0_all"  />
<polygon points="332,35 337,30 352,30 352,40 337,40 332,35 " style="fill:#1515d8; stroke-width:1; stroke:black; " description="&lt;b&gt;ctg20_91&lt;/b&gt;&lt;br&gt;ctg20 91&lt;br&gt;Location: 95745 - 96849" locus_tag="ctg20_91" class="clusterblast-orf" id="dummy-2_q15_0_all"  />
<polygon points="353,35 358,30 368,30 368,40 358,40 353,35 " style="fill:#d815d8; stroke-width:1; stroke:black; " description="&lt;b&gt;ctg20_92&lt;/b&gt;&lt;br&gt;ctg20 92&lt;br&gt;Location: 96903 - 97698" locus_tag="ctg20_92" class="clusterblast-orf" id="dummy-2_q16_0_all"  />
<polygon points="371,35 376,30 608,30 608,40 376,40 371,35 " style="fill:#d8d815; stroke-width:1; stroke:black; " description="&lt;b&gt;ctg20_93&lt;/b&gt;&lt;br&gt;ctg20 93&lt;br&gt;Location: 97856 - 110645" locus_tag="ctg20_93" class="clusterblast-orf" id="dummy-2_q17_0_all"  />
<polygon points="608,35 613,30 686,30 686,40 613,40 608,35 " style="fill:#d8d815; stroke-width:1; stroke:black; " description="&lt;b&gt;ctg20_94&lt;/b&gt;&lt;br&gt;ctg20 94&lt;br&gt;Location: 110646 - 114840" locus_tag="ctg20_94" class="clusterblast-orf" id="dummy-2_q18_0_all"  />
<polygon points="688,35 693,30 725,30 725,40 693,40 688,35 " style="fill:#d81515; stroke-width:1; stroke:black; " description="&lt;b&gt;ctg20_95&lt;/b&gt;&lt;br&gt;ctg20 95&lt;br&gt;Location: 114919 - 116941" locus_tag="ctg20_95" class="clusterblast-orf" id="dummy-2_q19_0_all"  />
<polygon points="728,35 733,30 750,30 750,40 733,40 728,35 " style="fill:#15d8d8; stroke-width:1; stroke:black; " description="&lt;b&gt;ctg20_96&lt;/b&gt;&lt;br&gt;ctg20 96&lt;br&gt;Location: 117100 - 118279" locus_tag="ctg20_96" class="clusterblast-orf" id="dummy-2_q20_0_all"  />
<polygon points="751,35 756,30 780,30 780,40 756,40 751,35 " style="fill:#d8d815; stroke-width:1; stroke:black; " description="&lt;b&gt;ctg20_97&lt;/b&gt;&lt;br&gt;ctg20 97&lt;br&gt;Location: 118312 - 119869" locus_tag="ctg20_97" class="clusterblast-orf" id="dummy-2_q21_0_all"  />
</g>
<g label="BGC0000298" description="BGC0000298_c1: aeruginosin 98-A / aeruginosin 98-B / aeruginosin 98-C (14% of genes show similarity), NRP" class="clusterblast-cluster"  >
<text x="5" y="70" class="clusterblast-acc"  >
<a xlink:href="https://mibig.secondarymetabolites.org/go/BGC0000298/1" target="_blank">BGC0000298</a>:                           aeruginosin 98-A / aeruginosin 98-B / aeruginosin 98-C (14% of genes show similarity), NRP</text>
<line x1="10" y1="85" x2="778.0" y2="85" style="stroke-width:1; stroke:grey; "  />
</g>
<g id="a2_000"  >
<polygon points="157,85 162,80 194,80 194,90 162,90 157,85 " style="fill:#d81515; stroke-width:1; stroke:black; " description="&lt;b&gt;ACM68694.1&lt;/b&gt;&lt;br&gt;AerN&lt;br&gt;Location: 25090 - 23096&lt;br&gt;&lt;br&gt;&lt;b&gt;BlastP hit with ctg20_89&lt;/b&gt;&lt;br&gt;Percentage identity: 55&lt;br&gt;Percentage coverage: 97&lt;br&gt;BLAST bit score: 699&lt;br&gt;E-value: 6.1e-201&lt;br&gt;&lt;br&gt;&lt;b&gt;BlastP hit with ctg20_95&lt;/b&gt;&lt;br&gt;Percentage identity: 54&lt;br&gt;Percentage coverage: 95&lt;br&gt;BLAST bit score: 697&lt;br&gt;E-value: 2.3e-200" locus_tag="ACM68694.1" class="clusterblast-orf" id="dummy-2_h2_10_0"  />
</g>
<g id="a2_001"  >
<polygon points="198,85 203,80 209,80 209,90 203,90 198,85 " style="fill:white; stroke-width:1; stroke:black; " description="&lt;b&gt;ACM68693.1&lt;/b&gt;&lt;br&gt;hypothetical protein&lt;br&gt;Location: 22922 - 22314" locus_tag="ACM68693.1" class="clusterblast-orf" id="dummy-2_h2_10_1"  />
</g>
<g id="a2_002"  >
<polygon points="210,85 215,80 220,80 220,90 215,90 210,85 " style="fill:white; stroke-width:1; stroke:black; " description="&lt;b&gt;aerM_&lt;/b&gt;&lt;br&gt;&lt;br&gt;Location: 22234 - 21722" locus_tag="aerM_" class="clusterblast-orf" id="dummy-2_h2_10_2"  />
</g>
<g id="a2_003"  >
<polygon points="222,85 227,80 236,80 236,90 227,90 222,85 " style="fill:white; stroke-width:1; stroke:black; " description="&lt;b&gt;ACM68692.1&lt;/b&gt;&lt;br&gt;putative oxidoreductase&lt;br&gt;Location: 21641 - 20865" locus_tag="ACM68692.1" class="clusterblast-orf" id="dummy-2_h2_10_3"  />
</g>
<g id="a2_004"  >
<polygon points="237,85 242,80 269,80 269,90 242,90 237,85 " style="fill:white; stroke-width:1; stroke:black; " description="&lt;b&gt;ACM68691.1&lt;/b&gt;&lt;br&gt;AerG2&lt;br&gt;Location: 20804 - 19068" locus_tag="ACM68691.1" class="clusterblast-orf" id="dummy-2_h2_10_4"  />
</g>
<g id="a2_005"  >
<polygon points="270,85 275,80 331,80 331,90 275,90 270,85 " style="fill:white; stroke-width:1; stroke:black; " description="&lt;b&gt;ACM68690.1&lt;/b&gt;&lt;br&gt;AerG1&lt;br&gt;Location: 19029 - 15751" locus_tag="ACM68690.1" class="clusterblast-orf" id="dummy-2_h2_10_5"  />
</g>
<g id="a2_006"  >
<polygon points="333,85 338,80 350,80 350,90 338,90 333,85 " style="fill:white; stroke-width:1; stroke:black; " description="&lt;b&gt;ACM68689.1&lt;/b&gt;&lt;br&gt;AerL&lt;br&gt;Location: 15659 - 14715" locus_tag="ACM68689.1" class="clusterblast-orf" id="dummy-2_h2_10_6"  />
</g>
<g id="a2_007"  >
<polygon points="351,85 356,80 366,80 366,90 356,90 351,85 " style="fill:white; stroke-width:1; stroke:black; " description="&lt;b&gt;ACM68688.1&lt;/b&gt;&lt;br&gt;AerF&lt;br&gt;Location: 14676 - 13876" locus_tag="ACM68688.1" class="clusterblast-orf" id="dummy-2_h2_10_7"  />
</g>
<g id="a2_008"  >
<polygon points="367,85 372,80 378,80 378,90 372,90 367,85 " style="fill:white; stroke-width:1; stroke:black; " description="&lt;b&gt;ACM68687.1&lt;/b&gt;&lt;br&gt;AerE&lt;br&gt;Location: 13827 - 13201" locus_tag="ACM68687.1" class="clusterblast-orf" id="dummy-2_h2_10_8"  />
</g>
<g id="a2_009"  >
<polygon points="380,85 385,80 392,80 392,90 385,90 380,85 " style="fill:white; stroke-width:1; stroke:black; " description="&lt;b&gt;ACM68686.1&lt;/b&gt;&lt;br&gt;AerD&lt;br&gt;Location: 13104 - 12472" locus_tag="ACM68686.1" class="clusterblast-orf" id="dummy-2_h2_10_9"  />
</g>
<g id="a2_0010"  >
<polygon points="392,85 397,80 411,80 411,90 397,90 392,85 " style="fill:white; stroke-width:1; stroke:black; " description="&lt;b&gt;ACM68685.1&lt;/b&gt;&lt;br&gt;AerK&lt;br&gt;Location: 12478 - 11435" locus_tag="ACM68685.1" class="clusterblast-orf" id="dummy-2_h2_10_10"  />
</g>
<g id="a2_0011"  >
<polygon points="412,85 417,80 501,80 501,90 417,90 412,85 " style="fill:white; stroke-width:1; stroke:black; " description="&lt;b&gt;ACM68684.1&lt;/b&gt;&lt;br&gt;AerB&lt;br&gt;Location: 11395 - 6611" locus_tag="ACM68684.1" class="clusterblast-orf" id="dummy-2_h2_10_11"  />
</g>
<g id="a2_0012"  >
<polygon points="503,85 508,80 538,80 538,90 508,90 503,85 " style="fill:white; stroke-width:1; stroke:black; " description="&lt;b&gt;ACM68683.1&lt;/b&gt;&lt;br&gt;AerJ&lt;br&gt;Location: 6487 - 4610" locus_tag="ACM68683.1" class="clusterblast-orf" id="dummy-2_h2_10_12"  />
</g>
<g id="a2_0013"  >
<polygon points="542,85 547,80 622,80 622,90 547,90 542,85 " style="fill:#d8d815; stroke-width:1; stroke:black; " description="&lt;b&gt;ACM68682.1&lt;/b&gt;&lt;br&gt;AerA&lt;br&gt;Location: 4365 - 106&lt;br&gt;&lt;br&gt;&lt;b&gt;BlastP hit with ctg20_94&lt;/b&gt;&lt;br&gt;Percentage identity: 47&lt;br&gt;Percentage coverage: 102&lt;br&gt;BLAST bit score: 1253&lt;br&gt;E-value: 0.0" locus_tag="ACM68682.1" class="clusterblast-orf" id="dummy-2_h2_10_13"  />
</g>
</svg>
