<svg xmlns="http://www.w3.org/2000/svg" xmlns:xlink="http://www.w3.org/1999/xlink" version="1.1" x="0" y="0" height="230" width="800" viewBox="0 0 800 230" preserveAspectRatio="none"  >
<g label="Query sequence" class="clusterblast-cluster"  >
<text x="5" y="20" class="clusterblast-acc"  >
Query sequence</text>
<line x1="10" y1="35" x2="778.0" y2="35" style="stroke-width:1; stroke:grey; "  />
<polygon points="0,40 4,40 9,35 4,30 0,30 0,40 " style="fill:white; stroke-width:1; stroke:black; " description="&lt;b&gt;ctg17_15&lt;/b&gt;&lt;br&gt;ctg17 15&lt;br&gt;Location: 26765 - 27812" locus_tag="ctg17_15" class="clusterblast-orf" id="dummy-1_q0_0_all"  />
<polygon points="12,35 17,30 20,30 20,40 17,40 12,35 " style="fill:#d81515; stroke-width:1; stroke:black; " description="&lt;b&gt;ctg17_16&lt;/b&gt;&lt;br&gt;ctg17 16&lt;br&gt;Location: 28117 - 28990" locus_tag="ctg17_16" class="clusterblast-orf" id="dummy-1_q1_0_all"  />
<polygon points="22,35 27,30 30,30 30,40 27,40 22,35 " style="fill:#3cd815; stroke-width:1; stroke:black; " description="&lt;b&gt;ctg17_17&lt;/b&gt;&lt;br&gt;ctg17 17&lt;br&gt;Location: 29305 - 30163" locus_tag="ctg17_17" class="clusterblast-orf" id="dummy-1_q2_0_all"  />
<polygon points="33,35 38,30 40,30 40,40 38,40 33,35 " style="fill:#1563d8; stroke-width:1; stroke:black; " description="&lt;b&gt;ctg17_18&lt;/b&gt;&lt;br&gt;ctg17 18&lt;br&gt;Location: 30530 - 31217" locus_tag="ctg17_18" class="clusterblast-orf" id="dummy-1_q3_0_all"  />
<polygon points="45,35 50,30 52,30 52,40 50,40 45,35 " style="fill:#1563d8; stroke-width:1; stroke:black; " description="&lt;b&gt;ctg17_19&lt;/b&gt;&lt;br&gt;ctg17 19&lt;br&gt;Location: 31875 - 32568" locus_tag="ctg17_19" class="clusterblast-orf" id="dummy-1_q4_0_all"  />
<polygon points="53,35 58,30 60,30 60,40 58,40 53,35 " style="fill:#1563d8; stroke-width:1; stroke:black; " description="&lt;b&gt;ctg17_20&lt;/b&gt;&lt;br&gt;ctg17 20&lt;br&gt;Location: 32774 - 33461" locus_tag="ctg17_20" class="clusterblast-orf" id="dummy-1_q5_0_all"  />
<polygon points="62,35 67,30 72,30 72,40 67,40 62,35 " style="fill:#b115d8; stroke-width:1; stroke:black; " description="&lt;b&gt;ctg17_21&lt;/b&gt;&lt;br&gt;ctg17 21&lt;br&gt;Location: 33692 - 34895" locus_tag="ctg17_21" class="clusterblast-orf" id="dummy-1_q6_0_all"  />
<polygon points="73,35 78,30 82,30 82,40 78,40 73,35 " style="fill:#d88a15; stroke-width:1; stroke:black; " description="&lt;b&gt;ctg17_22&lt;/b&gt;&lt;br&gt;ctg17 22&lt;br&gt;Location: 34960 - 35986" locus_tag="ctg17_22" class="clusterblast-orf" id="dummy-1_q7_0_all"  />
<polygon points="99,40 100,40 105,35 100,30 99,30 99,40 " style="fill:#15d863; stroke-width:1; stroke:black; " description="&lt;b&gt;ctg17_23&lt;/b&gt;&lt;br&gt;ctg17 23&lt;br&gt;Location: 37826 - 38531" locus_tag="ctg17_23" class="clusterblast-orf" id="dummy-1_q8_0_all"  />
<polygon points="106,35 111,30 112,30 112,40 111,40 106,35 " style="fill:#3c15d8; stroke-width:1; stroke:black; " description="&lt;b&gt;ctg17_24&lt;/b&gt;&lt;br&gt;ctg17 24&lt;br&gt;Location: 38583 - 39315" locus_tag="ctg17_24" class="clusterblast-orf" id="dummy-1_q9_0_all"  />
<polygon points="114,40 116,40 121,35 116,30 114,30 114,40 " style="fill:white; stroke-width:1; stroke:black; " description="&lt;b&gt;ctg17_25&lt;/b&gt;&lt;br&gt;ctg17 25&lt;br&gt;Location: 39541 - 40294" locus_tag="ctg17_25" class="clusterblast-orf" id="dummy-1_q10_0_all"  />
<polygon points="121,35 126,30 129,30 129,40 126,40 121,35 " style="fill:white; stroke-width:1; stroke:black; " description="&lt;b&gt;ctg17_26&lt;/b&gt;&lt;br&gt;ctg17 26&lt;br&gt;Location: 40326 - 41211" locus_tag="ctg17_26" class="clusterblast-orf" id="dummy-1_q11_0_all"  />
<polygon points="129,35 131,30 131,40 129,35 " style="fill:white; stroke-width:1; stroke:black; " description="&lt;b&gt;ctg17_27&lt;/b&gt;&lt;br&gt;ctg17 27&lt;br&gt;Location: 41228 - 41456" locus_tag="ctg17_27" class="clusterblast-orf" id="dummy-1_q12_0_all"  />
<polygon points="132,35 137,30 144,30 144,40 137,40 132,35 " style="fill:white; stroke-width:1; stroke:black; " description="&lt;b&gt;ctg17_28&lt;/b&gt;&lt;br&gt;ctg17 28&lt;br&gt;Location: 41494 - 42868" locus_tag="ctg17_28" class="clusterblast-orf" id="dummy-1_q13_0_all"  />
<polygon points="145,35 150,30 152,30 152,40 150,40 145,35 " style="fill:white; stroke-width:1; stroke:black; " description="&lt;b&gt;ctg17_29&lt;/b&gt;&lt;br&gt;ctg17 29&lt;br&gt;Location: 42933 - 43821" locus_tag="ctg17_29" class="clusterblast-orf" id="dummy-1_q14_0_all"  />
<polygon points="154,35 159,30 166,30 166,40 159,40 154,35 " style="fill:#d8158a; stroke-width:1; stroke:black; " description="&lt;b&gt;ctg17_30&lt;/b&gt;&lt;br&gt;ctg17 30&lt;br&gt;Location: 43937 - 45284" locus_tag="ctg17_30" class="clusterblast-orf" id="dummy-1_q15_0_all"  />
<polygon points="166,35 171,30 203,30 203,40 171,40 166,35 " style="fill:#b1d815; stroke-width:1; stroke:black; " description="&lt;b&gt;ctg17_31&lt;/b&gt;&lt;br&gt;ctg17 31&lt;br&gt;Location: 45283 - 49459" locus_tag="ctg17_31" class="clusterblast-orf" id="dummy-1_q16_0_all"  />
<polygon points="204,35 209,30 211,30 211,40 209,40 204,35 " style="fill:white; stroke-width:1; stroke:black; " description="&lt;b&gt;ctg17_32&lt;/b&gt;&lt;br&gt;ctg17 32&lt;br&gt;Location: 49619 - 50378" locus_tag="ctg17_32" class="clusterblast-orf" id="dummy-1_q17_0_all"  />
<polygon points="212,35 217,30 253,30 253,40 217,40 212,35 " style="fill:#15d8d8; stroke-width:1; stroke:black; " description="&lt;b&gt;ctg17_33&lt;/b&gt;&lt;br&gt;ctg17 33&lt;br&gt;Location: 50430 - 55038" locus_tag="ctg17_33" class="clusterblast-orf" id="dummy-1_q18_0_all"  />
<polygon points="253,35 258,30 293,30 293,40 258,40 253,35 " style="fill:#15d8d8; stroke-width:1; stroke:black; " description="&lt;b&gt;ctg17_34&lt;/b&gt;&lt;br&gt;ctg17 34&lt;br&gt;Location: 55072 - 59473" locus_tag="ctg17_34" class="clusterblast-orf" id="dummy-1_q19_0_all"  />
<polygon points="293,35 298,30 308,30 308,40 298,40 293,35 " style="fill:white; stroke-width:1; stroke:black; " description="&lt;b&gt;ctg17_35&lt;/b&gt;&lt;br&gt;ctg17 35&lt;br&gt;Location: 59524 - 61180" locus_tag="ctg17_35" class="clusterblast-orf" id="dummy-1_q20_0_all"  />
<polygon points="308,35 313,30 350,30 350,40 313,40 308,35 " style="fill:#15d8d8; stroke-width:1; stroke:black; " description="&lt;b&gt;ctg17_36&lt;/b&gt;&lt;br&gt;ctg17 36&lt;br&gt;Location: 61214 - 65870" locus_tag="ctg17_36" class="clusterblast-orf" id="dummy-1_q21_0_all"  />
<polygon points="350,35 355,30 375,30 375,40 355,40 350,35 " style="fill:white; stroke-width:1; stroke:black; " description="&lt;b&gt;ctg17_37&lt;/b&gt;&lt;br&gt;ctg17 37&lt;br&gt;Location: 65891 - 68657" locus_tag="ctg17_37" class="clusterblast-orf" id="dummy-1_q22_0_all"  />
<polygon points="376,35 381,30 386,30 386,40 381,40 376,35 " style="fill:white; stroke-width:1; stroke:black; " description="&lt;b&gt;ctg17_38&lt;/b&gt;&lt;br&gt;ctg17 38&lt;br&gt;Location: 68705 - 69878" locus_tag="ctg17_38" class="clusterblast-orf" id="dummy-1_q23_0_all"  />
<polygon points="387,35 392,30 395,30 395,40 392,40 387,35 " style="fill:white; stroke-width:1; stroke:black; " description="&lt;b&gt;ctg17_39&lt;/b&gt;&lt;br&gt;ctg17 39&lt;br&gt;Location: 70021 - 70903" locus_tag="ctg17_39" class="clusterblast-orf" id="dummy-1_q24_0_all"  />
<polygon points="395,35 400,30 408,30 408,40 400,40 395,35 " style="fill:white; stroke-width:1; stroke:black; " description="&lt;b&gt;ctg17_40&lt;/b&gt;&lt;br&gt;ctg17 40&lt;br&gt;Location: 70914 - 72318" locus_tag="ctg17_40" class="clusterblast-orf" id="dummy-1_q25_0_all"  />
<polygon points="408,35 413,30 462,30 462,40 413,40 408,35 " style="fill:#15d8d8; stroke-width:1; stroke:black; " description="&lt;b&gt;ctg17_41&lt;/b&gt;&lt;br&gt;ctg17 41&lt;br&gt;Location: 72314 - 78377" locus_tag="ctg17_41" class="clusterblast-orf" id="dummy-1_q26_0_all"  />
<polygon points="462,35 467,30 491,30 491,40 467,40 462,35 " style="fill:white; stroke-width:1; stroke:black; " description="&lt;b&gt;ctg17_42&lt;/b&gt;&lt;br&gt;ctg17 42&lt;br&gt;Location: 78390 - 81627" locus_tag="ctg17_42" class="clusterblast-orf" id="dummy-1_q27_0_all"  />
<polygon points="492,35 497,30 501,30 501,40 497,40 492,35 " style="fill:white; stroke-width:1; stroke:black; " description="&lt;b&gt;ctg17_43&lt;/b&gt;&lt;br&gt;ctg17 43&lt;br&gt;Location: 81731 - 82748" locus_tag="ctg17_43" class="clusterblast-orf" id="dummy-1_q28_0_all"  />
<polygon points="501,35 506,30 543,30 543,40 506,40 501,35 " style="fill:#b1d815; stroke-width:1; stroke:black; " description="&lt;b&gt;ctg17_44&lt;/b&gt;&lt;br&gt;ctg17 44&lt;br&gt;Location: 82722 - 87378" locus_tag="ctg17_44" class="clusterblast-orf" id="dummy-1_q29_0_all"  />
<polygon points="543,35 548,30 603,30 603,40 548,40 543,35 " style="fill:#b1d815; stroke-width:1; stroke:black; " description="&lt;b&gt;ctg17_45&lt;/b&gt;&lt;br&gt;ctg17 45&lt;br&gt;Location: 87379 - 94063" locus_tag="ctg17_45" class="clusterblast-orf" id="dummy-1_q30_0_all"  />
<polygon points="604,35 605,30 605,40 604,35 " style="fill:white; stroke-width:1; stroke:black; " description="&lt;b&gt;ctg17_46&lt;/b&gt;&lt;br&gt;ctg17 46&lt;br&gt;Location: 94137 - 94305" locus_tag="ctg17_46" class="clusterblast-orf" id="dummy-1_q31_0_all"  />
<polygon points="613,40 633,40 638,35 633,30 613,30 613,40 " style="fill:white; stroke-width:1; stroke:black; " description="&lt;b&gt;ctg17_47&lt;/b&gt;&lt;br&gt;ctg17 47&lt;br&gt;Location: 95180 - 97985" locus_tag="ctg17_47" class="clusterblast-orf" id="dummy-1_q32_0_all"  />
<polygon points="639,40 642,35 639,30 639,40 " style="fill:white; stroke-width:1; stroke:black; " description="&lt;b&gt;ctg17_48&lt;/b&gt;&lt;br&gt;ctg17 48&lt;br&gt;Location: 98128 - 98395" locus_tag="ctg17_48" class="clusterblast-orf" id="dummy-1_q33_0_all"  />
<polygon points="642,40 646,40 651,35 646,30 642,30 642,40 " style="fill:white; stroke-width:1; stroke:black; " description="&lt;b&gt;ctg17_49&lt;/b&gt;&lt;br&gt;ctg17 49&lt;br&gt;Location: 98424 - 99402" locus_tag="ctg17_49" class="clusterblast-orf" id="dummy-1_q34_0_all"  />
<polygon points="650,40 654,35 650,30 650,40 " style="fill:white; stroke-width:1; stroke:black; " description="&lt;b&gt;ctg17_50&lt;/b&gt;&lt;br&gt;ctg17 50&lt;br&gt;Location: 99367 - 99784" locus_tag="ctg17_50" class="clusterblast-orf" id="dummy-1_q35_0_all"  />
<polygon points="655,35 660,30 671,30 671,40 660,40 655,35 " style="fill:white; stroke-width:1; stroke:black; " description="&lt;b&gt;ctg17_51&lt;/b&gt;&lt;br&gt;ctg17 51&lt;br&gt;Location: 99885 - 101700" locus_tag="ctg17_51" class="clusterblast-orf" id="dummy-1_q36_0_all"  />
<polygon points="678,40 682,40 687,35 682,30 678,30 678,40 " style="fill:white; stroke-width:1; stroke:black; " description="&lt;b&gt;ctg17_52&lt;/b&gt;&lt;br&gt;ctg17 52&lt;br&gt;Location: 102448 - 103432" locus_tag="ctg17_52" class="clusterblast-orf" id="dummy-1_q37_0_all"  />
<polygon points="688,40 688,40 693,35 688,30 688,30 688,40 " style="fill:white; stroke-width:1; stroke:black; " description="&lt;b&gt;ctg17_53&lt;/b&gt;&lt;br&gt;ctg17 53&lt;br&gt;Location: 103508 - 104147" locus_tag="ctg17_53" class="clusterblast-orf" id="dummy-1_q38_0_all"  />
<polygon points="695,40 703,40 708,35 703,30 695,30 695,40 " style="fill:white; stroke-width:1; stroke:black; " description="&lt;b&gt;ctg17_54&lt;/b&gt;&lt;br&gt;ctg17 54&lt;br&gt;Location: 104293 - 105838" locus_tag="ctg17_54" class="clusterblast-orf" id="dummy-1_q39_0_all"  />
<polygon points="708,35 713,30 716,30 716,40 713,40 708,35 " style="fill:white; stroke-width:1; stroke:black; " description="&lt;b&gt;ctg17_55&lt;/b&gt;&lt;br&gt;ctg17 55&lt;br&gt;Location: 105838 - 106639" locus_tag="ctg17_55" class="clusterblast-orf" id="dummy-1_q40_0_all"  />
<polygon points="716,35 721,30 725,30 725,40 721,40 716,35 " style="fill:white; stroke-width:1; stroke:black; " description="&lt;b&gt;ctg17_56&lt;/b&gt;&lt;br&gt;ctg17 56&lt;br&gt;Location: 106642 - 107683" locus_tag="ctg17_56" class="clusterblast-orf" id="dummy-1_q41_0_all"  />
<polygon points="725,35 730,30 734,30 734,40 730,40 725,35 " style="fill:white; stroke-width:1; stroke:black; " description="&lt;b&gt;ctg17_57&lt;/b&gt;&lt;br&gt;ctg17 57&lt;br&gt;Location: 107679 - 108711" locus_tag="ctg17_57" class="clusterblast-orf" id="dummy-1_q42_0_all"  />
<polygon points="737,40 738,40 743,35 738,30 737,30 737,40 " style="fill:white; stroke-width:1; stroke:black; " description="&lt;b&gt;ctg17_58&lt;/b&gt;&lt;br&gt;ctg17 58&lt;br&gt;Location: 109014 - 109716" locus_tag="ctg17_58" class="clusterblast-orf" id="dummy-1_q43_0_all"  />
<polygon points="743,40 745,40 750,35 745,30 743,30 743,40 " style="fill:white; stroke-width:1; stroke:black; " description="&lt;b&gt;ctg17_59&lt;/b&gt;&lt;br&gt;ctg17 59&lt;br&gt;Location: 109715 - 110507" locus_tag="ctg17_59" class="clusterblast-orf" id="dummy-1_q44_0_all"  />
<polygon points="751,40 765,40 770,35 765,30 751,30 751,40 " style="fill:white; stroke-width:1; stroke:black; " description="&lt;b&gt;ctg17_60&lt;/b&gt;&lt;br&gt;ctg17 60&lt;br&gt;Location: 110585 - 112691" locus_tag="ctg17_60" class="clusterblast-orf" id="dummy-1_q45_0_all"  />
<polygon points="774,40 776,35 774,30 774,40 " style="fill:white; stroke-width:1; stroke:black; " description="&lt;b&gt;ctg17_61&lt;/b&gt;&lt;br&gt;ctg17 61&lt;br&gt;Location: 113178 - 113397" locus_tag="ctg17_61" class="clusterblast-orf" id="dummy-1_q46_0_all"  />
<polygon points="778,40 780,35 778,30 778,40 " style="fill:white; stroke-width:1; stroke:black; " description="&lt;b&gt;ctg17_62&lt;/b&gt;&lt;br&gt;ctg17 62&lt;br&gt;Location: 113561 - 113771" locus_tag="ctg17_62" class="clusterblast-orf" id="dummy-1_q47_0_all"  />
</g>
<g label="BGC0001001" description="BGC0001001_c1: jamaicamide A / jamaicamide B / jamaicamide C (11% of genes show similarity), NRP + Polyketide" class="clusterblast-cluster"  >
<text x="5" y="70" class="clusterblast-acc"  >
<a xlink:href="https://mibig.secondarymetabolites.org/go/BGC0001001/1" target="_blank">BGC0001001</a>:                                    jamaicamide A / jamaicamide B / jamaicamide C (11% of genes show similarity), NRP + Polyketide</text>
<line x1="10" y1="85" x2="778.0" y2="85" style="stroke-width:1; stroke:grey; "  />
</g>
<g id="a1_000"  >
<polygon points="79,90 83,85 79,80 79,90 " style="fill:white; stroke-width:1; stroke:black; " description="&lt;b&gt;AAS98793.1&lt;/b&gt;&lt;br&gt;hypothetical protein&lt;br&gt;Location: 69279 - 68839" locus_tag="AAS98793.1" class="clusterblast-orf" id="dummy-1_h1_6_0"  />
</g>
<g id="a1_001"  >
<polygon points="83,90 88,90 93,85 88,80 83,80 83,90 " style="fill:white; stroke-width:1; stroke:black; " description="&lt;b&gt;AAS98791.1&lt;/b&gt;&lt;br&gt;choloylglycine hydrolase-like protein&lt;br&gt;Location: 68833 - 67688" locus_tag="AAS98791.1" class="clusterblast-orf" id="dummy-1_h1_6_1"  />
</g>
<g id="a1_002"  >
<polygon points="103,90 107,85 103,80 103,90 " style="fill:white; stroke-width:1; stroke:black; " description="&lt;b&gt;AAS98792.1&lt;/b&gt;&lt;br&gt;hypothetical protein&lt;br&gt;Location: 66621 - 66175" locus_tag="AAS98792.1" class="clusterblast-orf" id="dummy-1_h1_6_2"  />
</g>
<g id="a1_003"  >
<polygon points="113,90 113,90 118,85 113,80 113,80 113,90 " style="fill:white; stroke-width:1; stroke:black; " description="&lt;b&gt;AAS98790.1&lt;/b&gt;&lt;br&gt;putative transposase&lt;br&gt;Location: 65517 - 64894" locus_tag="AAS98790.1" class="clusterblast-orf" id="dummy-1_h1_6_3"  />
</g>
<g id="a1_004"  >
<polygon points="119,90 121,90 126,85 121,80 119,80 119,90 " style="fill:white; stroke-width:1; stroke:black; " description="&lt;b&gt;AAS98789.1&lt;/b&gt;&lt;br&gt;hypothetical protein&lt;br&gt;Location: 64766 - 64050" locus_tag="AAS98789.1" class="clusterblast-orf" id="dummy-1_h1_6_4"  />
</g>
<g id="a1_005"  >
<polygon points="129,90 136,90 141,85 136,80 129,80 129,90 " style="fill:white; stroke-width:1; stroke:black; " description="&lt;b&gt;AAS98788.1&lt;/b&gt;&lt;br&gt;cyclization enzyme&lt;br&gt;Location: 63646 - 62318" locus_tag="AAS98788.1" class="clusterblast-orf" id="dummy-1_h1_6_5"  />
</g>
<g id="a1_006"  >
<polygon points="142,85 147,80 191,80 191,90 147,90 142,85 " style="fill:#15d8d8; stroke-width:1; stroke:black; " description="&lt;b&gt;AAS98787.1&lt;/b&gt;&lt;br&gt;polyketide synthase/thioesterase&lt;br&gt;Location: 62197 - 56771&lt;br&gt;&lt;br&gt;&lt;b&gt;BlastP hit with ctg17_33&lt;/b&gt;&lt;br&gt;Percentage identity: 51&lt;br&gt;Percentage coverage: 100&lt;br&gt;BLAST bit score: 1489&lt;br&gt;E-value: 0.0&lt;br&gt;&lt;br&gt;&lt;b&gt;BlastP hit with ctg17_34&lt;/b&gt;&lt;br&gt;Percentage identity: 51&lt;br&gt;Percentage coverage: 106&lt;br&gt;BLAST bit score: 1477&lt;br&gt;E-value: 0.0&lt;br&gt;&lt;br&gt;&lt;b&gt;BlastP hit with ctg17_36&lt;/b&gt;&lt;br&gt;Percentage identity: 54&lt;br&gt;Percentage coverage: 100&lt;br&gt;BLAST bit score: 1600&lt;br&gt;E-value: 0.0&lt;br&gt;&lt;br&gt;&lt;b&gt;BlastP hit with ctg17_41&lt;/b&gt;&lt;br&gt;Percentage identity: 54&lt;br&gt;Percentage coverage: 76&lt;br&gt;BLAST bit score: 1555&lt;br&gt;E-value: 0.0" locus_tag="AAS98787.1" class="clusterblast-orf" id="dummy-1_h1_6_6"  />
</g>
<g id="a1_007"  >
<polygon points="191,85 196,80 222,80 222,90 196,90 191,85 " style="fill:#b1d815; stroke-width:1; stroke:black; " description="&lt;b&gt;AAS98786.1&lt;/b&gt;&lt;br&gt;nonribosomal peptide synthetase&lt;br&gt;Location: 56750 - 53274&lt;br&gt;&lt;br&gt;&lt;b&gt;BlastP hit with ctg17_45&lt;/b&gt;&lt;br&gt;Percentage identity: 48&lt;br&gt;Percentage coverage: 50&lt;br&gt;BLAST bit score: 985&lt;br&gt;E-value: 1.4e-286" locus_tag="AAS98786.1" class="clusterblast-orf" id="dummy-1_h1_6_7"  />
</g>
<g id="a1_008"  >
<polygon points="222,85 227,80 236,80 236,90 227,90 222,85 " style="fill:white; stroke-width:1; stroke:black; " description="&lt;b&gt;AAS98785.1&lt;/b&gt;&lt;br&gt;polyketide synthase&lt;br&gt;Location: 53277 - 51811" locus_tag="AAS98785.1" class="clusterblast-orf" id="dummy-1_h1_6_8"  />
</g>
<g id="a1_009"  >
<polygon points="237,85 242,80 263,80 263,90 242,90 237,85 " style="fill:#15d8d8; stroke-width:1; stroke:black; " description="&lt;b&gt;AAS98784.1&lt;/b&gt;&lt;br&gt;polyketide synthase&lt;br&gt;Location: 51696 - 48697&lt;br&gt;&lt;br&gt;&lt;b&gt;BlastP hit with ctg17_33&lt;/b&gt;&lt;br&gt;Percentage identity: 52&lt;br&gt;Percentage coverage: 58&lt;br&gt;BLAST bit score: 893&lt;br&gt;E-value: 6.6e-259&lt;br&gt;&lt;br&gt;&lt;b&gt;BlastP hit with ctg17_34&lt;/b&gt;&lt;br&gt;Percentage identity: 47&lt;br&gt;Percentage coverage: 61&lt;br&gt;BLAST bit score: 800&lt;br&gt;E-value: 4.3e-231&lt;br&gt;&lt;br&gt;&lt;b&gt;BlastP hit with ctg17_36&lt;/b&gt;&lt;br&gt;Percentage identity: 51&lt;br&gt;Percentage coverage: 58&lt;br&gt;BLAST bit score: 888&lt;br&gt;E-value: 1.6e-257&lt;br&gt;&lt;br&gt;&lt;b&gt;BlastP hit with ctg17_41&lt;/b&gt;&lt;br&gt;Percentage identity: 53&lt;br&gt;Percentage coverage: 45&lt;br&gt;BLAST bit score: 911&lt;br&gt;E-value: 1.8e-264" locus_tag="AAS98784.1" class="clusterblast-orf" id="dummy-1_h1_6_9"  />
</g>
<g id="a1_0010"  >
<polygon points="264,85 269,80 370,80 370,90 269,90 264,85 " style="fill:white; stroke-width:1; stroke:black; " description="&lt;b&gt;AAS98783.1&lt;/b&gt;&lt;br&gt;polyketide synthase/nonribosomal peptide synthase hybrid&lt;br&gt;Location: 48627 - 36820" locus_tag="AAS98783.1" class="clusterblast-orf" id="dummy-1_h1_6_10"  />
</g>
<g id="a1_0011"  >
<polygon points="371,85 376,80 416,80 416,90 376,90 371,85 " style="fill:white; stroke-width:1; stroke:black; " description="&lt;b&gt;AAS98782.1&lt;/b&gt;&lt;br&gt;polyketide synthase&lt;br&gt;Location: 36752 - 31659" locus_tag="AAS98782.1" class="clusterblast-orf" id="dummy-1_h1_6_11"  />
</g>
<g id="a1_0012"  >
<polygon points="416,85 421,80 505,80 505,90 421,90 416,85 " style="fill:white; stroke-width:1; stroke:black; " description="&lt;b&gt;AAS98781.1&lt;/b&gt;&lt;br&gt;polyketide synthase&lt;br&gt;Location: 31642 - 21734" locus_tag="AAS98781.1" class="clusterblast-orf" id="dummy-1_h1_6_12"  />
</g>
<g id="a1_0013"  >
<polygon points="505,85 510,80 512,80 512,90 510,90 505,85 " style="fill:white; stroke-width:1; stroke:black; " description="&lt;b&gt;AAS98780.1&lt;/b&gt;&lt;br&gt;enoyl hydratase family&lt;br&gt;Location: 21746 - 20982" locus_tag="AAS98780.1" class="clusterblast-orf" id="dummy-1_h1_6_13"  />
</g>
<g id="a1_0014"  >
<polygon points="514,85 519,80 526,80 526,90 519,90 514,85 " style="fill:white; stroke-width:1; stroke:black; " description="&lt;b&gt;AAS98779.1&lt;/b&gt;&lt;br&gt;hydroxymethyl glutaryl-ACP synthase like activity&lt;br&gt;Location: 20712 - 19453" locus_tag="AAS98779.1" class="clusterblast-orf" id="dummy-1_h1_6_14"  />
</g>
<g id="a1_0015"  >
<polygon points="526,85 531,80 537,80 537,90 531,90 526,85 " style="fill:white; stroke-width:1; stroke:black; " description="&lt;b&gt;AAS98778.1&lt;/b&gt;&lt;br&gt;ketosynthase/decarboxylase&lt;br&gt;Location: 19448 - 18222" locus_tag="AAS98778.1" class="clusterblast-orf" id="dummy-1_h1_6_15"  />
</g>
<g id="a1_0016"  >
<polygon points="538,85 540,80 540,90 538,85 " style="fill:white; stroke-width:1; stroke:black; " description="&lt;b&gt;AAS98799.1&lt;/b&gt;&lt;br&gt;acyl carrier protein&lt;br&gt;Location: 18050 - 17811" locus_tag="AAS98799.1" class="clusterblast-orf" id="dummy-1_h1_6_16"  />
</g>
<g id="a1_0017"  >
<polygon points="541,85 546,80 587,80 587,90 546,90 541,85 " style="fill:white; stroke-width:1; stroke:black; " description="&lt;b&gt;AAS98777.1&lt;/b&gt;&lt;br&gt;polyketide synthetase&lt;br&gt;Location: 17788 - 12596" locus_tag="AAS98777.1" class="clusterblast-orf" id="dummy-1_h1_6_17"  />
</g>
<g id="a1_0018"  >
<polygon points="588,85 593,80 606,80 606,90 593,90 588,85 " style="fill:white; stroke-width:1; stroke:black; " description="&lt;b&gt;AAS98776.1&lt;/b&gt;&lt;br&gt;Putative bromination enzyme&lt;br&gt;Location: 12514 - 10463" locus_tag="AAS98776.1" class="clusterblast-orf" id="dummy-1_h1_6_18"  />
</g>
<g id="a1_0019"  >
<polygon points="610,85 613,80 613,90 610,85 " style="fill:white; stroke-width:1; stroke:black; " description="&lt;b&gt;AAS98798.1&lt;/b&gt;&lt;br&gt;acyl carrier protein&lt;br&gt;Location: 10020 - 9718" locus_tag="AAS98798.1" class="clusterblast-orf" id="dummy-1_h1_6_19"  />
</g>
<g id="a1_0020"  >
<polygon points="614,85 619,80 623,80 623,90 619,90 614,85 " style="fill:white; stroke-width:1; stroke:black; " description="&lt;b&gt;AAS98775.1&lt;/b&gt;&lt;br&gt;Desaturase&lt;br&gt;Location: 9556 - 8591" locus_tag="AAS98775.1" class="clusterblast-orf" id="dummy-1_h1_6_20"  />
</g>
<g id="a1_0021"  >
<polygon points="625,85 630,80 641,80 641,90 630,90 625,85 " style="fill:white; stroke-width:1; stroke:black; " description="&lt;b&gt;AAS98774.1&lt;/b&gt;&lt;br&gt;Acyl-ACP Synthetase&lt;br&gt;Location: 8408 - 6630" locus_tag="AAS98774.1" class="clusterblast-orf" id="dummy-1_h1_6_21"  />
</g>
<g id="a1_0022"  >
<polygon points="656,90 656,90 661,85 656,80 656,80 656,90 " style="fill:white; stroke-width:1; stroke:black; " description="&lt;b&gt;AAS98797.1&lt;/b&gt;&lt;br&gt;transposase&lt;br&gt;Location: 4957 - 4382" locus_tag="AAS98797.1" class="clusterblast-orf" id="dummy-1_h1_6_22"  />
</g>
<g id="a1_0023"  >
<polygon points="666,90 667,90 672,85 667,80 666,80 666,90 " style="fill:white; stroke-width:1; stroke:black; " description="&lt;b&gt;AAS98796.1&lt;/b&gt;&lt;br&gt;putative transposase&lt;br&gt;Location: 3749 - 3126" locus_tag="AAS98796.1" class="clusterblast-orf" id="dummy-1_h1_6_23"  />
</g>
<g id="a1_0024"  >
<polygon points="675,90 678,85 675,80 675,90 " style="fill:white; stroke-width:1; stroke:black; " description="&lt;b&gt;AAS98795.1&lt;/b&gt;&lt;br&gt;hypothetical protein&lt;br&gt;Location: 2813 - 2460" locus_tag="AAS98795.1" class="clusterblast-orf" id="dummy-1_h1_6_24"  />
</g>
<g id="a1_0025"  >
<polygon points="678,85 683,80 700,80 700,90 683,90 678,85 " style="fill:white; stroke-width:1; stroke:black; " description="&lt;b&gt;AAS98794.1&lt;/b&gt;&lt;br&gt;sucrose synthase&lt;br&gt;Location: 2415 - 1" locus_tag="AAS98794.1" class="clusterblast-orf" id="dummy-1_h1_6_25"  />
</g>
</svg>
