<svg xmlns="http://www.w3.org/2000/svg" xmlns:xlink="http://www.w3.org/1999/xlink" version="1.1" x="0" y="0" height="230" width="800" viewBox="0 0 800 230" preserveAspectRatio="none"  >
<g label="Query sequence" class="clusterblast-cluster"  >
<text x="5" y="20" class="clusterblast-acc"  >
Query sequence</text>
<line x1="10" y1="35" x2="778.0" y2="35" style="stroke-width:1; stroke:grey; "  />
<polygon points="93,40 142,40 147,35 142,30 93,30 93,40 " style="fill:white; stroke-width:1; stroke:black; " description="&lt;b&gt;ctg35_27&lt;/b&gt;&lt;br&gt;ctg35 27&lt;br&gt;Location: 31729 - 34594" locus_tag="ctg35_27" class="clusterblast-orf" id="dummy-1_q0_0_all"  />
<polygon points="148,35 153,30 170,30 170,40 153,40 148,35 " style="fill:#d81515; stroke-width:1; stroke:black; " description="&lt;b&gt;ctg35_28&lt;/b&gt;&lt;br&gt;ctg35 28&lt;br&gt;Location: 34635 - 35802" locus_tag="ctg35_28" class="clusterblast-orf" id="dummy-1_q1_0_all"  />
<polygon points="171,35 176,30 193,30 193,40 176,40 171,35 " style="fill:#77d815; stroke-width:1; stroke:black; " description="&lt;b&gt;ctg35_29&lt;/b&gt;&lt;br&gt;ctg35 29&lt;br&gt;Location: 35849 - 37028" locus_tag="ctg35_29" class="clusterblast-orf" id="dummy-1_q2_0_all"  />
<polygon points="195,35 200,30 204,30 204,40 200,40 195,35 " style="fill:#15d8d8; stroke-width:1; stroke:black; " description="&lt;b&gt;ctg35_30&lt;/b&gt;&lt;br&gt;ctg35 30&lt;br&gt;Location: 37121 - 37571" locus_tag="ctg35_30" class="clusterblast-orf" id="dummy-1_q3_0_all"  />
<polygon points="208,40 211,35 208,30 208,40 " style="fill:white; stroke-width:1; stroke:black; " description="&lt;b&gt;ctg35_31&lt;/b&gt;&lt;br&gt;ctg35 31&lt;br&gt;Location: 37803 - 37968" locus_tag="ctg35_31" class="clusterblast-orf" id="dummy-1_q4_0_all"  />
<polygon points="213,40 238,40 243,35 238,30 213,30 213,40 " style="fill:#7715d8; stroke-width:1; stroke:black; " description="&lt;b&gt;ctg35_32&lt;/b&gt;&lt;br&gt;ctg35 32&lt;br&gt;Location: 38038 - 39661" locus_tag="ctg35_32" class="clusterblast-orf" id="dummy-1_q5_0_all"  />
<polygon points="245,40 267,40 272,35 267,30 245,30 245,40 " style="fill:#d85015; stroke-width:1; stroke:black; " description="&lt;b&gt;ctg35_33&lt;/b&gt;&lt;br&gt;ctg35 33&lt;br&gt;Location: 39741 - 41196" locus_tag="ctg35_33" class="clusterblast-orf" id="dummy-1_q6_0_all"  />
<polygon points="282,40 297,40 302,35 297,30 282,30 282,40 " style="fill:white; stroke-width:1; stroke:black; " description="&lt;b&gt;ctg35_34&lt;/b&gt;&lt;br&gt;ctg35 34&lt;br&gt;Location: 41716 - 42796" locus_tag="ctg35_34" class="clusterblast-orf" id="dummy-1_q7_0_all"  />
<polygon points="312,40 322,40 327,35 322,30 312,30 312,40 " style="fill:#3cd815; stroke-width:1; stroke:black; " description="&lt;b&gt;ctg35_35&lt;/b&gt;&lt;br&gt;ctg35 35&lt;br&gt;Location: 43309 - 44074" locus_tag="ctg35_35" class="clusterblast-orf" id="dummy-1_q8_0_all"  />
<polygon points="334,40 340,40 345,35 340,30 334,30 334,40 " style="fill:#159ed8; stroke-width:1; stroke:black; " description="&lt;b&gt;ctg35_36&lt;/b&gt;&lt;br&gt;ctg35 36&lt;br&gt;Location: 44456 - 45035" locus_tag="ctg35_36" class="clusterblast-orf" id="dummy-1_q9_0_all"  />
<polygon points="346,40 364,40 369,35 364,30 346,30 346,40 " style="fill:#b115d8; stroke-width:1; stroke:black; " description="&lt;b&gt;ctg35_37&lt;/b&gt;&lt;br&gt;ctg35 37&lt;br&gt;Location: 45103 - 46324" locus_tag="ctg35_37" class="clusterblast-orf" id="dummy-1_q10_0_all"  />
<polygon points="377,40 390,40 395,35 390,30 377,30 377,40 " style="fill:#d88a15; stroke-width:1; stroke:black; " description="&lt;b&gt;ctg35_38&lt;/b&gt;&lt;br&gt;ctg35 38&lt;br&gt;Location: 46718 - 47678" locus_tag="ctg35_38" class="clusterblast-orf" id="dummy-1_q11_0_all"  />
<polygon points="396,35 399,30 399,40 396,35 " style="fill:white; stroke-width:1; stroke:black; " description="&lt;b&gt;ctg35_39&lt;/b&gt;&lt;br&gt;ctg35 39&lt;br&gt;Location: 47752 - 47902" locus_tag="ctg35_39" class="clusterblast-orf" id="dummy-1_q12_0_all"  />
<polygon points="403,40 416,40 421,35 416,30 403,30 403,40 " style="fill:#d88a15; stroke-width:1; stroke:black; " description="&lt;b&gt;ctg35_40&lt;/b&gt;&lt;br&gt;ctg35 40&lt;br&gt;Location: 48100 - 49096" locus_tag="ctg35_40" class="clusterblast-orf" id="dummy-1_q13_0_all"  />
<polygon points="421,40 432,40 437,35 432,30 421,30 421,40 " style="fill:#15d829; stroke-width:1; stroke:black; " description="&lt;b&gt;ctg35_41&lt;/b&gt;&lt;br&gt;ctg35 41&lt;br&gt;Location: 49095 - 49914" locus_tag="ctg35_41" class="clusterblast-orf" id="dummy-1_q14_0_all"  />
<polygon points="443,40 455,40 460,35 455,30 443,30 443,40 " style="fill:#1563d8; stroke-width:1; stroke:black; " description="&lt;b&gt;ctg35_42&lt;/b&gt;&lt;br&gt;ctg35 42&lt;br&gt;Location: 50231 - 51158" locus_tag="ctg35_42" class="clusterblast-orf" id="dummy-1_q15_0_all"  />
<polygon points="465,40 497,40 502,35 497,30 465,30 465,40 " style="fill:#d815c5; stroke-width:1; stroke:black; " description="&lt;b&gt;ctg35_43&lt;/b&gt;&lt;br&gt;ctg35 43&lt;br&gt;Location: 51402 - 53355" locus_tag="ctg35_43" class="clusterblast-orf" id="dummy-1_q16_0_all"  />
<polygon points="506,40 523,40 528,35 523,30 506,30 506,40 " style="fill:#d8c515; stroke-width:1; stroke:black; " description="&lt;b&gt;ctg35_44&lt;/b&gt;&lt;br&gt;ctg35 44&lt;br&gt;Location: 53573 - 54710" locus_tag="ctg35_44" class="clusterblast-orf" id="dummy-1_q17_0_all"  />
<polygon points="531,40 543,40 548,35 543,30 531,30 531,40 " style="fill:#15d863; stroke-width:1; stroke:black; " description="&lt;b&gt;ctg35_45&lt;/b&gt;&lt;br&gt;ctg35 45&lt;br&gt;Location: 54887 - 55793" locus_tag="ctg35_45" class="clusterblast-orf" id="dummy-1_q18_0_all"  />
<polygon points="550,40 586,40 591,35 586,30 550,30 550,40 " style="fill:#1529d8; stroke-width:1; stroke:black; " description="&lt;b&gt;ctg35_46&lt;/b&gt;&lt;br&gt;ctg35 46&lt;br&gt;Location: 55875 - 58080" locus_tag="ctg35_46" class="clusterblast-orf" id="dummy-1_q19_0_all"  />
<polygon points="595,40 606,40 611,35 606,30 595,30 595,40 " style="fill:#d8158a; stroke-width:1; stroke:black; " description="&lt;b&gt;ctg35_47&lt;/b&gt;&lt;br&gt;ctg35 47&lt;br&gt;Location: 58261 - 59113" locus_tag="ctg35_47" class="clusterblast-orf" id="dummy-1_q20_0_all"  />
<polygon points="612,40 622,40 627,35 622,30 612,30 612,40 " style="fill:#b1d815; stroke-width:1; stroke:black; " description="&lt;b&gt;ctg35_48&lt;/b&gt;&lt;br&gt;ctg35 48&lt;br&gt;Location: 59160 - 59985" locus_tag="ctg35_48" class="clusterblast-orf" id="dummy-1_q21_0_all"  />
<polygon points="628,40 647,40 652,35 647,30 628,30 628,40 " style="fill:#15d89e; stroke-width:1; stroke:black; " description="&lt;b&gt;ctg35_49&lt;/b&gt;&lt;br&gt;ctg35 49&lt;br&gt;Location: 60041 - 61289" locus_tag="ctg35_49" class="clusterblast-orf" id="dummy-1_q22_0_all"  />
<polygon points="653,40 668,40 673,35 668,30 653,30 653,40 " style="fill:#3c15d8; stroke-width:1; stroke:black; " description="&lt;b&gt;ctg35_50&lt;/b&gt;&lt;br&gt;ctg35 50&lt;br&gt;Location: 61328 - 62426" locus_tag="ctg35_50" class="clusterblast-orf" id="dummy-1_q23_0_all"  />
<polygon points="674,40 681,40 686,35 681,30 674,30 674,40 " style="fill:#d81550; stroke-width:1; stroke:black; " description="&lt;b&gt;ctg35_51&lt;/b&gt;&lt;br&gt;ctg35 51&lt;br&gt;Location: 62450 - 63095" locus_tag="ctg35_51" class="clusterblast-orf" id="dummy-1_q24_0_all"  />
</g>
<g label="BGC0001126" description="BGC0001126_c1: 12-epi-hapalindole J isonitrile / ambiguine A isonitrile / amb... (59% of genes show similarity), Terpene + Alkaloid" class="clusterblast-cluster"  >
<text x="5" y="70" class="clusterblast-acc"  >
<a xlink:href="https://mibig.secondarymetabolites.org/go/BGC0001126/1" target="_blank">BGC0001126</a>: 12-epi-hapalindole J isonitrile / ambiguine A isonitrile / ambiguine B isonitrile / ambiguine C isonitrile / ambiguine D isonitrile / ambiguine E isonitrile / ambiguine K isonitrile / ambiguine L isonitrile / ambiguine I isonitrile / ambiguine J isonitrile (59% of genes show similarity), Terpene + Alkaloid</text>
<line x1="10" y1="85" x2="778.0" y2="85" style="stroke-width:1; stroke:grey; "  />
</g>
<g id="a1_000"  >
<polygon points="0,90 3,90 8,85 3,80 0,80 0,90 " style="fill:#15d8d8; stroke-width:1; stroke:black; " description="&lt;b&gt;AHB62752.1&lt;/b&gt;&lt;br&gt;conserved membrane hypothetical protein (possible transporter)&lt;br&gt;Location: 257 - 712&lt;br&gt;&lt;br&gt;&lt;b&gt;BlastP hit with ctg35_30&lt;/b&gt;&lt;br&gt;Percentage identity: 84&lt;br&gt;Percentage coverage: 101&lt;br&gt;BLAST bit score: 243&lt;br&gt;E-value: 1.6e-64" locus_tag="AHB62752.1" class="clusterblast-orf" id="dummy-1_h1_2_0"  />
</g>
<g id="a1_001"  >
<polygon points="8,90 26,90 31,85 26,80 8,80 8,90 " style="fill:#77d815; stroke-width:1; stroke:black; " description="&lt;b&gt;AHB62753.1&lt;/b&gt;&lt;br&gt; ABC exporter membrane fusion protein, DevB family&lt;br&gt;Location: 720 - 1913&lt;br&gt;&lt;br&gt;&lt;b&gt;BlastP hit with ctg35_29&lt;/b&gt;&lt;br&gt;Percentage identity: 78&lt;br&gt;Percentage coverage: 100&lt;br&gt;BLAST bit score: 452&lt;br&gt;E-value: 5.8e-127" locus_tag="AHB62753.1" class="clusterblast-orf" id="dummy-1_h1_2_1"  />
</g>
<g id="a1_002"  >
<polygon points="31,90 48,90 53,85 48,80 31,80 31,90 " style="fill:#d81515; stroke-width:1; stroke:black; " description="&lt;b&gt;AHB62754.1&lt;/b&gt;&lt;br&gt;DevC protein&lt;br&gt;Location: 1937 - 3103&lt;br&gt;&lt;br&gt;&lt;b&gt;BlastP hit with ctg35_28&lt;/b&gt;&lt;br&gt;Percentage identity: 91&lt;br&gt;Percentage coverage: 100&lt;br&gt;BLAST bit score: 689&lt;br&gt;E-value: 3.7e-198" locus_tag="AHB62754.1" class="clusterblast-orf" id="dummy-1_h1_2_2"  />
</g>
<g id="a1_003"  >
<polygon points="61,85 66,80 79,80 79,90 66,90 61,85 " style="fill:white; stroke-width:1; stroke:black; " description="&lt;b&gt;AHB62755.1&lt;/b&gt;&lt;br&gt;halogenase, 2OG-Fe(II) oxygenase family&lt;br&gt;Location: 3510 - 4460" locus_tag="AHB62755.1" class="clusterblast-orf" id="dummy-1_h1_2_3"  />
</g>
<g id="a1_004"  >
<polygon points="81,85 86,80 97,80 97,90 86,90 81,85 " style="fill:white; stroke-width:1; stroke:black; " description="&lt;b&gt;AHB62756.1&lt;/b&gt;&lt;br&gt;rieske oxygenase&lt;br&gt;Location: 4585 - 5442" locus_tag="AHB62756.1" class="clusterblast-orf" id="dummy-1_h1_2_4"  />
</g>
<g id="a1_005"  >
<polygon points="106,85 111,80 119,80 119,90 111,90 106,85 " style="fill:white; stroke-width:1; stroke:black; " description="&lt;b&gt;AHB62757.1&lt;/b&gt;&lt;br&gt;unknown function&lt;br&gt;Location: 5880 - 6587" locus_tag="AHB62757.1" class="clusterblast-orf" id="dummy-1_h1_2_5"  />
</g>
<g id="a1_006"  >
<polygon points="126,85 131,80 139,80 139,90 131,90 126,85 " style="fill:white; stroke-width:1; stroke:black; " description="&lt;b&gt;AHB62758.1&lt;/b&gt;&lt;br&gt;AmbU3&lt;br&gt;Location: 6960 - 7652" locus_tag="AHB62758.1" class="clusterblast-orf" id="dummy-1_h1_2_6"  />
</g>
<g id="a1_007"  >
<polygon points="145,85 150,80 159,80 159,90 150,90 145,85 " style="fill:white; stroke-width:1; stroke:black; " description="&lt;b&gt;AHB62759.1&lt;/b&gt;&lt;br&gt;AmbU2&lt;br&gt;Location: 7982 - 8698" locus_tag="AHB62759.1" class="clusterblast-orf" id="dummy-1_h1_2_7"  />
</g>
<g id="a1_008"  >
<polygon points="165,85 170,80 178,80 178,90 170,90 165,85 " style="fill:white; stroke-width:1; stroke:black; " description="&lt;b&gt;AHB62760.1&lt;/b&gt;&lt;br&gt;AmbU1&lt;br&gt;Location: 8992 - 9711" locus_tag="AHB62760.1" class="clusterblast-orf" id="dummy-1_h1_2_8"  />
</g>
<g id="a1_009"  >
<polygon points="179,85 184,80 200,80 200,90 184,90 179,85 " style="fill:white; stroke-width:1; stroke:black; " description="&lt;b&gt;AHB62761.1&lt;/b&gt;&lt;br&gt;rieske oxygenase&lt;br&gt;Location: 9766 - 10857" locus_tag="AHB62761.1" class="clusterblast-orf" id="dummy-1_h1_2_9"  />
</g>
<g id="a1_0010"  >
<polygon points="206,85 211,80 226,80 226,90 211,90 206,85 " style="fill:white; stroke-width:1; stroke:black; " description="&lt;b&gt;AHB62762.1&lt;/b&gt;&lt;br&gt;rieske oxygenase&lt;br&gt;Location: 11166 - 12248" locus_tag="AHB62762.1" class="clusterblast-orf" id="dummy-1_h1_2_10"  />
</g>
<g id="a1_0011"  >
<polygon points="228,85 233,80 248,80 248,90 233,90 228,85 " style="fill:white; stroke-width:1; stroke:black; " description="&lt;b&gt;AHB62763.1&lt;/b&gt;&lt;br&gt;rieske oxygenase&lt;br&gt;Location: 12336 - 13415" locus_tag="AHB62763.1" class="clusterblast-orf" id="dummy-1_h1_2_11"  />
</g>
<g id="a1_0012"  >
<polygon points="254,85 259,80 272,80 272,90 259,90 254,85 " style="fill:#1563d8; stroke-width:1; stroke:black; " description="&lt;b&gt;AHB62764.1&lt;/b&gt;&lt;br&gt;aromatic prenyl transferase&lt;br&gt;Location: 13715 - 14683&lt;br&gt;&lt;br&gt;&lt;b&gt;BlastP hit with ctg35_42&lt;/b&gt;&lt;br&gt;Percentage identity: 58&lt;br&gt;Percentage coverage: 98&lt;br&gt;BLAST bit score: 362&lt;br&gt;E-value: 8.2e-100" locus_tag="AHB62764.1" class="clusterblast-orf" id="dummy-1_h1_2_12"  />
</g>
<g id="a1_0013"  >
<polygon points="276,85 281,80 299,80 299,90 281,90 276,85 " style="fill:white; stroke-width:1; stroke:black; " description="&lt;b&gt;AHB62765.1&lt;/b&gt;&lt;br&gt;4-hydroxy-3-methylbut-2-enyl diphosphate reductase (IspH)&lt;br&gt;Location: 14911 - 16113" locus_tag="AHB62765.1" class="clusterblast-orf" id="dummy-1_h1_2_13"  />
</g>
<g id="a1_0014"  >
<polygon points="300,85 305,80 320,80 320,90 305,90 300,85 " style="fill:white; stroke-width:1; stroke:black; " description="&lt;b&gt;AHB62766.1&lt;/b&gt;&lt;br&gt;geranyl diphosphate synthase&lt;br&gt;Location: 16186 - 17226" locus_tag="AHB62766.1" class="clusterblast-orf" id="dummy-1_h1_2_14"  />
</g>
<g id="a1_0015"  >
<polygon points="369,90 377,90 382,85 377,80 369,80 369,90 " style="fill:white; stroke-width:1; stroke:black; " description="&lt;b&gt;AHB62767.1&lt;/b&gt;&lt;br&gt;LuxR family transcriptional regulator&lt;br&gt;Location: 19791 - 20489" locus_tag="AHB62767.1" class="clusterblast-orf" id="dummy-1_h1_2_15"  />
</g>
<g id="a1_0016"  >
<polygon points="386,85 391,80 400,80 400,90 391,90 386,85 " style="fill:white; stroke-width:1; stroke:black; " description="&lt;b&gt;AHB62768.1&lt;/b&gt;&lt;br&gt;LuxR family transcriptional regulator&lt;br&gt;Location: 20721 - 21455" locus_tag="AHB62768.1" class="clusterblast-orf" id="dummy-1_h1_2_16"  />
</g>
<g id="a1_0017"  >
<polygon points="428,90 434,90 439,85 434,80 428,80 428,90 " style="fill:#159ed8; stroke-width:1; stroke:black; " description="&lt;b&gt;AHB62769.1&lt;/b&gt;&lt;br&gt;dephospho-CoA kinase-like protein&lt;br&gt;Location: 22948 - 23526&lt;br&gt;&lt;br&gt;&lt;b&gt;BlastP hit with ctg35_36&lt;/b&gt;&lt;br&gt;Percentage identity: 89&lt;br&gt;Percentage coverage: 100&lt;br&gt;BLAST bit score: 335&lt;br&gt;E-value: 6.7e-92" locus_tag="AHB62769.1" class="clusterblast-orf" id="dummy-1_h1_2_17"  />
</g>
<g id="a1_0018"  >
<polygon points="440,90 458,90 463,85 458,80 440,80 440,90 " style="fill:#b115d8; stroke-width:1; stroke:black; " description="&lt;b&gt;AHB62770.1&lt;/b&gt;&lt;br&gt;1-deoxy-D-xylulose 5-phosphate reductoisomerase (IspC, Dxr)&lt;br&gt;Location: 23591 - 24811&lt;br&gt;&lt;br&gt;&lt;b&gt;BlastP hit with ctg35_37&lt;/b&gt;&lt;br&gt;Percentage identity: 94&lt;br&gt;Percentage coverage: 100&lt;br&gt;BLAST bit score: 757&lt;br&gt;E-value: 8.8e-219" locus_tag="AHB62770.1" class="clusterblast-orf" id="dummy-1_h1_2_18"  />
</g>
<g id="a1_0019"  >
<polygon points="469,90 482,90 487,85 482,80 469,80 469,90 " style="fill:#d88a15; stroke-width:1; stroke:black; " description="&lt;b&gt;AHB62771.1&lt;/b&gt;&lt;br&gt;isonitrile indole synthase A (IsnA)&lt;br&gt;Location: 25117 - 26076&lt;br&gt;&lt;br&gt;&lt;b&gt;BlastP hit with ctg35_38&lt;/b&gt;&lt;br&gt;Percentage identity: 89&lt;br&gt;Percentage coverage: 100&lt;br&gt;BLAST bit score: 606&lt;br&gt;E-value: 2e-173&lt;br&gt;&lt;br&gt;&lt;b&gt;BlastP hit with ctg35_40&lt;/b&gt;&lt;br&gt;Percentage identity: 67&lt;br&gt;Percentage coverage: 93&lt;br&gt;BLAST bit score: 446&lt;br&gt;E-value: 4.6e-125" locus_tag="AHB62771.1" class="clusterblast-orf" id="dummy-1_h1_2_19"  />
</g>
<g id="a1_0020"  >
<polygon points="491,90 505,90 510,85 505,80 491,80 491,90 " style="fill:#d88a15; stroke-width:1; stroke:black; " description="&lt;b&gt;AHB62772.1&lt;/b&gt;&lt;br&gt;isonitrile indole synthase A (IsnA)&lt;br&gt;Location: 26268 - 27260&lt;br&gt;&lt;br&gt;&lt;b&gt;BlastP hit with ctg35_38&lt;/b&gt;&lt;br&gt;Percentage identity: 65&lt;br&gt;Percentage coverage: 99&lt;br&gt;BLAST bit score: 455&lt;br&gt;E-value: 7.3e-128&lt;br&gt;&lt;br&gt;&lt;b&gt;BlastP hit with ctg35_40&lt;/b&gt;&lt;br&gt;Percentage identity: 92&lt;br&gt;Percentage coverage: 100&lt;br&gt;BLAST bit score: 636&lt;br&gt;E-value: 3.1e-182" locus_tag="AHB62772.1" class="clusterblast-orf" id="dummy-1_h1_2_20"  />
</g>
<g id="a1_0021"  >
<polygon points="510,90 520,90 525,85 520,80 510,80 510,90 " style="fill:#15d829; stroke-width:1; stroke:black; " description="&lt;b&gt;AHB62773.1&lt;/b&gt;&lt;br&gt;isonitrile indole synthase B (IsnB)&lt;br&gt;Location: 27260 - 28081&lt;br&gt;&lt;br&gt;&lt;b&gt;BlastP hit with ctg35_41&lt;/b&gt;&lt;br&gt;Percentage identity: 92&lt;br&gt;Percentage coverage: 100&lt;br&gt;BLAST bit score: 529&lt;br&gt;E-value: 2.6e-150" locus_tag="AHB62773.1" class="clusterblast-orf" id="dummy-1_h1_2_21"  />
</g>
<g id="a1_0022"  >
<polygon points="534,90 547,90 552,85 547,80 534,80 534,90 " style="fill:#1563d8; stroke-width:1; stroke:black; " description="&lt;b&gt;AHB62774.1&lt;/b&gt;&lt;br&gt;aromatic prenyl transferase&lt;br&gt;Location: 28558 - 29487&lt;br&gt;&lt;br&gt;&lt;b&gt;BlastP hit with ctg35_42&lt;/b&gt;&lt;br&gt;Percentage identity: 95&lt;br&gt;Percentage coverage: 100&lt;br&gt;BLAST bit score: 608&lt;br&gt;E-value: 5e-174" locus_tag="AHB62774.1" class="clusterblast-orf" id="dummy-1_h1_2_22"  />
</g>
<g id="a1_0023"  >
<polygon points="557,90 588,90 593,85 588,80 557,80 557,90 " style="fill:#d815c5; stroke-width:1; stroke:black; " description="&lt;b&gt;AHB62775.1&lt;/b&gt;&lt;br&gt;1-deoxy-D-xylulose-5-phosphate synthase (DXS)&lt;br&gt;Location: 29744 - 31687&lt;br&gt;&lt;br&gt;&lt;b&gt;BlastP hit with ctg35_43&lt;/b&gt;&lt;br&gt;Percentage identity: 96&lt;br&gt;Percentage coverage: 100&lt;br&gt;BLAST bit score: 1245&lt;br&gt;E-value: 0.0" locus_tag="AHB62775.1" class="clusterblast-orf" id="dummy-1_h1_2_23"  />
</g>
<g id="a1_0024"  >
<polygon points="595,90 613,90 618,85 613,80 595,80 595,90 " style="fill:#d8c515; stroke-width:1; stroke:black; " description="&lt;b&gt;AHB62776.1&lt;/b&gt;&lt;br&gt;4-hydroxy-3-methylbut-2-en-1-yl diphosphate synthase (IspG)&lt;br&gt;Location: 31760 - 32986&lt;br&gt;&lt;br&gt;&lt;b&gt;BlastP hit with ctg35_44&lt;/b&gt;&lt;br&gt;Percentage identity: 98&lt;br&gt;Percentage coverage: 100&lt;br&gt;BLAST bit score: 738&lt;br&gt;E-value: 6.7e-213" locus_tag="AHB62776.1" class="clusterblast-orf" id="dummy-1_h1_2_24"  />
</g>
<g id="a1_0025"  >
<polygon points="622,90 634,90 639,85 634,80 622,80 622,90 " style="fill:#15d863; stroke-width:1; stroke:black; " description="&lt;b&gt;AHB62777.1&lt;/b&gt;&lt;br&gt;3-deoxy-D-arabinoheptulosonate 7-phosphate (DAHP) synthase&lt;br&gt;Location: 33201 - 34106&lt;br&gt;&lt;br&gt;&lt;b&gt;BlastP hit with ctg35_45&lt;/b&gt;&lt;br&gt;Percentage identity: 98&lt;br&gt;Percentage coverage: 100&lt;br&gt;BLAST bit score: 584&lt;br&gt;E-value: 9.9e-167" locus_tag="AHB62777.1" class="clusterblast-orf" id="dummy-1_h1_2_25"  />
</g>
<g id="a1_0026"  >
<polygon points="640,90 677,90 682,85 677,80 640,80 640,90 " style="fill:#1529d8; stroke-width:1; stroke:black; " description="&lt;b&gt;AHB62778.1&lt;/b&gt;&lt;br&gt;anthranilate synthase (TrpE)&lt;br&gt;Location: 34160 - 36364&lt;br&gt;&lt;br&gt;&lt;b&gt;BlastP hit with ctg35_46&lt;/b&gt;&lt;br&gt;Percentage identity: 94&lt;br&gt;Percentage coverage: 100&lt;br&gt;BLAST bit score: 1393&lt;br&gt;E-value: 0.0" locus_tag="AHB62778.1" class="clusterblast-orf" id="dummy-1_h1_2_26"  />
</g>
<g id="a1_0027"  >
<polygon points="686,90 697,90 702,85 697,80 686,80 686,90 " style="fill:#d8158a; stroke-width:1; stroke:black; " description="&lt;b&gt;AHB62779.1&lt;/b&gt;&lt;br&gt;indole-3-glycerol phosphate synthase (TrpC)&lt;br&gt;Location: 36609 - 37460&lt;br&gt;&lt;br&gt;&lt;b&gt;BlastP hit with ctg35_47&lt;/b&gt;&lt;br&gt;Percentage identity: 92&lt;br&gt;Percentage coverage: 100&lt;br&gt;BLAST bit score: 492&lt;br&gt;E-value: 4.8e-139" locus_tag="AHB62779.1" class="clusterblast-orf" id="dummy-1_h1_2_27"  />
</g>
<g id="a1_0028"  >
<polygon points="703,90 714,90 719,85 714,80 703,80 703,90 " style="fill:#b1d815; stroke-width:1; stroke:black; " description="&lt;b&gt;AHB62780.1&lt;/b&gt;&lt;br&gt;tryptophan synthase subunit alpha (TrpA)&lt;br&gt;Location: 37512 - 38324&lt;br&gt;&lt;br&gt;&lt;b&gt;BlastP hit with ctg35_48&lt;/b&gt;&lt;br&gt;Percentage identity: 91&lt;br&gt;Percentage coverage: 100&lt;br&gt;BLAST bit score: 477&lt;br&gt;E-value: 1.5e-134" locus_tag="AHB62780.1" class="clusterblast-orf" id="dummy-1_h1_2_28"  />
</g>
<g id="a1_0029"  >
<polygon points="722,90 740,90 745,85 740,80 722,80 722,90 " style="fill:#15d89e; stroke-width:1; stroke:black; " description="&lt;b&gt;AHB62781.1&lt;/b&gt;&lt;br&gt;tryptophan synthase subunit beta (TrpB)&lt;br&gt;Location: 38486 - 39736&lt;br&gt;&lt;br&gt;&lt;b&gt;BlastP hit with ctg35_49&lt;/b&gt;&lt;br&gt;Percentage identity: 94&lt;br&gt;Percentage coverage: 100&lt;br&gt;BLAST bit score: 790&lt;br&gt;E-value: 1.3e-228" locus_tag="AHB62781.1" class="clusterblast-orf" id="dummy-1_h1_2_29"  />
</g>
<g id="a1_0030"  >
<polygon points="746,90 762,90 767,85 762,80 746,80 746,90 " style="fill:#3c15d8; stroke-width:1; stroke:black; " description="&lt;b&gt;AHB62782.1&lt;/b&gt;&lt;br&gt;anthranilate phosphoribosyltransferase (TrpD)&lt;br&gt;Location: 39772 - 40869&lt;br&gt;&lt;br&gt;&lt;b&gt;BlastP hit with ctg35_50&lt;/b&gt;&lt;br&gt;Percentage identity: 96&lt;br&gt;Percentage coverage: 100&lt;br&gt;BLAST bit score: 680&lt;br&gt;E-value: 2.1e-195" locus_tag="AHB62782.1" class="clusterblast-orf" id="dummy-1_h1_2_30"  />
</g>
<g id="a1_0031"  >
<polygon points="767,90 775,90 780,85 775,80 767,80 767,90 " style="fill:#d81550; stroke-width:1; stroke:black; " description="&lt;b&gt;AHB62783.1&lt;/b&gt;&lt;br&gt;phosphoglycerate mutase family protein&lt;br&gt;Location: 40894 - 41538&lt;br&gt;&lt;br&gt;&lt;b&gt;BlastP hit with ctg35_51&lt;/b&gt;&lt;br&gt;Percentage identity: 94&lt;br&gt;Percentage coverage: 100&lt;br&gt;BLAST bit score: 416&lt;br&gt;E-value: 2.5e-116" locus_tag="AHB62783.1" class="clusterblast-orf" id="dummy-1_h1_2_31"  />
</g>
</svg>
