<svg xmlns="http://www.w3.org/2000/svg" xmlns:xlink="http://www.w3.org/1999/xlink" version="1.1" x="0" y="0" height="230" width="800" viewBox="0 0 800 230" preserveAspectRatio="none"  >
<g label="Query sequence" class="clusterblast-cluster"  >
<text x="5" y="20" class="clusterblast-acc"  >
Query sequence</text>
<line x1="10" y1="35" x2="778.0" y2="35" style="stroke-width:1; stroke:grey; "  />
<polygon points="5,35 10,30 25,30 25,40 10,40 5,35 " style="fill:white; stroke-width:1; stroke:black; " description="&lt;b&gt;ctg25_18&lt;/b&gt;&lt;br&gt;ctg25 18&lt;br&gt;Location: 29371 - 30826" locus_tag="ctg25_18" class="clusterblast-orf" id="dummy-1_q0_0_all"  />
<polygon points="27,35 32,30 50,30 50,40 32,40 27,35 " style="fill:white; stroke-width:1; stroke:black; " description="&lt;b&gt;ctg25_19&lt;/b&gt;&lt;br&gt;ctg25 19&lt;br&gt;Location: 30934 - 32581" locus_tag="ctg25_19" class="clusterblast-orf" id="dummy-1_q1_0_all"  />
<polygon points="53,40 59,40 64,35 59,30 53,30 53,40 " style="fill:white; stroke-width:1; stroke:black; " description="&lt;b&gt;ctg25_20&lt;/b&gt;&lt;br&gt;ctg25 20&lt;br&gt;Location: 32828 - 33635" locus_tag="ctg25_20" class="clusterblast-orf" id="dummy-1_q2_0_all"  />
<polygon points="66,40 88,40 93,35 88,30 66,30 66,40 " style="fill:white; stroke-width:1; stroke:black; " description="&lt;b&gt;ctg25_21&lt;/b&gt;&lt;br&gt;ctg25 21&lt;br&gt;Location: 33775 - 35701" locus_tag="ctg25_21" class="clusterblast-orf" id="dummy-1_q3_0_all"  />
<polygon points="93,40 98,40 103,35 98,30 93,30 93,40 " style="fill:white; stroke-width:1; stroke:black; " description="&lt;b&gt;ctg25_22&lt;/b&gt;&lt;br&gt;ctg25 22&lt;br&gt;Location: 35757 - 36450" locus_tag="ctg25_22" class="clusterblast-orf" id="dummy-1_q4_0_all"  />
<polygon points="113,40 115,40 120,35 115,30 113,30 113,40 " style="fill:white; stroke-width:1; stroke:black; " description="&lt;b&gt;ctg25_23&lt;/b&gt;&lt;br&gt;ctg25 23&lt;br&gt;Location: 37196 - 37673" locus_tag="ctg25_23" class="clusterblast-orf" id="dummy-1_q5_0_all"  />
<polygon points="121,40 134,40 139,35 134,30 121,30 121,40 " style="fill:white; stroke-width:1; stroke:black; " description="&lt;b&gt;ctg25_24&lt;/b&gt;&lt;br&gt;ctg25 24&lt;br&gt;Location: 37781 - 39050" locus_tag="ctg25_24" class="clusterblast-orf" id="dummy-1_q6_0_all"  />
<polygon points="140,40 145,40 150,35 145,30 140,30 140,40 " style="fill:white; stroke-width:1; stroke:black; " description="&lt;b&gt;ctg25_25&lt;/b&gt;&lt;br&gt;ctg25 25&lt;br&gt;Location: 39123 - 39852" locus_tag="ctg25_25" class="clusterblast-orf" id="dummy-1_q7_0_all"  />
<polygon points="150,40 167,40 172,35 167,30 150,30 150,40 " style="fill:white; stroke-width:1; stroke:black; " description="&lt;b&gt;ctg25_26&lt;/b&gt;&lt;br&gt;ctg25 26&lt;br&gt;Location: 39907 - 41467" locus_tag="ctg25_26" class="clusterblast-orf" id="dummy-1_q8_0_all"  />
<polygon points="173,40 189,40 194,35 189,30 173,30 173,40 " style="fill:white; stroke-width:1; stroke:black; " description="&lt;b&gt;ctg25_27&lt;/b&gt;&lt;br&gt;ctg25 27&lt;br&gt;Location: 41572 - 43117" locus_tag="ctg25_27" class="clusterblast-orf" id="dummy-1_q9_0_all"  />
<polygon points="197,35 202,30 214,30 214,40 202,40 197,35 " style="fill:white; stroke-width:1; stroke:black; " description="&lt;b&gt;ctg25_28&lt;/b&gt;&lt;br&gt;ctg25 28&lt;br&gt;Location: 43308 - 44514" locus_tag="ctg25_28" class="clusterblast-orf" id="dummy-1_q10_0_all"  />
<polygon points="215,35 220,30 232,30 232,40 220,40 215,35 " style="fill:white; stroke-width:1; stroke:black; " description="&lt;b&gt;ctg25_29&lt;/b&gt;&lt;br&gt;ctg25 29&lt;br&gt;Location: 44601 - 45822" locus_tag="ctg25_29" class="clusterblast-orf" id="dummy-1_q11_0_all"  />
<polygon points="245,35 247,30 247,40 245,35 " style="fill:white; stroke-width:1; stroke:black; " description="&lt;b&gt;ctg25_30&lt;/b&gt;&lt;br&gt;ctg25 30&lt;br&gt;Location: 46765 - 46948" locus_tag="ctg25_30" class="clusterblast-orf" id="dummy-1_q12_0_all"  />
<polygon points="248,35 253,30 266,30 266,40 253,40 248,35 " style="fill:white; stroke-width:1; stroke:black; " description="&lt;b&gt;ctg25_31&lt;/b&gt;&lt;br&gt;ctg25 31&lt;br&gt;Location: 46975 - 48283" locus_tag="ctg25_31" class="clusterblast-orf" id="dummy-1_q13_0_all"  />
<polygon points="265,35 270,30 368,30 368,40 270,40 265,35 " style="fill:#d81515; stroke-width:1; stroke:black; " description="&lt;b&gt;ctg25_32&lt;/b&gt;&lt;br&gt;ctg25 32&lt;br&gt;Location: 48275 - 55724" locus_tag="ctg25_32" class="clusterblast-orf" id="dummy-1_q14_0_all"  />
<polygon points="368,35 373,30 415,30 415,40 373,40 368,35 " style="fill:#d81515; stroke-width:1; stroke:black; " description="&lt;b&gt;ctg25_33&lt;/b&gt;&lt;br&gt;ctg25 33&lt;br&gt;Location: 55720 - 59134" locus_tag="ctg25_33" class="clusterblast-orf" id="dummy-1_q15_0_all"  />
<polygon points="416,35 421,30 504,30 504,40 421,40 416,35 " style="fill:#d81515; stroke-width:1; stroke:black; " description="&lt;b&gt;ctg25_34&lt;/b&gt;&lt;br&gt;ctg25 34&lt;br&gt;Location: 59218 - 65602" locus_tag="ctg25_34" class="clusterblast-orf" id="dummy-1_q16_0_all"  />
<polygon points="506,35 511,30 520,30 520,40 511,40 506,35 " style="fill:white; stroke-width:1; stroke:black; " description="&lt;b&gt;ctg25_35&lt;/b&gt;&lt;br&gt;ctg25 35&lt;br&gt;Location: 65761 - 66799" locus_tag="ctg25_35" class="clusterblast-orf" id="dummy-1_q17_0_all"  />
<polygon points="521,35 526,30 535,30 535,40 526,40 521,35 " style="fill:white; stroke-width:1; stroke:black; " description="&lt;b&gt;ctg25_36&lt;/b&gt;&lt;br&gt;ctg25 36&lt;br&gt;Location: 66850 - 67876" locus_tag="ctg25_36" class="clusterblast-orf" id="dummy-1_q18_0_all"  />
<polygon points="556,35 561,30 596,30 596,40 561,40 556,35 " style="fill:white; stroke-width:1; stroke:black; " description="&lt;b&gt;ctg25_37&lt;/b&gt;&lt;br&gt;ctg25 37&lt;br&gt;Location: 69409 - 72334" locus_tag="ctg25_37" class="clusterblast-orf" id="dummy-1_q19_0_all"  />
<polygon points="597,35 602,30 630,30 630,40 602,40 597,35 " style="fill:white; stroke-width:1; stroke:black; " description="&lt;b&gt;ctg25_38&lt;/b&gt;&lt;br&gt;ctg25 38&lt;br&gt;Location: 72403 - 74773" locus_tag="ctg25_38" class="clusterblast-orf" id="dummy-1_q20_0_all"  />
<polygon points="631,35 636,30 651,30 651,40 636,40 631,35 " style="fill:white; stroke-width:1; stroke:black; " description="&lt;b&gt;ctg25_39&lt;/b&gt;&lt;br&gt;ctg25 39&lt;br&gt;Location: 74899 - 76339" locus_tag="ctg25_39" class="clusterblast-orf" id="dummy-1_q21_0_all"  />
<polygon points="654,35 659,30 669,30 669,40 659,40 654,35 " style="fill:white; stroke-width:1; stroke:black; " description="&lt;b&gt;ctg25_40&lt;/b&gt;&lt;br&gt;ctg25 40&lt;br&gt;Location: 76528 - 77626" locus_tag="ctg25_40" class="clusterblast-orf" id="dummy-1_q22_0_all"  />
<polygon points="673,35 675,30 675,40 673,35 " style="fill:white; stroke-width:1; stroke:black; " description="&lt;b&gt;ctg25_41&lt;/b&gt;&lt;br&gt;ctg25 41&lt;br&gt;Location: 77900 - 78098" locus_tag="ctg25_41" class="clusterblast-orf" id="dummy-1_q23_0_all"  />
<polygon points="677,35 680,30 680,40 677,35 " style="fill:white; stroke-width:1; stroke:black; " description="&lt;b&gt;ctg25_42&lt;/b&gt;&lt;br&gt;ctg25 42&lt;br&gt;Location: 78196 - 78460" locus_tag="ctg25_42" class="clusterblast-orf" id="dummy-1_q24_0_all"  />
<polygon points="682,35 685,30 685,40 682,35 " style="fill:white; stroke-width:1; stroke:black; " description="&lt;b&gt;ctg25_43&lt;/b&gt;&lt;br&gt;ctg25 43&lt;br&gt;Location: 78545 - 78767" locus_tag="ctg25_43" class="clusterblast-orf" id="dummy-1_q25_0_all"  />
<polygon points="686,35 689,30 689,40 686,35 " style="fill:white; stroke-width:1; stroke:black; " description="&lt;b&gt;ctg25_44&lt;/b&gt;&lt;br&gt;ctg25 44&lt;br&gt;Location: 78878 - 79097" locus_tag="ctg25_44" class="clusterblast-orf" id="dummy-1_q26_0_all"  />
<polygon points="691,35 694,30 694,40 691,35 " style="fill:white; stroke-width:1; stroke:black; " description="&lt;b&gt;ctg25_45&lt;/b&gt;&lt;br&gt;ctg25 45&lt;br&gt;Location: 79217 - 79436" locus_tag="ctg25_45" class="clusterblast-orf" id="dummy-1_q27_0_all"  />
<polygon points="699,40 703,40 708,35 703,30 699,30 699,40 " style="fill:white; stroke-width:1; stroke:black; " description="&lt;b&gt;ctg25_46&lt;/b&gt;&lt;br&gt;ctg25 46&lt;br&gt;Location: 79845 - 80493" locus_tag="ctg25_46" class="clusterblast-orf" id="dummy-1_q28_0_all"  />
<polygon points="708,40 710,35 708,30 708,40 " style="fill:white; stroke-width:1; stroke:black; " description="&lt;b&gt;ctg25_47&lt;/b&gt;&lt;br&gt;ctg25 47&lt;br&gt;Location: 80467 - 80587" locus_tag="ctg25_47" class="clusterblast-orf" id="dummy-1_q29_0_all"  />
<polygon points="715,40 723,40 728,35 723,30 715,30 715,40 " style="fill:white; stroke-width:1; stroke:black; " description="&lt;b&gt;ctg25_48&lt;/b&gt;&lt;br&gt;ctg25 48&lt;br&gt;Location: 80938 - 81904" locus_tag="ctg25_48" class="clusterblast-orf" id="dummy-1_q30_0_all"  />
<polygon points="728,35 733,30 740,30 740,40 733,40 728,35 " style="fill:white; stroke-width:1; stroke:black; " description="&lt;b&gt;ctg25_49&lt;/b&gt;&lt;br&gt;ctg25 49&lt;br&gt;Location: 81900 - 82803" locus_tag="ctg25_49" class="clusterblast-orf" id="dummy-1_q31_0_all"  />
<polygon points="742,40 748,40 753,35 748,30 742,30 742,40 " style="fill:white; stroke-width:1; stroke:black; " description="&lt;b&gt;ctg25_50&lt;/b&gt;&lt;br&gt;ctg25 50&lt;br&gt;Location: 82905 - 83760" locus_tag="ctg25_50" class="clusterblast-orf" id="dummy-1_q32_0_all"  />
<polygon points="756,40 769,40 774,35 769,30 756,30 756,40 " style="fill:white; stroke-width:1; stroke:black; " description="&lt;b&gt;ctg25_51&lt;/b&gt;&lt;br&gt;ctg25 51&lt;br&gt;Location: 83973 - 85248" locus_tag="ctg25_51" class="clusterblast-orf" id="dummy-1_q33_0_all"  />
</g>
<g label="BGC0001125" description="BGC0001125_c1: puwainaphycin A / puwainaphycin B / puwainaphycin C / puwainap... (40% of genes show similarity), NRP + Polyketide" class="clusterblast-cluster"  >
<text x="5" y="70" class="clusterblast-acc"  >
<a xlink:href="https://mibig.secondarymetabolites.org/go/BGC0001125/1" target="_blank">BGC0001125</a>:            puwainaphycin A / puwainaphycin B / puwainaphycin C / puwainaphycin D (40% of genes show similarity), NRP + Polyketide</text>
<line x1="10" y1="85" x2="778.0" y2="85" style="stroke-width:1; stroke:grey; "  />
</g>
<g id="a1_000"  >
<polygon points="0,85 5,80 45,80 45,90 5,90 0,85 " style="fill:white; stroke-width:1; stroke:black; " description="&lt;b&gt;AIW82285.1&lt;/b&gt;&lt;br&gt;PuwH&lt;br&gt;Location: 56729 - 53421" locus_tag="AIW82285.1" class="clusterblast-orf" id="dummy-1_h1_7_0"  />
</g>
<g id="a1_001"  >
<polygon points="48,85 53,80 192,80 192,90 53,90 48,85 " style="fill:#d81515; stroke-width:1; stroke:black; " description="&lt;b&gt;AIW82284.1&lt;/b&gt;&lt;br&gt;PuwG&lt;br&gt;Location: 53207 - 42729&lt;br&gt;&lt;br&gt;&lt;b&gt;BlastP hit with ctg25_33&lt;/b&gt;&lt;br&gt;Percentage identity: 49&lt;br&gt;Percentage coverage: 94&lt;br&gt;BLAST bit score: 946&lt;br&gt;E-value: 3.7e-275&lt;br&gt;&lt;br&gt;&lt;b&gt;BlastP hit with ctg25_34&lt;/b&gt;&lt;br&gt;Percentage identity: 47&lt;br&gt;Percentage coverage: 100&lt;br&gt;BLAST bit score: 1732&lt;br&gt;E-value: 0.0" locus_tag="AIW82284.1" class="clusterblast-orf" id="dummy-1_h1_7_1"  />
</g>
<g id="a1_002"  >
<polygon points="193,85 198,80 290,80 290,90 198,90 193,85 " style="fill:#d81515; stroke-width:1; stroke:black; " description="&lt;b&gt;AIW82283.1&lt;/b&gt;&lt;br&gt;PuwF&lt;br&gt;Location: 42678 - 35566&lt;br&gt;&lt;br&gt;&lt;b&gt;BlastP hit with ctg25_33&lt;/b&gt;&lt;br&gt;Percentage identity: 48&lt;br&gt;Percentage coverage: 96&lt;br&gt;BLAST bit score: 959&lt;br&gt;E-value: 5.6e-279" locus_tag="AIW82283.1" class="clusterblast-orf" id="dummy-1_h1_7_2"  />
</g>
<g id="a1_003"  >
<polygon points="290,85 295,80 417,80 417,90 295,90 290,85 " style="fill:#d81515; stroke-width:1; stroke:black; " description="&lt;b&gt;AIW82282.1&lt;/b&gt;&lt;br&gt;PuwE&lt;br&gt;Location: 35569 - 26336&lt;br&gt;&lt;br&gt;&lt;b&gt;BlastP hit with ctg25_34&lt;/b&gt;&lt;br&gt;Percentage identity: 46&lt;br&gt;Percentage coverage: 50&lt;br&gt;BLAST bit score: 831&lt;br&gt;E-value: 2.5e-240" locus_tag="AIW82282.1" class="clusterblast-orf" id="dummy-1_h1_7_3"  />
</g>
<g id="a1_004"  >
<polygon points="421,85 425,80 425,90 421,85 " style="fill:white; stroke-width:1; stroke:black; " description="&lt;b&gt;AIW82281.1&lt;/b&gt;&lt;br&gt;PuwD&lt;br&gt;Location: 26067 - 25762" locus_tag="AIW82281.1" class="clusterblast-orf" id="dummy-1_h1_7_4"  />
</g>
<g id="a1_005"  >
<polygon points="429,85 434,80 454,80 454,90 434,90 429,85 " style="fill:white; stroke-width:1; stroke:black; " description="&lt;b&gt;AIW82280.1&lt;/b&gt;&lt;br&gt;PuwC&lt;br&gt;Location: 25500 - 23707" locus_tag="AIW82280.1" class="clusterblast-orf" id="dummy-1_h1_7_5"  />
</g>
<g id="a1_006"  >
<polygon points="454,85 459,80 558,80 558,90 459,90 454,85 " style="fill:white; stroke-width:1; stroke:black; " description="&lt;b&gt;AIW82279.1&lt;/b&gt;&lt;br&gt;PuwB&lt;br&gt;Location: 23703 - 16099" locus_tag="AIW82279.1" class="clusterblast-orf" id="dummy-1_h1_7_6"  />
</g>
<g id="a1_007"  >
<polygon points="584,90 625,90 630,85 625,80 584,80 584,90 " style="fill:white; stroke-width:1; stroke:black; " description="&lt;b&gt;AIW82278.1&lt;/b&gt;&lt;br&gt;ORF2&lt;br&gt;Location: 14198 - 10848" locus_tag="AIW82278.1" class="clusterblast-orf" id="dummy-1_h1_7_7"  />
</g>
<g id="a1_008"  >
<polygon points="633,90 746,90 751,85 746,80 633,80 633,90 " style="fill:#d81515; stroke-width:1; stroke:black; " description="&lt;b&gt;AIW82277.1&lt;/b&gt;&lt;br&gt;PuwA&lt;br&gt;Location: 10672 - 2060&lt;br&gt;&lt;br&gt;&lt;b&gt;BlastP hit with ctg25_33&lt;/b&gt;&lt;br&gt;Percentage identity: 48&lt;br&gt;Percentage coverage: 94&lt;br&gt;BLAST bit score: 929&lt;br&gt;E-value: 4.7e-270" locus_tag="AIW82277.1" class="clusterblast-orf" id="dummy-1_h1_7_8"  />
</g>
<g id="a1_009"  >
<polygon points="752,90 775,90 780,85 775,80 752,80 752,90 " style="fill:white; stroke-width:1; stroke:black; " description="&lt;b&gt;AIW82276.1&lt;/b&gt;&lt;br&gt;ORF1&lt;br&gt;Location: 1980 - 1" locus_tag="AIW82276.1" class="clusterblast-orf" id="dummy-1_h1_7_9"  />
</g>
</svg>
