<svg xmlns="http://www.w3.org/2000/svg" xmlns:xlink="http://www.w3.org/1999/xlink" version="1.1" x="0" y="0" height="230" width="800" viewBox="0 0 800 230" preserveAspectRatio="none"  >
<g label="Query sequence" class="clusterblast-cluster"  >
<text x="5" y="20" class="clusterblast-acc"  >
Query sequence</text>
<line x1="10" y1="35" x2="778.0" y2="35" style="stroke-width:1; stroke:grey; "  />
<polygon points="0,40 1,35 0,30 0,40 " style="fill:white; stroke-width:1; stroke:black; " description="&lt;b&gt;ctg13_19&lt;/b&gt;&lt;br&gt;ctg13 19&lt;br&gt;Location: 21258 - 21378" locus_tag="ctg13_19" class="clusterblast-orf" id="dummy-1_q0_0_all"  />
<polygon points="1,40 6,40 11,35 6,30 1,30 1,40 " style="fill:white; stroke-width:1; stroke:black; " description="&lt;b&gt;ctg13_20&lt;/b&gt;&lt;br&gt;ctg13 20&lt;br&gt;Location: 21382 - 22054" locus_tag="ctg13_20" class="clusterblast-orf" id="dummy-1_q1_0_all"  />
<polygon points="11,40 19,40 24,35 19,30 11,30 11,40 " style="fill:white; stroke-width:1; stroke:black; " description="&lt;b&gt;ctg13_21&lt;/b&gt;&lt;br&gt;ctg13 21&lt;br&gt;Location: 22046 - 22937" locus_tag="ctg13_21" class="clusterblast-orf" id="dummy-1_q2_0_all"  />
<polygon points="25,40 53,40 58,35 53,30 25,30 25,40 " style="fill:white; stroke-width:1; stroke:black; " description="&lt;b&gt;ctg13_22&lt;/b&gt;&lt;br&gt;ctg13 22&lt;br&gt;Location: 22982 - 25232" locus_tag="ctg13_22" class="clusterblast-orf" id="dummy-1_q3_0_all"  />
<polygon points="58,40 62,40 67,35 62,30 58,30 58,40 " style="fill:white; stroke-width:1; stroke:black; " description="&lt;b&gt;ctg13_23&lt;/b&gt;&lt;br&gt;ctg13 23&lt;br&gt;Location: 25234 - 25846" locus_tag="ctg13_23" class="clusterblast-orf" id="dummy-1_q4_0_all"  />
<polygon points="69,40 73,35 69,30 69,40 " style="fill:white; stroke-width:1; stroke:black; " description="&lt;b&gt;ctg13_24&lt;/b&gt;&lt;br&gt;ctg13 24&lt;br&gt;Location: 25936 - 26224" locus_tag="ctg13_24" class="clusterblast-orf" id="dummy-1_q5_0_all"  />
<polygon points="74,40 80,40 85,35 80,30 74,30 74,40 " style="fill:white; stroke-width:1; stroke:black; " description="&lt;b&gt;ctg13_25&lt;/b&gt;&lt;br&gt;ctg13 25&lt;br&gt;Location: 26298 - 27024" locus_tag="ctg13_25" class="clusterblast-orf" id="dummy-1_q6_0_all"  />
<polygon points="91,40 100,40 105,35 100,30 91,30 91,40 " style="fill:white; stroke-width:1; stroke:black; " description="&lt;b&gt;ctg13_26&lt;/b&gt;&lt;br&gt;ctg13 26&lt;br&gt;Location: 27452 - 28421" locus_tag="ctg13_26" class="clusterblast-orf" id="dummy-1_q7_0_all"  />
<polygon points="108,35 113,30 113,30 113,40 113,40 108,35 " style="fill:white; stroke-width:1; stroke:black; " description="&lt;b&gt;ctg13_27&lt;/b&gt;&lt;br&gt;ctg13 27&lt;br&gt;Location: 28569 - 28935" locus_tag="ctg13_27" class="clusterblast-orf" id="dummy-1_q8_0_all"  />
<polygon points="115,40 118,35 115,30 115,40 " style="fill:white; stroke-width:1; stroke:black; " description="&lt;b&gt;ctg13_28&lt;/b&gt;&lt;br&gt;ctg13 28&lt;br&gt;Location: 29098 - 29278" locus_tag="ctg13_28" class="clusterblast-orf" id="dummy-1_q9_0_all"  />
<polygon points="121,40 124,40 129,35 124,30 121,30 121,40 " style="fill:white; stroke-width:1; stroke:black; " description="&lt;b&gt;ctg13_29&lt;/b&gt;&lt;br&gt;ctg13 29&lt;br&gt;Location: 29465 - 30029" locus_tag="ctg13_29" class="clusterblast-orf" id="dummy-1_q10_0_all"  />
<polygon points="134,35 139,30 152,30 152,40 139,40 134,35 " style="fill:white; stroke-width:1; stroke:black; " description="&lt;b&gt;ctg13_30&lt;/b&gt;&lt;br&gt;ctg13 30&lt;br&gt;Location: 30331 - 31537" locus_tag="ctg13_30" class="clusterblast-orf" id="dummy-1_q11_0_all"  />
<polygon points="152,35 157,30 161,30 161,40 157,40 152,35 " style="fill:white; stroke-width:1; stroke:black; " description="&lt;b&gt;ctg13_31&lt;/b&gt;&lt;br&gt;ctg13 31&lt;br&gt;Location: 31579 - 32206" locus_tag="ctg13_31" class="clusterblast-orf" id="dummy-1_q12_0_all"  />
<polygon points="162,35 167,30 177,30 177,40 167,40 162,35 " style="fill:white; stroke-width:1; stroke:black; " description="&lt;b&gt;ctg13_32&lt;/b&gt;&lt;br&gt;ctg13 32&lt;br&gt;Location: 32279 - 33230" locus_tag="ctg13_32" class="clusterblast-orf" id="dummy-1_q13_0_all"  />
<polygon points="178,40 192,40 197,35 192,30 178,30 178,40 " style="fill:white; stroke-width:1; stroke:black; " description="&lt;b&gt;ctg13_33&lt;/b&gt;&lt;br&gt;ctg13 33&lt;br&gt;Location: 33361 - 34621" locus_tag="ctg13_33" class="clusterblast-orf" id="dummy-1_q14_0_all"  />
<polygon points="198,35 203,30 208,30 208,40 203,40 198,35 " style="fill:#d81515; stroke-width:1; stroke:black; " description="&lt;b&gt;ctg13_34&lt;/b&gt;&lt;br&gt;ctg13 34&lt;br&gt;Location: 34666 - 35362" locus_tag="ctg13_34" class="clusterblast-orf" id="dummy-1_q15_0_all"  />
<polygon points="208,35 213,30 226,30 226,40 213,40 208,35 " style="fill:white; stroke-width:1; stroke:black; " description="&lt;b&gt;ctg13_35&lt;/b&gt;&lt;br&gt;ctg13 35&lt;br&gt;Location: 35387 - 36560" locus_tag="ctg13_35" class="clusterblast-orf" id="dummy-1_q16_0_all"  />
<polygon points="227,35 232,30 245,30 245,40 232,40 227,35 " style="fill:white; stroke-width:1; stroke:black; " description="&lt;b&gt;ctg13_36&lt;/b&gt;&lt;br&gt;ctg13 36&lt;br&gt;Location: 36656 - 37862" locus_tag="ctg13_36" class="clusterblast-orf" id="dummy-1_q17_0_all"  />
<polygon points="249,35 253,30 253,40 249,35 " style="fill:white; stroke-width:1; stroke:black; " description="&lt;b&gt;ctg13_37&lt;/b&gt;&lt;br&gt;ctg13 37&lt;br&gt;Location: 38109 - 38424" locus_tag="ctg13_37" class="clusterblast-orf" id="dummy-1_q18_0_all"  />
<polygon points="265,40 269,35 265,30 265,40 " style="fill:white; stroke-width:1; stroke:black; " description="&lt;b&gt;ctg13_38&lt;/b&gt;&lt;br&gt;ctg13 38&lt;br&gt;Location: 39245 - 39518" locus_tag="ctg13_38" class="clusterblast-orf" id="dummy-1_q19_0_all"  />
<polygon points="278,40 378,40 383,35 378,30 278,30 278,40 " style="fill:#15d815; stroke-width:1; stroke:black; " description="&lt;b&gt;ctg13_39&lt;/b&gt;&lt;br&gt;ctg13 39&lt;br&gt;Location: 40069 - 47212" locus_tag="ctg13_39" class="clusterblast-orf" id="dummy-1_q20_0_all"  />
<polygon points="385,40 427,40 432,35 427,30 385,30 385,40 " style="fill:#1597d8; stroke-width:1; stroke:black; " description="&lt;b&gt;ctg13_40&lt;/b&gt;&lt;br&gt;ctg13 40&lt;br&gt;Location: 47314 - 50497" locus_tag="ctg13_40" class="clusterblast-orf" id="dummy-1_q21_0_all"  />
<polygon points="434,40 453,40 458,35 453,30 434,30 434,40 " style="fill:#9715d8; stroke-width:1; stroke:black; " description="&lt;b&gt;ctg13_41&lt;/b&gt;&lt;br&gt;ctg13 41&lt;br&gt;Location: 50625 - 52275" locus_tag="ctg13_41" class="clusterblast-orf" id="dummy-1_q22_0_all"  />
<polygon points="458,40 467,40 472,35 467,30 458,30 458,40 " style="fill:#d89715; stroke-width:1; stroke:black; " description="&lt;b&gt;ctg13_42&lt;/b&gt;&lt;br&gt;ctg13 42&lt;br&gt;Location: 52289 - 53207" locus_tag="ctg13_42" class="clusterblast-orf" id="dummy-1_q23_0_all"  />
<polygon points="473,40 485,40 490,35 485,30 473,30 473,40 " style="fill:#15d897; stroke-width:1; stroke:black; " description="&lt;b&gt;ctg13_43&lt;/b&gt;&lt;br&gt;ctg13 43&lt;br&gt;Location: 53284 - 54436" locus_tag="ctg13_43" class="clusterblast-orf" id="dummy-1_q24_0_all"  />
<polygon points="492,40 513,40 518,35 513,30 492,30 492,40 " style="fill:#1515d8; stroke-width:1; stroke:black; " description="&lt;b&gt;ctg13_44&lt;/b&gt;&lt;br&gt;ctg13 44&lt;br&gt;Location: 54585 - 56370" locus_tag="ctg13_44" class="clusterblast-orf" id="dummy-1_q25_0_all"  />
<polygon points="521,40 534,40 539,35 534,30 521,30 521,40 " style="fill:#d81597; stroke-width:1; stroke:black; " description="&lt;b&gt;ctg13_45&lt;/b&gt;&lt;br&gt;ctg13 45&lt;br&gt;Location: 56532 - 57750" locus_tag="ctg13_45" class="clusterblast-orf" id="dummy-1_q26_0_all"  />
<polygon points="539,40 556,40 561,35 556,30 539,30 539,40 " style="fill:white; stroke-width:1; stroke:black; " description="&lt;b&gt;ctg13_46&lt;/b&gt;&lt;br&gt;ctg13 46&lt;br&gt;Location: 57765 - 59232" locus_tag="ctg13_46" class="clusterblast-orf" id="dummy-1_q27_0_all"  />
<polygon points="563,40 567,35 563,30 563,40 " style="fill:#97d815; stroke-width:1; stroke:black; " description="&lt;b&gt;ctg13_47&lt;/b&gt;&lt;br&gt;ctg13 47&lt;br&gt;Location: 59368 - 59668" locus_tag="ctg13_47" class="clusterblast-orf" id="dummy-1_q28_0_all"  />
<polygon points="568,35 570,30 570,40 568,35 " style="fill:white; stroke-width:1; stroke:black; " description="&lt;b&gt;ctg13_48&lt;/b&gt;&lt;br&gt;ctg13 48&lt;br&gt;Location: 59737 - 59869" locus_tag="ctg13_48" class="clusterblast-orf" id="dummy-1_q29_0_all"  />
<polygon points="570,40 593,40 598,35 593,30 570,30 570,40 " style="fill:white; stroke-width:1; stroke:black; " description="&lt;b&gt;ctg13_49&lt;/b&gt;&lt;br&gt;ctg13 49&lt;br&gt;Location: 59886 - 61758" locus_tag="ctg13_49" class="clusterblast-orf" id="dummy-1_q30_0_all"  />
<polygon points="599,40 615,40 620,35 615,30 599,30 599,40 " style="fill:white; stroke-width:1; stroke:black; " description="&lt;b&gt;ctg13_50&lt;/b&gt;&lt;br&gt;ctg13 50&lt;br&gt;Location: 61811 - 63218" locus_tag="ctg13_50" class="clusterblast-orf" id="dummy-1_q31_0_all"  />
<polygon points="620,40 636,40 641,35 636,30 620,30 620,40 " style="fill:white; stroke-width:1; stroke:black; " description="&lt;b&gt;ctg13_51&lt;/b&gt;&lt;br&gt;ctg13 51&lt;br&gt;Location: 63257 - 64646" locus_tag="ctg13_51" class="clusterblast-orf" id="dummy-1_q32_0_all"  />
<polygon points="642,40 651,40 656,35 651,30 642,30 642,40 " style="fill:white; stroke-width:1; stroke:black; " description="&lt;b&gt;ctg13_52&lt;/b&gt;&lt;br&gt;ctg13 52&lt;br&gt;Location: 64711 - 65713" locus_tag="ctg13_52" class="clusterblast-orf" id="dummy-1_q33_0_all"  />
<polygon points="656,40 658,40 663,35 658,30 656,30 656,40 " style="fill:white; stroke-width:1; stroke:black; " description="&lt;b&gt;ctg13_53&lt;/b&gt;&lt;br&gt;ctg13 53&lt;br&gt;Location: 65717 - 66188" locus_tag="ctg13_53" class="clusterblast-orf" id="dummy-1_q34_0_all"  />
<polygon points="669,35 674,30 682,30 682,40 674,40 669,35 " style="fill:white; stroke-width:1; stroke:black; " description="&lt;b&gt;ctg13_54&lt;/b&gt;&lt;br&gt;ctg13 54&lt;br&gt;Location: 66540 - 67440" locus_tag="ctg13_54" class="clusterblast-orf" id="dummy-1_q35_0_all"  />
<polygon points="683,35 688,30 702,30 702,40 688,40 683,35 " style="fill:white; stroke-width:1; stroke:black; " description="&lt;b&gt;ctg13_55&lt;/b&gt;&lt;br&gt;ctg13 55&lt;br&gt;Location: 67526 - 68810" locus_tag="ctg13_55" class="clusterblast-orf" id="dummy-1_q36_0_all"  />
<polygon points="704,35 709,30 723,30 723,40 709,40 704,35 " style="fill:white; stroke-width:1; stroke:black; " description="&lt;b&gt;ctg13_56&lt;/b&gt;&lt;br&gt;ctg13 56&lt;br&gt;Location: 68920 - 70219" locus_tag="ctg13_56" class="clusterblast-orf" id="dummy-1_q37_0_all"  />
<polygon points="731,35 736,30 736,30 736,40 736,40 731,35 " style="fill:white; stroke-width:1; stroke:black; " description="&lt;b&gt;ctg13_57&lt;/b&gt;&lt;br&gt;ctg13 57&lt;br&gt;Location: 70771 - 71131" locus_tag="ctg13_57" class="clusterblast-orf" id="dummy-1_q38_0_all"  />
<polygon points="739,40 760,40 765,35 760,30 739,30 739,40 " style="fill:white; stroke-width:1; stroke:black; " description="&lt;b&gt;ctg13_58&lt;/b&gt;&lt;br&gt;ctg13 58&lt;br&gt;Location: 71294 - 73058" locus_tag="ctg13_58" class="clusterblast-orf" id="dummy-1_q39_0_all"  />
<polygon points="765,35 768,30 768,40 765,35 " style="fill:white; stroke-width:1; stroke:black; " description="&lt;b&gt;ctg13_59&lt;/b&gt;&lt;br&gt;ctg13 59&lt;br&gt;Location: 73092 - 73293" locus_tag="ctg13_59" class="clusterblast-orf" id="dummy-1_q40_0_all"  />
<polygon points="771,40 773,35 771,30 771,40 " style="fill:white; stroke-width:1; stroke:black; " description="&lt;b&gt;ctg13_60&lt;/b&gt;&lt;br&gt;ctg13 60&lt;br&gt;Location: 73447 - 73579" locus_tag="ctg13_60" class="clusterblast-orf" id="dummy-1_q41_0_all"  />
<polygon points="774,35 779,30 780,30 780,40 779,40 774,35 " style="fill:white; stroke-width:1; stroke:black; " description="&lt;b&gt;ctg13_61&lt;/b&gt;&lt;br&gt;ctg13 61&lt;br&gt;Location: 73672 - 74053" locus_tag="ctg13_61" class="clusterblast-orf" id="dummy-1_q42_0_all"  />
</g>
<g label="BGC0001525" description="BGC0001525_c1: bartoloside 2 / bartoloside 3 / bartoloside 4 (36% of genes show similarity), Other" class="clusterblast-cluster"  >
<text x="5" y="70" class="clusterblast-acc"  >
<a xlink:href="https://mibig.secondarymetabolites.org/go/BGC0001525/1" target="_blank">BGC0001525</a>:                                    bartoloside 2 / bartoloside 3 / bartoloside 4 (36% of genes show similarity), Other</text>
<line x1="10" y1="85" x2="778.0" y2="85" style="stroke-width:1; stroke:grey; "  />
</g>
<g id="a1_000"  >
<polygon points="268,85 273,80 293,80 293,90 273,90 268,85 " style="fill:white; stroke-width:1; stroke:black; " description="&lt;b&gt;AKV71846.1&lt;/b&gt;&lt;br&gt;glycosyltransferase&lt;br&gt;Location: 1 - 1674" locus_tag="AKV71846.1" class="clusterblast-orf" id="dummy-1_h1_1_0"  />
</g>
<g id="a1_001"  >
<polygon points="302,90 334,90 339,85 334,80 302,80 302,90 " style="fill:white; stroke-width:1; stroke:black; " description="&lt;b&gt;AKV71847.1&lt;/b&gt;&lt;br&gt;haemolysin-type calcium-binding repeat&lt;br&gt;Location: 2260 - 4764" locus_tag="AKV71847.1" class="clusterblast-orf" id="dummy-1_h1_1_1"  />
</g>
<g id="a1_002"  >
<polygon points="342,90 351,90 356,85 351,80 342,80 342,90 " style="fill:#d89715; stroke-width:1; stroke:black; " description="&lt;b&gt;AKV71848.1&lt;/b&gt;&lt;br&gt;dialkylresorcinol condensing enzyme (aromatase)&lt;br&gt;Location: 4995 - 5936&lt;br&gt;&lt;br&gt;&lt;b&gt;BlastP hit with ctg13_42&lt;/b&gt;&lt;br&gt;Percentage identity: 51&lt;br&gt;Percentage coverage: 97&lt;br&gt;BLAST bit score: 316&lt;br&gt;E-value: 6.6e-86" locus_tag="AKV71848.1" class="clusterblast-orf" id="dummy-1_h1_1_2"  />
</g>
<g id="a1_003"  >
<polygon points="357,90 369,90 374,85 369,80 357,80 357,90 " style="fill:#15d897; stroke-width:1; stroke:black; " description="&lt;b&gt;AKV71849.1&lt;/b&gt;&lt;br&gt;dialkylresorcinol condensing enzyme (ketosynthase)&lt;br&gt;Location: 6022 - 7173&lt;br&gt;&lt;br&gt;&lt;b&gt;BlastP hit with ctg13_43&lt;/b&gt;&lt;br&gt;Percentage identity: 62&lt;br&gt;Percentage coverage: 99&lt;br&gt;BLAST bit score: 497&lt;br&gt;E-value: 2e-140" locus_tag="AKV71849.1" class="clusterblast-orf" id="dummy-1_h1_1_3"  />
</g>
<g id="a1_004"  >
<polygon points="376,90 389,90 394,85 389,80 376,80 376,90 " style="fill:white; stroke-width:1; stroke:black; " description="&lt;b&gt;AKV71850.1&lt;/b&gt;&lt;br&gt;glycosyltransferase&lt;br&gt;Location: 7260 - 8522" locus_tag="AKV71850.1" class="clusterblast-orf" id="dummy-1_h1_1_4"  />
</g>
<g id="a1_005"  >
<polygon points="395,90 409,90 414,85 409,80 395,80 395,90 " style="fill:white; stroke-width:1; stroke:black; " description="&lt;b&gt;AKV71851.1&lt;/b&gt;&lt;br&gt;glycosyltransferase&lt;br&gt;Location: 8598 - 9845" locus_tag="AKV71851.1" class="clusterblast-orf" id="dummy-1_h1_1_5"  />
</g>
<g id="a1_006"  >
<polygon points="417,90 432,90 437,85 432,80 417,80 417,90 " style="fill:white; stroke-width:1; stroke:black; " description="&lt;b&gt;AKV71852.1&lt;/b&gt;&lt;br&gt;DevB family protein&lt;br&gt;Location: 10081 - 11433" locus_tag="AKV71852.1" class="clusterblast-orf" id="dummy-1_h1_1_6"  />
</g>
<g id="a1_007"  >
<polygon points="440,90 452,90 457,85 452,80 440,80 440,90 " style="fill:white; stroke-width:1; stroke:black; " description="&lt;b&gt;AKV71853.1&lt;/b&gt;&lt;br&gt;DevC family protein&lt;br&gt;Location: 11596 - 12765" locus_tag="AKV71853.1" class="clusterblast-orf" id="dummy-1_h1_1_7"  />
</g>
<g id="a1_008"  >
<polygon points="458,90 463,90 468,85 463,80 458,80 458,90 " style="fill:#d81515; stroke-width:1; stroke:black; " description="&lt;b&gt;AKV71854.1&lt;/b&gt;&lt;br&gt;DevA family protein&lt;br&gt;Location: 12818 - 13495&lt;br&gt;&lt;br&gt;&lt;b&gt;BlastP hit with ctg13_34&lt;/b&gt;&lt;br&gt;Percentage identity: 59&lt;br&gt;Percentage coverage: 94&lt;br&gt;BLAST bit score: 256&lt;br&gt;E-value: 4.7e-68" locus_tag="AKV71854.1" class="clusterblast-orf" id="dummy-1_h1_1_8"  />
</g>
<g id="a1_009"  >
<polygon points="469,90 482,90 487,85 482,80 469,80 469,90 " style="fill:#d81597; stroke-width:1; stroke:black; " description="&lt;b&gt;AKV71855.1&lt;/b&gt;&lt;br&gt;hypothetical protein&lt;br&gt;Location: 13578 - 14783&lt;br&gt;&lt;br&gt;&lt;b&gt;BlastP hit with ctg13_45&lt;/b&gt;&lt;br&gt;Percentage identity: 49&lt;br&gt;Percentage coverage: 94&lt;br&gt;BLAST bit score: 382&lt;br&gt;E-value: 7.7e-106" locus_tag="AKV71855.1" class="clusterblast-orf" id="dummy-1_h1_1_9"  />
</g>
<g id="a1_0010"  >
<polygon points="488,85 493,80 511,80 511,90 493,90 488,85 " style="fill:white; stroke-width:1; stroke:black; " description="&lt;b&gt;AKV71856.1&lt;/b&gt;&lt;br&gt;hypothetical protein&lt;br&gt;Location: 14896 - 16392" locus_tag="AKV71856.1" class="clusterblast-orf" id="dummy-1_h1_1_10"  />
</g>
</svg>
