<svg xmlns="http://www.w3.org/2000/svg" xmlns:xlink="http://www.w3.org/1999/xlink" version="1.1" x="0" y="0" height="550" width="800" viewBox="0 0 800 550" preserveAspectRatio="none"  >
<g label="Query sequence" class="clusterblast-cluster"  >
<text x="5" y="20" class="clusterblast-acc"  >
Query sequence</text>
<line x1="10" y1="35" x2="778.0" y2="35" style="stroke-width:1; stroke:grey; "  />
<polygon points="129,35 134,30 165,30 165,40 134,40 129,35 " style="fill:#d81515; stroke-width:1; stroke:black; " description="&lt;b&gt;ctg44_1&lt;/b&gt;&lt;br&gt;ctg44 1&lt;br&gt;Location: 2 - 2855" locus_tag="ctg44_1" class="clusterblast-orf" id="knownclusterblast-1_q0_0_all"  />
<polygon points="165,35 170,30 264,30 264,40 170,40 165,35 " style="fill:#d81515; stroke-width:1; stroke:black; " description="&lt;b&gt;ctg44_2&lt;/b&gt;&lt;br&gt;ctg44 2&lt;br&gt;Location: 2851 - 10603" locus_tag="ctg44_2" class="clusterblast-orf" id="knownclusterblast-1_q1_0_all"  />
<polygon points="265,35 270,30 282,30 282,40 270,40 265,35 " style="fill:white; stroke-width:1; stroke:black; " description="&lt;b&gt;ctg44_3&lt;/b&gt;&lt;br&gt;ctg44 3&lt;br&gt;Location: 10645 - 11974" locus_tag="ctg44_3" class="clusterblast-orf" id="knownclusterblast-1_q2_0_all"  />
<polygon points="282,35 287,30 323,30 323,40 287,40 282,35 " style="fill:#d81515; stroke-width:1; stroke:black; " description="&lt;b&gt;ctg44_4&lt;/b&gt;&lt;br&gt;ctg44 4&lt;br&gt;Location: 11973 - 15183" locus_tag="ctg44_4" class="clusterblast-orf" id="knownclusterblast-1_q3_0_all"  />
<polygon points="324,35 329,30 408,30 408,40 329,40 324,35 " style="fill:#d81515; stroke-width:1; stroke:black; " description="&lt;b&gt;ctg44_5&lt;/b&gt;&lt;br&gt;ctg44 5&lt;br&gt;Location: 15231 - 21804" locus_tag="ctg44_5" class="clusterblast-orf" id="knownclusterblast-1_q4_0_all"  />
<polygon points="408,35 413,30 430,30 430,40 413,40 408,35 " style="fill:white; stroke-width:1; stroke:black; " description="&lt;b&gt;ctg44_6&lt;/b&gt;&lt;br&gt;ctg44 6&lt;br&gt;Location: 21831 - 23541" locus_tag="ctg44_6" class="clusterblast-orf" id="knownclusterblast-1_q5_0_all"  />
<polygon points="430,35 435,30 444,30 444,40 435,40 430,35 " style="fill:white; stroke-width:1; stroke:black; " description="&lt;b&gt;ctg44_7&lt;/b&gt;&lt;br&gt;ctg44 7&lt;br&gt;Location: 23524 - 24616" locus_tag="ctg44_7" class="clusterblast-orf" id="knownclusterblast-1_q6_0_all"  />
<polygon points="450,35 455,30 460,30 460,40 455,40 450,35 " style="fill:white; stroke-width:1; stroke:black; " description="&lt;b&gt;ctg44_8&lt;/b&gt;&lt;br&gt;ctg44 8&lt;br&gt;Location: 25092 - 25902" locus_tag="ctg44_8" class="clusterblast-orf" id="knownclusterblast-1_q7_0_all"  />
<polygon points="471,35 473,30 473,40 471,35 " style="fill:white; stroke-width:1; stroke:black; " description="&lt;b&gt;ctg44_9&lt;/b&gt;&lt;br&gt;ctg44 9&lt;br&gt;Location: 26747 - 26897" locus_tag="ctg44_9" class="clusterblast-orf" id="knownclusterblast-1_q8_0_all"  />
<polygon points="477,40 481,35 477,30 477,40 " style="fill:white; stroke-width:1; stroke:black; " description="&lt;b&gt;ctg44_10&lt;/b&gt;&lt;br&gt;ctg44 10&lt;br&gt;Location: 27248 - 27515" locus_tag="ctg44_10" class="clusterblast-orf" id="knownclusterblast-1_q9_0_all"  />
<polygon points="485,40 492,40 497,35 492,30 485,30 485,40 " style="fill:white; stroke-width:1; stroke:black; " description="&lt;b&gt;ctg44_11&lt;/b&gt;&lt;br&gt;ctg44 11&lt;br&gt;Location: 27802 - 28795" locus_tag="ctg44_11" class="clusterblast-orf" id="knownclusterblast-1_q10_0_all"  />
<polygon points="498,40 506,40 511,35 506,30 498,30 498,40 " style="fill:white; stroke-width:1; stroke:black; " description="&lt;b&gt;ctg44_12&lt;/b&gt;&lt;br&gt;ctg44 12&lt;br&gt;Location: 28884 - 29862" locus_tag="ctg44_12" class="clusterblast-orf" id="knownclusterblast-1_q11_0_all"  />
<polygon points="513,40 534,40 539,35 534,30 513,30 513,40 " style="fill:white; stroke-width:1; stroke:black; " description="&lt;b&gt;ctg44_13&lt;/b&gt;&lt;br&gt;ctg44 13&lt;br&gt;Location: 30001 - 32065" locus_tag="ctg44_13" class="clusterblast-orf" id="knownclusterblast-1_q12_0_all"  />
<polygon points="541,40 541,40 546,35 541,30 541,30 541,40 " style="fill:white; stroke-width:1; stroke:black; " description="&lt;b&gt;ctg44_14&lt;/b&gt;&lt;br&gt;ctg44 14&lt;br&gt;Location: 32192 - 32597" locus_tag="ctg44_14" class="clusterblast-orf" id="knownclusterblast-1_q13_0_all"  />
<polygon points="548,40 566,40 571,35 566,30 548,30 548,40 " style="fill:#15d8d8; stroke-width:1; stroke:black; " description="&lt;b&gt;ctg44_15&lt;/b&gt;&lt;br&gt;ctg44 15&lt;br&gt;Location: 32755 - 34561" locus_tag="ctg44_15" class="clusterblast-orf" id="knownclusterblast-1_q14_0_all"  />
<polygon points="571,40 588,40 593,35 588,30 571,30 571,40 " style="fill:white; stroke-width:1; stroke:black; " description="&lt;b&gt;ctg44_16&lt;/b&gt;&lt;br&gt;ctg44 16&lt;br&gt;Location: 34547 - 36230" locus_tag="ctg44_16" class="clusterblast-orf" id="knownclusterblast-1_q15_0_all"  />
<polygon points="595,35 600,30 612,30 612,40 600,40 595,35 " style="fill:white; stroke-width:1; stroke:black; " description="&lt;b&gt;ctg44_17&lt;/b&gt;&lt;br&gt;ctg44 17&lt;br&gt;Location: 36421 - 37750" locus_tag="ctg44_17" class="clusterblast-orf" id="knownclusterblast-1_q16_0_all"  />
<polygon points="612,35 617,30 623,30 623,40 617,40 612,35 " style="fill:white; stroke-width:1; stroke:black; " description="&lt;b&gt;ctg44_18&lt;/b&gt;&lt;br&gt;ctg44 18&lt;br&gt;Location: 37779 - 38628" locus_tag="ctg44_18" class="clusterblast-orf" id="knownclusterblast-1_q17_0_all"  />
<polygon points="630,35 635,30 651,30 651,40 635,40 630,35 " style="fill:white; stroke-width:1; stroke:black; " description="&lt;b&gt;ctg44_19&lt;/b&gt;&lt;br&gt;ctg44 19&lt;br&gt;Location: 39169 - 40774" locus_tag="ctg44_19" class="clusterblast-orf" id="knownclusterblast-1_q18_0_all"  />
</g>
<g label="BGC0000301" description="BGC0000301_c1: anabaenopeptin 908 / anabaenopeptin 915 (100% of genes show similarity), NRP" class="clusterblast-cluster"  >
<text x="5" y="70" class="clusterblast-acc"  >
<a xlink:href="https://mibig.secondarymetabolites.org/go/BGC0000301/1" target="_blank">BGC0000301</a>:                                          anabaenopeptin 908 / anabaenopeptin 915 (100% of genes show similarity), NRP</text>
<line x1="10" y1="85" x2="778.0" y2="85" style="stroke-width:1; stroke:grey; "  />
</g>
<g id="a1_000"  >
<polygon points="236,85 241,80 262,80 262,90 241,90 236,85 " style="fill:#15d8d8; stroke-width:1; stroke:black; " description="&lt;b&gt;ABV79989.1&lt;/b&gt;&lt;br&gt;ApnE&lt;br&gt;Location: 23949 - 21913&lt;br&gt;&lt;br&gt;&lt;b&gt;BlastP hit with ctg44_15&lt;/b&gt;&lt;br&gt;Percentage identity: 60&lt;br&gt;Percentage coverage: 98&lt;br&gt;BLAST bit score: 711&lt;br&gt;E-value: 1.1e-204" locus_tag="ABV79989.1" class="clusterblast-orf" id="knownclusterblast-1_all_1_1_0"  />
</g>
<g id="a1_001"  >
<polygon points="263,85 268,80 317,80 317,90 268,90 263,85 " style="fill:#d81515; stroke-width:1; stroke:black; " description="&lt;b&gt;ABV79988.1&lt;/b&gt;&lt;br&gt;ApnD&lt;br&gt;Location: 21865 - 17603&lt;br&gt;&lt;br&gt;&lt;b&gt;BlastP hit with ctg44_1&lt;/b&gt;&lt;br&gt;Percentage identity: 58&lt;br&gt;Percentage coverage: 101&lt;br&gt;BLAST bit score: 1072&lt;br&gt;E-value: 4.7e-313" locus_tag="ABV79988.1" class="clusterblast-orf" id="knownclusterblast-1_all_1_1_1"  />
</g>
<g id="a1_002"  >
<polygon points="317,85 322,80 416,80 416,90 322,90 317,85 " style="fill:#d81515; stroke-width:1; stroke:black; " description="&lt;b&gt;ABV79987.1&lt;/b&gt;&lt;br&gt;ApnC&lt;br&gt;Location: 17606 - 9882&lt;br&gt;&lt;br&gt;&lt;b&gt;BlastP hit with ctg44_1&lt;/b&gt;&lt;br&gt;Percentage identity: 63&lt;br&gt;Percentage coverage: 95&lt;br&gt;BLAST bit score: 1115&lt;br&gt;E-value: 0.0&lt;br&gt;&lt;br&gt;&lt;b&gt;BlastP hit with ctg44_2&lt;/b&gt;&lt;br&gt;Percentage identity: 62&lt;br&gt;Percentage coverage: 100&lt;br&gt;BLAST bit score: 3134&lt;br&gt;E-value: 0.0" locus_tag="ABV79987.1" class="clusterblast-orf" id="knownclusterblast-1_all_1_1_2"  />
</g>
<g id="a1_003"  >
<polygon points="418,85 423,80 460,80 460,90 423,90 418,85 " style="fill:#d81515; stroke-width:1; stroke:black; " description="&lt;b&gt;ABV79986.1&lt;/b&gt;&lt;br&gt;ApnB&lt;br&gt;Location: 9743 - 6507&lt;br&gt;&lt;br&gt;&lt;b&gt;BlastP hit with ctg44_4&lt;/b&gt;&lt;br&gt;Percentage identity: 64&lt;br&gt;Percentage coverage: 101&lt;br&gt;BLAST bit score: 1421&lt;br&gt;E-value: 0.0" locus_tag="ABV79986.1" class="clusterblast-orf" id="knownclusterblast-1_all_1_1_3"  />
</g>
<g id="a1_004"  >
<polygon points="460,85 465,80 543,80 543,90 465,90 460,85 " style="fill:#d81515; stroke-width:1; stroke:black; " description="&lt;b&gt;ABV79985.1&lt;/b&gt;&lt;br&gt;ApnA&lt;br&gt;Location: 6501 - 1&lt;br&gt;&lt;br&gt;&lt;b&gt;BlastP hit with ctg44_4&lt;/b&gt;&lt;br&gt;Percentage identity: 48&lt;br&gt;Percentage coverage: 56&lt;br&gt;BLAST bit score: 530&lt;br&gt;E-value: 4.6e-150&lt;br&gt;&lt;br&gt;&lt;b&gt;BlastP hit with ctg44_5&lt;/b&gt;&lt;br&gt;Percentage identity: 56&lt;br&gt;Percentage coverage: 99&lt;br&gt;BLAST bit score: 2382&lt;br&gt;E-value: 0.0" locus_tag="ABV79985.1" class="clusterblast-orf" id="knownclusterblast-1_all_1_1_4"  />
</g>
<g label="BGC0000397" description="BGC0000397_c1: nostocyclopeptide A2 (42% of genes show similarity), NRP" class="clusterblast-cluster"  >
<text x="5" y="120" class="clusterblast-acc"  >
<a xlink:href="https://mibig.secondarymetabolites.org/go/BGC0000397/1" target="_blank">BGC0000397</a>:                                                             nostocyclopeptide A2 (42% of genes show similarity), NRP</text>
<line x1="10" y1="135" x2="778.0" y2="135" style="stroke-width:1; stroke:grey; "  />
</g>
<g id="a1_000"  >
<polygon points="179,135 184,130 363,130 363,140 184,140 179,135 " style="fill:#d81515; stroke-width:1; stroke:black; " description="&lt;b&gt;AAO23334.1&lt;/b&gt;&lt;br&gt;NcpB&lt;br&gt;Location: 34111 - 19700&lt;br&gt;&lt;br&gt;&lt;b&gt;BlastP hit with ctg44_1&lt;/b&gt;&lt;br&gt;Percentage identity: 49&lt;br&gt;Percentage coverage: 95&lt;br&gt;BLAST bit score: 843&lt;br&gt;E-value: 2.9e-244&lt;br&gt;&lt;br&gt;&lt;b&gt;BlastP hit with ctg44_4&lt;/b&gt;&lt;br&gt;Percentage identity: 50&lt;br&gt;Percentage coverage: 102&lt;br&gt;BLAST bit score: 1048&lt;br&gt;E-value: 8.6e-306" locus_tag="AAO23334.1" class="clusterblast-orf" id="knownclusterblast-1_all_1_2_0"  />
</g>
<g id="a1_001"  >
<polygon points="363,135 368,130 507,130 507,140 368,140 363,135 " style="fill:#d81515; stroke-width:1; stroke:black; " description="&lt;b&gt;AAO23333.1&lt;/b&gt;&lt;br&gt;NcpA&lt;br&gt;Location: 19703 - 8496&lt;br&gt;&lt;br&gt;&lt;b&gt;BlastP hit with ctg44_1&lt;/b&gt;&lt;br&gt;Percentage identity: 46&lt;br&gt;Percentage coverage: 93&lt;br&gt;BLAST bit score: 744&lt;br&gt;E-value: 1.8e-214&lt;br&gt;&lt;br&gt;&lt;b&gt;BlastP hit with ctg44_2&lt;/b&gt;&lt;br&gt;Percentage identity: 48&lt;br&gt;Percentage coverage: 79&lt;br&gt;BLAST bit score: 1751&lt;br&gt;E-value: 0.0&lt;br&gt;&lt;br&gt;&lt;b&gt;BlastP hit with ctg44_5&lt;/b&gt;&lt;br&gt;Percentage identity: 51&lt;br&gt;Percentage coverage: 101&lt;br&gt;BLAST bit score: 2055&lt;br&gt;E-value: 0.0" locus_tag="AAO23333.1" class="clusterblast-orf" id="knownclusterblast-1_all_1_2_1"  />
</g>
<g id="a1_002"  >
<polygon points="515,140 536,140 541,135 536,130 515,130 515,140 " style="fill:#15d8d8; stroke-width:1; stroke:black; " description="&lt;b&gt;AAO23332.1&lt;/b&gt;&lt;br&gt;NcpC&lt;br&gt;Location: 7811 - 5793&lt;br&gt;&lt;br&gt;&lt;b&gt;BlastP hit with ctg44_15&lt;/b&gt;&lt;br&gt;Percentage identity: 65&lt;br&gt;Percentage coverage: 98&lt;br&gt;BLAST bit score: 760&lt;br&gt;E-value: 2e-219" locus_tag="AAO23332.1" class="clusterblast-orf" id="knownclusterblast-1_all_1_2_2"  />
</g>
<g id="a1_003"  >
<polygon points="543,140 558,140 563,135 558,130 543,130 543,140 " style="fill:white; stroke-width:1; stroke:black; " description="&lt;b&gt;AAO23331.1&lt;/b&gt;&lt;br&gt;penicillin-binding protein-like protein&lt;br&gt;Location: 5694 - 4090" locus_tag="AAO23331.1" class="clusterblast-orf" id="knownclusterblast-1_all_1_2_3"  />
</g>
<g id="a1_004"  >
<polygon points="564,140 570,140 575,135 570,130 564,130 564,140 " style="fill:white; stroke-width:1; stroke:black; " description="&lt;b&gt;AAO23330.1&lt;/b&gt;&lt;br&gt;unknown&lt;br&gt;Location: 3988 - 3191" locus_tag="AAO23330.1" class="clusterblast-orf" id="knownclusterblast-1_all_1_2_4"  />
</g>
<g id="a1_005"  >
<polygon points="575,140 584,140 589,135 584,130 575,130 575,140 " style="fill:white; stroke-width:1; stroke:black; " description="&lt;b&gt;AAO23329.1&lt;/b&gt;&lt;br&gt;NcpD&lt;br&gt;Location: 3142 - 2036" locus_tag="AAO23329.1" class="clusterblast-orf" id="knownclusterblast-1_all_1_2_5"  />
</g>
<g id="a1_006"  >
<polygon points="590,140 595,140 600,135 595,130 590,130 590,140 " style="fill:white; stroke-width:1; stroke:black; " description="&lt;b&gt;AAO23328.1&lt;/b&gt;&lt;br&gt;NcpE&lt;br&gt;Location: 1996 - 1175" locus_tag="AAO23328.1" class="clusterblast-orf" id="knownclusterblast-1_all_1_2_6"  />
</g>
<g label="BGC0000302" description="BGC0000302_c1: anabaenopeptin (85% of genes show similarity), NRP" class="clusterblast-cluster"  >
<text x="5" y="170" class="clusterblast-acc"  >
<a xlink:href="https://mibig.secondarymetabolites.org/go/BGC0000302/1" target="_blank">BGC0000302</a>:                                                                   anabaenopeptin (85% of genes show similarity), NRP</text>
<line x1="10" y1="185" x2="778.0" y2="185" style="stroke-width:1; stroke:grey; "  />
</g>
<g id="a1_000"  >
<polygon points="181,185 186,180 211,180 211,190 186,190 181,185 " style="fill:#15d8d8; stroke-width:1; stroke:black; " description="&lt;b&gt;ACZ55948.1&lt;/b&gt;&lt;br&gt;ABC transporter&lt;br&gt;Location: 33240 - 30943&lt;br&gt;&lt;br&gt;&lt;b&gt;BlastP hit with ctg44_15&lt;/b&gt;&lt;br&gt;Percentage identity: 65&lt;br&gt;Percentage coverage: 98&lt;br&gt;BLAST bit score: 757&lt;br&gt;E-value: 2.2e-218" locus_tag="ACZ55948.1" class="clusterblast-orf" id="knownclusterblast-1_all_1_3_0"  />
</g>
<g id="a1_001"  >
<polygon points="216,185 221,180 231,180 231,190 221,190 216,185 " style="fill:white; stroke-width:1; stroke:black; " description="&lt;b&gt;ACZ55947.1&lt;/b&gt;&lt;br&gt;hydroxymethylglutaryl-CoA lyase-like protein&lt;br&gt;Location: 30534 - 29356" locus_tag="ACZ55947.1" class="clusterblast-orf" id="knownclusterblast-1_all_1_3_1"  />
</g>
<g id="a1_002"  >
<polygon points="232,185 237,180 286,180 286,190 237,190 232,185 " style="fill:#d81515; stroke-width:1; stroke:black; " description="&lt;b&gt;ACZ55946.1&lt;/b&gt;&lt;br&gt;non-ribosomal peptide synthetase&lt;br&gt;Location: 29313 - 25102&lt;br&gt;&lt;br&gt;&lt;b&gt;BlastP hit with ctg44_1&lt;/b&gt;&lt;br&gt;Percentage identity: 77&lt;br&gt;Percentage coverage: 100&lt;br&gt;BLAST bit score: 1457&lt;br&gt;E-value: 0.0&lt;br&gt;&lt;br&gt;&lt;b&gt;BlastP hit with ctg44_2&lt;/b&gt;&lt;br&gt;Percentage identity: 54&lt;br&gt;Percentage coverage: 42&lt;br&gt;BLAST bit score: 1142&lt;br&gt;E-value: 0.0" locus_tag="ACZ55946.1" class="clusterblast-orf" id="knownclusterblast-1_all_1_3_2"  />
</g>
<g id="a1_003"  >
<polygon points="286,185 291,180 384,180 384,190 291,190 286,185 " style="fill:#d81515; stroke-width:1; stroke:black; " description="&lt;b&gt;ACZ55944.1&lt;/b&gt;&lt;br&gt;non-ribosomal peptide synthetase&lt;br&gt;Location: 25105 - 17408&lt;br&gt;&lt;br&gt;&lt;b&gt;BlastP hit with ctg44_1&lt;/b&gt;&lt;br&gt;Percentage identity: 59&lt;br&gt;Percentage coverage: 96&lt;br&gt;BLAST bit score: 1063&lt;br&gt;E-value: 1.8e-310&lt;br&gt;&lt;br&gt;&lt;b&gt;BlastP hit with ctg44_2&lt;/b&gt;&lt;br&gt;Percentage identity: 80&lt;br&gt;Percentage coverage: 100&lt;br&gt;BLAST bit score: 4117&lt;br&gt;E-value: 0.0" locus_tag="ACZ55944.1" class="clusterblast-orf" id="knownclusterblast-1_all_1_3_3"  />
</g>
<g id="a1_004"  >
<polygon points="387,185 392,180 428,180 428,190 392,190 387,185 " style="fill:#d81515; stroke-width:1; stroke:black; " description="&lt;b&gt;ACZ55943.1&lt;/b&gt;&lt;br&gt;non-ribosomal peptide synthetase&lt;br&gt;Location: 17213 - 14004&lt;br&gt;&lt;br&gt;&lt;b&gt;BlastP hit with ctg44_4&lt;/b&gt;&lt;br&gt;Percentage identity: 79&lt;br&gt;Percentage coverage: 100&lt;br&gt;BLAST bit score: 1694&lt;br&gt;E-value: 0.0" locus_tag="ACZ55943.1" class="clusterblast-orf" id="knownclusterblast-1_all_1_3_4"  />
</g>
<g id="a1_005"  >
<polygon points="429,185 434,180 512,180 512,190 434,190 429,185 " style="fill:#d81515; stroke-width:1; stroke:black; " description="&lt;b&gt;ACZ55942.1&lt;/b&gt;&lt;br&gt;non-ribosomal peptide synthetase&lt;br&gt;Location: 13946 - 7422&lt;br&gt;&lt;br&gt;&lt;b&gt;BlastP hit with ctg44_4&lt;/b&gt;&lt;br&gt;Percentage identity: 46&lt;br&gt;Percentage coverage: 60&lt;br&gt;BLAST bit score: 532&lt;br&gt;E-value: 1.6e-150&lt;br&gt;&lt;br&gt;&lt;b&gt;BlastP hit with ctg44_5&lt;/b&gt;&lt;br&gt;Percentage identity: 72&lt;br&gt;Percentage coverage: 101&lt;br&gt;BLAST bit score: 3123&lt;br&gt;E-value: 0.0" locus_tag="ACZ55942.1" class="clusterblast-orf" id="knownclusterblast-1_all_1_3_5"  />
</g>
<g id="a1_006"  >
<polygon points="513,185 518,180 598,180 598,190 518,190 513,185 " style="fill:#d81515; stroke-width:1; stroke:black; " description="&lt;b&gt;ACZ55945.1&lt;/b&gt;&lt;br&gt;non-ribosomal peptide synthetase&lt;br&gt;Location: 7332 - 745&lt;br&gt;&lt;br&gt;&lt;b&gt;BlastP hit with ctg44_5&lt;/b&gt;&lt;br&gt;Percentage identity: 59&lt;br&gt;Percentage coverage: 100&lt;br&gt;BLAST bit score: 2459&lt;br&gt;E-value: 0.0" locus_tag="ACZ55945.1" class="clusterblast-orf" id="knownclusterblast-1_all_1_3_6"  />
</g>
<g label="BGC0001951" description="BGC0001951_c1: puwainaphycin F / minutissamide A (44% of genes show similarity), NRP" class="clusterblast-cluster"  >
<text x="5" y="220" class="clusterblast-acc"  >
<a xlink:href="https://mibig.secondarymetabolites.org/go/BGC0001951/1" target="_blank">BGC0001951</a>:                                                puwainaphycin F / minutissamide A (44% of genes show similarity), NRP</text>
<line x1="10" y1="235" x2="778.0" y2="235" style="stroke-width:1; stroke:grey; "  />
</g>
<g id="a1_000"  >
<polygon points="12,235 17,230 55,230 55,240 17,240 12,235 " style="fill:#d81515; stroke-width:1; stroke:black; " description="&lt;b&gt;AXN93591.1&lt;/b&gt;&lt;br&gt;PuwH&lt;br&gt;Location: 58884 - 55576&lt;br&gt;&lt;br&gt;&lt;b&gt;BlastP hit with ctg44_4&lt;/b&gt;&lt;br&gt;Percentage identity: 52&lt;br&gt;Percentage coverage: 101&lt;br&gt;BLAST bit score: 1055&lt;br&gt;E-value: 4.1e-308" locus_tag="AXN93591.1" class="clusterblast-orf" id="knownclusterblast-1_all_1_4_0"  />
</g>
<g id="a1_001"  >
<polygon points="56,235 61,230 281,230 281,240 61,240 56,235 " style="fill:#d81515; stroke-width:1; stroke:black; " description="&lt;b&gt;AXN93590.1&lt;/b&gt;&lt;br&gt;PuwF-G&lt;br&gt;Location: 55468 - 37913&lt;br&gt;&lt;br&gt;&lt;b&gt;BlastP hit with ctg44_1&lt;/b&gt;&lt;br&gt;Percentage identity: 47&lt;br&gt;Percentage coverage: 94&lt;br&gt;BLAST bit score: 749&lt;br&gt;E-value: 5.6e-216&lt;br&gt;&lt;br&gt;&lt;b&gt;BlastP hit with ctg44_5&lt;/b&gt;&lt;br&gt;Percentage identity: 50&lt;br&gt;Percentage coverage: 100&lt;br&gt;BLAST bit score: 2038&lt;br&gt;E-value: 0.0" locus_tag="AXN93590.1" class="clusterblast-orf" id="knownclusterblast-1_all_1_4_1"  />
</g>
<g id="a1_002"  >
<polygon points="281,235 286,230 401,230 401,240 286,240 281,235 " style="fill:white; stroke-width:1; stroke:black; " description="&lt;b&gt;AXN93589.1&lt;/b&gt;&lt;br&gt;PuwE&lt;br&gt;Location: 37916 - 28551" locus_tag="AXN93589.1" class="clusterblast-orf" id="knownclusterblast-1_all_1_4_2"  />
</g>
<g id="a1_003"  >
<polygon points="405,235 409,230 409,240 405,235 " style="fill:white; stroke-width:1; stroke:black; " description="&lt;b&gt;AXN93588.1&lt;/b&gt;&lt;br&gt;PuwD&lt;br&gt;Location: 28239 - 27949" locus_tag="AXN93588.1" class="clusterblast-orf" id="knownclusterblast-1_all_1_4_3"  />
</g>
<g id="a1_004"  >
<polygon points="411,235 416,230 434,230 434,240 416,240 411,235 " style="fill:white; stroke-width:1; stroke:black; " description="&lt;b&gt;AXN93587.1&lt;/b&gt;&lt;br&gt;PuwC&lt;br&gt;Location: 27756 - 25984" locus_tag="AXN93587.1" class="clusterblast-orf" id="knownclusterblast-1_all_1_4_4"  />
</g>
<g id="a1_005"  >
<polygon points="434,235 439,230 533,230 533,240 439,240 434,235 " style="fill:white; stroke-width:1; stroke:black; " description="&lt;b&gt;AXN93586.1&lt;/b&gt;&lt;br&gt;PuwB&lt;br&gt;Location: 25980 - 18202" locus_tag="AXN93586.1" class="clusterblast-orf" id="knownclusterblast-1_all_1_4_5"  />
</g>
<g id="a1_006"  >
<polygon points="555,240 622,240 627,235 622,230 555,230 555,240 " style="fill:white; stroke-width:1; stroke:black; " description="&lt;b&gt;AXN93585.1&lt;/b&gt;&lt;br&gt;ORF2&lt;br&gt;Location: 16491 - 10864" locus_tag="AXN93585.1" class="clusterblast-orf" id="knownclusterblast-1_all_1_4_6"  />
</g>
<g id="a1_007"  >
<polygon points="630,240 735,240 740,235 735,230 630,230 630,240 " style="fill:#d81515; stroke-width:1; stroke:black; " description="&lt;b&gt;AXN93584.1&lt;/b&gt;&lt;br&gt;PuwA&lt;br&gt;Location: 10687 - 2075&lt;br&gt;&lt;br&gt;&lt;b&gt;BlastP hit with ctg44_1&lt;/b&gt;&lt;br&gt;Percentage identity: 46&lt;br&gt;Percentage coverage: 93&lt;br&gt;BLAST bit score: 750&lt;br&gt;E-value: 3.3e-216" locus_tag="AXN93584.1" class="clusterblast-orf" id="knownclusterblast-1_all_1_4_7"  />
</g>
<g id="a1_008"  >
<polygon points="741,240 762,240 767,235 762,230 741,230 741,240 " style="fill:#15d8d8; stroke-width:1; stroke:black; " description="&lt;b&gt;AXN93583.1&lt;/b&gt;&lt;br&gt;ORF1&lt;br&gt;Location: 1995 - 1&lt;br&gt;&lt;br&gt;&lt;b&gt;BlastP hit with ctg44_15&lt;/b&gt;&lt;br&gt;Percentage identity: 50&lt;br&gt;Percentage coverage: 96&lt;br&gt;BLAST bit score: 560&lt;br&gt;E-value: 4e-159" locus_tag="AXN93583.1" class="clusterblast-orf" id="knownclusterblast-1_all_1_4_8"  />
</g>
<g label="BGC0001125" description="BGC0001125_c1: puwainaphycin A / puwainaphycin B / puwainaphycin C / puwainap... (40% of genes show similarity), NRP + Polyketide" class="clusterblast-cluster"  >
<text x="5" y="270" class="clusterblast-acc"  >
<a xlink:href="https://mibig.secondarymetabolites.org/go/BGC0001125/1" target="_blank">BGC0001125</a>:            puwainaphycin A / puwainaphycin B / puwainaphycin C / puwainaphycin D (40% of genes show similarity), NRP + Polyketide</text>
<line x1="10" y1="285" x2="778.0" y2="285" style="stroke-width:1; stroke:grey; "  />
</g>
<g id="a1_000"  >
<polygon points="26,285 31,280 69,280 69,290 31,290 26,285 " style="fill:#d81515; stroke-width:1; stroke:black; " description="&lt;b&gt;AIW82285.1&lt;/b&gt;&lt;br&gt;PuwH&lt;br&gt;Location: 56729 - 53421&lt;br&gt;&lt;br&gt;&lt;b&gt;BlastP hit with ctg44_4&lt;/b&gt;&lt;br&gt;Percentage identity: 52&lt;br&gt;Percentage coverage: 101&lt;br&gt;BLAST bit score: 1060&lt;br&gt;E-value: 2.2e-309" locus_tag="AIW82285.1" class="clusterblast-orf" id="knownclusterblast-1_all_1_5_0"  />
</g>
<g id="a1_001"  >
<polygon points="71,285 76,280 206,280 206,290 76,290 71,285 " style="fill:#d81515; stroke-width:1; stroke:black; " description="&lt;b&gt;AIW82284.1&lt;/b&gt;&lt;br&gt;PuwG&lt;br&gt;Location: 53207 - 42729&lt;br&gt;&lt;br&gt;&lt;b&gt;BlastP hit with ctg44_1&lt;/b&gt;&lt;br&gt;Percentage identity: 47&lt;br&gt;Percentage coverage: 94&lt;br&gt;BLAST bit score: 753&lt;br&gt;E-value: 3e-217&lt;br&gt;&lt;br&gt;&lt;b&gt;BlastP hit with ctg44_5&lt;/b&gt;&lt;br&gt;Percentage identity: 49&lt;br&gt;Percentage coverage: 102&lt;br&gt;BLAST bit score: 2020&lt;br&gt;E-value: 0.0" locus_tag="AIW82284.1" class="clusterblast-orf" id="knownclusterblast-1_all_1_5_1"  />
</g>
<g id="a1_002"  >
<polygon points="206,285 211,280 297,280 297,290 211,290 206,285 " style="fill:white; stroke-width:1; stroke:black; " description="&lt;b&gt;AIW82283.1&lt;/b&gt;&lt;br&gt;PuwF&lt;br&gt;Location: 42678 - 35566" locus_tag="AIW82283.1" class="clusterblast-orf" id="knownclusterblast-1_all_1_5_2"  />
</g>
<g id="a1_003"  >
<polygon points="297,285 302,280 415,280 415,290 302,290 297,285 " style="fill:white; stroke-width:1; stroke:black; " description="&lt;b&gt;AIW82282.1&lt;/b&gt;&lt;br&gt;PuwE&lt;br&gt;Location: 35569 - 26336" locus_tag="AIW82282.1" class="clusterblast-orf" id="knownclusterblast-1_all_1_5_3"  />
</g>
<g id="a1_004"  >
<polygon points="419,285 423,280 423,290 419,285 " style="fill:white; stroke-width:1; stroke:black; " description="&lt;b&gt;AIW82281.1&lt;/b&gt;&lt;br&gt;PuwD&lt;br&gt;Location: 26067 - 25762" locus_tag="AIW82281.1" class="clusterblast-orf" id="knownclusterblast-1_all_1_5_4"  />
</g>
<g id="a1_005"  >
<polygon points="426,285 431,280 449,280 449,290 431,290 426,285 " style="fill:white; stroke-width:1; stroke:black; " description="&lt;b&gt;AIW82280.1&lt;/b&gt;&lt;br&gt;PuwC&lt;br&gt;Location: 25500 - 23707" locus_tag="AIW82280.1" class="clusterblast-orf" id="knownclusterblast-1_all_1_5_5"  />
</g>
<g id="a1_006"  >
<polygon points="449,285 454,280 547,280 547,290 454,290 449,285 " style="fill:white; stroke-width:1; stroke:black; " description="&lt;b&gt;AIW82279.1&lt;/b&gt;&lt;br&gt;PuwB&lt;br&gt;Location: 23703 - 16099" locus_tag="AIW82279.1" class="clusterblast-orf" id="knownclusterblast-1_all_1_5_6"  />
</g>
<g id="a1_007"  >
<polygon points="571,290 609,290 614,285 609,280 571,280 571,290 " style="fill:white; stroke-width:1; stroke:black; " description="&lt;b&gt;AIW82278.1&lt;/b&gt;&lt;br&gt;ORF2&lt;br&gt;Location: 14198 - 10848" locus_tag="AIW82278.1" class="clusterblast-orf" id="knownclusterblast-1_all_1_5_7"  />
</g>
<g id="a1_008"  >
<polygon points="616,290 721,290 726,285 721,280 616,280 616,290 " style="fill:#d81515; stroke-width:1; stroke:black; " description="&lt;b&gt;AIW82277.1&lt;/b&gt;&lt;br&gt;PuwA&lt;br&gt;Location: 10672 - 2060&lt;br&gt;&lt;br&gt;&lt;b&gt;BlastP hit with ctg44_1&lt;/b&gt;&lt;br&gt;Percentage identity: 46&lt;br&gt;Percentage coverage: 94&lt;br&gt;BLAST bit score: 747&lt;br&gt;E-value: 2.8e-215" locus_tag="AIW82277.1" class="clusterblast-orf" id="knownclusterblast-1_all_1_5_8"  />
</g>
<g id="a1_009"  >
<polygon points="727,290 748,290 753,285 748,280 727,280 727,290 " style="fill:#15d8d8; stroke-width:1; stroke:black; " description="&lt;b&gt;AIW82276.1&lt;/b&gt;&lt;br&gt;ORF1&lt;br&gt;Location: 1980 - 1&lt;br&gt;&lt;br&gt;&lt;b&gt;BlastP hit with ctg44_15&lt;/b&gt;&lt;br&gt;Percentage identity: 51&lt;br&gt;Percentage coverage: 94&lt;br&gt;BLAST bit score: 567&lt;br&gt;E-value: 2.5e-161" locus_tag="AIW82276.1" class="clusterblast-orf" id="knownclusterblast-1_all_1_5_9"  />
</g>
<g label="BGC0001950" description="BGC0001950_c1: puwainaphycin F / minutissamide A (44% of genes show similarity), NRP" class="clusterblast-cluster"  >
<text x="5" y="320" class="clusterblast-acc"  >
<a xlink:href="https://mibig.secondarymetabolites.org/go/BGC0001950/1" target="_blank">BGC0001950</a>:                                                puwainaphycin F / minutissamide A (44% of genes show similarity), NRP</text>
<line x1="10" y1="335" x2="778.0" y2="335" style="stroke-width:1; stroke:grey; "  />
</g>
<g id="a1_000"  >
<polygon points="20,335 25,330 61,330 61,340 25,340 20,335 " style="fill:#d81515; stroke-width:1; stroke:black; " description="&lt;b&gt;AXN93582.1&lt;/b&gt;&lt;br&gt;PuwH&lt;br&gt;Location: 57756 - 54511&lt;br&gt;&lt;br&gt;&lt;b&gt;BlastP hit with ctg44_4&lt;/b&gt;&lt;br&gt;Percentage identity: 52&lt;br&gt;Percentage coverage: 100&lt;br&gt;BLAST bit score: 1044&lt;br&gt;E-value: 1.6e-304" locus_tag="AXN93582.1" class="clusterblast-orf" id="knownclusterblast-1_all_1_6_0"  />
</g>
<g id="a1_001"  >
<polygon points="63,335 68,330 288,330 288,340 68,340 63,335 " style="fill:#d81515; stroke-width:1; stroke:black; " description="&lt;b&gt;AXN93581.1&lt;/b&gt;&lt;br&gt;PuwF-G&lt;br&gt;Location: 54340 - 36785&lt;br&gt;&lt;br&gt;&lt;b&gt;BlastP hit with ctg44_5&lt;/b&gt;&lt;br&gt;Percentage identity: 50&lt;br&gt;Percentage coverage: 100&lt;br&gt;BLAST bit score: 2035&lt;br&gt;E-value: 0.0" locus_tag="AXN93581.1" class="clusterblast-orf" id="knownclusterblast-1_all_1_6_1"  />
</g>
<g id="a1_002"  >
<polygon points="288,335 293,330 408,330 408,340 293,340 288,335 " style="fill:white; stroke-width:1; stroke:black; " description="&lt;b&gt;AXN93580.1&lt;/b&gt;&lt;br&gt;PuwE&lt;br&gt;Location: 36788 - 27423" locus_tag="AXN93580.1" class="clusterblast-orf" id="knownclusterblast-1_all_1_6_2"  />
</g>
<g id="a1_003"  >
<polygon points="412,335 416,330 416,340 412,335 " style="fill:white; stroke-width:1; stroke:black; " description="&lt;b&gt;AXN93579.1&lt;/b&gt;&lt;br&gt;PuwD&lt;br&gt;Location: 27111 - 26797" locus_tag="AXN93579.1" class="clusterblast-orf" id="knownclusterblast-1_all_1_6_3"  />
</g>
<g id="a1_004"  >
<polygon points="418,335 423,330 441,330 441,340 423,340 418,335 " style="fill:white; stroke-width:1; stroke:black; " description="&lt;b&gt;AXN93578.1&lt;/b&gt;&lt;br&gt;PuwC&lt;br&gt;Location: 26628 - 24856" locus_tag="AXN93578.1" class="clusterblast-orf" id="knownclusterblast-1_all_1_6_4"  />
</g>
<g id="a1_005"  >
<polygon points="441,335 446,330 541,330 541,340 446,340 441,335 " style="fill:white; stroke-width:1; stroke:black; " description="&lt;b&gt;AXN93577.1&lt;/b&gt;&lt;br&gt;PuwB&lt;br&gt;Location: 24852 - 17074" locus_tag="AXN93577.1" class="clusterblast-orf" id="knownclusterblast-1_all_1_6_5"  />
</g>
<g id="a1_006"  >
<polygon points="563,340 615,340 620,335 615,330 563,330 563,340 " style="fill:white; stroke-width:1; stroke:black; " description="&lt;b&gt;AXN93576.1&lt;/b&gt;&lt;br&gt;ORF2&lt;br&gt;Location: 15363 - 10864" locus_tag="AXN93576.1" class="clusterblast-orf" id="knownclusterblast-1_all_1_6_6"  />
</g>
<g id="a1_007"  >
<polygon points="622,340 728,340 733,335 728,330 622,330 622,340 " style="fill:#d81515; stroke-width:1; stroke:black; " description="&lt;b&gt;AXN93575.1&lt;/b&gt;&lt;br&gt;PuwA&lt;br&gt;Location: 10687 - 2075&lt;br&gt;&lt;br&gt;&lt;b&gt;BlastP hit with ctg44_1&lt;/b&gt;&lt;br&gt;Percentage identity: 46&lt;br&gt;Percentage coverage: 93&lt;br&gt;BLAST bit score: 750&lt;br&gt;E-value: 3.3e-216" locus_tag="AXN93575.1" class="clusterblast-orf" id="knownclusterblast-1_all_1_6_7"  />
</g>
<g id="a1_008"  >
<polygon points="734,340 754,340 759,335 754,330 734,330 734,340 " style="fill:#15d8d8; stroke-width:1; stroke:black; " description="&lt;b&gt;AXN93574.1&lt;/b&gt;&lt;br&gt;ORF1&lt;br&gt;Location: 1995 - 1&lt;br&gt;&lt;br&gt;&lt;b&gt;BlastP hit with ctg44_15&lt;/b&gt;&lt;br&gt;Percentage identity: 50&lt;br&gt;Percentage coverage: 96&lt;br&gt;BLAST bit score: 560&lt;br&gt;E-value: 4e-159" locus_tag="AXN93574.1" class="clusterblast-orf" id="knownclusterblast-1_all_1_6_8"  />
</g>
<g label="BGC0001953" description="BGC0001953_c1: puwainaphycin F / minutissamide A / minutissamide B / minutiss... (23% of genes show similarity), NRP" class="clusterblast-cluster"  >
<text x="5" y="370" class="clusterblast-acc"  >
<a xlink:href="https://mibig.secondarymetabolites.org/go/BGC0001953/1" target="_blank">BGC0001953</a>: puwainaphycin F / minutissamide A / minutissamide B / minutissamide C / minutissamide D (23% of genes show similarity), NRP</text>
<line x1="10" y1="385" x2="778.0" y2="385" style="stroke-width:1; stroke:grey; "  />
</g>
<g id="a1_000"  >
<polygon points="0,385 5,380 24,380 24,390 5,390 0,385 " style="fill:#15d8d8; stroke-width:1; stroke:black; " description="&lt;b&gt;AXN93617.1&lt;/b&gt;&lt;br&gt;ORF1&lt;br&gt;Location: 60901 - 58970&lt;br&gt;&lt;br&gt;&lt;b&gt;BlastP hit with ctg44_15&lt;/b&gt;&lt;br&gt;Percentage identity: 51&lt;br&gt;Percentage coverage: 96&lt;br&gt;BLAST bit score: 584&lt;br&gt;E-value: 2e-166" locus_tag="AXN93617.1" class="clusterblast-orf" id="knownclusterblast-1_all_1_7_0"  />
</g>
<g id="a1_001"  >
<polygon points="28,385 33,380 71,380 71,390 33,390 28,385 " style="fill:#d81515; stroke-width:1; stroke:black; " description="&lt;b&gt;AXN93616.1&lt;/b&gt;&lt;br&gt;PuwH&lt;br&gt;Location: 58709 - 55344&lt;br&gt;&lt;br&gt;&lt;b&gt;BlastP hit with ctg44_4&lt;/b&gt;&lt;br&gt;Percentage identity: 51&lt;br&gt;Percentage coverage: 104&lt;br&gt;BLAST bit score: 1065&lt;br&gt;E-value: 5.2e-311" locus_tag="AXN93616.1" class="clusterblast-orf" id="knownclusterblast-1_all_1_7_1"  />
</g>
<g id="a1_002"  >
<polygon points="72,385 77,380 186,380 186,390 77,390 72,385 " style="fill:#d81515; stroke-width:1; stroke:black; " description="&lt;b&gt;AXN93615.1&lt;/b&gt;&lt;br&gt;PuwG&lt;br&gt;Location: 55273 - 46346&lt;br&gt;&lt;br&gt;&lt;b&gt;BlastP hit with ctg44_1&lt;/b&gt;&lt;br&gt;Percentage identity: 46&lt;br&gt;Percentage coverage: 93&lt;br&gt;BLAST bit score: 735&lt;br&gt;E-value: 8.4e-212&lt;br&gt;&lt;br&gt;&lt;b&gt;BlastP hit with ctg44_5&lt;/b&gt;&lt;br&gt;Percentage identity: 49&lt;br&gt;Percentage coverage: 101&lt;br&gt;BLAST bit score: 1996&lt;br&gt;E-value: 0.0" locus_tag="AXN93615.1" class="clusterblast-orf" id="knownclusterblast-1_all_1_7_2"  />
</g>
<g id="a1_003"  >
<polygon points="186,385 191,380 297,380 297,390 191,390 186,385 " style="fill:white; stroke-width:1; stroke:black; " description="&lt;b&gt;AXN93614.1&lt;/b&gt;&lt;br&gt;PuwF&lt;br&gt;Location: 46308 - 37654" locus_tag="AXN93614.1" class="clusterblast-orf" id="knownclusterblast-1_all_1_7_3"  />
</g>
<g id="a1_004"  >
<polygon points="297,385 302,380 416,380 416,390 302,390 297,385 " style="fill:white; stroke-width:1; stroke:black; " description="&lt;b&gt;AXN93613.1&lt;/b&gt;&lt;br&gt;PuwE&lt;br&gt;Location: 37657 - 28358" locus_tag="AXN93613.1" class="clusterblast-orf" id="knownclusterblast-1_all_1_7_4"  />
</g>
<g id="a1_005"  >
<polygon points="418,385 421,380 421,390 418,385 " style="fill:white; stroke-width:1; stroke:black; " description="&lt;b&gt;AXN93612.1&lt;/b&gt;&lt;br&gt;PuwD&lt;br&gt;Location: 28256 - 27975" locus_tag="AXN93612.1" class="clusterblast-orf" id="knownclusterblast-1_all_1_7_5"  />
</g>
<g id="a1_006"  >
<polygon points="422,385 427,380 441,380 441,390 427,390 422,385 " style="fill:white; stroke-width:1; stroke:black; " description="&lt;b&gt;AXN93611.1&lt;/b&gt;&lt;br&gt;PuwC&lt;br&gt;Location: 27898 - 26420" locus_tag="AXN93611.1" class="clusterblast-orf" id="knownclusterblast-1_all_1_7_6"  />
</g>
<g id="a1_007"  >
<polygon points="445,385 450,380 543,380 543,390 450,390 445,385 " style="fill:white; stroke-width:1; stroke:black; " description="&lt;b&gt;AXN93610.1&lt;/b&gt;&lt;br&gt;PuwB&lt;br&gt;Location: 26108 - 18459" locus_tag="AXN93610.1" class="clusterblast-orf" id="knownclusterblast-1_all_1_7_7"  />
</g>
<g id="a1_008"  >
<polygon points="544,385 549,380 560,380 560,390 549,390 544,385 " style="fill:white; stroke-width:1; stroke:black; " description="&lt;b&gt;AXN93609.1&lt;/b&gt;&lt;br&gt;PuwJ&lt;br&gt;Location: 18419 - 17136" locus_tag="AXN93609.1" class="clusterblast-orf" id="knownclusterblast-1_all_1_7_8"  />
</g>
<g id="a1_009"  >
<polygon points="560,385 565,380 588,380 588,390 565,390 560,385 " style="fill:white; stroke-width:1; stroke:black; " description="&lt;b&gt;AXN93608.1&lt;/b&gt;&lt;br&gt;PuwI&lt;br&gt;Location: 17133 - 14989" locus_tag="AXN93608.1" class="clusterblast-orf" id="knownclusterblast-1_all_1_7_9"  />
</g>
<g id="a1_0010"  >
<polygon points="595,385 600,380 621,380 621,390 600,390 595,385 " style="fill:white; stroke-width:1; stroke:black; " description="&lt;b&gt;AXN93607.1&lt;/b&gt;&lt;br&gt;ORF3&lt;br&gt;Location: 14442 - 12352" locus_tag="AXN93607.1" class="clusterblast-orf" id="knownclusterblast-1_all_1_7_10"  />
</g>
<g id="a1_0011"  >
<polygon points="640,390 660,390 665,385 660,380 640,380 640,390 " style="fill:white; stroke-width:1; stroke:black; " description="&lt;b&gt;AXN93606.1&lt;/b&gt;&lt;br&gt;ORF2&lt;br&gt;Location: 10902 - 8971" locus_tag="AXN93606.1" class="clusterblast-orf" id="knownclusterblast-1_all_1_7_11"  />
</g>
<g id="a1_0012"  >
<polygon points="670,390 775,390 780,385 775,380 670,380 670,390 " style="fill:white; stroke-width:1; stroke:black; " description="&lt;b&gt;AXN93605.1&lt;/b&gt;&lt;br&gt;PuwA&lt;br&gt;Location: 8565 - 1" locus_tag="AXN93605.1" class="clusterblast-orf" id="knownclusterblast-1_all_1_7_12"  />
</g>
<g label="BGC0001029" description="BGC0001029_c1: nostophycin (18% of genes show similarity), NRP + Polyketide" class="clusterblast-cluster"  >
<text x="5" y="420" class="clusterblast-acc"  >
<a xlink:href="https://mibig.secondarymetabolites.org/go/BGC0001029/1" target="_blank">BGC0001029</a>:                                                                      nostophycin (18% of genes show similarity), NRP + Polyketide</text>
<line x1="10" y1="435" x2="778.0" y2="435" style="stroke-width:1; stroke:grey; "  />
</g>
<g id="a1_000"  >
<polygon points="36,440 60,440 65,435 60,430 36,430 36,440 " style="fill:white; stroke-width:1; stroke:black; " description="&lt;b&gt;AEU11004.1&lt;/b&gt;&lt;br&gt;hypothetical protein&lt;br&gt;Location: 55249 - 52949" locus_tag="AEU11004.1" class="clusterblast-orf" id="knownclusterblast-1_all_1_8_0"  />
</g>
<g id="a1_001"  >
<polygon points="68,435 73,430 263,430 263,440 73,440 68,435 " style="fill:#d81515; stroke-width:1; stroke:black; " description="&lt;b&gt;AEU11003.1&lt;/b&gt;&lt;br&gt;NpnC&lt;br&gt;Location: 52732 - 37517&lt;br&gt;&lt;br&gt;&lt;b&gt;BlastP hit with ctg44_1&lt;/b&gt;&lt;br&gt;Percentage identity: 51&lt;br&gt;Percentage coverage: 92&lt;br&gt;BLAST bit score: 847&lt;br&gt;E-value: 2e-245&lt;br&gt;&lt;br&gt;&lt;b&gt;BlastP hit with ctg44_2&lt;/b&gt;&lt;br&gt;Percentage identity: 48&lt;br&gt;Percentage coverage: 79&lt;br&gt;BLAST bit score: 1695&lt;br&gt;E-value: 0.0&lt;br&gt;&lt;br&gt;&lt;b&gt;BlastP hit with ctg44_4&lt;/b&gt;&lt;br&gt;Percentage identity: 50&lt;br&gt;Percentage coverage: 98&lt;br&gt;BLAST bit score: 994&lt;br&gt;E-value: 1.5e-289&lt;br&gt;&lt;br&gt;&lt;b&gt;BlastP hit with ctg44_5&lt;/b&gt;&lt;br&gt;Percentage identity: 49&lt;br&gt;Percentage coverage: 100&lt;br&gt;BLAST bit score: 1931&lt;br&gt;E-value: 0.0" locus_tag="AEU11003.1" class="clusterblast-orf" id="knownclusterblast-1_all_1_8_1"  />
</g>
<g id="a1_002"  >
<polygon points="263,435 268,430 446,430 446,440 268,440 263,435 " style="fill:#d81515; stroke-width:1; stroke:black; " description="&lt;b&gt;AEU11006.1&lt;/b&gt;&lt;br&gt;NpnB&lt;br&gt;Location: 37514 - 23208&lt;br&gt;&lt;br&gt;&lt;b&gt;BlastP hit with ctg44_4&lt;/b&gt;&lt;br&gt;Percentage identity: 51&lt;br&gt;Percentage coverage: 98&lt;br&gt;BLAST bit score: 1016&lt;br&gt;E-value: 2.8e-296&lt;br&gt;&lt;br&gt;&lt;b&gt;BlastP hit with ctg44_5&lt;/b&gt;&lt;br&gt;Percentage identity: 47&lt;br&gt;Percentage coverage: 71&lt;br&gt;BLAST bit score: 1290&lt;br&gt;E-value: 0.0" locus_tag="AEU11006.1" class="clusterblast-orf" id="knownclusterblast-1_all_1_8_2"  />
</g>
<g id="a1_003"  >
<polygon points="446,435 451,430 643,430 643,440 451,440 446,435 " style="fill:white; stroke-width:1; stroke:black; " description="&lt;b&gt;AEU11005.1&lt;/b&gt;&lt;br&gt;NpnA&lt;br&gt;Location: 23181 - 7801" locus_tag="AEU11005.1" class="clusterblast-orf" id="knownclusterblast-1_all_1_8_3"  />
</g>
<g id="a1_004"  >
<polygon points="655,435 660,430 662,430 662,440 660,440 655,435 " style="fill:white; stroke-width:1; stroke:black; " description="&lt;b&gt;AEU11002.1&lt;/b&gt;&lt;br&gt;putative RNA ligase&lt;br&gt;Location: 6888 - 6331" locus_tag="AEU11002.1" class="clusterblast-orf" id="knownclusterblast-1_all_1_8_4"  />
</g>
<g id="a1_005"  >
<polygon points="669,440 669,440 674,435 669,430 669,430 669,440 " style="fill:white; stroke-width:1; stroke:black; " description="&lt;b&gt;AEU11001.1&lt;/b&gt;&lt;br&gt;hypothetical protein&lt;br&gt;Location: 5812 - 5432" locus_tag="AEU11001.1" class="clusterblast-orf" id="knownclusterblast-1_all_1_8_5"  />
</g>
<g id="a1_006"  >
<polygon points="676,440 676,440 681,435 676,430 676,430 676,440 " style="fill:white; stroke-width:1; stroke:black; " description="&lt;b&gt;AEU11000.1&lt;/b&gt;&lt;br&gt;hypothetical protein&lt;br&gt;Location: 5279 - 4881" locus_tag="AEU11000.1" class="clusterblast-orf" id="knownclusterblast-1_all_1_8_6"  />
</g>
<g id="a1_007"  >
<polygon points="681,440 681,440 686,435 681,430 681,430 681,440 " style="fill:white; stroke-width:1; stroke:black; " description="&lt;b&gt;AEU10999.1&lt;/b&gt;&lt;br&gt;GTP cyclohydrolase&lt;br&gt;Location: 4849 - 4439" locus_tag="AEU10999.1" class="clusterblast-orf" id="knownclusterblast-1_all_1_8_7"  />
</g>
<g id="a1_008"  >
<polygon points="688,440 705,440 710,435 705,430 688,430 688,440 " style="fill:white; stroke-width:1; stroke:black; " description="&lt;b&gt;AEU10998.1&lt;/b&gt;&lt;br&gt;hypothetical protein&lt;br&gt;Location: 4286 - 2610" locus_tag="AEU10998.1" class="clusterblast-orf" id="knownclusterblast-1_all_1_8_8"  />
</g>
<g id="a1_009"  >
<polygon points="710,435 715,430 724,430 724,440 715,440 710,435 " style="fill:white; stroke-width:1; stroke:black; " description="&lt;b&gt;AEU10997.1&lt;/b&gt;&lt;br&gt;ABC transporter&lt;br&gt;Location: 2578 - 1487" locus_tag="AEU10997.1" class="clusterblast-orf" id="knownclusterblast-1_all_1_8_9"  />
</g>
<g id="a1_0010"  >
<polygon points="726,435 731,430 743,430 743,440 731,440 726,435 " style="fill:white; stroke-width:1; stroke:black; " description="&lt;b&gt;AEU10996.1&lt;/b&gt;&lt;br&gt;ResB-like protein&lt;br&gt;Location: 1390 - 1" locus_tag="AEU10996.1" class="clusterblast-orf" id="knownclusterblast-1_all_1_8_10"  />
</g>
<g label="BGC0001028" description="BGC0001028_c1: nostopeptolide A2 (37% of genes show similarity), Polyketide + NRP:Cyclic depsipeptide" class="clusterblast-cluster"  >
<text x="5" y="470" class="clusterblast-acc"  >
<a xlink:href="https://mibig.secondarymetabolites.org/go/BGC0001028/1" target="_blank">BGC0001028</a>:                                                                nostopeptolide A2 (37% of genes show similarity), Polyketide + NRP:Cyclic depsipeptide</text>
<line x1="10" y1="485" x2="778.0" y2="485" style="stroke-width:1; stroke:grey; "  />
</g>
<g id="a1_000"  >
<polygon points="137,485 142,480 163,480 163,490 142,490 137,485 " style="fill:#15d8d8; stroke-width:1; stroke:black; " description="&lt;b&gt;AAF17285.1&lt;/b&gt;&lt;br&gt;nosG&lt;br&gt;Location: 40725 - 38734&lt;br&gt;&lt;br&gt;&lt;b&gt;BlastP hit with ctg44_15&lt;/b&gt;&lt;br&gt;Percentage identity: 69&lt;br&gt;Percentage coverage: 98&lt;br&gt;BLAST bit score: 809&lt;br&gt;E-value: 3.8e-234" locus_tag="AAF17285.1" class="clusterblast-orf" id="knownclusterblast-1_all_1_9_0"  />
</g>
<g id="a1_001"  >
<polygon points="164,485 169,480 175,480 175,490 169,490 164,485 " style="fill:white; stroke-width:1; stroke:black; " description="&lt;b&gt;AAF17284.1&lt;/b&gt;&lt;br&gt;nosF&lt;br&gt;Location: 38632 - 37811" locus_tag="AAF17284.1" class="clusterblast-orf" id="knownclusterblast-1_all_1_9_1"  />
</g>
<g id="a1_002"  >
<polygon points="175,485 180,480 189,480 189,490 180,490 175,485 " style="fill:white; stroke-width:1; stroke:black; " description="&lt;b&gt;AAF17283.1&lt;/b&gt;&lt;br&gt;nosE&lt;br&gt;Location: 37771 - 36665" locus_tag="AAF17283.1" class="clusterblast-orf" id="knownclusterblast-1_all_1_9_2"  />
</g>
<g id="a1_003"  >
<polygon points="190,485 195,480 200,480 200,490 195,490 190,485 " style="fill:white; stroke-width:1; stroke:black; " description="&lt;b&gt;AAF17282.1&lt;/b&gt;&lt;br&gt;Unknown&lt;br&gt;Location: 36617 - 35820" locus_tag="AAF17282.1" class="clusterblast-orf" id="knownclusterblast-1_all_1_9_3"  />
</g>
<g id="a1_004"  >
<polygon points="203,485 208,480 297,480 297,490 208,490 203,485 " style="fill:#d81515; stroke-width:1; stroke:black; " description="&lt;b&gt;AAF17281.1&lt;/b&gt;&lt;br&gt;nosD&lt;br&gt;Location: 35614 - 28262&lt;br&gt;&lt;br&gt;&lt;b&gt;BlastP hit with ctg44_1&lt;/b&gt;&lt;br&gt;Percentage identity: 51&lt;br&gt;Percentage coverage: 94&lt;br&gt;BLAST bit score: 856&lt;br&gt;E-value: 5.6e-248&lt;br&gt;&lt;br&gt;&lt;b&gt;BlastP hit with ctg44_2&lt;/b&gt;&lt;br&gt;Percentage identity: 49&lt;br&gt;Percentage coverage: 78&lt;br&gt;BLAST bit score: 1769&lt;br&gt;E-value: 0.0&lt;br&gt;&lt;br&gt;&lt;b&gt;BlastP hit with ctg44_5&lt;/b&gt;&lt;br&gt;Percentage identity: 48&lt;br&gt;Percentage coverage: 79&lt;br&gt;BLAST bit score: 1488&lt;br&gt;E-value: 0.0" locus_tag="AAF17281.1" class="clusterblast-orf" id="knownclusterblast-1_all_1_9_4"  />
</g>
<g id="a1_005"  >
<polygon points="297,485 302,480 425,480 425,490 302,490 297,485 " style="fill:#d81515; stroke-width:1; stroke:black; " description="&lt;b&gt;AAF17280.1&lt;/b&gt;&lt;br&gt;nosC&lt;br&gt;Location: 28265 - 18312&lt;br&gt;&lt;br&gt;&lt;b&gt;BlastP hit with ctg44_2&lt;/b&gt;&lt;br&gt;Percentage identity: 47&lt;br&gt;Percentage coverage: 80&lt;br&gt;BLAST bit score: 1737&lt;br&gt;E-value: 0.0&lt;br&gt;&lt;br&gt;&lt;b&gt;BlastP hit with ctg44_5&lt;/b&gt;&lt;br&gt;Percentage identity: 47&lt;br&gt;Percentage coverage: 80&lt;br&gt;BLAST bit score: 1507&lt;br&gt;E-value: 0.0" locus_tag="AAF17280.1" class="clusterblast-orf" id="knownclusterblast-1_all_1_9_5"  />
</g>
<g id="a1_006"  >
<polygon points="425,485 430,480 473,480 473,490 430,490 425,485 " style="fill:white; stroke-width:1; stroke:black; " description="&lt;b&gt;AAF15892.2&lt;/b&gt;&lt;br&gt;nosB&lt;br&gt;Location: 18240 - 14506" locus_tag="AAF15892.2" class="clusterblast-orf" id="knownclusterblast-1_all_1_9_6"  />
</g>
<g id="a1_007"  >
<polygon points="473,485 478,480 642,480 642,490 478,490 473,485 " style="fill:white; stroke-width:1; stroke:black; " description="&lt;b&gt;AAF15891.2&lt;/b&gt;&lt;br&gt;nosA&lt;br&gt;Location: 14509 - 1370" locus_tag="AAF15891.2" class="clusterblast-orf" id="knownclusterblast-1_all_1_9_7"  />
</g>
<g label="BGC0000331" description="BGC0000331_c1: cyanopeptin (100% of genes show similarity), NRP" class="clusterblast-cluster"  >
<text x="5" y="520" class="clusterblast-acc"  >
<a xlink:href="https://mibig.secondarymetabolites.org/go/BGC0000331/1" target="_blank">BGC0000331</a>:                                                                      cyanopeptin (100% of genes show similarity), NRP</text>
<line x1="10" y1="535" x2="778.0" y2="535" style="stroke-width:1; stroke:grey; "  />
</g>
<g id="a1_000"  >
<polygon points="190,535 195,530 244,530 244,540 195,540 190,535 " style="fill:#d81515; stroke-width:1; stroke:black; " description="&lt;b&gt;ABI26079.1&lt;/b&gt;&lt;br&gt;OciC&lt;br&gt;Location: 31215 - 26962&lt;br&gt;&lt;br&gt;&lt;b&gt;BlastP hit with ctg44_1&lt;/b&gt;&lt;br&gt;Percentage identity: 46&lt;br&gt;Percentage coverage: 101&lt;br&gt;BLAST bit score: 764&lt;br&gt;E-value: 2.9e-220&lt;br&gt;&lt;br&gt;&lt;b&gt;BlastP hit with ctg44_2&lt;/b&gt;&lt;br&gt;Percentage identity: 47&lt;br&gt;Percentage coverage: 42&lt;br&gt;BLAST bit score: 881&lt;br&gt;E-value: 4.4e-255" locus_tag="ABI26079.1" class="clusterblast-orf" id="knownclusterblast-1_all_1_10_0"  />
</g>
<g id="a1_001"  >
<polygon points="244,535 249,530 426,530 426,540 249,540 244,535 " style="fill:#d81515; stroke-width:1; stroke:black; " description="&lt;b&gt;ABI26078.1&lt;/b&gt;&lt;br&gt;OciB&lt;br&gt;Location: 26965 - 12779&lt;br&gt;&lt;br&gt;&lt;b&gt;BlastP hit with ctg44_1&lt;/b&gt;&lt;br&gt;Percentage identity: 47&lt;br&gt;Percentage coverage: 95&lt;br&gt;BLAST bit score: 783&lt;br&gt;E-value: 3.5e-226" locus_tag="ABI26078.1" class="clusterblast-orf" id="knownclusterblast-1_all_1_10_1"  />
</g>
<g id="a1_002"  >
<polygon points="426,535 431,530 559,530 559,540 431,540 426,535 " style="fill:#d81515; stroke-width:1; stroke:black; " description="&lt;b&gt;ABI26077.1&lt;/b&gt;&lt;br&gt;OciA&lt;br&gt;Location: 12782 - 2349&lt;br&gt;&lt;br&gt;&lt;b&gt;BlastP hit with ctg44_1&lt;/b&gt;&lt;br&gt;Percentage identity: 52&lt;br&gt;Percentage coverage: 95&lt;br&gt;BLAST bit score: 897&lt;br&gt;E-value: 1.7e-260&lt;br&gt;&lt;br&gt;&lt;b&gt;BlastP hit with ctg44_2&lt;/b&gt;&lt;br&gt;Percentage identity: 49&lt;br&gt;Percentage coverage: 80&lt;br&gt;BLAST bit score: 1847&lt;br&gt;E-value: 0.0&lt;br&gt;&lt;br&gt;&lt;b&gt;BlastP hit with ctg44_5&lt;/b&gt;&lt;br&gt;Percentage identity: 47&lt;br&gt;Percentage coverage: 79&lt;br&gt;BLAST bit score: 1483&lt;br&gt;E-value: 0.0" locus_tag="ABI26077.1" class="clusterblast-orf" id="knownclusterblast-1_all_1_10_2"  />
</g>
<g id="a1_003"  >
<polygon points="563,540 584,540 589,535 584,530 563,530 563,540 " style="fill:#15d8d8; stroke-width:1; stroke:black; " description="&lt;b&gt;ABI26076.1&lt;/b&gt;&lt;br&gt;ABC transporter&lt;br&gt;Location: 2064 - 1&lt;br&gt;&lt;br&gt;&lt;b&gt;BlastP hit with ctg44_15&lt;/b&gt;&lt;br&gt;Percentage identity: 65&lt;br&gt;Percentage coverage: 98&lt;br&gt;BLAST bit score: 770&lt;br&gt;E-value: 1.9e-222" locus_tag="ABI26076.1" class="clusterblast-orf" id="knownclusterblast-1_all_1_10_3"  />
</g>
</svg>
