<svg xmlns="http://www.w3.org/2000/svg" xmlns:xlink="http://www.w3.org/1999/xlink" version="1.1" x="0" y="0" height="230" width="800" viewBox="0 0 800 230" preserveAspectRatio="none"  >
<g label="Query sequence" class="clusterblast-cluster"  >
<text x="5" y="20" class="clusterblast-acc"  >
Query sequence</text>
<line x1="10" y1="35" x2="778.0" y2="35" style="stroke-width:1; stroke:grey; "  />
<polygon points="0,35 2,30 2,40 0,35 " style="fill:white; stroke-width:1; stroke:black; " description="&lt;b&gt;ctg3_148&lt;/b&gt;&lt;br&gt;ctg3 148&lt;br&gt;Location: 178154 - 178331" locus_tag="ctg3_148" class="clusterblast-orf" id="dummy-1_q0_0_all"  />
<polygon points="10,40 14,35 10,30 10,40 " style="fill:white; stroke-width:1; stroke:black; " description="&lt;b&gt;ctg3_149&lt;/b&gt;&lt;br&gt;ctg3 149&lt;br&gt;Location: 178820 - 179084" locus_tag="ctg3_149" class="clusterblast-orf" id="dummy-1_q1_0_all"  />
<polygon points="24,35 26,30 26,40 24,35 " style="fill:white; stroke-width:1; stroke:black; " description="&lt;b&gt;ctg3_150&lt;/b&gt;&lt;br&gt;ctg3 150&lt;br&gt;Location: 179799 - 179904" locus_tag="ctg3_150" class="clusterblast-orf" id="dummy-1_q2_0_all"  />
<polygon points="27,35 32,30 36,30 36,40 32,40 27,35 " style="fill:white; stroke-width:1; stroke:black; " description="&lt;b&gt;ctg3_151&lt;/b&gt;&lt;br&gt;ctg3 151&lt;br&gt;Location: 179991 - 180570" locus_tag="ctg3_151" class="clusterblast-orf" id="dummy-1_q3_0_all"  />
<polygon points="39,40 45,40 50,35 45,30 39,30 39,40 " style="fill:white; stroke-width:1; stroke:black; " description="&lt;b&gt;ctg3_152&lt;/b&gt;&lt;br&gt;ctg3 152&lt;br&gt;Location: 180764 - 181487" locus_tag="ctg3_152" class="clusterblast-orf" id="dummy-1_q4_0_all"  />
<polygon points="50,35 55,30 61,30 61,40 55,40 50,35 " style="fill:white; stroke-width:1; stroke:black; " description="&lt;b&gt;ctg3_153&lt;/b&gt;&lt;br&gt;ctg3 153&lt;br&gt;Location: 181531 - 182281" locus_tag="ctg3_153" class="clusterblast-orf" id="dummy-1_q5_0_all"  />
<polygon points="65,40 78,40 83,35 78,30 65,30 65,40 " style="fill:white; stroke-width:1; stroke:black; " description="&lt;b&gt;ctg3_154&lt;/b&gt;&lt;br&gt;ctg3 154&lt;br&gt;Location: 182492 - 183755" locus_tag="ctg3_154" class="clusterblast-orf" id="dummy-1_q6_0_all"  />
<polygon points="92,40 99,40 104,35 99,30 92,30 92,40 " style="fill:white; stroke-width:1; stroke:black; " description="&lt;b&gt;ctg3_155&lt;/b&gt;&lt;br&gt;ctg3 155&lt;br&gt;Location: 184312 - 185146" locus_tag="ctg3_155" class="clusterblast-orf" id="dummy-1_q7_0_all"  />
<polygon points="110,40 128,40 133,35 128,30 110,30 110,40 " style="fill:white; stroke-width:1; stroke:black; " description="&lt;b&gt;ctg3_156&lt;/b&gt;&lt;br&gt;ctg3 156&lt;br&gt;Location: 185539 - 187084" locus_tag="ctg3_156" class="clusterblast-orf" id="dummy-1_q8_0_all"  />
<polygon points="139,35 144,30 158,30 158,40 144,40 139,35 " style="fill:white; stroke-width:1; stroke:black; " description="&lt;b&gt;ctg3_157&lt;/b&gt;&lt;br&gt;ctg3 157&lt;br&gt;Location: 187465 - 188734" locus_tag="ctg3_157" class="clusterblast-orf" id="dummy-1_q9_0_all"  />
<polygon points="160,35 165,30 179,30 179,40 165,40 160,35 " style="fill:white; stroke-width:1; stroke:black; " description="&lt;b&gt;ctg3_158&lt;/b&gt;&lt;br&gt;ctg3 158&lt;br&gt;Location: 188869 - 190129" locus_tag="ctg3_158" class="clusterblast-orf" id="dummy-1_q10_0_all"  />
<polygon points="180,35 185,30 187,30 187,40 185,40 180,35 " style="fill:white; stroke-width:1; stroke:black; " description="&lt;b&gt;ctg3_159&lt;/b&gt;&lt;br&gt;ctg3 159&lt;br&gt;Location: 190226 - 190697" locus_tag="ctg3_159" class="clusterblast-orf" id="dummy-1_q11_0_all"  />
<polygon points="188,35 193,30 203,30 203,40 193,40 188,35 " style="fill:white; stroke-width:1; stroke:black; " description="&lt;b&gt;ctg3_160&lt;/b&gt;&lt;br&gt;ctg3 160&lt;br&gt;Location: 190706 - 191714" locus_tag="ctg3_160" class="clusterblast-orf" id="dummy-1_q12_0_all"  />
<polygon points="204,35 209,30 221,30 221,40 209,40 204,35 " style="fill:#d81515; stroke-width:1; stroke:black; " description="&lt;b&gt;ctg3_161&lt;/b&gt;&lt;br&gt;ctg3 161&lt;br&gt;Location: 191783 - 192962" locus_tag="ctg3_161" class="clusterblast-orf" id="dummy-1_q13_0_all"  />
<polygon points="223,35 228,30 241,30 241,40 228,40 223,35 " style="fill:#4dd815; stroke-width:1; stroke:black; " description="&lt;b&gt;ctg3_162&lt;/b&gt;&lt;br&gt;ctg3 162&lt;br&gt;Location: 193063 - 194263" locus_tag="ctg3_162" class="clusterblast-orf" id="dummy-1_q14_0_all"  />
<polygon points="254,40 269,40 274,35 269,30 254,30 254,40 " style="fill:white; stroke-width:1; stroke:black; " description="&lt;b&gt;ctg3_163&lt;/b&gt;&lt;br&gt;ctg3 163&lt;br&gt;Location: 195115 - 196465" locus_tag="ctg3_163" class="clusterblast-orf" id="dummy-1_q15_0_all"  />
<polygon points="284,40 284,40 289,35 284,30 284,30 284,40 " style="fill:white; stroke-width:1; stroke:black; " description="&lt;b&gt;ctg3_164&lt;/b&gt;&lt;br&gt;ctg3 164&lt;br&gt;Location: 197128 - 197452" locus_tag="ctg3_164" class="clusterblast-orf" id="dummy-1_q16_0_all"  />
<polygon points="292,40 369,40 374,35 369,30 292,30 292,40 " style="fill:#1585d8; stroke-width:1; stroke:black; " description="&lt;b&gt;ctg3_165&lt;/b&gt;&lt;br&gt;ctg3 165&lt;br&gt;Location: 197714 - 203171" locus_tag="ctg3_165" class="clusterblast-orf" id="dummy-1_q17_0_all"  />
<polygon points="376,40 380,40 385,35 380,30 376,30 376,40 " style="fill:white; stroke-width:1; stroke:black; " description="&lt;b&gt;ctg3_166&lt;/b&gt;&lt;br&gt;ctg3 166&lt;br&gt;Location: 203299 - 203863" locus_tag="ctg3_166" class="clusterblast-orf" id="dummy-1_q18_0_all"  />
<polygon points="386,40 407,40 412,35 407,30 386,30 386,40 " style="fill:#d815bc; stroke-width:1; stroke:black; " description="&lt;b&gt;ctg3_167&lt;/b&gt;&lt;br&gt;ctg3 167&lt;br&gt;Location: 203934 - 205674" locus_tag="ctg3_167" class="clusterblast-orf" id="dummy-1_q19_0_all"  />
<polygon points="413,40 478,40 483,35 478,30 413,30 413,40 " style="fill:#d8bc15; stroke-width:1; stroke:black; " description="&lt;b&gt;ctg3_168&lt;/b&gt;&lt;br&gt;ctg3 168&lt;br&gt;Location: 205772 - 210452" locus_tag="ctg3_168" class="clusterblast-orf" id="dummy-1_q20_0_all"  />
<polygon points="487,40 506,40 511,35 506,30 487,30 487,40 " style="fill:#15d885; stroke-width:1; stroke:black; " description="&lt;b&gt;ctg3_169&lt;/b&gt;&lt;br&gt;ctg3 169&lt;br&gt;Location: 210683 - 212345" locus_tag="ctg3_169" class="clusterblast-orf" id="dummy-1_q21_0_all"  />
<polygon points="512,40 529,40 534,35 529,30 512,30 512,40 " style="fill:#4d15d8; stroke-width:1; stroke:black; " description="&lt;b&gt;ctg3_170&lt;/b&gt;&lt;br&gt;ctg3 170&lt;br&gt;Location: 212347 - 213856" locus_tag="ctg3_170" class="clusterblast-orf" id="dummy-1_q22_0_all"  />
<polygon points="542,40 552,40 557,35 552,30 542,30 542,40 " style="fill:white; stroke-width:1; stroke:black; " description="&lt;b&gt;ctg3_171&lt;/b&gt;&lt;br&gt;ctg3 171&lt;br&gt;Location: 214396 - 215410" locus_tag="ctg3_171" class="clusterblast-orf" id="dummy-1_q23_0_all"  />
<polygon points="567,40 571,35 567,30 567,40 " style="fill:white; stroke-width:1; stroke:black; " description="&lt;b&gt;ctg3_172&lt;/b&gt;&lt;br&gt;ctg3 172&lt;br&gt;Location: 216025 - 216352" locus_tag="ctg3_172" class="clusterblast-orf" id="dummy-1_q24_0_all"  />
<polygon points="573,35 576,30 576,40 573,35 " style="fill:white; stroke-width:1; stroke:black; " description="&lt;b&gt;ctg3_173&lt;/b&gt;&lt;br&gt;ctg3 173&lt;br&gt;Location: 216455 - 216689" locus_tag="ctg3_173" class="clusterblast-orf" id="dummy-1_q25_0_all"  />
<polygon points="584,40 587,35 584,30 584,40 " style="fill:white; stroke-width:1; stroke:black; " description="&lt;b&gt;ctg3_174&lt;/b&gt;&lt;br&gt;ctg3 174&lt;br&gt;Location: 217187 - 217406" locus_tag="ctg3_174" class="clusterblast-orf" id="dummy-1_q26_0_all"  />
<polygon points="588,35 593,30 598,30 598,40 593,40 588,35 " style="fill:white; stroke-width:1; stroke:black; " description="&lt;b&gt;ctg3_175&lt;/b&gt;&lt;br&gt;ctg3 175&lt;br&gt;Location: 217486 - 218143" locus_tag="ctg3_175" class="clusterblast-orf" id="dummy-1_q27_0_all"  />
<polygon points="599,35 604,30 611,30 611,40 604,40 599,35 " style="fill:white; stroke-width:1; stroke:black; " description="&lt;b&gt;ctg3_176&lt;/b&gt;&lt;br&gt;ctg3 176&lt;br&gt;Location: 218180 - 218963" locus_tag="ctg3_176" class="clusterblast-orf" id="dummy-1_q28_0_all"  />
<polygon points="612,35 617,30 624,30 624,40 617,40 612,35 " style="fill:white; stroke-width:1; stroke:black; " description="&lt;b&gt;ctg3_177&lt;/b&gt;&lt;br&gt;ctg3 177&lt;br&gt;Location: 219085 - 219832" locus_tag="ctg3_177" class="clusterblast-orf" id="dummy-1_q29_0_all"  />
<polygon points="627,40 638,40 643,35 638,30 627,30 627,40 " style="fill:white; stroke-width:1; stroke:black; " description="&lt;b&gt;ctg3_178&lt;/b&gt;&lt;br&gt;ctg3 178&lt;br&gt;Location: 220056 - 221130" locus_tag="ctg3_178" class="clusterblast-orf" id="dummy-1_q30_0_all"  />
<polygon points="644,40 646,40 651,35 646,30 644,30 644,40 " style="fill:white; stroke-width:1; stroke:black; " description="&lt;b&gt;ctg3_179&lt;/b&gt;&lt;br&gt;ctg3 179&lt;br&gt;Location: 221190 - 221649" locus_tag="ctg3_179" class="clusterblast-orf" id="dummy-1_q31_0_all"  />
<polygon points="651,40 655,35 651,30 651,40 " style="fill:white; stroke-width:1; stroke:black; " description="&lt;b&gt;ctg3_180&lt;/b&gt;&lt;br&gt;ctg3 180&lt;br&gt;Location: 221690 - 221951" locus_tag="ctg3_180" class="clusterblast-orf" id="dummy-1_q32_0_all"  />
<polygon points="656,35 661,30 670,30 670,40 661,40 656,35 " style="fill:white; stroke-width:1; stroke:black; " description="&lt;b&gt;ctg3_181&lt;/b&gt;&lt;br&gt;ctg3 181&lt;br&gt;Location: 222026 - 222938" locus_tag="ctg3_181" class="clusterblast-orf" id="dummy-1_q33_0_all"  />
<polygon points="671,35 676,30 685,30 685,40 676,40 671,35 " style="fill:white; stroke-width:1; stroke:black; " description="&lt;b&gt;ctg3_182&lt;/b&gt;&lt;br&gt;ctg3 182&lt;br&gt;Location: 223025 - 223919" locus_tag="ctg3_182" class="clusterblast-orf" id="dummy-1_q34_0_all"  />
<polygon points="685,35 689,30 689,40 685,35 " style="fill:white; stroke-width:1; stroke:black; " description="&lt;b&gt;ctg3_183&lt;/b&gt;&lt;br&gt;ctg3 183&lt;br&gt;Location: 223968 - 224202" locus_tag="ctg3_183" class="clusterblast-orf" id="dummy-1_q35_0_all"  />
<polygon points="692,35 697,30 716,30 716,40 697,40 692,35 " style="fill:white; stroke-width:1; stroke:black; " description="&lt;b&gt;ctg3_184&lt;/b&gt;&lt;br&gt;ctg3 184&lt;br&gt;Location: 224405 - 226004" locus_tag="ctg3_184" class="clusterblast-orf" id="dummy-1_q36_0_all"  />
<polygon points="721,35 725,30 725,40 721,35 " style="fill:white; stroke-width:1; stroke:black; " description="&lt;b&gt;ctg3_185&lt;/b&gt;&lt;br&gt;ctg3 185&lt;br&gt;Location: 226348 - 226585" locus_tag="ctg3_185" class="clusterblast-orf" id="dummy-1_q37_0_all"  />
<polygon points="726,35 731,30 734,30 734,40 731,40 726,35 " style="fill:white; stroke-width:1; stroke:black; " description="&lt;b&gt;ctg3_186&lt;/b&gt;&lt;br&gt;ctg3 186&lt;br&gt;Location: 226696 - 227239" locus_tag="ctg3_186" class="clusterblast-orf" id="dummy-1_q38_0_all"  />
<polygon points="742,35 747,30 767,30 767,40 747,40 742,35 " style="fill:white; stroke-width:1; stroke:black; " description="&lt;b&gt;ctg3_187&lt;/b&gt;&lt;br&gt;ctg3 187&lt;br&gt;Location: 227731 - 229426" locus_tag="ctg3_187" class="clusterblast-orf" id="dummy-1_q39_0_all"  />
<polygon points="777,35 780,30 780,40 777,35 " style="fill:white; stroke-width:1; stroke:black; " description="&lt;b&gt;ctg3_188&lt;/b&gt;&lt;br&gt;ctg3 188&lt;br&gt;Location: 230083 - 230260" locus_tag="ctg3_188" class="clusterblast-orf" id="dummy-1_q40_0_all"  />
</g>
<g label="BGC0001594" description="BGC0001594_c1: fischerindole L (6% of genes show similarity), Alkaloid" class="clusterblast-cluster"  >
<text x="5" y="70" class="clusterblast-acc"  >
<a xlink:href="https://mibig.secondarymetabolites.org/go/BGC0001594/1" target="_blank">BGC0001594</a>:                                                                  fischerindole L (6% of genes show similarity), Alkaloid</text>
<line x1="10" y1="85" x2="778.0" y2="85" style="stroke-width:1; stroke:grey; "  />
</g>
<g id="a1_000"  >
<polygon points="99,85 104,80 108,80 108,90 104,90 99,85 " style="fill:white; stroke-width:1; stroke:black; " description="&lt;b&gt;APZ79573.1&lt;/b&gt;&lt;br&gt;FimG2&lt;br&gt;Location: 38842 - 38198" locus_tag="APZ79573.1" class="clusterblast-orf" id="dummy-1_h1_4_0"  />
</g>
<g id="a1_001"  >
<polygon points="109,85 114,80 125,80 125,90 114,90 109,85 " style="fill:white; stroke-width:1; stroke:black; " description="&lt;b&gt;APZ79572.1&lt;/b&gt;&lt;br&gt;FimI6&lt;br&gt;Location: 38173 - 37076" locus_tag="APZ79572.1" class="clusterblast-orf" id="dummy-1_h1_4_1"  />
</g>
<g id="a1_002"  >
<polygon points="126,85 131,80 144,80 144,90 131,90 126,85 " style="fill:white; stroke-width:1; stroke:black; " description="&lt;b&gt;APZ79571.1&lt;/b&gt;&lt;br&gt;FimI5&lt;br&gt;Location: 37036 - 35789" locus_tag="APZ79571.1" class="clusterblast-orf" id="dummy-1_h1_4_2"  />
</g>
<g id="a1_003"  >
<polygon points="145,85 150,80 157,80 157,90 150,90 145,85 " style="fill:white; stroke-width:1; stroke:black; " description="&lt;b&gt;APZ79570.1&lt;/b&gt;&lt;br&gt;FimI4&lt;br&gt;Location: 35733 - 34921" locus_tag="APZ79570.1" class="clusterblast-orf" id="dummy-1_h1_4_3"  />
</g>
<g id="a1_004"  >
<polygon points="158,85 163,80 171,80 171,90 163,90 158,85 " style="fill:white; stroke-width:1; stroke:black; " description="&lt;b&gt;APZ79569.1&lt;/b&gt;&lt;br&gt;FimI3&lt;br&gt;Location: 34866 - 34003" locus_tag="APZ79569.1" class="clusterblast-orf" id="dummy-1_h1_4_4"  />
</g>
<g id="a1_005"  >
<polygon points="175,85 180,80 208,80 208,90 180,90 175,85 " style="fill:white; stroke-width:1; stroke:black; " description="&lt;b&gt;APZ79568.1&lt;/b&gt;&lt;br&gt;FimI2&lt;br&gt;Location: 33768 - 31564" locus_tag="APZ79568.1" class="clusterblast-orf" id="dummy-1_h1_4_5"  />
</g>
<g id="a1_006"  >
<polygon points="209,85 214,80 222,80 222,90 214,90 209,85 " style="fill:white; stroke-width:1; stroke:black; " description="&lt;b&gt;APZ79567.1&lt;/b&gt;&lt;br&gt;FimI1&lt;br&gt;Location: 31510 - 30605" locus_tag="APZ79567.1" class="clusterblast-orf" id="dummy-1_h1_4_6"  />
</g>
<g id="a1_007"  >
<polygon points="225,85 230,80 244,80 244,90 230,90 225,85 " style="fill:white; stroke-width:1; stroke:black; " description="&lt;b&gt;APZ79566.1&lt;/b&gt;&lt;br&gt;FimE5&lt;br&gt;Location: 30390 - 29164" locus_tag="APZ79566.1" class="clusterblast-orf" id="dummy-1_h1_4_7"  />
</g>
<g id="a1_008"  >
<polygon points="245,85 250,80 274,80 274,90 250,90 245,85 " style="fill:white; stroke-width:1; stroke:black; " description="&lt;b&gt;APZ79565.1&lt;/b&gt;&lt;br&gt;FimE4&lt;br&gt;Location: 29091 - 27148" locus_tag="APZ79565.1" class="clusterblast-orf" id="dummy-1_h1_4_8"  />
</g>
<g id="a1_009"  >
<polygon points="278,85 283,80 292,80 292,90 283,90 278,85 " style="fill:white; stroke-width:1; stroke:black; " description="&lt;b&gt;APZ79564.1&lt;/b&gt;&lt;br&gt;FimD&lt;br&gt;Location: 26891 - 25962" locus_tag="APZ79564.1" class="clusterblast-orf" id="dummy-1_h1_4_9"  />
</g>
<g id="a1_0010"  >
<polygon points="299,85 304,80 311,80 311,90 304,90 299,85 " style="fill:white; stroke-width:1; stroke:black; " description="&lt;b&gt;APZ79563.1&lt;/b&gt;&lt;br&gt;FimH3&lt;br&gt;Location: 25485 - 24664" locus_tag="APZ79563.1" class="clusterblast-orf" id="dummy-1_h1_4_10"  />
</g>
<g id="a1_0011"  >
<polygon points="311,85 316,80 326,80 326,90 316,90 311,85 " style="fill:white; stroke-width:1; stroke:black; " description="&lt;b&gt;APZ79562.1&lt;/b&gt;&lt;br&gt;FimH2&lt;br&gt;Location: 24664 - 23669" locus_tag="APZ79562.1" class="clusterblast-orf" id="dummy-1_h1_4_11"  />
</g>
<g id="a1_0012"  >
<polygon points="329,85 334,80 343,80 343,90 334,90 329,85 " style="fill:white; stroke-width:1; stroke:black; " description="&lt;b&gt;APZ79561.1&lt;/b&gt;&lt;br&gt;FimH1&lt;br&gt;Location: 23477 - 22518" locus_tag="APZ79561.1" class="clusterblast-orf" id="dummy-1_h1_4_12"  />
</g>
<g id="a1_0013"  >
<polygon points="348,85 353,80 366,80 366,90 353,90 348,85 " style="fill:white; stroke-width:1; stroke:black; " description="&lt;b&gt;APZ79560.1&lt;/b&gt;&lt;br&gt;FimE3&lt;br&gt;Location: 22212 - 20992" locus_tag="APZ79560.1" class="clusterblast-orf" id="dummy-1_h1_4_13"  />
</g>
<g id="a1_0014"  >
<polygon points="367,85 372,80 376,80 376,90 372,90 367,85 " style="fill:white; stroke-width:1; stroke:black; " description="&lt;b&gt;APZ79559.1&lt;/b&gt;&lt;br&gt;FimG1&lt;br&gt;Location: 20927 - 20349" locus_tag="APZ79559.1" class="clusterblast-orf" id="dummy-1_h1_4_14"  />
</g>
<g id="a1_0015"  >
<polygon points="398,90 404,90 409,85 404,80 398,80 398,90 " style="fill:white; stroke-width:1; stroke:black; " description="&lt;b&gt;APZ79558.1&lt;/b&gt;&lt;br&gt;FimF2&lt;br&gt;Location: 18857 - 18123" locus_tag="APZ79558.1" class="clusterblast-orf" id="dummy-1_h1_4_15"  />
</g>
<g id="a1_0016"  >
<polygon points="412,85 417,80 423,80 423,90 417,90 412,85 " style="fill:white; stroke-width:1; stroke:black; " description="&lt;b&gt;APZ79557.1&lt;/b&gt;&lt;br&gt;FimF1&lt;br&gt;Location: 17891 - 17175" locus_tag="APZ79557.1" class="clusterblast-orf" id="dummy-1_h1_4_16"  />
</g>
<g id="a1_0017"  >
<polygon points="461,90 472,90 477,85 472,80 461,80 461,90 " style="fill:white; stroke-width:1; stroke:black; " description="&lt;b&gt;APZ79556.1&lt;/b&gt;&lt;br&gt;FimE2&lt;br&gt;Location: 14628 - 13588" locus_tag="APZ79556.1" class="clusterblast-orf" id="dummy-1_h1_4_17"  />
</g>
<g id="a1_0018"  >
<polygon points="477,90 491,90 496,85 491,80 477,80 477,90 " style="fill:white; stroke-width:1; stroke:black; " description="&lt;b&gt;APZ79555.1&lt;/b&gt;&lt;br&gt;FimE1&lt;br&gt;Location: 13551 - 12313" locus_tag="APZ79555.1" class="clusterblast-orf" id="dummy-1_h1_4_18"  />
</g>
<g id="a1_0019"  >
<polygon points="497,90 502,90 507,85 502,80 497,80 497,90 " style="fill:white; stroke-width:1; stroke:black; " description="&lt;b&gt;APZ79554.1&lt;/b&gt;&lt;br&gt;FimC5&lt;br&gt;Location: 12240 - 11554" locus_tag="APZ79554.1" class="clusterblast-orf" id="dummy-1_h1_4_19"  />
</g>
<g id="a1_0020"  >
<polygon points="508,90 519,90 524,85 519,80 508,80 508,90 " style="fill:white; stroke-width:1; stroke:black; " description="&lt;b&gt;APZ79553.1&lt;/b&gt;&lt;br&gt;FimB3&lt;br&gt;Location: 11483 - 10407" locus_tag="APZ79553.1" class="clusterblast-orf" id="dummy-1_h1_4_20"  />
</g>
<g id="a1_0021"  >
<polygon points="527,90 537,90 542,85 537,80 527,80 527,90 " style="fill:white; stroke-width:1; stroke:black; " description="&lt;b&gt;APZ79552.1&lt;/b&gt;&lt;br&gt;FimJ&lt;br&gt;Location: 10240 - 9230" locus_tag="APZ79552.1" class="clusterblast-orf" id="dummy-1_h1_4_21"  />
</g>
<g id="a1_0022"  >
<polygon points="548,90 554,90 559,85 554,80 548,80 548,90 " style="fill:white; stroke-width:1; stroke:black; " description="&lt;b&gt;APZ79551.1&lt;/b&gt;&lt;br&gt;FimC4&lt;br&gt;Location: 8808 - 8122" locus_tag="APZ79551.1" class="clusterblast-orf" id="dummy-1_h1_4_22"  />
</g>
<g id="a1_0023"  >
<polygon points="564,90 565,90 570,85 565,80 564,80 564,90 " style="fill:white; stroke-width:1; stroke:black; " description="&lt;b&gt;APZ79550.1&lt;/b&gt;&lt;br&gt;FimC3&lt;br&gt;Location: 7788 - 7357" locus_tag="APZ79550.1" class="clusterblast-orf" id="dummy-1_h1_4_23"  />
</g>
<g id="a1_0024"  >
<polygon points="570,90 575,90 580,85 575,80 570,80 570,90 " style="fill:white; stroke-width:1; stroke:black; " description="&lt;b&gt;APZ79549.1&lt;/b&gt;&lt;br&gt;FimC2&lt;br&gt;Location: 7363 - 6704" locus_tag="APZ79549.1" class="clusterblast-orf" id="dummy-1_h1_4_24"  />
</g>
<g id="a1_0025"  >
<polygon points="586,90 591,90 596,85 591,80 586,80 586,90 " style="fill:white; stroke-width:1; stroke:black; " description="&lt;b&gt;APZ79548.1&lt;/b&gt;&lt;br&gt;FimC1&lt;br&gt;Location: 6307 - 5624" locus_tag="APZ79548.1" class="clusterblast-orf" id="dummy-1_h1_4_25"  />
</g>
<g id="a1_0026"  >
<polygon points="603,90 610,90 615,85 610,80 603,80 603,90 " style="fill:white; stroke-width:1; stroke:black; " description="&lt;b&gt;APZ79547.1&lt;/b&gt;&lt;br&gt;FimB2&lt;br&gt;Location: 5186 - 4329" locus_tag="APZ79547.1" class="clusterblast-orf" id="dummy-1_h1_4_26"  />
</g>
<g id="a1_0027"  >
<polygon points="617,90 627,90 632,85 627,80 617,80 617,90 " style="fill:white; stroke-width:1; stroke:black; " description="&lt;b&gt;APZ79546.1&lt;/b&gt;&lt;br&gt;FimB1&lt;br&gt;Location: 4204 - 3254" locus_tag="APZ79546.1" class="clusterblast-orf" id="dummy-1_h1_4_27"  />
</g>
<g id="a1_0028"  >
<polygon points="638,85 643,80 655,80 655,90 643,90 638,85 " style="fill:#d81515; stroke-width:1; stroke:black; " description="&lt;b&gt;APZ79545.1&lt;/b&gt;&lt;br&gt;FimA3&lt;br&gt;Location: 2847 - 1681&lt;br&gt;&lt;br&gt;&lt;b&gt;BlastP hit with ctg3_161&lt;/b&gt;&lt;br&gt;Percentage identity: 46&lt;br&gt;Percentage coverage: 99&lt;br&gt;BLAST bit score: 346&lt;br&gt;E-value: 4.5e-95" locus_tag="APZ79545.1" class="clusterblast-orf" id="dummy-1_h1_4_28"  />
</g>
<g id="a1_0029"  >
<polygon points="655,85 660,80 673,80 673,90 660,90 655,85 " style="fill:#4dd815; stroke-width:1; stroke:black; " description="&lt;b&gt;APZ79544.1&lt;/b&gt;&lt;br&gt;FimA2&lt;br&gt;Location: 1657 - 464&lt;br&gt;&lt;br&gt;&lt;b&gt;BlastP hit with ctg3_162&lt;/b&gt;&lt;br&gt;Percentage identity: 59&lt;br&gt;Percentage coverage: 100&lt;br&gt;BLAST bit score: 186&lt;br&gt;E-value: 8e-47" locus_tag="APZ79544.1" class="clusterblast-orf" id="dummy-1_h1_4_29"  />
</g>
<g id="a1_0030"  >
<polygon points="673,85 678,80 680,80 680,90 678,90 673,85 " style="fill:white; stroke-width:1; stroke:black; " description="&lt;b&gt;APZ79543.1&lt;/b&gt;&lt;br&gt;FimA1&lt;br&gt;Location: 456 - 1" locus_tag="APZ79543.1" class="clusterblast-orf" id="dummy-1_h1_4_30"  />
</g>
</svg>
