<svg xmlns="http://www.w3.org/2000/svg" xmlns:xlink="http://www.w3.org/1999/xlink" version="1.1" x="0" y="0" height="50" width="800" viewBox="0 0 800 50" preserveAspectRatio="none"  >
<g label="Query sequence" class="clusterblast-cluster"  >
<text x="5" y="20" class="clusterblast-acc"  >
Query sequence</text>
<line x1="10" y1="35" x2="778.0" y2="35" style="stroke-width:1; stroke:grey; "  />
<polygon points="0,35 5,30 10,30 10,40 5,40 0,35 " style="fill:white; stroke-width:1; stroke:black; " description="&lt;b&gt;ctg63_1&lt;/b&gt;&lt;br&gt;ctg63 1&lt;br&gt;Location: 211 - 610" locus_tag="ctg63_1" class="clusterblast-orf" id="knownclusterblast-1_q0_0_all"  />
<polygon points="30,35 35,30 57,30 57,40 35,40 30,35 " style="fill:white; stroke-width:1; stroke:black; " description="&lt;b&gt;ctg63_2&lt;/b&gt;&lt;br&gt;ctg63 2&lt;br&gt;Location: 1384 - 2458" locus_tag="ctg63_2" class="clusterblast-orf" id="knownclusterblast-1_q1_0_all"  />
<polygon points="58,40 67,40 72,35 67,30 58,30 58,40 " style="fill:white; stroke-width:1; stroke:black; " description="&lt;b&gt;ctg63_3&lt;/b&gt;&lt;br&gt;ctg63 3&lt;br&gt;Location: 2522 - 3053" locus_tag="ctg63_3" class="clusterblast-orf" id="knownclusterblast-1_q2_0_all"  />
<polygon points="81,35 86,30 111,30 111,40 86,40 81,35 " style="fill:white; stroke-width:1; stroke:black; " description="&lt;b&gt;ctg63_4&lt;/b&gt;&lt;br&gt;ctg63 4&lt;br&gt;Location: 3408 - 4584" locus_tag="ctg63_4" class="clusterblast-orf" id="knownclusterblast-1_q3_0_all"  />
<polygon points="112,35 117,30 117,30 117,40 117,40 112,35 " style="fill:white; stroke-width:1; stroke:black; " description="&lt;b&gt;ctg63_5&lt;/b&gt;&lt;br&gt;ctg63 5&lt;br&gt;Location: 4614 - 4833" locus_tag="ctg63_5" class="clusterblast-orf" id="knownclusterblast-1_q4_0_all"  />
<polygon points="126,40 141,40 146,35 141,30 126,30 126,40 " style="fill:white; stroke-width:1; stroke:black; " description="&lt;b&gt;ctg63_6&lt;/b&gt;&lt;br&gt;ctg63 6&lt;br&gt;Location: 5178 - 5964" locus_tag="ctg63_6" class="clusterblast-orf" id="knownclusterblast-1_q5_0_all"  />
<polygon points="150,40 158,40 163,35 158,30 150,30 150,40 " style="fill:white; stroke-width:1; stroke:black; " description="&lt;b&gt;ctg63_7&lt;/b&gt;&lt;br&gt;ctg63 7&lt;br&gt;Location: 6113 - 6623" locus_tag="ctg63_7" class="clusterblast-orf" id="knownclusterblast-1_q6_0_all"  />
<polygon points="163,40 179,40 184,35 179,30 163,30 163,40 " style="fill:white; stroke-width:1; stroke:black; " description="&lt;b&gt;ctg63_8&lt;/b&gt;&lt;br&gt;ctg63 8&lt;br&gt;Location: 6658 - 7477" locus_tag="ctg63_8" class="clusterblast-orf" id="knownclusterblast-1_q7_0_all"  />
<polygon points="189,40 193,40 198,35 193,30 189,30 189,40 " style="fill:white; stroke-width:1; stroke:black; " description="&lt;b&gt;ctg63_9&lt;/b&gt;&lt;br&gt;ctg63 9&lt;br&gt;Location: 7663 - 8011" locus_tag="ctg63_9" class="clusterblast-orf" id="knownclusterblast-1_q8_0_all"  />
<polygon points="197,35 202,30 203,30 203,40 202,40 197,35 " style="fill:white; stroke-width:1; stroke:black; " description="&lt;b&gt;ctg63_10&lt;/b&gt;&lt;br&gt;ctg63 10&lt;br&gt;Location: 7982 - 8222" locus_tag="ctg63_10" class="clusterblast-orf" id="knownclusterblast-1_q9_0_all"  />
<polygon points="204,40 206,40 211,35 206,30 204,30 204,40 " style="fill:white; stroke-width:1; stroke:black; " description="&lt;b&gt;ctg63_11&lt;/b&gt;&lt;br&gt;ctg63 11&lt;br&gt;Location: 8238 - 8529" locus_tag="ctg63_11" class="clusterblast-orf" id="knownclusterblast-1_q10_0_all"  />
<polygon points="216,35 221,30 242,30 242,40 221,40 216,35 " style="fill:white; stroke-width:1; stroke:black; " description="&lt;b&gt;ctg63_12&lt;/b&gt;&lt;br&gt;ctg63 12&lt;br&gt;Location: 8717 - 9755" locus_tag="ctg63_12" class="clusterblast-orf" id="knownclusterblast-1_q11_0_all"  />
<polygon points="248,35 253,30 266,30 266,40 253,40 248,35 " style="fill:white; stroke-width:1; stroke:black; " description="&lt;b&gt;ctg63_13&lt;/b&gt;&lt;br&gt;ctg63 13&lt;br&gt;Location: 9977 - 10709" locus_tag="ctg63_13" class="clusterblast-orf" id="knownclusterblast-1_q12_0_all"  />
<polygon points="265,35 270,30 278,30 278,40 270,40 265,35 " style="fill:white; stroke-width:1; stroke:black; " description="&lt;b&gt;ctg63_14&lt;/b&gt;&lt;br&gt;ctg63 14&lt;br&gt;Location: 10659 - 11166" locus_tag="ctg63_14" class="clusterblast-orf" id="knownclusterblast-1_q13_0_all"  />
<polygon points="287,40 441,40 446,35 441,30 287,30 287,40 " style="fill:white; stroke-width:1; stroke:black; " description="&lt;b&gt;ctg63_15&lt;/b&gt;&lt;br&gt;ctg63 15&lt;br&gt;Location: 11519 - 17804" locus_tag="ctg63_15" class="clusterblast-orf" id="knownclusterblast-1_q14_0_all"  />
<polygon points="447,40 458,40 463,35 458,30 447,30 447,40 " style="fill:white; stroke-width:1; stroke:black; " description="&lt;b&gt;ctg63_16&lt;/b&gt;&lt;br&gt;ctg63 16&lt;br&gt;Location: 17832 - 18462" locus_tag="ctg63_16" class="clusterblast-orf" id="knownclusterblast-1_q15_0_all"  />
<polygon points="462,40 502,40 507,35 502,30 462,30 462,40 " style="fill:white; stroke-width:1; stroke:black; " description="&lt;b&gt;ctg63_17&lt;/b&gt;&lt;br&gt;ctg63 17&lt;br&gt;Location: 18433 - 20197" locus_tag="ctg63_17" class="clusterblast-orf" id="knownclusterblast-1_q16_0_all"  />
<polygon points="509,40 551,40 556,35 551,30 509,30 509,40 " style="fill:white; stroke-width:1; stroke:black; " description="&lt;b&gt;ctg63_18&lt;/b&gt;&lt;br&gt;ctg63 18&lt;br&gt;Location: 20282 - 22130" locus_tag="ctg63_18" class="clusterblast-orf" id="knownclusterblast-1_q17_0_all"  />
<polygon points="562,40 564,40 569,35 564,30 562,30 562,40 " style="fill:white; stroke-width:1; stroke:black; " description="&lt;b&gt;ctg63_19&lt;/b&gt;&lt;br&gt;ctg63 19&lt;br&gt;Location: 22349 - 22646" locus_tag="ctg63_19" class="clusterblast-orf" id="knownclusterblast-1_q18_0_all"  />
<polygon points="570,40 574,40 579,35 574,30 570,30 570,40 " style="fill:white; stroke-width:1; stroke:black; " description="&lt;b&gt;ctg63_20&lt;/b&gt;&lt;br&gt;ctg63 20&lt;br&gt;Location: 22681 - 23044" locus_tag="ctg63_20" class="clusterblast-orf" id="knownclusterblast-1_q19_0_all"  />
<polygon points="582,40 606,40 611,35 606,30 582,30 582,40 " style="fill:white; stroke-width:1; stroke:black; " description="&lt;b&gt;ctg63_21&lt;/b&gt;&lt;br&gt;ctg63 21&lt;br&gt;Location: 23154 - 24297" locus_tag="ctg63_21" class="clusterblast-orf" id="knownclusterblast-1_q20_0_all"  />
<polygon points="612,35 617,30 625,30 625,40 617,40 612,35 " style="fill:white; stroke-width:1; stroke:black; " description="&lt;b&gt;ctg63_22&lt;/b&gt;&lt;br&gt;ctg63 22&lt;br&gt;Location: 24339 - 24852" locus_tag="ctg63_22" class="clusterblast-orf" id="knownclusterblast-1_q21_0_all"  />
<polygon points="629,40 630,40 635,35 630,30 629,30 629,40 " style="fill:white; stroke-width:1; stroke:black; " description="&lt;b&gt;ctg63_23&lt;/b&gt;&lt;br&gt;ctg63 23&lt;br&gt;Location: 24994 - 25243" locus_tag="ctg63_23" class="clusterblast-orf" id="knownclusterblast-1_q22_0_all"  />
<polygon points="661,40 679,40 684,35 679,30 661,30 661,40 " style="fill:white; stroke-width:1; stroke:black; " description="&lt;b&gt;ctg63_24&lt;/b&gt;&lt;br&gt;ctg63 24&lt;br&gt;Location: 26247 - 27162" locus_tag="ctg63_24" class="clusterblast-orf" id="knownclusterblast-1_q23_0_all"  />
<polygon points="688,35 693,30 693,30 693,40 693,40 688,35 " style="fill:white; stroke-width:1; stroke:black; " description="&lt;b&gt;ctg63_25&lt;/b&gt;&lt;br&gt;ctg63 25&lt;br&gt;Location: 27329 - 27524" locus_tag="ctg63_25" class="clusterblast-orf" id="knownclusterblast-1_q24_0_all"  />
<polygon points="727,35 732,30 736,30 736,40 732,40 727,35 " style="fill:white; stroke-width:1; stroke:black; " description="&lt;b&gt;ctg63_26&lt;/b&gt;&lt;br&gt;ctg63 26&lt;br&gt;Location: 28869 - 29211" locus_tag="ctg63_26" class="clusterblast-orf" id="knownclusterblast-1_q25_0_all"  />
<polygon points="748,40 772,40 777,35 772,30 748,30 748,40 " style="fill:white; stroke-width:1; stroke:black; " description="&lt;b&gt;ctg63_27&lt;/b&gt;&lt;br&gt;ctg63 27&lt;br&gt;Location: 29699 - 30815" locus_tag="ctg63_27" class="clusterblast-orf" id="knownclusterblast-1_q26_0_all"  />
<polygon points="777,35 780,30 780,40 777,35 " style="fill:white; stroke-width:1; stroke:black; " description="&lt;b&gt;ctg63_28&lt;/b&gt;&lt;br&gt;ctg63 28&lt;br&gt;Location: 30826 - 30934" locus_tag="ctg63_28" class="clusterblast-orf" id="knownclusterblast-1_q27_0_all"  />
</g>
</svg>
