<svg xmlns="http://www.w3.org/2000/svg" xmlns:xlink="http://www.w3.org/1999/xlink" version="1.1" x="0" y="0" height="230" width="800" viewBox="0 0 800 230" preserveAspectRatio="none"  >
<g label="Query sequence" class="clusterblast-cluster"  >
<text x="5" y="20" class="clusterblast-acc"  >
Query sequence</text>
<line x1="10" y1="35" x2="778.0" y2="35" style="stroke-width:1; stroke:grey; "  />
<polygon points="0,40 4,40 9,35 4,30 0,30 0,40 " style="fill:white; stroke-width:1; stroke:black; " description="&lt;b&gt;ctg17_15&lt;/b&gt;&lt;br&gt;ctg17 15&lt;br&gt;Location: 26765 - 27812" locus_tag="ctg17_15" class="clusterblast-orf" id="dummy-1_q0_0_all"  />
<polygon points="12,35 17,30 20,30 20,40 17,40 12,35 " style="fill:#d81515; stroke-width:1; stroke:black; " description="&lt;b&gt;ctg17_16&lt;/b&gt;&lt;br&gt;ctg17 16&lt;br&gt;Location: 28117 - 28990" locus_tag="ctg17_16" class="clusterblast-orf" id="dummy-1_q1_0_all"  />
<polygon points="22,35 27,30 30,30 30,40 27,40 22,35 " style="fill:#3cd815; stroke-width:1; stroke:black; " description="&lt;b&gt;ctg17_17&lt;/b&gt;&lt;br&gt;ctg17 17&lt;br&gt;Location: 29305 - 30163" locus_tag="ctg17_17" class="clusterblast-orf" id="dummy-1_q2_0_all"  />
<polygon points="33,35 38,30 40,30 40,40 38,40 33,35 " style="fill:#1563d8; stroke-width:1; stroke:black; " description="&lt;b&gt;ctg17_18&lt;/b&gt;&lt;br&gt;ctg17 18&lt;br&gt;Location: 30530 - 31217" locus_tag="ctg17_18" class="clusterblast-orf" id="dummy-1_q3_0_all"  />
<polygon points="45,35 50,30 52,30 52,40 50,40 45,35 " style="fill:#1563d8; stroke-width:1; stroke:black; " description="&lt;b&gt;ctg17_19&lt;/b&gt;&lt;br&gt;ctg17 19&lt;br&gt;Location: 31875 - 32568" locus_tag="ctg17_19" class="clusterblast-orf" id="dummy-1_q4_0_all"  />
<polygon points="53,35 58,30 60,30 60,40 58,40 53,35 " style="fill:#1563d8; stroke-width:1; stroke:black; " description="&lt;b&gt;ctg17_20&lt;/b&gt;&lt;br&gt;ctg17 20&lt;br&gt;Location: 32774 - 33461" locus_tag="ctg17_20" class="clusterblast-orf" id="dummy-1_q5_0_all"  />
<polygon points="62,35 67,30 72,30 72,40 67,40 62,35 " style="fill:#b115d8; stroke-width:1; stroke:black; " description="&lt;b&gt;ctg17_21&lt;/b&gt;&lt;br&gt;ctg17 21&lt;br&gt;Location: 33692 - 34895" locus_tag="ctg17_21" class="clusterblast-orf" id="dummy-1_q6_0_all"  />
<polygon points="73,35 78,30 82,30 82,40 78,40 73,35 " style="fill:#d88a15; stroke-width:1; stroke:black; " description="&lt;b&gt;ctg17_22&lt;/b&gt;&lt;br&gt;ctg17 22&lt;br&gt;Location: 34960 - 35986" locus_tag="ctg17_22" class="clusterblast-orf" id="dummy-1_q7_0_all"  />
<polygon points="99,40 100,40 105,35 100,30 99,30 99,40 " style="fill:#15d863; stroke-width:1; stroke:black; " description="&lt;b&gt;ctg17_23&lt;/b&gt;&lt;br&gt;ctg17 23&lt;br&gt;Location: 37826 - 38531" locus_tag="ctg17_23" class="clusterblast-orf" id="dummy-1_q8_0_all"  />
<polygon points="106,35 111,30 112,30 112,40 111,40 106,35 " style="fill:#3c15d8; stroke-width:1; stroke:black; " description="&lt;b&gt;ctg17_24&lt;/b&gt;&lt;br&gt;ctg17 24&lt;br&gt;Location: 38583 - 39315" locus_tag="ctg17_24" class="clusterblast-orf" id="dummy-1_q9_0_all"  />
<polygon points="114,40 116,40 121,35 116,30 114,30 114,40 " style="fill:white; stroke-width:1; stroke:black; " description="&lt;b&gt;ctg17_25&lt;/b&gt;&lt;br&gt;ctg17 25&lt;br&gt;Location: 39541 - 40294" locus_tag="ctg17_25" class="clusterblast-orf" id="dummy-1_q10_0_all"  />
<polygon points="121,35 126,30 129,30 129,40 126,40 121,35 " style="fill:white; stroke-width:1; stroke:black; " description="&lt;b&gt;ctg17_26&lt;/b&gt;&lt;br&gt;ctg17 26&lt;br&gt;Location: 40326 - 41211" locus_tag="ctg17_26" class="clusterblast-orf" id="dummy-1_q11_0_all"  />
<polygon points="129,35 131,30 131,40 129,35 " style="fill:white; stroke-width:1; stroke:black; " description="&lt;b&gt;ctg17_27&lt;/b&gt;&lt;br&gt;ctg17 27&lt;br&gt;Location: 41228 - 41456" locus_tag="ctg17_27" class="clusterblast-orf" id="dummy-1_q12_0_all"  />
<polygon points="132,35 137,30 144,30 144,40 137,40 132,35 " style="fill:white; stroke-width:1; stroke:black; " description="&lt;b&gt;ctg17_28&lt;/b&gt;&lt;br&gt;ctg17 28&lt;br&gt;Location: 41494 - 42868" locus_tag="ctg17_28" class="clusterblast-orf" id="dummy-1_q13_0_all"  />
<polygon points="145,35 150,30 152,30 152,40 150,40 145,35 " style="fill:white; stroke-width:1; stroke:black; " description="&lt;b&gt;ctg17_29&lt;/b&gt;&lt;br&gt;ctg17 29&lt;br&gt;Location: 42933 - 43821" locus_tag="ctg17_29" class="clusterblast-orf" id="dummy-1_q14_0_all"  />
<polygon points="154,35 159,30 166,30 166,40 159,40 154,35 " style="fill:#d8158a; stroke-width:1; stroke:black; " description="&lt;b&gt;ctg17_30&lt;/b&gt;&lt;br&gt;ctg17 30&lt;br&gt;Location: 43937 - 45284" locus_tag="ctg17_30" class="clusterblast-orf" id="dummy-1_q15_0_all"  />
<polygon points="166,35 171,30 203,30 203,40 171,40 166,35 " style="fill:#b1d815; stroke-width:1; stroke:black; " description="&lt;b&gt;ctg17_31&lt;/b&gt;&lt;br&gt;ctg17 31&lt;br&gt;Location: 45283 - 49459" locus_tag="ctg17_31" class="clusterblast-orf" id="dummy-1_q16_0_all"  />
<polygon points="204,35 209,30 211,30 211,40 209,40 204,35 " style="fill:white; stroke-width:1; stroke:black; " description="&lt;b&gt;ctg17_32&lt;/b&gt;&lt;br&gt;ctg17 32&lt;br&gt;Location: 49619 - 50378" locus_tag="ctg17_32" class="clusterblast-orf" id="dummy-1_q17_0_all"  />
<polygon points="212,35 217,30 253,30 253,40 217,40 212,35 " style="fill:#15d8d8; stroke-width:1; stroke:black; " description="&lt;b&gt;ctg17_33&lt;/b&gt;&lt;br&gt;ctg17 33&lt;br&gt;Location: 50430 - 55038" locus_tag="ctg17_33" class="clusterblast-orf" id="dummy-1_q18_0_all"  />
<polygon points="253,35 258,30 293,30 293,40 258,40 253,35 " style="fill:#15d8d8; stroke-width:1; stroke:black; " description="&lt;b&gt;ctg17_34&lt;/b&gt;&lt;br&gt;ctg17 34&lt;br&gt;Location: 55072 - 59473" locus_tag="ctg17_34" class="clusterblast-orf" id="dummy-1_q19_0_all"  />
<polygon points="293,35 298,30 308,30 308,40 298,40 293,35 " style="fill:white; stroke-width:1; stroke:black; " description="&lt;b&gt;ctg17_35&lt;/b&gt;&lt;br&gt;ctg17 35&lt;br&gt;Location: 59524 - 61180" locus_tag="ctg17_35" class="clusterblast-orf" id="dummy-1_q20_0_all"  />
<polygon points="308,35 313,30 350,30 350,40 313,40 308,35 " style="fill:#15d8d8; stroke-width:1; stroke:black; " description="&lt;b&gt;ctg17_36&lt;/b&gt;&lt;br&gt;ctg17 36&lt;br&gt;Location: 61214 - 65870" locus_tag="ctg17_36" class="clusterblast-orf" id="dummy-1_q21_0_all"  />
<polygon points="350,35 355,30 375,30 375,40 355,40 350,35 " style="fill:white; stroke-width:1; stroke:black; " description="&lt;b&gt;ctg17_37&lt;/b&gt;&lt;br&gt;ctg17 37&lt;br&gt;Location: 65891 - 68657" locus_tag="ctg17_37" class="clusterblast-orf" id="dummy-1_q22_0_all"  />
<polygon points="376,35 381,30 386,30 386,40 381,40 376,35 " style="fill:white; stroke-width:1; stroke:black; " description="&lt;b&gt;ctg17_38&lt;/b&gt;&lt;br&gt;ctg17 38&lt;br&gt;Location: 68705 - 69878" locus_tag="ctg17_38" class="clusterblast-orf" id="dummy-1_q23_0_all"  />
<polygon points="387,35 392,30 395,30 395,40 392,40 387,35 " style="fill:white; stroke-width:1; stroke:black; " description="&lt;b&gt;ctg17_39&lt;/b&gt;&lt;br&gt;ctg17 39&lt;br&gt;Location: 70021 - 70903" locus_tag="ctg17_39" class="clusterblast-orf" id="dummy-1_q24_0_all"  />
<polygon points="395,35 400,30 408,30 408,40 400,40 395,35 " style="fill:white; stroke-width:1; stroke:black; " description="&lt;b&gt;ctg17_40&lt;/b&gt;&lt;br&gt;ctg17 40&lt;br&gt;Location: 70914 - 72318" locus_tag="ctg17_40" class="clusterblast-orf" id="dummy-1_q25_0_all"  />
<polygon points="408,35 413,30 462,30 462,40 413,40 408,35 " style="fill:#15d8d8; stroke-width:1; stroke:black; " description="&lt;b&gt;ctg17_41&lt;/b&gt;&lt;br&gt;ctg17 41&lt;br&gt;Location: 72314 - 78377" locus_tag="ctg17_41" class="clusterblast-orf" id="dummy-1_q26_0_all"  />
<polygon points="462,35 467,30 491,30 491,40 467,40 462,35 " style="fill:white; stroke-width:1; stroke:black; " description="&lt;b&gt;ctg17_42&lt;/b&gt;&lt;br&gt;ctg17 42&lt;br&gt;Location: 78390 - 81627" locus_tag="ctg17_42" class="clusterblast-orf" id="dummy-1_q27_0_all"  />
<polygon points="492,35 497,30 501,30 501,40 497,40 492,35 " style="fill:white; stroke-width:1; stroke:black; " description="&lt;b&gt;ctg17_43&lt;/b&gt;&lt;br&gt;ctg17 43&lt;br&gt;Location: 81731 - 82748" locus_tag="ctg17_43" class="clusterblast-orf" id="dummy-1_q28_0_all"  />
<polygon points="501,35 506,30 543,30 543,40 506,40 501,35 " style="fill:#b1d815; stroke-width:1; stroke:black; " description="&lt;b&gt;ctg17_44&lt;/b&gt;&lt;br&gt;ctg17 44&lt;br&gt;Location: 82722 - 87378" locus_tag="ctg17_44" class="clusterblast-orf" id="dummy-1_q29_0_all"  />
<polygon points="543,35 548,30 603,30 603,40 548,40 543,35 " style="fill:#b1d815; stroke-width:1; stroke:black; " description="&lt;b&gt;ctg17_45&lt;/b&gt;&lt;br&gt;ctg17 45&lt;br&gt;Location: 87379 - 94063" locus_tag="ctg17_45" class="clusterblast-orf" id="dummy-1_q30_0_all"  />
<polygon points="604,35 605,30 605,40 604,35 " style="fill:white; stroke-width:1; stroke:black; " description="&lt;b&gt;ctg17_46&lt;/b&gt;&lt;br&gt;ctg17 46&lt;br&gt;Location: 94137 - 94305" locus_tag="ctg17_46" class="clusterblast-orf" id="dummy-1_q31_0_all"  />
<polygon points="613,40 633,40 638,35 633,30 613,30 613,40 " style="fill:white; stroke-width:1; stroke:black; " description="&lt;b&gt;ctg17_47&lt;/b&gt;&lt;br&gt;ctg17 47&lt;br&gt;Location: 95180 - 97985" locus_tag="ctg17_47" class="clusterblast-orf" id="dummy-1_q32_0_all"  />
<polygon points="639,40 642,35 639,30 639,40 " style="fill:white; stroke-width:1; stroke:black; " description="&lt;b&gt;ctg17_48&lt;/b&gt;&lt;br&gt;ctg17 48&lt;br&gt;Location: 98128 - 98395" locus_tag="ctg17_48" class="clusterblast-orf" id="dummy-1_q33_0_all"  />
<polygon points="642,40 646,40 651,35 646,30 642,30 642,40 " style="fill:white; stroke-width:1; stroke:black; " description="&lt;b&gt;ctg17_49&lt;/b&gt;&lt;br&gt;ctg17 49&lt;br&gt;Location: 98424 - 99402" locus_tag="ctg17_49" class="clusterblast-orf" id="dummy-1_q34_0_all"  />
<polygon points="650,40 654,35 650,30 650,40 " style="fill:white; stroke-width:1; stroke:black; " description="&lt;b&gt;ctg17_50&lt;/b&gt;&lt;br&gt;ctg17 50&lt;br&gt;Location: 99367 - 99784" locus_tag="ctg17_50" class="clusterblast-orf" id="dummy-1_q35_0_all"  />
<polygon points="655,35 660,30 671,30 671,40 660,40 655,35 " style="fill:white; stroke-width:1; stroke:black; " description="&lt;b&gt;ctg17_51&lt;/b&gt;&lt;br&gt;ctg17 51&lt;br&gt;Location: 99885 - 101700" locus_tag="ctg17_51" class="clusterblast-orf" id="dummy-1_q36_0_all"  />
<polygon points="678,40 682,40 687,35 682,30 678,30 678,40 " style="fill:white; stroke-width:1; stroke:black; " description="&lt;b&gt;ctg17_52&lt;/b&gt;&lt;br&gt;ctg17 52&lt;br&gt;Location: 102448 - 103432" locus_tag="ctg17_52" class="clusterblast-orf" id="dummy-1_q37_0_all"  />
<polygon points="688,40 688,40 693,35 688,30 688,30 688,40 " style="fill:white; stroke-width:1; stroke:black; " description="&lt;b&gt;ctg17_53&lt;/b&gt;&lt;br&gt;ctg17 53&lt;br&gt;Location: 103508 - 104147" locus_tag="ctg17_53" class="clusterblast-orf" id="dummy-1_q38_0_all"  />
<polygon points="695,40 703,40 708,35 703,30 695,30 695,40 " style="fill:white; stroke-width:1; stroke:black; " description="&lt;b&gt;ctg17_54&lt;/b&gt;&lt;br&gt;ctg17 54&lt;br&gt;Location: 104293 - 105838" locus_tag="ctg17_54" class="clusterblast-orf" id="dummy-1_q39_0_all"  />
<polygon points="708,35 713,30 716,30 716,40 713,40 708,35 " style="fill:white; stroke-width:1; stroke:black; " description="&lt;b&gt;ctg17_55&lt;/b&gt;&lt;br&gt;ctg17 55&lt;br&gt;Location: 105838 - 106639" locus_tag="ctg17_55" class="clusterblast-orf" id="dummy-1_q40_0_all"  />
<polygon points="716,35 721,30 725,30 725,40 721,40 716,35 " style="fill:white; stroke-width:1; stroke:black; " description="&lt;b&gt;ctg17_56&lt;/b&gt;&lt;br&gt;ctg17 56&lt;br&gt;Location: 106642 - 107683" locus_tag="ctg17_56" class="clusterblast-orf" id="dummy-1_q41_0_all"  />
<polygon points="725,35 730,30 734,30 734,40 730,40 725,35 " style="fill:white; stroke-width:1; stroke:black; " description="&lt;b&gt;ctg17_57&lt;/b&gt;&lt;br&gt;ctg17 57&lt;br&gt;Location: 107679 - 108711" locus_tag="ctg17_57" class="clusterblast-orf" id="dummy-1_q42_0_all"  />
<polygon points="737,40 738,40 743,35 738,30 737,30 737,40 " style="fill:white; stroke-width:1; stroke:black; " description="&lt;b&gt;ctg17_58&lt;/b&gt;&lt;br&gt;ctg17 58&lt;br&gt;Location: 109014 - 109716" locus_tag="ctg17_58" class="clusterblast-orf" id="dummy-1_q43_0_all"  />
<polygon points="743,40 745,40 750,35 745,30 743,30 743,40 " style="fill:white; stroke-width:1; stroke:black; " description="&lt;b&gt;ctg17_59&lt;/b&gt;&lt;br&gt;ctg17 59&lt;br&gt;Location: 109715 - 110507" locus_tag="ctg17_59" class="clusterblast-orf" id="dummy-1_q44_0_all"  />
<polygon points="751,40 765,40 770,35 765,30 751,30 751,40 " style="fill:white; stroke-width:1; stroke:black; " description="&lt;b&gt;ctg17_60&lt;/b&gt;&lt;br&gt;ctg17 60&lt;br&gt;Location: 110585 - 112691" locus_tag="ctg17_60" class="clusterblast-orf" id="dummy-1_q45_0_all"  />
<polygon points="774,40 776,35 774,30 774,40 " style="fill:white; stroke-width:1; stroke:black; " description="&lt;b&gt;ctg17_61&lt;/b&gt;&lt;br&gt;ctg17 61&lt;br&gt;Location: 113178 - 113397" locus_tag="ctg17_61" class="clusterblast-orf" id="dummy-1_q46_0_all"  />
<polygon points="778,40 780,35 778,30 778,40 " style="fill:white; stroke-width:1; stroke:black; " description="&lt;b&gt;ctg17_62&lt;/b&gt;&lt;br&gt;ctg17 62&lt;br&gt;Location: 113561 - 113771" locus_tag="ctg17_62" class="clusterblast-orf" id="dummy-1_q47_0_all"  />
</g>
<g label="BGC0001594" description="BGC0001594_c1: fischerindole L (35% of genes show similarity), Alkaloid" class="clusterblast-cluster"  >
<text x="5" y="70" class="clusterblast-acc"  >
<a xlink:href="https://mibig.secondarymetabolites.org/go/BGC0001594/1" target="_blank">BGC0001594</a>:                                                                  fischerindole L (35% of genes show similarity), Alkaloid</text>
<line x1="10" y1="85" x2="778.0" y2="85" style="stroke-width:1; stroke:grey; "  />
</g>
<g id="a1_000"  >
<polygon points="215,90 219,85 215,80 215,90 " style="fill:white; stroke-width:1; stroke:black; " description="&lt;b&gt;APZ79543.1&lt;/b&gt;&lt;br&gt;FimA1&lt;br&gt;Location: 1 - 456" locus_tag="APZ79543.1" class="clusterblast-orf" id="dummy-1_h1_5_0"  />
</g>
<g id="a1_001"  >
<polygon points="220,90 225,90 230,85 225,80 220,80 220,90 " style="fill:white; stroke-width:1; stroke:black; " description="&lt;b&gt;APZ79544.1&lt;/b&gt;&lt;br&gt;FimA2&lt;br&gt;Location: 464 - 1657" locus_tag="APZ79544.1" class="clusterblast-orf" id="dummy-1_h1_5_1"  />
</g>
<g id="a1_002"  >
<polygon points="230,90 236,90 241,85 236,80 230,80 230,90 " style="fill:white; stroke-width:1; stroke:black; " description="&lt;b&gt;APZ79545.1&lt;/b&gt;&lt;br&gt;FimA3&lt;br&gt;Location: 1681 - 2847" locus_tag="APZ79545.1" class="clusterblast-orf" id="dummy-1_h1_5_2"  />
</g>
<g id="a1_003"  >
<polygon points="245,85 250,80 253,80 253,90 250,90 245,85 " style="fill:#d81515; stroke-width:1; stroke:black; " description="&lt;b&gt;APZ79546.1&lt;/b&gt;&lt;br&gt;FimB1&lt;br&gt;Location: 3254 - 4204&lt;br&gt;&lt;br&gt;&lt;b&gt;BlastP hit with ctg17_16&lt;/b&gt;&lt;br&gt;Percentage identity: 85&lt;br&gt;Percentage coverage: 100&lt;br&gt;BLAST bit score: 520&lt;br&gt;E-value: 2.2e-147" locus_tag="APZ79546.1" class="clusterblast-orf" id="dummy-1_h1_5_3"  />
</g>
<g id="a1_004"  >
<polygon points="254,85 259,80 262,80 262,90 259,90 254,85 " style="fill:#3cd815; stroke-width:1; stroke:black; " description="&lt;b&gt;APZ79547.1&lt;/b&gt;&lt;br&gt;FimB2&lt;br&gt;Location: 4329 - 5186&lt;br&gt;&lt;br&gt;&lt;b&gt;BlastP hit with ctg17_17&lt;/b&gt;&lt;br&gt;Percentage identity: 74&lt;br&gt;Percentage coverage: 100&lt;br&gt;BLAST bit score: 453&lt;br&gt;E-value: 1.9e-127" locus_tag="APZ79547.1" class="clusterblast-orf" id="dummy-1_h1_5_4"  />
</g>
<g id="a1_005"  >
<polygon points="266,85 271,80 272,80 272,90 271,90 266,85 " style="fill:#1563d8; stroke-width:1; stroke:black; " description="&lt;b&gt;APZ79548.1&lt;/b&gt;&lt;br&gt;FimC1&lt;br&gt;Location: 5624 - 6307&lt;br&gt;&lt;br&gt;&lt;b&gt;BlastP hit with ctg17_18&lt;/b&gt;&lt;br&gt;Percentage identity: 77&lt;br&gt;Percentage coverage: 100&lt;br&gt;BLAST bit score: 363&lt;br&gt;E-value: 3.5e-100&lt;br&gt;&lt;br&gt;&lt;b&gt;BlastP hit with ctg17_19&lt;/b&gt;&lt;br&gt;Percentage identity: 72&lt;br&gt;Percentage coverage: 100&lt;br&gt;BLAST bit score: 342&lt;br&gt;E-value: 3.8e-94&lt;br&gt;&lt;br&gt;&lt;b&gt;BlastP hit with ctg17_20&lt;/b&gt;&lt;br&gt;Percentage identity: 60&lt;br&gt;Percentage coverage: 99&lt;br&gt;BLAST bit score: 290&lt;br&gt;E-value: 1.7e-78" locus_tag="APZ79548.1" class="clusterblast-orf" id="dummy-1_h1_5_5"  />
</g>
<g id="a1_006"  >
<polygon points="275,85 280,80 281,80 281,90 280,90 275,85 " style="fill:#1563d8; stroke-width:1; stroke:black; " description="&lt;b&gt;APZ79549.1&lt;/b&gt;&lt;br&gt;FimC2&lt;br&gt;Location: 6704 - 7363&lt;br&gt;&lt;br&gt;&lt;b&gt;BlastP hit with ctg17_18&lt;/b&gt;&lt;br&gt;Percentage identity: 78&lt;br&gt;Percentage coverage: 96&lt;br&gt;BLAST bit score: 344&lt;br&gt;E-value: 1.7e-94&lt;br&gt;&lt;br&gt;&lt;b&gt;BlastP hit with ctg17_19&lt;/b&gt;&lt;br&gt;Percentage identity: 94&lt;br&gt;Percentage coverage: 95&lt;br&gt;BLAST bit score: 430&lt;br&gt;E-value: 1.4e-120&lt;br&gt;&lt;br&gt;&lt;b&gt;BlastP hit with ctg17_20&lt;/b&gt;&lt;br&gt;Percentage identity: 61&lt;br&gt;Percentage coverage: 94&lt;br&gt;BLAST bit score: 279&lt;br&gt;E-value: 6.7e-75" locus_tag="APZ79549.1" class="clusterblast-orf" id="dummy-1_h1_5_6"  />
</g>
<g id="a1_007"  >
<polygon points="281,85 285,80 285,90 281,85 " style="fill:#1563d8; stroke-width:1; stroke:black; " description="&lt;b&gt;APZ79550.1&lt;/b&gt;&lt;br&gt;FimC3&lt;br&gt;Location: 7357 - 7788&lt;br&gt;&lt;br&gt;&lt;b&gt;BlastP hit with ctg17_18&lt;/b&gt;&lt;br&gt;Percentage identity: 66&lt;br&gt;Percentage coverage: 61&lt;br&gt;BLAST bit score: 186&lt;br&gt;E-value: 4.5e-47&lt;br&gt;&lt;br&gt;&lt;b&gt;BlastP hit with ctg17_19&lt;/b&gt;&lt;br&gt;Percentage identity: 61&lt;br&gt;Percentage coverage: 61&lt;br&gt;BLAST bit score: 172&lt;br&gt;E-value: 6.9e-43&lt;br&gt;&lt;br&gt;&lt;b&gt;BlastP hit with ctg17_20&lt;/b&gt;&lt;br&gt;Percentage identity: 81&lt;br&gt;Percentage coverage: 61&lt;br&gt;BLAST bit score: 232&lt;br&gt;E-value: 5.5e-61" locus_tag="APZ79550.1" class="clusterblast-orf" id="dummy-1_h1_5_7"  />
</g>
<g id="a1_008"  >
<polygon points="288,85 293,80 294,80 294,90 293,90 288,85 " style="fill:#1563d8; stroke-width:1; stroke:black; " description="&lt;b&gt;APZ79551.1&lt;/b&gt;&lt;br&gt;FimC4&lt;br&gt;Location: 8122 - 8808&lt;br&gt;&lt;br&gt;&lt;b&gt;BlastP hit with ctg17_18&lt;/b&gt;&lt;br&gt;Percentage identity: 64&lt;br&gt;Percentage coverage: 100&lt;br&gt;BLAST bit score: 287&lt;br&gt;E-value: 1.9e-77&lt;br&gt;&lt;br&gt;&lt;b&gt;BlastP hit with ctg17_19&lt;/b&gt;&lt;br&gt;Percentage identity: 65&lt;br&gt;Percentage coverage: 98&lt;br&gt;BLAST bit score: 290&lt;br&gt;E-value: 2.9e-78&lt;br&gt;&lt;br&gt;&lt;b&gt;BlastP hit with ctg17_20&lt;/b&gt;&lt;br&gt;Percentage identity: 65&lt;br&gt;Percentage coverage: 99&lt;br&gt;BLAST bit score: 309&lt;br&gt;E-value: 3.6e-84" locus_tag="APZ79551.1" class="clusterblast-orf" id="dummy-1_h1_5_8"  />
</g>
<g id="a1_009"  >
<polygon points="298,85 303,80 307,80 307,90 303,90 298,85 " style="fill:white; stroke-width:1; stroke:black; " description="&lt;b&gt;APZ79552.1&lt;/b&gt;&lt;br&gt;FimJ&lt;br&gt;Location: 9230 - 10240" locus_tag="APZ79552.1" class="clusterblast-orf" id="dummy-1_h1_5_9"  />
</g>
<g id="a1_0010"  >
<polygon points="309,85 314,80 318,80 318,90 314,90 309,85 " style="fill:white; stroke-width:1; stroke:black; " description="&lt;b&gt;APZ79553.1&lt;/b&gt;&lt;br&gt;FimB3&lt;br&gt;Location: 10407 - 11483" locus_tag="APZ79553.1" class="clusterblast-orf" id="dummy-1_h1_5_10"  />
</g>
<g id="a1_0011"  >
<polygon points="319,85 324,80 325,80 325,90 324,90 319,85 " style="fill:#1563d8; stroke-width:1; stroke:black; " description="&lt;b&gt;APZ79554.1&lt;/b&gt;&lt;br&gt;FimC5&lt;br&gt;Location: 11554 - 12240&lt;br&gt;&lt;br&gt;&lt;b&gt;BlastP hit with ctg17_18&lt;/b&gt;&lt;br&gt;Percentage identity: 71&lt;br&gt;Percentage coverage: 100&lt;br&gt;BLAST bit score: 327&lt;br&gt;E-value: 1.3e-89&lt;br&gt;&lt;br&gt;&lt;b&gt;BlastP hit with ctg17_19&lt;/b&gt;&lt;br&gt;Percentage identity: 69&lt;br&gt;Percentage coverage: 100&lt;br&gt;BLAST bit score: 324&lt;br&gt;E-value: 1.8e-88&lt;br&gt;&lt;br&gt;&lt;b&gt;BlastP hit with ctg17_20&lt;/b&gt;&lt;br&gt;Percentage identity: 60&lt;br&gt;Percentage coverage: 99&lt;br&gt;BLAST bit score: 280&lt;br&gt;E-value: 3e-75" locus_tag="APZ79554.1" class="clusterblast-orf" id="dummy-1_h1_5_11"  />
</g>
<g id="a1_0012"  >
<polygon points="326,85 331,80 337,80 337,90 331,90 326,85 " style="fill:#b115d8; stroke-width:1; stroke:black; " description="&lt;b&gt;APZ79555.1&lt;/b&gt;&lt;br&gt;FimE1&lt;br&gt;Location: 12313 - 13551&lt;br&gt;&lt;br&gt;&lt;b&gt;BlastP hit with ctg17_21&lt;/b&gt;&lt;br&gt;Percentage identity: 95&lt;br&gt;Percentage coverage: 100&lt;br&gt;BLAST bit score: 773&lt;br&gt;E-value: 1.5e-223" locus_tag="APZ79555.1" class="clusterblast-orf" id="dummy-1_h1_5_12"  />
</g>
<g id="a1_0013"  >
<polygon points="337,85 342,80 347,80 347,90 342,90 337,85 " style="fill:#d88a15; stroke-width:1; stroke:black; " description="&lt;b&gt;APZ79556.1&lt;/b&gt;&lt;br&gt;FimE2&lt;br&gt;Location: 13588 - 14628&lt;br&gt;&lt;br&gt;&lt;b&gt;BlastP hit with ctg17_22&lt;/b&gt;&lt;br&gt;Percentage identity: 89&lt;br&gt;Percentage coverage: 100&lt;br&gt;BLAST bit score: 592&lt;br&gt;E-value: 4.1e-169" locus_tag="APZ79556.1" class="clusterblast-orf" id="dummy-1_h1_5_13"  />
</g>
<g id="a1_0014"  >
<polygon points="369,90 371,90 376,85 371,80 369,80 369,90 " style="fill:#15d863; stroke-width:1; stroke:black; " description="&lt;b&gt;APZ79557.1&lt;/b&gt;&lt;br&gt;FimF1&lt;br&gt;Location: 17175 - 17891&lt;br&gt;&lt;br&gt;&lt;b&gt;BlastP hit with ctg17_23&lt;/b&gt;&lt;br&gt;Percentage identity: 84&lt;br&gt;Percentage coverage: 96&lt;br&gt;BLAST bit score: 388&lt;br&gt;E-value: 1.1e-107" locus_tag="APZ79557.1" class="clusterblast-orf" id="dummy-1_h1_5_14"  />
</g>
<g id="a1_0015"  >
<polygon points="378,85 383,80 384,80 384,90 383,90 378,85 " style="fill:#3c15d8; stroke-width:1; stroke:black; " description="&lt;b&gt;APZ79558.1&lt;/b&gt;&lt;br&gt;FimF2&lt;br&gt;Location: 18123 - 18857&lt;br&gt;&lt;br&gt;&lt;b&gt;BlastP hit with ctg17_24&lt;/b&gt;&lt;br&gt;Percentage identity: 91&lt;br&gt;Percentage coverage: 100&lt;br&gt;BLAST bit score: 434&lt;br&gt;E-value: 1e-121" locus_tag="APZ79558.1" class="clusterblast-orf" id="dummy-1_h1_5_15"  />
</g>
<g id="a1_0016"  >
<polygon points="398,90 398,90 403,85 398,80 398,80 398,90 " style="fill:white; stroke-width:1; stroke:black; " description="&lt;b&gt;APZ79559.1&lt;/b&gt;&lt;br&gt;FimG1&lt;br&gt;Location: 20349 - 20927" locus_tag="APZ79559.1" class="clusterblast-orf" id="dummy-1_h1_5_16"  />
</g>
<g id="a1_0017"  >
<polygon points="404,90 410,90 415,85 410,80 404,80 404,90 " style="fill:white; stroke-width:1; stroke:black; " description="&lt;b&gt;APZ79560.1&lt;/b&gt;&lt;br&gt;FimE3&lt;br&gt;Location: 20992 - 22212" locus_tag="APZ79560.1" class="clusterblast-orf" id="dummy-1_h1_5_17"  />
</g>
<g id="a1_0018"  >
<polygon points="417,90 421,90 426,85 421,80 417,80 417,90 " style="fill:white; stroke-width:1; stroke:black; " description="&lt;b&gt;APZ79561.1&lt;/b&gt;&lt;br&gt;FimH1&lt;br&gt;Location: 22518 - 23477" locus_tag="APZ79561.1" class="clusterblast-orf" id="dummy-1_h1_5_18"  />
</g>
<g id="a1_0019"  >
<polygon points="428,90 431,90 436,85 431,80 428,80 428,90 " style="fill:white; stroke-width:1; stroke:black; " description="&lt;b&gt;APZ79562.1&lt;/b&gt;&lt;br&gt;FimH2&lt;br&gt;Location: 23669 - 24664" locus_tag="APZ79562.1" class="clusterblast-orf" id="dummy-1_h1_5_19"  />
</g>
<g id="a1_0020"  >
<polygon points="436,90 439,90 444,85 439,80 436,80 436,90 " style="fill:white; stroke-width:1; stroke:black; " description="&lt;b&gt;APZ79563.1&lt;/b&gt;&lt;br&gt;FimH3&lt;br&gt;Location: 24664 - 25485" locus_tag="APZ79563.1" class="clusterblast-orf" id="dummy-1_h1_5_20"  />
</g>
<g id="a1_0021"  >
<polygon points="448,90 451,90 456,85 451,80 448,80 448,90 " style="fill:white; stroke-width:1; stroke:black; " description="&lt;b&gt;APZ79564.1&lt;/b&gt;&lt;br&gt;FimD&lt;br&gt;Location: 25962 - 26891" locus_tag="APZ79564.1" class="clusterblast-orf" id="dummy-1_h1_5_21"  />
</g>
<g id="a1_0022"  >
<polygon points="459,90 471,90 476,85 471,80 459,80 459,90 " style="fill:white; stroke-width:1; stroke:black; " description="&lt;b&gt;APZ79565.1&lt;/b&gt;&lt;br&gt;FimE4&lt;br&gt;Location: 27148 - 29091" locus_tag="APZ79565.1" class="clusterblast-orf" id="dummy-1_h1_5_22"  />
</g>
<g id="a1_0023"  >
<polygon points="477,90 483,90 488,85 483,80 477,80 477,90 " style="fill:white; stroke-width:1; stroke:black; " description="&lt;b&gt;APZ79566.1&lt;/b&gt;&lt;br&gt;FimE5&lt;br&gt;Location: 29164 - 30390" locus_tag="APZ79566.1" class="clusterblast-orf" id="dummy-1_h1_5_23"  />
</g>
<g id="a1_0024"  >
<polygon points="490,90 493,90 498,85 493,80 490,80 490,90 " style="fill:white; stroke-width:1; stroke:black; " description="&lt;b&gt;APZ79567.1&lt;/b&gt;&lt;br&gt;FimI1&lt;br&gt;Location: 30605 - 31510" locus_tag="APZ79567.1" class="clusterblast-orf" id="dummy-1_h1_5_24"  />
</g>
<g id="a1_0025"  >
<polygon points="498,90 513,90 518,85 513,80 498,80 498,90 " style="fill:white; stroke-width:1; stroke:black; " description="&lt;b&gt;APZ79568.1&lt;/b&gt;&lt;br&gt;FimI2&lt;br&gt;Location: 31564 - 33768" locus_tag="APZ79568.1" class="clusterblast-orf" id="dummy-1_h1_5_25"  />
</g>
<g id="a1_0026"  >
<polygon points="520,90 523,90 528,85 523,80 520,80 520,90 " style="fill:white; stroke-width:1; stroke:black; " description="&lt;b&gt;APZ79569.1&lt;/b&gt;&lt;br&gt;FimI3&lt;br&gt;Location: 34003 - 34866" locus_tag="APZ79569.1" class="clusterblast-orf" id="dummy-1_h1_5_26"  />
</g>
<g id="a1_0027"  >
<polygon points="528,90 531,90 536,85 531,80 528,80 528,90 " style="fill:white; stroke-width:1; stroke:black; " description="&lt;b&gt;APZ79570.1&lt;/b&gt;&lt;br&gt;FimI4&lt;br&gt;Location: 34921 - 35733" locus_tag="APZ79570.1" class="clusterblast-orf" id="dummy-1_h1_5_27"  />
</g>
<g id="a1_0028"  >
<polygon points="536,90 542,90 547,85 542,80 536,80 536,90 " style="fill:white; stroke-width:1; stroke:black; " description="&lt;b&gt;APZ79571.1&lt;/b&gt;&lt;br&gt;FimI5&lt;br&gt;Location: 35789 - 37036" locus_tag="APZ79571.1" class="clusterblast-orf" id="dummy-1_h1_5_28"  />
</g>
<g id="a1_0029"  >
<polygon points="548,90 553,90 558,85 553,80 548,80 548,90 " style="fill:white; stroke-width:1; stroke:black; " description="&lt;b&gt;APZ79572.1&lt;/b&gt;&lt;br&gt;FimI6&lt;br&gt;Location: 37076 - 38173" locus_tag="APZ79572.1" class="clusterblast-orf" id="dummy-1_h1_5_29"  />
</g>
<g id="a1_0030"  >
<polygon points="558,90 559,90 564,85 559,80 558,80 558,90 " style="fill:white; stroke-width:1; stroke:black; " description="&lt;b&gt;APZ79573.1&lt;/b&gt;&lt;br&gt;FimG2&lt;br&gt;Location: 38198 - 38842" locus_tag="APZ79573.1" class="clusterblast-orf" id="dummy-1_h1_5_30"  />
</g>
</svg>
