<svg xmlns="http://www.w3.org/2000/svg" xmlns:xlink="http://www.w3.org/1999/xlink" version="1.1" x="0" y="0" height="50" width="800" viewBox="0 0 800 50" preserveAspectRatio="none"  >
<g label="Query sequence" class="clusterblast-cluster"  >
<text x="5" y="20" class="clusterblast-acc"  >
Query sequence</text>
<line x1="10" y1="35" x2="778.0" y2="35" style="stroke-width:1; stroke:grey; "  />
<polygon points="0,35 5,30 77,30 77,40 5,40 0,35 " style="fill:white; stroke-width:1; stroke:black; " description="&lt;b&gt;ctg71_1&lt;/b&gt;&lt;br&gt;ctg71 1&lt;br&gt;Location: 1 - 2497" locus_tag="ctg71_1" class="clusterblast-orf" id="subclusterblast-1_q0_0_all"  />
<polygon points="81,40 84,35 81,30 81,40 " style="fill:white; stroke-width:1; stroke:black; " description="&lt;b&gt;ctg71_2&lt;/b&gt;&lt;br&gt;ctg71 2&lt;br&gt;Location: 2619 - 2736" locus_tag="ctg71_2" class="clusterblast-orf" id="subclusterblast-1_q1_0_all"  />
<polygon points="83,40 113,40 118,35 113,30 83,30 83,40 " style="fill:white; stroke-width:1; stroke:black; " description="&lt;b&gt;ctg71_3&lt;/b&gt;&lt;br&gt;ctg71 3&lt;br&gt;Location: 2686 - 3826" locus_tag="ctg71_3" class="clusterblast-orf" id="subclusterblast-1_q2_0_all"  />
<polygon points="124,40 143,40 148,35 143,30 124,30 124,40 " style="fill:white; stroke-width:1; stroke:black; " description="&lt;b&gt;ctg71_4&lt;/b&gt;&lt;br&gt;ctg71 4&lt;br&gt;Location: 4020 - 4797" locus_tag="ctg71_4" class="clusterblast-orf" id="subclusterblast-1_q3_0_all"  />
<polygon points="153,35 158,30 162,30 162,40 158,40 153,35 " style="fill:white; stroke-width:1; stroke:black; " description="&lt;b&gt;ctg71_5&lt;/b&gt;&lt;br&gt;ctg71 5&lt;br&gt;Location: 4952 - 5252" locus_tag="ctg71_5" class="clusterblast-orf" id="subclusterblast-1_q4_0_all"  />
<polygon points="162,35 167,30 169,30 169,40 167,40 162,35 " style="fill:white; stroke-width:1; stroke:black; " description="&lt;b&gt;ctg71_6&lt;/b&gt;&lt;br&gt;ctg71 6&lt;br&gt;Location: 5232 - 5478" locus_tag="ctg71_6" class="clusterblast-orf" id="subclusterblast-1_q5_0_all"  />
<polygon points="177,35 182,30 273,30 273,40 182,40 177,35 " style="fill:white; stroke-width:1; stroke:black; " description="&lt;b&gt;ctg71_7&lt;/b&gt;&lt;br&gt;ctg71 7&lt;br&gt;Location: 5741 - 8840" locus_tag="ctg71_7" class="clusterblast-orf" id="subclusterblast-1_q6_0_all"  />
<polygon points="303,35 308,30 313,30 313,40 308,40 303,35 " style="fill:white; stroke-width:1; stroke:black; " description="&lt;b&gt;ctg71_8&lt;/b&gt;&lt;br&gt;ctg71 8&lt;br&gt;Location: 9790 - 10129" locus_tag="ctg71_8" class="clusterblast-orf" id="subclusterblast-1_q7_0_all"  />
<polygon points="314,35 319,30 319,30 319,40 319,40 314,35 " style="fill:white; stroke-width:1; stroke:black; " description="&lt;b&gt;ctg71_9&lt;/b&gt;&lt;br&gt;ctg71 9&lt;br&gt;Location: 10150 - 10321" locus_tag="ctg71_9" class="clusterblast-orf" id="subclusterblast-1_q8_0_all"  />
<polygon points="323,35 327,30 327,40 323,35 " style="fill:white; stroke-width:1; stroke:black; " description="&lt;b&gt;ctg71_10&lt;/b&gt;&lt;br&gt;ctg71 10&lt;br&gt;Location: 10430 - 10565" locus_tag="ctg71_10" class="clusterblast-orf" id="subclusterblast-1_q9_0_all"  />
<polygon points="330,35 335,30 371,30 371,40 335,40 330,35 " style="fill:white; stroke-width:1; stroke:black; " description="&lt;b&gt;ctg71_11&lt;/b&gt;&lt;br&gt;ctg71 11&lt;br&gt;Location: 10670 - 11999" locus_tag="ctg71_11" class="clusterblast-orf" id="subclusterblast-1_q10_0_all"  />
<polygon points="379,35 384,30 419,30 419,40 384,40 379,35 " style="fill:white; stroke-width:1; stroke:black; " description="&lt;b&gt;ctg71_12&lt;/b&gt;&lt;br&gt;ctg71 12&lt;br&gt;Location: 12252 - 13542" locus_tag="ctg71_12" class="clusterblast-orf" id="subclusterblast-1_q11_0_all"  />
<polygon points="426,40 429,40 434,35 429,30 426,30 426,40 " style="fill:white; stroke-width:1; stroke:black; " description="&lt;b&gt;ctg71_13&lt;/b&gt;&lt;br&gt;ctg71 13&lt;br&gt;Location: 13776 - 14022" locus_tag="ctg71_13" class="clusterblast-orf" id="subclusterblast-1_q12_0_all"  />
<polygon points="435,40 459,40 464,35 459,30 435,30 435,40 " style="fill:white; stroke-width:1; stroke:black; " description="&lt;b&gt;ctg71_14&lt;/b&gt;&lt;br&gt;ctg71 14&lt;br&gt;Location: 14070 - 15006" locus_tag="ctg71_14" class="clusterblast-orf" id="subclusterblast-1_q13_0_all"  />
<polygon points="466,35 471,30 485,30 485,40 471,40 466,35 " style="fill:white; stroke-width:1; stroke:black; " description="&lt;b&gt;ctg71_15&lt;/b&gt;&lt;br&gt;ctg71 15&lt;br&gt;Location: 15069 - 15690" locus_tag="ctg71_15" class="clusterblast-orf" id="subclusterblast-1_q14_0_all"  />
<polygon points="484,35 489,30 489,30 489,40 489,40 484,35 " style="fill:white; stroke-width:1; stroke:black; " description="&lt;b&gt;ctg71_16&lt;/b&gt;&lt;br&gt;ctg71 16&lt;br&gt;Location: 15655 - 15802" locus_tag="ctg71_16" class="clusterblast-orf" id="subclusterblast-1_q15_0_all"  />
<polygon points="491,40 500,40 505,35 500,30 491,30 491,40 " style="fill:white; stroke-width:1; stroke:black; " description="&lt;b&gt;ctg71_17&lt;/b&gt;&lt;br&gt;ctg71 17&lt;br&gt;Location: 15865 - 16321" locus_tag="ctg71_17" class="clusterblast-orf" id="subclusterblast-1_q16_0_all"  />
<polygon points="515,40 532,40 537,35 532,30 515,30 515,40 " style="fill:white; stroke-width:1; stroke:black; " description="&lt;b&gt;ctg71_18&lt;/b&gt;&lt;br&gt;ctg71 18&lt;br&gt;Location: 16646 - 17342" locus_tag="ctg71_18" class="clusterblast-orf" id="subclusterblast-1_q17_0_all"  />
<polygon points="541,40 579,40 584,35 579,30 541,30 541,40 " style="fill:white; stroke-width:1; stroke:black; " description="&lt;b&gt;ctg71_19&lt;/b&gt;&lt;br&gt;ctg71 19&lt;br&gt;Location: 17500 - 18865" locus_tag="ctg71_19" class="clusterblast-orf" id="subclusterblast-1_q18_0_all"  />
<polygon points="586,35 591,30 603,30 603,40 591,40 586,35 " style="fill:white; stroke-width:1; stroke:black; " description="&lt;b&gt;ctg71_20&lt;/b&gt;&lt;br&gt;ctg71 20&lt;br&gt;Location: 18938 - 19499" locus_tag="ctg71_20" class="clusterblast-orf" id="subclusterblast-1_q19_0_all"  />
<polygon points="626,40 655,40 660,35 655,30 626,30 626,40 " style="fill:white; stroke-width:1; stroke:black; " description="&lt;b&gt;ctg71_21&lt;/b&gt;&lt;br&gt;ctg71 21&lt;br&gt;Location: 20230 - 21322" locus_tag="ctg71_21" class="clusterblast-orf" id="subclusterblast-1_q20_0_all"  />
<polygon points="665,40 679,40 684,35 679,30 665,30 665,40 " style="fill:white; stroke-width:1; stroke:black; " description="&lt;b&gt;ctg71_22&lt;/b&gt;&lt;br&gt;ctg71 22&lt;br&gt;Location: 21482 - 22097" locus_tag="ctg71_22" class="clusterblast-orf" id="subclusterblast-1_q21_0_all"  />
<polygon points="689,35 694,30 698,30 698,40 694,40 689,35 " style="fill:white; stroke-width:1; stroke:black; " description="&lt;b&gt;ctg71_23&lt;/b&gt;&lt;br&gt;ctg71 23&lt;br&gt;Location: 22275 - 22566" locus_tag="ctg71_23" class="clusterblast-orf" id="subclusterblast-1_q22_0_all"  />
<polygon points="699,40 722,40 727,35 722,30 699,30 699,40 " style="fill:white; stroke-width:1; stroke:black; " description="&lt;b&gt;ctg71_24&lt;/b&gt;&lt;br&gt;ctg71 24&lt;br&gt;Location: 22576 - 23506" locus_tag="ctg71_24" class="clusterblast-orf" id="subclusterblast-1_q23_0_all"  />
<polygon points="728,40 738,40 743,35 738,30 728,30 728,40 " style="fill:white; stroke-width:1; stroke:black; " description="&lt;b&gt;ctg71_25&lt;/b&gt;&lt;br&gt;ctg71 25&lt;br&gt;Location: 23511 - 24021" locus_tag="ctg71_25" class="clusterblast-orf" id="subclusterblast-1_q24_0_all"  />
<polygon points="753,40 761,40 766,35 761,30 753,30 753,40 " style="fill:white; stroke-width:1; stroke:black; " description="&lt;b&gt;ctg71_26&lt;/b&gt;&lt;br&gt;ctg71 26&lt;br&gt;Location: 24318 - 24753" locus_tag="ctg71_26" class="clusterblast-orf" id="subclusterblast-1_q25_0_all"  />
<polygon points="775,35 780,30 780,30 780,40 780,40 775,35 " style="fill:white; stroke-width:1; stroke:black; " description="&lt;b&gt;ctg71_27&lt;/b&gt;&lt;br&gt;ctg71 27&lt;br&gt;Location: 25043 - 25199" locus_tag="ctg71_27" class="clusterblast-orf" id="subclusterblast-1_q26_0_all"  />
</g>
</svg>
