<svg xmlns="http://www.w3.org/2000/svg" xmlns:xlink="http://www.w3.org/1999/xlink" version="1.1" x="0" y="0" height="50" width="800" viewBox="0 0 800 50" preserveAspectRatio="none"  >
<g label="Query sequence" class="clusterblast-cluster"  >
<text x="5" y="20" class="clusterblast-acc"  >
Query sequence</text>
<line x1="10" y1="35" x2="778.0" y2="35" style="stroke-width:1; stroke:grey; "  />
<polygon points="0,35 5,30 8,30 8,40 5,40 0,35 " style="fill:white; stroke-width:1; stroke:black; " description="&lt;b&gt;ctg20_1&lt;/b&gt;&lt;br&gt;ctg20 1&lt;br&gt;Location: 1 - 307" locus_tag="ctg20_1" class="clusterblast-orf" id="subclusterblast-1_q0_0_all"  />
<polygon points="12,35 17,30 51,30 51,40 17,40 12,35 " style="fill:white; stroke-width:1; stroke:black; " description="&lt;b&gt;ctg20_2&lt;/b&gt;&lt;br&gt;ctg20 2&lt;br&gt;Location: 457 - 1873" locus_tag="ctg20_2" class="clusterblast-orf" id="subclusterblast-1_q1_0_all"  />
<polygon points="60,40 80,40 85,35 80,30 60,30 60,40 " style="fill:white; stroke-width:1; stroke:black; " description="&lt;b&gt;ctg20_3&lt;/b&gt;&lt;br&gt;ctg20 3&lt;br&gt;Location: 2175 - 3084" locus_tag="ctg20_3" class="clusterblast-orf" id="subclusterblast-1_q2_0_all"  />
<polygon points="89,40 111,40 116,35 111,30 89,30 89,40 " style="fill:white; stroke-width:1; stroke:black; " description="&lt;b&gt;ctg20_4&lt;/b&gt;&lt;br&gt;ctg20 4&lt;br&gt;Location: 3253 - 4207" locus_tag="ctg20_4" class="clusterblast-orf" id="subclusterblast-1_q3_0_all"  />
<polygon points="116,40 150,40 155,35 150,30 116,30 116,40 " style="fill:white; stroke-width:1; stroke:black; " description="&lt;b&gt;ctg20_5&lt;/b&gt;&lt;br&gt;ctg20 5&lt;br&gt;Location: 4217 - 5651" locus_tag="ctg20_5" class="clusterblast-orf" id="subclusterblast-1_q4_0_all"  />
<polygon points="158,35 163,30 170,30 170,40 163,40 158,35 " style="fill:white; stroke-width:1; stroke:black; " description="&lt;b&gt;ctg20_6&lt;/b&gt;&lt;br&gt;ctg20 6&lt;br&gt;Location: 5750 - 6197" locus_tag="ctg20_6" class="clusterblast-orf" id="subclusterblast-1_q5_0_all"  />
<polygon points="172,35 177,30 202,30 202,40 177,40 172,35 " style="fill:white; stroke-width:1; stroke:black; " description="&lt;b&gt;ctg20_7&lt;/b&gt;&lt;br&gt;ctg20 7&lt;br&gt;Location: 6269 - 7358" locus_tag="ctg20_7" class="clusterblast-orf" id="subclusterblast-1_q6_0_all"  />
<polygon points="203,35 208,30 237,30 237,40 208,40 203,35 " style="fill:white; stroke-width:1; stroke:black; " description="&lt;b&gt;ctg20_8&lt;/b&gt;&lt;br&gt;ctg20 8&lt;br&gt;Location: 7391 - 8636" locus_tag="ctg20_8" class="clusterblast-orf" id="subclusterblast-1_q7_0_all"  />
<polygon points="265,35 270,30 280,30 280,40 270,40 265,35 " style="fill:white; stroke-width:1; stroke:black; " description="&lt;b&gt;ctg20_9&lt;/b&gt;&lt;br&gt;ctg20 9&lt;br&gt;Location: 9625 - 10177" locus_tag="ctg20_9" class="clusterblast-orf" id="subclusterblast-1_q8_0_all"  />
<polygon points="280,35 285,30 291,30 291,40 285,40 280,35 " style="fill:white; stroke-width:1; stroke:black; " description="&lt;b&gt;ctg20_10&lt;/b&gt;&lt;br&gt;ctg20 10&lt;br&gt;Location: 10192 - 10570" locus_tag="ctg20_10" class="clusterblast-orf" id="subclusterblast-1_q9_0_all"  />
<polygon points="292,35 297,30 301,30 301,40 297,40 292,35 " style="fill:white; stroke-width:1; stroke:black; " description="&lt;b&gt;ctg20_11&lt;/b&gt;&lt;br&gt;ctg20 11&lt;br&gt;Location: 10628 - 10937" locus_tag="ctg20_11" class="clusterblast-orf" id="subclusterblast-1_q10_0_all"  />
<polygon points="306,35 311,30 322,30 322,40 311,40 306,35 " style="fill:white; stroke-width:1; stroke:black; " description="&lt;b&gt;ctg20_12&lt;/b&gt;&lt;br&gt;ctg20 12&lt;br&gt;Location: 11135 - 11714" locus_tag="ctg20_12" class="clusterblast-orf" id="subclusterblast-1_q11_0_all"  />
<polygon points="328,35 333,30 334,30 334,40 333,40 328,35 " style="fill:white; stroke-width:1; stroke:black; " description="&lt;b&gt;ctg20_13&lt;/b&gt;&lt;br&gt;ctg20 13&lt;br&gt;Location: 11935 - 12124" locus_tag="ctg20_13" class="clusterblast-orf" id="subclusterblast-1_q12_0_all"  />
<polygon points="341,40 411,40 416,35 411,30 341,30 341,40 " style="fill:white; stroke-width:1; stroke:black; " description="&lt;b&gt;ctg20_14&lt;/b&gt;&lt;br&gt;ctg20 14&lt;br&gt;Location: 12382 - 15103" locus_tag="ctg20_14" class="clusterblast-orf" id="subclusterblast-1_q13_0_all"  />
<polygon points="416,35 421,30 424,30 424,40 421,40 416,35 " style="fill:white; stroke-width:1; stroke:black; " description="&lt;b&gt;ctg20_15&lt;/b&gt;&lt;br&gt;ctg20 15&lt;br&gt;Location: 15136 - 15412" locus_tag="ctg20_15" class="clusterblast-orf" id="subclusterblast-1_q14_0_all"  />
<polygon points="436,40 443,40 448,35 443,30 436,30 436,40 " style="fill:white; stroke-width:1; stroke:black; " description="&lt;b&gt;ctg20_16&lt;/b&gt;&lt;br&gt;ctg20 16&lt;br&gt;Location: 15857 - 16298" locus_tag="ctg20_16" class="clusterblast-orf" id="subclusterblast-1_q15_0_all"  />
<polygon points="451,35 456,30 473,30 473,40 456,40 451,35 " style="fill:white; stroke-width:1; stroke:black; " description="&lt;b&gt;ctg20_17&lt;/b&gt;&lt;br&gt;ctg20 17&lt;br&gt;Location: 16403 - 17174" locus_tag="ctg20_17" class="clusterblast-orf" id="subclusterblast-1_q16_0_all"  />
<polygon points="473,35 478,30 489,30 489,40 478,40 473,35 " style="fill:white; stroke-width:1; stroke:black; " description="&lt;b&gt;ctg20_18&lt;/b&gt;&lt;br&gt;ctg20 18&lt;br&gt;Location: 17177 - 17783" locus_tag="ctg20_18" class="clusterblast-orf" id="subclusterblast-1_q17_0_all"  />
<polygon points="493,35 498,30 505,30 505,40 498,40 493,35 " style="fill:white; stroke-width:1; stroke:black; " description="&lt;b&gt;ctg20_19&lt;/b&gt;&lt;br&gt;ctg20 19&lt;br&gt;Location: 17902 - 18358" locus_tag="ctg20_19" class="clusterblast-orf" id="subclusterblast-1_q18_0_all"  />
<polygon points="509,35 514,30 524,30 524,40 514,40 509,35 " style="fill:white; stroke-width:1; stroke:black; " description="&lt;b&gt;ctg20_20&lt;/b&gt;&lt;br&gt;ctg20 20&lt;br&gt;Location: 18498 - 19029" locus_tag="ctg20_20" class="clusterblast-orf" id="subclusterblast-1_q19_0_all"  />
<polygon points="525,35 529,30 529,40 525,35 " style="fill:white; stroke-width:1; stroke:black; " description="&lt;b&gt;ctg20_21&lt;/b&gt;&lt;br&gt;ctg20 21&lt;br&gt;Location: 19069 - 19225" locus_tag="ctg20_21" class="clusterblast-orf" id="subclusterblast-1_q20_0_all"  />
<polygon points="538,35 543,30 568,30 568,40 543,40 538,35 " style="fill:white; stroke-width:1; stroke:black; " description="&lt;b&gt;ctg20_22&lt;/b&gt;&lt;br&gt;ctg20 22&lt;br&gt;Location: 19538 - 20630" locus_tag="ctg20_22" class="clusterblast-orf" id="subclusterblast-1_q21_0_all"  />
<polygon points="575,40 593,40 598,35 593,30 575,30 575,40 " style="fill:white; stroke-width:1; stroke:black; " description="&lt;b&gt;ctg20_23&lt;/b&gt;&lt;br&gt;ctg20 23&lt;br&gt;Location: 20909 - 21722" locus_tag="ctg20_23" class="clusterblast-orf" id="subclusterblast-1_q22_0_all"  />
<polygon points="603,40 610,40 615,35 610,30 603,30 603,40 " style="fill:white; stroke-width:1; stroke:black; " description="&lt;b&gt;ctg20_24&lt;/b&gt;&lt;br&gt;ctg20 24&lt;br&gt;Location: 21908 - 22334" locus_tag="ctg20_24" class="clusterblast-orf" id="subclusterblast-1_q23_0_all"  />
<polygon points="626,35 631,30 696,30 696,40 631,40 626,35 " style="fill:white; stroke-width:1; stroke:black; " description="&lt;b&gt;ctg20_25&lt;/b&gt;&lt;br&gt;ctg20 25&lt;br&gt;Location: 22735 - 25303" locus_tag="ctg20_25" class="clusterblast-orf" id="subclusterblast-1_q24_0_all"  />
<polygon points="713,35 718,30 759,30 759,40 718,40 713,35 " style="fill:white; stroke-width:1; stroke:black; " description="&lt;b&gt;ctg20_26&lt;/b&gt;&lt;br&gt;ctg20 26&lt;br&gt;Location: 25917 - 27570" locus_tag="ctg20_26" class="clusterblast-orf" id="subclusterblast-1_q25_0_all"  />
<polygon points="762,40 775,40 780,35 775,30 762,30 762,40 " style="fill:white; stroke-width:1; stroke:black; " description="&lt;b&gt;ctg20_27&lt;/b&gt;&lt;br&gt;ctg20 27&lt;br&gt;Location: 27689 - 28334" locus_tag="ctg20_27" class="clusterblast-orf" id="subclusterblast-1_q26_0_all"  />
</g>
</svg>
