<svg xmlns="http://www.w3.org/2000/svg" xmlns:xlink="http://www.w3.org/1999/xlink" version="1.1" x="0" y="0" height="50" width="800" viewBox="0 0 800 50" preserveAspectRatio="none"  >
<g label="Query sequence" class="clusterblast-cluster"  >
<text x="5" y="20" class="clusterblast-acc"  >
Query sequence</text>
<line x1="10" y1="35" x2="778.0" y2="35" style="stroke-width:1; stroke:grey; "  />
<polygon points="0,35 5,30 11,30 11,40 5,40 0,35 " style="fill:white; stroke-width:1; stroke:black; " description="&lt;b&gt;ctg38_20&lt;/b&gt;&lt;br&gt;ctg38 20&lt;br&gt;Location: 16305 - 16866" locus_tag="ctg38_20" class="clusterblast-orf" id="subclusterblast-1_q0_0_all"  />
<polygon points="14,35 19,30 83,30 83,40 19,40 14,35 " style="fill:white; stroke-width:1; stroke:black; " description="&lt;b&gt;ctg38_21&lt;/b&gt;&lt;br&gt;ctg38 21&lt;br&gt;Location: 17036 - 20606" locus_tag="ctg38_21" class="clusterblast-orf" id="subclusterblast-1_q1_0_all"  />
<polygon points="93,35 96,30 96,40 93,35 " style="fill:white; stroke-width:1; stroke:black; " description="&lt;b&gt;ctg38_22&lt;/b&gt;&lt;br&gt;ctg38 22&lt;br&gt;Location: 21088 - 21238" locus_tag="ctg38_22" class="clusterblast-orf" id="subclusterblast-1_q2_0_all"  />
<polygon points="100,35 105,30 107,30 107,40 105,40 100,35 " style="fill:white; stroke-width:1; stroke:black; " description="&lt;b&gt;ctg38_23&lt;/b&gt;&lt;br&gt;ctg38 23&lt;br&gt;Location: 21435 - 21834" locus_tag="ctg38_23" class="clusterblast-orf" id="subclusterblast-1_q3_0_all"  />
<polygon points="107,35 112,30 120,30 120,40 112,40 107,35 " style="fill:white; stroke-width:1; stroke:black; " description="&lt;b&gt;ctg38_24&lt;/b&gt;&lt;br&gt;ctg38 24&lt;br&gt;Location: 21830 - 22484" locus_tag="ctg38_24" class="clusterblast-orf" id="subclusterblast-1_q4_0_all"  />
<polygon points="122,40 129,40 134,35 129,30 122,30 122,40 " style="fill:white; stroke-width:1; stroke:black; " description="&lt;b&gt;ctg38_25&lt;/b&gt;&lt;br&gt;ctg38 25&lt;br&gt;Location: 22599 - 23205" locus_tag="ctg38_25" class="clusterblast-orf" id="subclusterblast-1_q5_0_all"  />
<polygon points="135,40 143,40 148,35 143,30 135,30 135,40 " style="fill:white; stroke-width:1; stroke:black; " description="&lt;b&gt;ctg38_26&lt;/b&gt;&lt;br&gt;ctg38 26&lt;br&gt;Location: 23253 - 23916" locus_tag="ctg38_26" class="clusterblast-orf" id="subclusterblast-1_q6_0_all"  />
<polygon points="147,35 152,30 162,30 162,40 152,40 147,35 " style="fill:white; stroke-width:1; stroke:black; " description="&lt;b&gt;ctg38_27&lt;/b&gt;&lt;br&gt;ctg38 27&lt;br&gt;Location: 23887 - 24655" locus_tag="ctg38_27" class="clusterblast-orf" id="subclusterblast-1_q7_0_all"  />
<polygon points="167,40 182,40 187,35 182,30 167,30 167,40 " style="fill:white; stroke-width:1; stroke:black; " description="&lt;b&gt;ctg38_28&lt;/b&gt;&lt;br&gt;ctg38 28&lt;br&gt;Location: 24911 - 25925" locus_tag="ctg38_28" class="clusterblast-orf" id="subclusterblast-1_q8_0_all"  />
<polygon points="192,40 223,40 228,35 223,30 192,30 192,40 " style="fill:white; stroke-width:1; stroke:black; " description="&lt;b&gt;ctg38_29&lt;/b&gt;&lt;br&gt;ctg38 29&lt;br&gt;Location: 26176 - 28036" locus_tag="ctg38_29" class="clusterblast-orf" id="subclusterblast-1_q9_0_all"  />
<polygon points="234,40 251,40 256,35 251,30 234,30 234,40 " style="fill:white; stroke-width:1; stroke:black; " description="&lt;b&gt;ctg38_30&lt;/b&gt;&lt;br&gt;ctg38 30&lt;br&gt;Location: 28318 - 29458" locus_tag="ctg38_30" class="clusterblast-orf" id="subclusterblast-1_q10_0_all"  />
<polygon points="258,40 276,40 281,35 276,30 258,30 258,40 " style="fill:white; stroke-width:1; stroke:black; " description="&lt;b&gt;ctg38_31&lt;/b&gt;&lt;br&gt;ctg38 31&lt;br&gt;Location: 29591 - 30746" locus_tag="ctg38_31" class="clusterblast-orf" id="subclusterblast-1_q11_0_all"  />
<polygon points="281,40 291,40 296,35 291,30 281,30 281,40 " style="fill:white; stroke-width:1; stroke:black; " description="&lt;b&gt;ctg38_32&lt;/b&gt;&lt;br&gt;ctg38 32&lt;br&gt;Location: 30773 - 31505" locus_tag="ctg38_32" class="clusterblast-orf" id="subclusterblast-1_q12_0_all"  />
<polygon points="300,40 308,40 313,35 308,30 300,30 300,40 " style="fill:white; stroke-width:1; stroke:black; " description="&lt;b&gt;ctg38_33&lt;/b&gt;&lt;br&gt;ctg38 33&lt;br&gt;Location: 31726 - 32425" locus_tag="ctg38_33" class="clusterblast-orf" id="subclusterblast-1_q13_0_all"  />
<polygon points="315,40 326,40 331,35 326,30 315,30 315,40 " style="fill:white; stroke-width:1; stroke:black; " description="&lt;b&gt;ctg38_34&lt;/b&gt;&lt;br&gt;ctg38 34&lt;br&gt;Location: 32494 - 33322" locus_tag="ctg38_34" class="clusterblast-orf" id="subclusterblast-1_q14_0_all"  />
<polygon points="336,40 354,40 359,35 354,30 336,30 336,40 " style="fill:white; stroke-width:1; stroke:black; " description="&lt;b&gt;ctg38_35&lt;/b&gt;&lt;br&gt;ctg38 35&lt;br&gt;Location: 33561 - 34758" locus_tag="ctg38_35" class="clusterblast-orf" id="subclusterblast-1_q15_0_all"  />
<polygon points="371,40 376,40 381,35 376,30 371,30 371,40 " style="fill:white; stroke-width:1; stroke:black; " description="&lt;b&gt;ctg38_36&lt;/b&gt;&lt;br&gt;ctg38 36&lt;br&gt;Location: 35360 - 35873" locus_tag="ctg38_36" class="clusterblast-orf" id="subclusterblast-1_q16_0_all"  />
<polygon points="383,40 439,40 444,35 439,30 383,30 383,40 " style="fill:white; stroke-width:1; stroke:black; " description="&lt;b&gt;ctg38_37&lt;/b&gt;&lt;br&gt;ctg38 37&lt;br&gt;Location: 35985 - 39120" locus_tag="ctg38_37" class="clusterblast-orf" id="subclusterblast-1_q17_0_all"  />
<polygon points="444,40 537,40 542,35 537,30 444,30 444,40 " style="fill:white; stroke-width:1; stroke:black; " description="&lt;b&gt;ctg38_38&lt;/b&gt;&lt;br&gt;ctg38 38&lt;br&gt;Location: 39125 - 44189" locus_tag="ctg38_38" class="clusterblast-orf" id="subclusterblast-1_q18_0_all"  />
<polygon points="546,40 577,40 582,35 577,30 546,30 546,40 " style="fill:white; stroke-width:1; stroke:black; " description="&lt;b&gt;ctg38_39&lt;/b&gt;&lt;br&gt;ctg38 39&lt;br&gt;Location: 44350 - 46195" locus_tag="ctg38_39" class="clusterblast-orf" id="subclusterblast-1_q19_0_all"  />
<polygon points="582,40 615,40 620,35 615,30 582,30 582,40 " style="fill:white; stroke-width:1; stroke:black; " description="&lt;b&gt;ctg38_40&lt;/b&gt;&lt;br&gt;ctg38 40&lt;br&gt;Location: 46231 - 48160" locus_tag="ctg38_40" class="clusterblast-orf" id="subclusterblast-1_q20_0_all"  />
<polygon points="622,40 625,40 630,35 625,30 622,30 622,40 " style="fill:white; stroke-width:1; stroke:black; " description="&lt;b&gt;ctg38_41&lt;/b&gt;&lt;br&gt;ctg38 41&lt;br&gt;Location: 48253 - 48661" locus_tag="ctg38_41" class="clusterblast-orf" id="subclusterblast-1_q21_0_all"  />
<polygon points="630,40 632,40 637,35 632,30 630,30 630,40 " style="fill:white; stroke-width:1; stroke:black; " description="&lt;b&gt;ctg38_42&lt;/b&gt;&lt;br&gt;ctg38 42&lt;br&gt;Location: 48710 - 49055" locus_tag="ctg38_42" class="clusterblast-orf" id="subclusterblast-1_q22_0_all"  />
<polygon points="640,40 652,40 657,35 652,30 640,30 640,40 " style="fill:white; stroke-width:1; stroke:black; " description="&lt;b&gt;ctg38_43&lt;/b&gt;&lt;br&gt;ctg38 43&lt;br&gt;Location: 49179 - 50097" locus_tag="ctg38_43" class="clusterblast-orf" id="subclusterblast-1_q23_0_all"  />
<polygon points="660,40 661,40 666,35 661,30 660,30 660,40 " style="fill:white; stroke-width:1; stroke:black; " description="&lt;b&gt;ctg38_44&lt;/b&gt;&lt;br&gt;ctg38 44&lt;br&gt;Location: 50237 - 50558" locus_tag="ctg38_44" class="clusterblast-orf" id="subclusterblast-1_q24_0_all"  />
<polygon points="668,40 673,40 678,35 673,30 668,30 668,40 " style="fill:white; stroke-width:1; stroke:black; " description="&lt;b&gt;ctg38_45&lt;/b&gt;&lt;br&gt;ctg38 45&lt;br&gt;Location: 50646 - 51138" locus_tag="ctg38_45" class="clusterblast-orf" id="subclusterblast-1_q25_0_all"  />
<polygon points="678,35 683,30 693,30 693,40 683,40 678,35 " style="fill:white; stroke-width:1; stroke:black; " description="&lt;b&gt;ctg38_46&lt;/b&gt;&lt;br&gt;ctg38 46&lt;br&gt;Location: 51174 - 51924" locus_tag="ctg38_46" class="clusterblast-orf" id="subclusterblast-1_q26_0_all"  />
<polygon points="696,35 701,30 704,30 704,40 701,40 696,35 " style="fill:white; stroke-width:1; stroke:black; " description="&lt;b&gt;ctg38_47&lt;/b&gt;&lt;br&gt;ctg38 47&lt;br&gt;Location: 52095 - 52506" locus_tag="ctg38_47" class="clusterblast-orf" id="subclusterblast-1_q27_0_all"  />
<polygon points="719,40 761,40 766,35 761,30 719,30 719,40 " style="fill:white; stroke-width:1; stroke:black; " description="&lt;b&gt;ctg38_48&lt;/b&gt;&lt;br&gt;ctg38 48&lt;br&gt;Location: 53266 - 55657" locus_tag="ctg38_48" class="clusterblast-orf" id="subclusterblast-1_q28_0_all"  />
<polygon points="772,40 775,40 780,35 775,30 772,30 772,40 " style="fill:white; stroke-width:1; stroke:black; " description="&lt;b&gt;ctg38_49&lt;/b&gt;&lt;br&gt;ctg38 49&lt;br&gt;Location: 55960 - 56377" locus_tag="ctg38_49" class="clusterblast-orf" id="subclusterblast-1_q29_0_all"  />
</g>
</svg>
