<svg xmlns="http://www.w3.org/2000/svg" xmlns:xlink="http://www.w3.org/1999/xlink" version="1.1" x="0" y="0" height="50" width="800" viewBox="0 0 800 50" preserveAspectRatio="none"  >
<g label="Query sequence" class="clusterblast-cluster"  >
<text x="5" y="20" class="clusterblast-acc"  >
Query sequence</text>
<line x1="10" y1="35" x2="778.0" y2="35" style="stroke-width:1; stroke:grey; "  />
<polygon points="0,35 5,30 20,30 20,40 5,40 0,35 " style="fill:white; stroke-width:1; stroke:black; " description="&lt;b&gt;ctg39_1&lt;/b&gt;&lt;br&gt;ctg39 1&lt;br&gt;Location: 1 - 823" locus_tag="ctg39_1" class="clusterblast-orf" id="subclusterblast-1_q0_0_all"  />
<polygon points="25,35 29,30 29,40 25,35 " style="fill:white; stroke-width:1; stroke:black; " description="&lt;b&gt;ctg39_2&lt;/b&gt;&lt;br&gt;ctg39 2&lt;br&gt;Location: 1041 - 1203" locus_tag="ctg39_2" class="clusterblast-orf" id="subclusterblast-1_q1_0_all"  />
<polygon points="34,35 39,30 51,30 51,40 39,40 34,35 " style="fill:white; stroke-width:1; stroke:black; " description="&lt;b&gt;ctg39_3&lt;/b&gt;&lt;br&gt;ctg39 3&lt;br&gt;Location: 1370 - 2063" locus_tag="ctg39_3" class="clusterblast-orf" id="subclusterblast-1_q2_0_all"  />
<polygon points="53,35 58,30 61,30 61,40 58,40 53,35 " style="fill:white; stroke-width:1; stroke:black; " description="&lt;b&gt;ctg39_4&lt;/b&gt;&lt;br&gt;ctg39 4&lt;br&gt;Location: 2154 - 2487" locus_tag="ctg39_4" class="clusterblast-orf" id="subclusterblast-1_q3_0_all"  />
<polygon points="64,35 69,30 85,30 85,40 69,40 64,35 " style="fill:white; stroke-width:1; stroke:black; " description="&lt;b&gt;ctg39_5&lt;/b&gt;&lt;br&gt;ctg39 5&lt;br&gt;Location: 2602 - 3448" locus_tag="ctg39_5" class="clusterblast-orf" id="subclusterblast-1_q4_0_all"  />
<polygon points="95,40 99,40 104,35 99,30 95,30 95,40 " style="fill:white; stroke-width:1; stroke:black; " description="&lt;b&gt;ctg39_6&lt;/b&gt;&lt;br&gt;ctg39 6&lt;br&gt;Location: 3870 - 4212" locus_tag="ctg39_6" class="clusterblast-orf" id="subclusterblast-1_q5_0_all"  />
<polygon points="104,35 109,30 121,30 121,40 109,40 104,35 " style="fill:white; stroke-width:1; stroke:black; " description="&lt;b&gt;ctg39_7&lt;/b&gt;&lt;br&gt;ctg39 7&lt;br&gt;Location: 4208 - 4886" locus_tag="ctg39_7" class="clusterblast-orf" id="subclusterblast-1_q6_0_all"  />
<polygon points="120,35 125,30 158,30 158,40 125,40 120,35 " style="fill:white; stroke-width:1; stroke:black; " description="&lt;b&gt;ctg39_8&lt;/b&gt;&lt;br&gt;ctg39 8&lt;br&gt;Location: 4878 - 6381" locus_tag="ctg39_8" class="clusterblast-orf" id="subclusterblast-1_q7_0_all"  />
<polygon points="178,40 181,35 178,30 178,40 " style="fill:white; stroke-width:1; stroke:black; " description="&lt;b&gt;ctg39_9&lt;/b&gt;&lt;br&gt;ctg39 9&lt;br&gt;Location: 7194 - 7338" locus_tag="ctg39_9" class="clusterblast-orf" id="subclusterblast-1_q8_0_all"  />
<polygon points="190,35 195,30 220,30 220,40 195,40 190,35 " style="fill:white; stroke-width:1; stroke:black; " description="&lt;b&gt;ctg39_10&lt;/b&gt;&lt;br&gt;ctg39 10&lt;br&gt;Location: 7673 - 8909" locus_tag="ctg39_10" class="clusterblast-orf" id="subclusterblast-1_q9_0_all"  />
<polygon points="225,35 230,30 237,30 237,40 230,40 225,35 " style="fill:white; stroke-width:1; stroke:black; " description="&lt;b&gt;ctg39_11&lt;/b&gt;&lt;br&gt;ctg39 11&lt;br&gt;Location: 9085 - 9574" locus_tag="ctg39_11" class="clusterblast-orf" id="subclusterblast-1_q10_0_all"  />
<polygon points="244,40 306,40 311,35 306,30 244,30 244,40 " style="fill:white; stroke-width:1; stroke:black; " description="&lt;b&gt;ctg39_12&lt;/b&gt;&lt;br&gt;ctg39 12&lt;br&gt;Location: 9860 - 12581" locus_tag="ctg39_12" class="clusterblast-orf" id="subclusterblast-1_q11_0_all"  />
<polygon points="316,40 347,40 352,35 347,30 316,30 316,40 " style="fill:white; stroke-width:1; stroke:black; " description="&lt;b&gt;ctg39_13&lt;/b&gt;&lt;br&gt;ctg39 13&lt;br&gt;Location: 12764 - 14219" locus_tag="ctg39_13" class="clusterblast-orf" id="subclusterblast-1_q12_0_all"  />
<polygon points="353,40 375,40 380,35 375,30 353,30 353,40 " style="fill:white; stroke-width:1; stroke:black; " description="&lt;b&gt;ctg39_14&lt;/b&gt;&lt;br&gt;ctg39 14&lt;br&gt;Location: 14273 - 15377" locus_tag="ctg39_14" class="clusterblast-orf" id="subclusterblast-1_q13_0_all"  />
<polygon points="380,40 407,40 412,35 407,30 380,30 380,40 " style="fill:white; stroke-width:1; stroke:black; " description="&lt;b&gt;ctg39_15&lt;/b&gt;&lt;br&gt;ctg39 15&lt;br&gt;Location: 15382 - 16639" locus_tag="ctg39_15" class="clusterblast-orf" id="subclusterblast-1_q14_0_all"  />
<polygon points="421,40 443,40 448,35 443,30 421,30 421,40 " style="fill:white; stroke-width:1; stroke:black; " description="&lt;b&gt;ctg39_16&lt;/b&gt;&lt;br&gt;ctg39 16&lt;br&gt;Location: 17027 - 18131" locus_tag="ctg39_16" class="clusterblast-orf" id="subclusterblast-1_q15_0_all"  />
<polygon points="448,40 472,40 477,35 472,30 448,30 448,40 " style="fill:white; stroke-width:1; stroke:black; " description="&lt;b&gt;ctg39_17&lt;/b&gt;&lt;br&gt;ctg39 17&lt;br&gt;Location: 18114 - 19296" locus_tag="ctg39_17" class="clusterblast-orf" id="subclusterblast-1_q16_0_all"  />
<polygon points="482,40 532,40 537,35 532,30 482,30 482,40 " style="fill:white; stroke-width:1; stroke:black; " description="&lt;b&gt;ctg39_18&lt;/b&gt;&lt;br&gt;ctg39 18&lt;br&gt;Location: 19467 - 21714" locus_tag="ctg39_18" class="clusterblast-orf" id="subclusterblast-1_q17_0_all"  />
<polygon points="539,35 543,30 543,40 539,35 " style="fill:white; stroke-width:1; stroke:black; " description="&lt;b&gt;ctg39_19&lt;/b&gt;&lt;br&gt;ctg39 19&lt;br&gt;Location: 21794 - 21959" locus_tag="ctg39_19" class="clusterblast-orf" id="subclusterblast-1_q18_0_all"  />
<polygon points="548,35 553,30 588,30 588,40 553,40 548,35 " style="fill:white; stroke-width:1; stroke:black; " description="&lt;b&gt;ctg39_20&lt;/b&gt;&lt;br&gt;ctg39 20&lt;br&gt;Location: 22143 - 23772" locus_tag="ctg39_20" class="clusterblast-orf" id="subclusterblast-1_q19_0_all"  />
<polygon points="605,40 609,35 605,30 605,40 " style="fill:white; stroke-width:1; stroke:black; " description="&lt;b&gt;ctg39_21&lt;/b&gt;&lt;br&gt;ctg39 21&lt;br&gt;Location: 24460 - 24625" locus_tag="ctg39_21" class="clusterblast-orf" id="subclusterblast-1_q20_0_all"  />
<polygon points="611,35 616,30 632,30 632,40 616,40 611,35 " style="fill:white; stroke-width:1; stroke:black; " description="&lt;b&gt;ctg39_22&lt;/b&gt;&lt;br&gt;ctg39 22&lt;br&gt;Location: 24718 - 25558" locus_tag="ctg39_22" class="clusterblast-orf" id="subclusterblast-1_q21_0_all"  />
<polygon points="634,35 639,30 642,30 642,40 639,40 634,35 " style="fill:white; stroke-width:1; stroke:black; " description="&lt;b&gt;ctg39_23&lt;/b&gt;&lt;br&gt;ctg39 23&lt;br&gt;Location: 25616 - 25934" locus_tag="ctg39_23" class="clusterblast-orf" id="subclusterblast-1_q22_0_all"  />
<polygon points="648,35 653,30 658,30 658,40 653,40 648,35 " style="fill:white; stroke-width:1; stroke:black; " description="&lt;b&gt;ctg39_24&lt;/b&gt;&lt;br&gt;ctg39 24&lt;br&gt;Location: 26183 - 26609" locus_tag="ctg39_24" class="clusterblast-orf" id="subclusterblast-1_q23_0_all"  />
<polygon points="663,35 668,30 681,30 681,40 668,40 663,35 " style="fill:white; stroke-width:1; stroke:black; " description="&lt;b&gt;ctg39_25&lt;/b&gt;&lt;br&gt;ctg39 25&lt;br&gt;Location: 26785 - 27544" locus_tag="ctg39_25" class="clusterblast-orf" id="subclusterblast-1_q24_0_all"  />
<polygon points="684,35 689,30 713,30 713,40 689,40 684,35 " style="fill:white; stroke-width:1; stroke:black; " description="&lt;b&gt;ctg39_26&lt;/b&gt;&lt;br&gt;ctg39 26&lt;br&gt;Location: 27653 - 28802" locus_tag="ctg39_26" class="clusterblast-orf" id="subclusterblast-1_q25_0_all"  />
<polygon points="720,35 725,30 735,30 735,40 725,40 720,35 " style="fill:white; stroke-width:1; stroke:black; " description="&lt;b&gt;ctg39_27&lt;/b&gt;&lt;br&gt;ctg39 27&lt;br&gt;Location: 29122 - 29701" locus_tag="ctg39_27" class="clusterblast-orf" id="subclusterblast-1_q26_0_all"  />
<polygon points="753,40 769,40 774,35 769,30 753,30 753,40 " style="fill:white; stroke-width:1; stroke:black; " description="&lt;b&gt;ctg39_28&lt;/b&gt;&lt;br&gt;ctg39 28&lt;br&gt;Location: 30456 - 31305" locus_tag="ctg39_28" class="clusterblast-orf" id="subclusterblast-1_q27_0_all"  />
<polygon points="774,40 775,40 780,35 775,30 774,30 774,40 " style="fill:white; stroke-width:1; stroke:black; " description="&lt;b&gt;ctg39_29&lt;/b&gt;&lt;br&gt;ctg39 29&lt;br&gt;Location: 31305 - 31518" locus_tag="ctg39_29" class="clusterblast-orf" id="subclusterblast-1_q28_0_all"  />
</g>
</svg>
