<svg xmlns="http://www.w3.org/2000/svg" xmlns:xlink="http://www.w3.org/1999/xlink" version="1.1" x="0" y="0" height="50" width="800" viewBox="0 0 800 50" preserveAspectRatio="none"  >
<g label="Query sequence" class="clusterblast-cluster"  >
<text x="5" y="20" class="clusterblast-acc"  >
Query sequence</text>
<line x1="10" y1="35" x2="778.0" y2="35" style="stroke-width:1; stroke:grey; "  />
<polygon points="0,40 2,35 0,30 0,40 " style="fill:white; stroke-width:1; stroke:black; " description="&lt;b&gt;ctg66_1&lt;/b&gt;&lt;br&gt;ctg66 1&lt;br&gt;Location: 2 - 98" locus_tag="ctg66_1" class="clusterblast-orf" id="subclusterblast-1_q0_0_all"  />
<polygon points="4,35 9,30 9,30 9,40 9,40 4,35 " style="fill:white; stroke-width:1; stroke:black; " description="&lt;b&gt;ctg66_2&lt;/b&gt;&lt;br&gt;ctg66 2&lt;br&gt;Location: 168 - 336" locus_tag="ctg66_2" class="clusterblast-orf" id="subclusterblast-1_q1_0_all"  />
<polygon points="9,35 14,30 33,30 33,40 14,40 9,35 " style="fill:white; stroke-width:1; stroke:black; " description="&lt;b&gt;ctg66_3&lt;/b&gt;&lt;br&gt;ctg66 3&lt;br&gt;Location: 339 - 1254" locus_tag="ctg66_3" class="clusterblast-orf" id="subclusterblast-1_q2_0_all"  />
<polygon points="50,35 55,30 141,30 141,40 55,40 50,35 " style="fill:white; stroke-width:1; stroke:black; " description="&lt;b&gt;ctg66_4&lt;/b&gt;&lt;br&gt;ctg66 4&lt;br&gt;Location: 1884 - 5316" locus_tag="ctg66_4" class="clusterblast-orf" id="subclusterblast-1_q3_0_all"  />
<polygon points="144,35 149,30 151,30 151,40 149,40 144,35 " style="fill:white; stroke-width:1; stroke:black; " description="&lt;b&gt;ctg66_5&lt;/b&gt;&lt;br&gt;ctg66 5&lt;br&gt;Location: 5421 - 5706" locus_tag="ctg66_5" class="clusterblast-orf" id="subclusterblast-1_q4_0_all"  />
<polygon points="159,40 163,35 159,30 159,40 " style="fill:white; stroke-width:1; stroke:black; " description="&lt;b&gt;ctg66_6&lt;/b&gt;&lt;br&gt;ctg66 6&lt;br&gt;Location: 5990 - 6149" locus_tag="ctg66_6" class="clusterblast-orf" id="subclusterblast-1_q5_0_all"  />
<polygon points="170,35 175,30 183,30 183,40 175,40 170,35 " style="fill:white; stroke-width:1; stroke:black; " description="&lt;b&gt;ctg66_7&lt;/b&gt;&lt;br&gt;ctg66 7&lt;br&gt;Location: 6428 - 6884" locus_tag="ctg66_7" class="clusterblast-orf" id="subclusterblast-1_q6_0_all"  />
<polygon points="188,40 225,40 230,35 225,30 188,30 188,40 " style="fill:white; stroke-width:1; stroke:black; " description="&lt;b&gt;ctg66_8&lt;/b&gt;&lt;br&gt;ctg66 8&lt;br&gt;Location: 7083 - 8667" locus_tag="ctg66_8" class="clusterblast-orf" id="subclusterblast-1_q7_0_all"  />
<polygon points="233,40 238,40 243,35 238,30 233,30 233,40 " style="fill:white; stroke-width:1; stroke:black; " description="&lt;b&gt;ctg66_9&lt;/b&gt;&lt;br&gt;ctg66 9&lt;br&gt;Location: 8792 - 9152" locus_tag="ctg66_9" class="clusterblast-orf" id="subclusterblast-1_q8_0_all"  />
<polygon points="242,35 247,30 252,30 252,40 247,40 242,35 " style="fill:white; stroke-width:1; stroke:black; " description="&lt;b&gt;ctg66_10&lt;/b&gt;&lt;br&gt;ctg66 10&lt;br&gt;Location: 9126 - 9516" locus_tag="ctg66_10" class="clusterblast-orf" id="subclusterblast-1_q9_0_all"  />
<polygon points="278,40 278,40 283,35 278,30 278,30 278,40 " style="fill:white; stroke-width:1; stroke:black; " description="&lt;b&gt;ctg66_11&lt;/b&gt;&lt;br&gt;ctg66 11&lt;br&gt;Location: 10465 - 10663" locus_tag="ctg66_11" class="clusterblast-orf" id="subclusterblast-1_q10_0_all"  />
<polygon points="285,40 285,40 290,35 285,30 285,30 285,40 " style="fill:white; stroke-width:1; stroke:black; " description="&lt;b&gt;ctg66_12&lt;/b&gt;&lt;br&gt;ctg66 12&lt;br&gt;Location: 10750 - 10948" locus_tag="ctg66_12" class="clusterblast-orf" id="subclusterblast-1_q11_0_all"  />
<polygon points="293,40 293,40 298,35 293,30 293,30 293,40 " style="fill:white; stroke-width:1; stroke:black; " description="&lt;b&gt;ctg66_13&lt;/b&gt;&lt;br&gt;ctg66 13&lt;br&gt;Location: 11035 - 11233" locus_tag="ctg66_13" class="clusterblast-orf" id="subclusterblast-1_q12_0_all"  />
<polygon points="307,40 333,40 338,35 333,30 307,30 307,40 " style="fill:white; stroke-width:1; stroke:black; " description="&lt;b&gt;ctg66_14&lt;/b&gt;&lt;br&gt;ctg66 14&lt;br&gt;Location: 11587 - 12751" locus_tag="ctg66_14" class="clusterblast-orf" id="subclusterblast-1_q13_0_all"  />
<polygon points="338,40 364,40 369,35 364,30 338,30 338,40 " style="fill:white; stroke-width:1; stroke:black; " description="&lt;b&gt;ctg66_15&lt;/b&gt;&lt;br&gt;ctg66 15&lt;br&gt;Location: 12757 - 13897" locus_tag="ctg66_15" class="clusterblast-orf" id="subclusterblast-1_q14_0_all"  />
<polygon points="369,40 391,40 396,35 391,30 369,30 369,40 " style="fill:white; stroke-width:1; stroke:black; " description="&lt;b&gt;ctg66_16&lt;/b&gt;&lt;br&gt;ctg66 16&lt;br&gt;Location: 13893 - 14931" locus_tag="ctg66_16" class="clusterblast-orf" id="subclusterblast-1_q15_0_all"  />
<polygon points="404,40 419,40 424,35 419,30 404,30 404,40 " style="fill:white; stroke-width:1; stroke:black; " description="&lt;b&gt;ctg66_17&lt;/b&gt;&lt;br&gt;ctg66 17&lt;br&gt;Location: 15212 - 15995" locus_tag="ctg66_17" class="clusterblast-orf" id="subclusterblast-1_q16_0_all"  />
<polygon points="430,35 435,30 451,30 451,40 435,40 430,35 " style="fill:white; stroke-width:1; stroke:black; " description="&lt;b&gt;ctg66_18&lt;/b&gt;&lt;br&gt;ctg66 18&lt;br&gt;Location: 16201 - 16990" locus_tag="ctg66_18" class="clusterblast-orf" id="subclusterblast-1_q17_0_all"  />
<polygon points="452,35 457,30 492,30 492,40 457,40 452,35 " style="fill:white; stroke-width:1; stroke:black; " description="&lt;b&gt;ctg66_19&lt;/b&gt;&lt;br&gt;ctg66 19&lt;br&gt;Location: 17044 - 18556" locus_tag="ctg66_19" class="clusterblast-orf" id="subclusterblast-1_q18_0_all"  />
<polygon points="494,35 499,30 576,30 576,40 499,40 494,35 " style="fill:white; stroke-width:1; stroke:black; " description="&lt;b&gt;ctg66_20&lt;/b&gt;&lt;br&gt;ctg66 20&lt;br&gt;Location: 18616 - 21715" locus_tag="ctg66_20" class="clusterblast-orf" id="subclusterblast-1_q19_0_all"  />
<polygon points="577,35 582,30 592,30 592,40 582,40 577,35 " style="fill:white; stroke-width:1; stroke:black; " description="&lt;b&gt;ctg66_21&lt;/b&gt;&lt;br&gt;ctg66 21&lt;br&gt;Location: 21722 - 22319" locus_tag="ctg66_21" class="clusterblast-orf" id="subclusterblast-1_q20_0_all"  />
<polygon points="610,40 614,40 619,35 614,30 610,30 610,40 " style="fill:white; stroke-width:1; stroke:black; " description="&lt;b&gt;ctg66_22&lt;/b&gt;&lt;br&gt;ctg66 22&lt;br&gt;Location: 22992 - 23337" locus_tag="ctg66_22" class="clusterblast-orf" id="subclusterblast-1_q21_0_all"  />
<polygon points="619,35 624,30 649,30 649,40 624,40 619,35 " style="fill:white; stroke-width:1; stroke:black; " description="&lt;b&gt;ctg66_23&lt;/b&gt;&lt;br&gt;ctg66 23&lt;br&gt;Location: 23325 - 24441" locus_tag="ctg66_23" class="clusterblast-orf" id="subclusterblast-1_q22_0_all"  />
<polygon points="656,35 661,30 693,30 693,40 661,40 656,35 " style="fill:white; stroke-width:1; stroke:black; " description="&lt;b&gt;ctg66_24&lt;/b&gt;&lt;br&gt;ctg66 24&lt;br&gt;Location: 24708 - 26112" locus_tag="ctg66_24" class="clusterblast-orf" id="subclusterblast-1_q23_0_all"  />
<polygon points="695,35 700,30 717,30 717,40 700,40 695,35 " style="fill:white; stroke-width:1; stroke:black; " description="&lt;b&gt;ctg66_25&lt;/b&gt;&lt;br&gt;ctg66 25&lt;br&gt;Location: 26183 - 27017" locus_tag="ctg66_25" class="clusterblast-orf" id="subclusterblast-1_q24_0_all"  />
<polygon points="717,35 722,30 750,30 750,40 722,40 717,35 " style="fill:white; stroke-width:1; stroke:black; " description="&lt;b&gt;ctg66_26&lt;/b&gt;&lt;br&gt;ctg66 26&lt;br&gt;Location: 27021 - 28251" locus_tag="ctg66_26" class="clusterblast-orf" id="subclusterblast-1_q25_0_all"  />
<polygon points="759,35 763,30 763,40 759,35 " style="fill:white; stroke-width:1; stroke:black; " description="&lt;b&gt;ctg66_27&lt;/b&gt;&lt;br&gt;ctg66 27&lt;br&gt;Location: 28590 - 28737" locus_tag="ctg66_27" class="clusterblast-orf" id="subclusterblast-1_q26_0_all"  />
<polygon points="776,35 780,30 780,40 776,35 " style="fill:white; stroke-width:1; stroke:black; " description="&lt;b&gt;ctg66_28&lt;/b&gt;&lt;br&gt;ctg66 28&lt;br&gt;Location: 29242 - 29377" locus_tag="ctg66_28" class="clusterblast-orf" id="subclusterblast-1_q27_0_all"  />
</g>
</svg>
