<svg xmlns="http://www.w3.org/2000/svg" xmlns:xlink="http://www.w3.org/1999/xlink" version="1.1" x="0" y="0" height="50" width="800" viewBox="0 0 800 50" preserveAspectRatio="none"  >
<g label="Query sequence" class="clusterblast-cluster"  >
<text x="5" y="20" class="clusterblast-acc"  >
Query sequence</text>
<line x1="10" y1="35" x2="778.0" y2="35" style="stroke-width:1; stroke:grey; "  />
<polygon points="0,35 5,30 47,30 47,40 5,40 0,35 " style="fill:white; stroke-width:1; stroke:black; " description="&lt;b&gt;ctg5_153&lt;/b&gt;&lt;br&gt;ctg5 153&lt;br&gt;Location: 172608 - 173844" locus_tag="ctg5_153" class="clusterblast-orf" id="subclusterblast-1_q0_0_all"  />
<polygon points="54,35 59,30 94,30 94,40 59,40 54,35 " style="fill:white; stroke-width:1; stroke:black; " description="&lt;b&gt;ctg5_154&lt;/b&gt;&lt;br&gt;ctg5 154&lt;br&gt;Location: 174022 - 175075" locus_tag="ctg5_154" class="clusterblast-orf" id="subclusterblast-1_q1_0_all"  />
<polygon points="93,35 98,30 123,30 123,40 98,40 93,35 " style="fill:white; stroke-width:1; stroke:black; " description="&lt;b&gt;ctg5_155&lt;/b&gt;&lt;br&gt;ctg5 155&lt;br&gt;Location: 175071 - 175839" locus_tag="ctg5_155" class="clusterblast-orf" id="subclusterblast-1_q2_0_all"  />
<polygon points="123,40 154,40 159,35 154,30 123,30 123,40 " style="fill:white; stroke-width:1; stroke:black; " description="&lt;b&gt;ctg5_156&lt;/b&gt;&lt;br&gt;ctg5 156&lt;br&gt;Location: 175854 - 176796" locus_tag="ctg5_156" class="clusterblast-orf" id="subclusterblast-1_q3_0_all"  />
<polygon points="168,40 244,40 249,35 244,30 168,30 168,40 " style="fill:white; stroke-width:1; stroke:black; " description="&lt;b&gt;ctg5_157&lt;/b&gt;&lt;br&gt;ctg5 157&lt;br&gt;Location: 177036 - 179157" locus_tag="ctg5_157" class="clusterblast-orf" id="subclusterblast-1_q4_0_all"  />
<polygon points="271,40 296,40 301,35 296,30 271,30 271,40 " style="fill:white; stroke-width:1; stroke:black; " description="&lt;b&gt;ctg5_158&lt;/b&gt;&lt;br&gt;ctg5 158&lt;br&gt;Location: 179736 - 180531" locus_tag="ctg5_158" class="clusterblast-orf" id="subclusterblast-1_q5_0_all"  />
<polygon points="306,35 311,30 356,30 356,40 311,40 306,35 " style="fill:white; stroke-width:1; stroke:black; " description="&lt;b&gt;ctg5_159&lt;/b&gt;&lt;br&gt;ctg5 159&lt;br&gt;Location: 180654 - 181977" locus_tag="ctg5_159" class="clusterblast-orf" id="subclusterblast-1_q6_0_all"  />
<polygon points="372,35 377,30 407,30 407,40 377,40 372,35 " style="fill:white; stroke-width:1; stroke:black; " description="&lt;b&gt;ctg5_160&lt;/b&gt;&lt;br&gt;ctg5 160&lt;br&gt;Location: 182391 - 183324" locus_tag="ctg5_160" class="clusterblast-orf" id="subclusterblast-1_q7_0_all"  />
<polygon points="406,35 411,30 461,30 461,40 411,40 406,35 " style="fill:white; stroke-width:1; stroke:black; " description="&lt;b&gt;ctg5_161&lt;/b&gt;&lt;br&gt;ctg5 161&lt;br&gt;Location: 183307 - 184747" locus_tag="ctg5_161" class="clusterblast-orf" id="subclusterblast-1_q8_0_all"  />
<polygon points="467,35 472,30 501,30 501,40 472,40 467,35 " style="fill:white; stroke-width:1; stroke:black; " description="&lt;b&gt;ctg5_162&lt;/b&gt;&lt;br&gt;ctg5 162&lt;br&gt;Location: 184905 - 185793" locus_tag="ctg5_162" class="clusterblast-orf" id="subclusterblast-1_q9_0_all"  />
<polygon points="507,40 507,40 512,35 507,30 507,30 507,40 " style="fill:white; stroke-width:1; stroke:black; " description="&lt;b&gt;ctg5_163&lt;/b&gt;&lt;br&gt;ctg5 163&lt;br&gt;Location: 185962 - 186076" locus_tag="ctg5_163" class="clusterblast-orf" id="subclusterblast-1_q10_0_all"  />
<polygon points="513,40 557,40 562,35 557,30 513,30 513,40 " style="fill:white; stroke-width:1; stroke:black; " description="&lt;b&gt;ctg5_164&lt;/b&gt;&lt;br&gt;ctg5 164&lt;br&gt;Location: 186127 - 187396" locus_tag="ctg5_164" class="clusterblast-orf" id="subclusterblast-1_q11_0_all"  />
<polygon points="570,40 606,40 611,35 606,30 570,30 570,40 " style="fill:white; stroke-width:1; stroke:black; " description="&lt;b&gt;ctg5_165&lt;/b&gt;&lt;br&gt;ctg5 165&lt;br&gt;Location: 187604 - 188699" locus_tag="ctg5_165" class="clusterblast-orf" id="subclusterblast-1_q12_0_all"  />
<polygon points="617,35 622,30 675,30 675,40 622,40 617,35 " style="fill:white; stroke-width:1; stroke:black; " description="&lt;b&gt;ctg5_166&lt;/b&gt;&lt;br&gt;ctg5 166&lt;br&gt;Location: 188856 - 190389" locus_tag="ctg5_166" class="clusterblast-orf" id="subclusterblast-1_q13_0_all"  />
<polygon points="689,40 709,40 714,35 709,30 689,30 689,40 " style="fill:white; stroke-width:1; stroke:black; " description="&lt;b&gt;ctg5_167&lt;/b&gt;&lt;br&gt;ctg5 167&lt;br&gt;Location: 190759 - 191410" locus_tag="ctg5_167" class="clusterblast-orf" id="subclusterblast-1_q14_0_all"  />
<polygon points="717,40 725,40 730,35 725,30 717,30 717,40 " style="fill:white; stroke-width:1; stroke:black; " description="&lt;b&gt;ctg5_168&lt;/b&gt;&lt;br&gt;ctg5 168&lt;br&gt;Location: 191485 - 191836" locus_tag="ctg5_168" class="clusterblast-orf" id="subclusterblast-1_q15_0_all"  />
<polygon points="743,40 749,40 754,35 749,30 743,30 743,40 " style="fill:white; stroke-width:1; stroke:black; " description="&lt;b&gt;ctg5_169&lt;/b&gt;&lt;br&gt;ctg5 169&lt;br&gt;Location: 192169 - 192454" locus_tag="ctg5_169" class="clusterblast-orf" id="subclusterblast-1_q16_0_all"  />
<polygon points="756,35 761,30 780,30 780,40 761,40 756,35 " style="fill:white; stroke-width:1; stroke:black; " description="&lt;b&gt;ctg5_170&lt;/b&gt;&lt;br&gt;ctg5 170&lt;br&gt;Location: 192516 - 193140" locus_tag="ctg5_170" class="clusterblast-orf" id="subclusterblast-1_q17_0_all"  />
</g>
</svg>
