<svg xmlns="http://www.w3.org/2000/svg" xmlns:xlink="http://www.w3.org/1999/xlink" version="1.1" x="0" y="0" height="50" width="800" viewBox="0 0 800 50" preserveAspectRatio="none"  >
<g label="Query sequence" class="clusterblast-cluster"  >
<text x="5" y="20" class="clusterblast-acc"  >
Query sequence</text>
<line x1="10" y1="35" x2="778.0" y2="35" style="stroke-width:1; stroke:grey; "  />
<polygon points="0,35 5,30 46,30 46,40 5,40 0,35 " style="fill:white; stroke-width:1; stroke:black; " description="&lt;b&gt;ctg65_2&lt;/b&gt;&lt;br&gt;ctg65 2&lt;br&gt;Location: 1151 - 2462" locus_tag="ctg65_2" class="clusterblast-orf" id="subclusterblast-1_q0_0_all"  />
<polygon points="52,40 58,40 63,35 58,30 52,30 52,40 " style="fill:white; stroke-width:1; stroke:black; " description="&lt;b&gt;ctg65_3&lt;/b&gt;&lt;br&gt;ctg65 3&lt;br&gt;Location: 2654 - 2948" locus_tag="ctg65_3" class="clusterblast-orf" id="subclusterblast-1_q1_0_all"  />
<polygon points="80,35 85,30 92,30 92,40 85,40 80,35 " style="fill:white; stroke-width:1; stroke:black; " description="&lt;b&gt;ctg65_4&lt;/b&gt;&lt;br&gt;ctg65 4&lt;br&gt;Location: 3441 - 3792" locus_tag="ctg65_4" class="clusterblast-orf" id="subclusterblast-1_q2_0_all"  />
<polygon points="94,35 99,30 121,30 121,40 99,40 94,35 " style="fill:white; stroke-width:1; stroke:black; " description="&lt;b&gt;ctg65_5&lt;/b&gt;&lt;br&gt;ctg65 5&lt;br&gt;Location: 3827 - 4607" locus_tag="ctg65_5" class="clusterblast-orf" id="subclusterblast-1_q3_0_all"  />
<polygon points="121,35 126,30 164,30 164,40 126,40 121,35 " style="fill:white; stroke-width:1; stroke:black; " description="&lt;b&gt;ctg65_6&lt;/b&gt;&lt;br&gt;ctg65 6&lt;br&gt;Location: 4609 - 5827" locus_tag="ctg65_6" class="clusterblast-orf" id="subclusterblast-1_q4_0_all"  />
<polygon points="163,35 168,30 216,30 216,40 168,40 163,35 " style="fill:white; stroke-width:1; stroke:black; " description="&lt;b&gt;ctg65_7&lt;/b&gt;&lt;br&gt;ctg65 7&lt;br&gt;Location: 5823 - 7326" locus_tag="ctg65_7" class="clusterblast-orf" id="subclusterblast-1_q5_0_all"  />
<polygon points="232,40 274,40 279,35 274,30 232,30 232,40 " style="fill:white; stroke-width:1; stroke:black; " description="&lt;b&gt;ctg65_8&lt;/b&gt;&lt;br&gt;ctg65 8&lt;br&gt;Location: 7783 - 9130" locus_tag="ctg65_8" class="clusterblast-orf" id="subclusterblast-1_q6_0_all"  />
<polygon points="279,35 284,30 302,30 302,40 284,40 279,35 " style="fill:white; stroke-width:1; stroke:black; " description="&lt;b&gt;ctg65_9&lt;/b&gt;&lt;br&gt;ctg65 9&lt;br&gt;Location: 9130 - 9781" locus_tag="ctg65_9" class="clusterblast-orf" id="subclusterblast-1_q7_0_all"  />
<polygon points="313,40 315,40 320,35 315,30 313,30 313,40 " style="fill:white; stroke-width:1; stroke:black; " description="&lt;b&gt;ctg65_10&lt;/b&gt;&lt;br&gt;ctg65 10&lt;br&gt;Location: 10089 - 10287" locus_tag="ctg65_10" class="clusterblast-orf" id="subclusterblast-1_q8_0_all"  />
<polygon points="329,40 331,40 336,35 331,30 329,30 329,40 " style="fill:white; stroke-width:1; stroke:black; " description="&lt;b&gt;ctg65_11&lt;/b&gt;&lt;br&gt;ctg65 11&lt;br&gt;Location: 10554 - 10764" locus_tag="ctg65_11" class="clusterblast-orf" id="subclusterblast-1_q9_0_all"  />
<polygon points="344,40 453,40 458,35 453,30 344,30 344,40 " style="fill:white; stroke-width:1; stroke:black; " description="&lt;b&gt;ctg65_12&lt;/b&gt;&lt;br&gt;ctg65 12&lt;br&gt;Location: 10980 - 14235" locus_tag="ctg65_12" class="clusterblast-orf" id="subclusterblast-1_q10_0_all"  />
<polygon points="462,40 464,40 469,35 464,30 462,30 462,40 " style="fill:white; stroke-width:1; stroke:black; " description="&lt;b&gt;ctg65_13&lt;/b&gt;&lt;br&gt;ctg65 13&lt;br&gt;Location: 14345 - 14552" locus_tag="ctg65_13" class="clusterblast-orf" id="subclusterblast-1_q11_0_all"  />
<polygon points="470,40 515,40 520,35 515,30 470,30 470,40 " style="fill:white; stroke-width:1; stroke:black; " description="&lt;b&gt;ctg65_14&lt;/b&gt;&lt;br&gt;ctg65 14&lt;br&gt;Location: 14577 - 16017" locus_tag="ctg65_14" class="clusterblast-orf" id="subclusterblast-1_q12_0_all"  />
<polygon points="528,40 602,40 607,35 602,30 528,30 528,40 " style="fill:white; stroke-width:1; stroke:black; " description="&lt;b&gt;ctg65_15&lt;/b&gt;&lt;br&gt;ctg65 15&lt;br&gt;Location: 16246 - 18484" locus_tag="ctg65_15" class="clusterblast-orf" id="subclusterblast-1_q13_0_all"  />
<polygon points="607,40 705,40 710,35 705,30 607,30 607,40 " style="fill:white; stroke-width:1; stroke:black; " description="&lt;b&gt;ctg65_16&lt;/b&gt;&lt;br&gt;ctg65 16&lt;br&gt;Location: 18491 - 21425" locus_tag="ctg65_16" class="clusterblast-orf" id="subclusterblast-1_q14_0_all"  />
<polygon points="713,35 718,30 780,30 780,40 718,40 713,35 " style="fill:white; stroke-width:1; stroke:black; " description="&lt;b&gt;ctg65_17&lt;/b&gt;&lt;br&gt;ctg65 17&lt;br&gt;Location: 21530 - 23426" locus_tag="ctg65_17" class="clusterblast-orf" id="subclusterblast-1_q15_0_all"  />
</g>
</svg>
